<svg width="22" height="20" viewBox="0 0 22 20" fill="none" xmlns="http://www.w3.org/2000/svg">
<path d="M20.8941 9.16416C19.6468 7.48963 18.1344 6.02999 16.4167 4.84287L19.3547 1.90043C19.442 1.79499 19.4869 1.66076 19.4805 1.52402C19.474 1.38727 19.4168 1.25783 19.32 1.16103C19.2232 1.06423 19.0938 1.00702 18.957 1.0006C18.8203 0.994188 18.6861 1.03902 18.5806 1.12633L15.4513 4.2535C14.0976 3.46312 12.5651 3.03023 10.998 2.9956C5.55516 2.9956 1.27345 8.91126 1.10192 9.15317C1.03563 9.24628 1 9.35774 1 9.47204C1 9.58635 1.03563 9.69781 1.10192 9.79092C2.34832 11.4694 3.86075 12.9328 5.57935 14.1232L2.64131 17.0656C2.58236 17.1145 2.53425 17.1751 2.50007 17.2435C2.46588 17.312 2.44637 17.3869 2.44278 17.4633C2.43919 17.5398 2.45161 17.6161 2.47923 17.6875C2.50686 17.7589 2.54908 17.8237 2.6032 17.8779C2.65732 17.932 2.72215 17.9742 2.79353 18.0018C2.86491 18.0294 2.94127 18.0419 3.01773 18.0383C3.09418 18.0347 3.16905 18.0152 3.23753 17.981C3.30601 17.9468 3.36659 17.8987 3.41541 17.8397L6.54477 14.7126C7.8984 15.503 9.43091 15.9358 10.998 15.9705C16.4409 15.9705 20.7226 10.0548 20.8941 9.81291C20.9629 9.71875 21 9.60515 21 9.48854C21 9.37192 20.9629 9.25832 20.8941 9.16416ZM2.23447 9.48304C3.1867 8.28011 6.80427 4.09516 10.998 4.09516C12.2704 4.12299 13.5174 4.45717 14.6332 5.06938L13.063 6.63956C12.3852 6.15531 11.5576 5.92723 10.7275 5.99588C9.89735 6.06454 9.11848 6.42548 8.52947 7.01449C7.94046 7.6035 7.57952 8.38237 7.51086 9.21252C7.44221 10.0427 7.67029 10.8703 8.15454 11.548L6.37984 13.3227C4.80882 12.2636 3.41059 10.9685 2.23447 9.48304ZM13.0498 8.20754C13.3344 8.6709 13.4545 9.21662 13.3909 9.75664C13.3272 10.2967 13.0835 10.7995 12.699 11.184C12.3145 11.5685 11.8116 11.8122 11.2716 11.8759C10.7316 11.9395 10.1859 11.8194 9.72252 11.5348L13.0498 8.20754ZM8.94623 10.7585C8.66167 10.2952 8.54152 9.74946 8.60518 9.20943C8.66883 8.66941 8.91257 8.16658 9.29707 7.78209C9.68156 7.39759 10.1844 7.15385 10.7244 7.0902C11.2644 7.02654 11.8102 7.14669 12.2735 7.43125L8.94623 10.7585ZM10.998 14.8709C9.7256 14.8431 8.47865 14.5089 7.36285 13.8967L8.93303 12.3265C9.6108 12.8108 10.4384 13.0388 11.2685 12.9702C12.0987 12.9015 12.8776 12.5406 13.4666 11.9516C14.0556 11.3626 14.4165 10.5837 14.4852 9.75356C14.5538 8.92341 14.3257 8.09582 13.8415 7.41805L15.6162 5.64335C17.1872 6.70246 18.5854 7.99759 19.7616 9.48304C18.8093 10.686 15.1918 14.8709 10.998 14.8709Z" fill="black" stroke="black" stroke-width="0.2"/>
</svg>
