<svg width="28" height="25" viewBox="0 0 28 25" fill="none" xmlns="http://www.w3.org/2000/svg">
<g filter="url(#filter0_d)">
<path d="M23.8729 9.61102C23.6942 9.36661 19.4371 3.6264 13.9999 3.6264C8.56274 3.6264 4.30539 9.36661 4.12691 9.61079C3.9577 9.84267 3.9577 10.1572 4.12691 10.389C4.30539 10.6334 8.56274 16.3737 13.9999 16.3737C19.4371 16.3737 23.6942 10.6334 23.8729 10.3892C24.0423 10.1574 24.0423 9.84267 23.8729 9.61102ZM13.9999 15.055C9.99486 15.055 6.52606 11.2451 5.49922 9.99958C6.52473 8.75298 9.98626 4.94508 13.9999 4.94508C18.0048 4.94508 21.4733 8.7543 22.5006 10.0005C21.4751 11.247 18.0135 15.055 13.9999 15.055Z" fill="black"/>
<path d="M13.999 6.04395C11.8177 6.04395 10.043 7.81868 10.043 10C10.043 12.1813 11.8177 13.9561 13.999 13.9561C16.1804 13.9561 17.9551 12.1813 17.9551 10C17.9551 7.81868 16.1804 6.04395 13.999 6.04395ZM13.999 12.6374C12.5447 12.6374 11.3617 11.4543 11.3617 10C11.3617 8.54575 12.5448 7.36266 13.999 7.36266C15.4533 7.36266 16.6364 8.54575 16.6364 10C16.6364 11.4543 15.4533 12.6374 13.999 12.6374Z" fill="black"/>
</g>
<defs>
<filter id="filter0_d" x="0" y="0" width="28" height="28" filterUnits="userSpaceOnUse" color-interpolation-filters="sRGB">
<feFlood flood-opacity="0" result="BackgroundImageFix"/>
<feColorMatrix in="SourceAlpha" type="matrix" values="0 0 0 0 0 0 0 0 0 0 0 0 0 0 0 0 0 0 127 0"/>
<feOffset dy="4"/>
<feGaussianBlur stdDeviation="2"/>
<feColorMatrix type="matrix" values="0 0 0 0 0 0 0 0 0 0 0 0 0 0 0 0 0 0 0.25 0"/>
<feBlend mode="normal" in2="BackgroundImageFix" result="effect1_dropShadow"/>
<feBlend mode="normal" in="SourceGraphic" in2="effect1_dropShadow" result="shape"/>
</filter>
</defs>
</svg>
