<svg width="20" height="20" viewBox="0 0 20 20" fill="none" xmlns="http://www.w3.org/2000/svg">
<path d="M0.126914 9.61079L0.53058 9.90584C0.607718 9.80031 1.68884 8.3405 3.41068 6.91182C5.14144 5.47573 7.45295 4.1264 9.9999 4.1264C12.5469 4.1264 14.8583 5.47572 16.589 6.91184C18.3109 8.34055 19.392 9.80041 19.4692 9.9061L19.4693 9.90624C19.5101 9.96194 19.5103 10.0378 19.4694 10.094C19.392 10.1998 18.3108 11.6596 16.589 13.0882C14.8583 14.5243 12.5469 15.8737 9.9999 15.8737C7.45295 15.8737 5.14144 14.5243 3.41068 13.0882C1.68883 11.6595 0.607715 10.1996 0.530715 10.0942C0.489734 10.0379 0.489762 9.96177 0.530799 9.90554L0.126914 9.61079ZM0.126914 9.61079C0.305391 9.36661 4.56274 3.6264 9.9999 3.6264C15.4371 3.6264 19.6942 9.36661 19.8729 9.61102L0.126914 9.61079ZM1.11309 9.68193L0.851493 9.99993L1.11343 10.3176C1.64038 10.9568 2.79366 12.2544 4.33514 13.3961C5.86978 14.5328 7.84315 15.555 9.9999 15.555C12.1608 15.555 14.1344 14.5335 15.6684 13.3969C17.2092 12.2555 18.3604 10.9579 18.8867 10.3181L19.1483 10.0002L18.8864 9.68244C18.3592 9.04291 17.2059 7.74529 15.6644 6.60366C14.1298 5.4671 12.1565 4.44508 9.9999 4.44508C7.83905 4.44508 5.86541 5.46658 4.33137 6.6031C2.79064 7.74457 1.63943 9.04211 1.11309 9.68193Z" fill="black" stroke="black"/>
<path d="M9.99902 6.04395C7.8177 6.04395 6.04297 7.81868 6.04297 10C6.04297 12.1813 7.8177 13.9561 9.99902 13.9561C12.1804 13.9561 13.9551 12.1813 13.9551 10C13.9551 7.81868 12.1804 6.04395 9.99902 6.04395ZM9.99902 12.6374C8.54473 12.6374 7.36168 11.4543 7.36168 10C7.36168 8.54575 8.54477 7.36266 9.99902 7.36266C11.4533 7.36266 12.6364 8.54575 12.6364 10C12.6364 11.4543 11.4533 12.6374 9.99902 12.6374Z" fill="black"/>
</svg>
