<svg width="20" height="20" viewBox="0 0 20 20" fill="none" xmlns="http://www.w3.org/2000/svg">
<path d="M11.3398 9.99998L18.7225 2.61725C19.0925 2.24727 19.0925 1.64744 18.7225 1.27749C18.3526 0.907504 17.7527 0.907504 17.3827 1.27749L9.99998 8.66021L2.61725 1.27749C2.24727 0.907504 1.64744 0.907504 1.27749 1.27749C0.907539 1.64747 0.907504 2.24731 1.27749 2.61725L8.66022 9.99998L1.27749 17.3827C0.907504 17.7527 0.907504 18.3525 1.27749 18.7225C1.64747 19.0925 2.24731 19.0924 2.61725 18.7225L9.99998 11.3397L17.3827 18.7225C17.7527 19.0925 18.3525 19.0924 18.7225 18.7225C19.0924 18.3525 19.0924 17.7527 18.7225 17.3827L11.3398 9.99998Z" fill="black"/>
</svg>
