<svg width="25" height="25" viewBox="0 0 25 25" fill="none" xmlns="http://www.w3.org/2000/svg">
<mask id="mask0" mask-type="alpha" maskUnits="userSpaceOnUse" x="1" y="1" width="24" height="23">
<path d="M1 1H24.0027V24H1V1Z" fill="white"/>
</mask>
<g mask="url(#mask0)">
<path fill-rule="evenodd" clip-rule="evenodd" d="M12.5014 1C9.37779 1 8.98611 1.01324 7.75937 1.06921C6.53518 1.12505 5.69911 1.31949 4.96754 1.60383C4.21122 1.89771 3.56982 2.29098 2.93037 2.93037C2.29098 3.56982 1.89771 4.21122 1.60383 4.96754C1.31949 5.69911 1.12505 6.53518 1.06921 7.75937C1.01324 8.98611 1 9.37779 1 12.5014C1 15.625 1.01324 16.0166 1.06921 17.2434C1.12505 18.4676 1.31949 19.3036 1.60383 20.0352C1.89771 20.7915 2.29098 21.4329 2.93037 22.0724C3.56982 22.7118 4.21122 23.105 4.96754 23.399C5.69911 23.6832 6.53518 23.8777 7.75937 23.9335C8.98611 23.9895 9.37779 24.0027 12.5014 24.0027C15.625 24.0027 16.0166 23.9895 17.2434 23.9335C18.4676 23.8777 19.3036 23.6832 20.0352 23.399C20.7915 23.105 21.4329 22.7118 22.0724 22.0724C22.7118 21.4329 23.105 20.7915 23.399 20.0352C23.6832 19.3036 23.8777 18.4676 23.9335 17.2434C23.9895 16.0166 24.0027 15.625 24.0027 12.5014C24.0027 9.37779 23.9895 8.98611 23.9335 7.75937C23.8777 6.53518 23.6832 5.69911 23.399 4.96754C23.105 4.21122 22.7118 3.56982 22.0724 2.93037C21.4329 2.29098 20.7915 1.89771 20.0352 1.60383C19.3036 1.31949 18.4676 1.12505 17.2434 1.06921C16.0166 1.01324 15.625 1 12.5014 1ZM12.5014 3.07232C15.5724 3.07232 15.9361 3.08405 17.1489 3.13938C18.2703 3.19052 18.8793 3.37788 19.2845 3.53539C19.8214 3.74403 20.2045 3.99326 20.607 4.39576C21.0095 4.7982 21.2587 5.18134 21.4673 5.71819C21.6249 6.12347 21.8122 6.73246 21.8634 7.85383C21.9187 9.0666 21.9304 9.43038 21.9304 12.5014C21.9304 15.5724 21.9187 15.9361 21.8634 17.1489C21.8122 18.2703 21.6249 18.8793 21.4673 19.2845C21.2587 19.8214 21.0095 20.2045 20.607 20.607C20.2045 21.0095 19.8214 21.2587 19.2845 21.4673C18.8793 21.6249 18.2703 21.8122 17.1489 21.8634C15.9363 21.9187 15.5726 21.9304 12.5014 21.9304C9.43015 21.9304 9.06647 21.9187 7.85383 21.8634C6.73246 21.8122 6.12347 21.6249 5.71819 21.4673C5.18134 21.2587 4.7982 21.0095 4.39576 20.607C3.99331 20.2045 3.74403 19.8214 3.53539 19.2845C3.37788 18.8793 3.19052 18.2703 3.13938 17.1489C3.08405 15.9361 3.07232 15.5724 3.07232 12.5014C3.07232 9.43038 3.08405 9.0666 3.13938 7.85383C3.19052 6.73246 3.37788 6.12347 3.53539 5.71819C3.74403 5.18134 3.99326 4.7982 4.39576 4.39576C4.7982 3.99326 5.18134 3.74403 5.71819 3.53539C6.12347 3.37788 6.73246 3.19052 7.85383 3.13938C9.0666 3.08405 9.43038 3.07232 12.5014 3.07232Z" fill="#0A0B09"/>
</g>
<path fill-rule="evenodd" clip-rule="evenodd" d="M12.5018 16.3353C10.3845 16.3353 8.66802 14.6188 8.66802 12.5015C8.66802 10.3841 10.3845 8.66767 12.5018 8.66767C14.6192 8.66767 16.3356 10.3841 16.3356 12.5015C16.3356 14.6188 14.6192 16.3353 12.5018 16.3353ZM12.5018 6.59536C9.23994 6.59536 6.5957 9.23959 6.5957 12.5015C6.5957 15.7633 9.23994 18.4076 12.5018 18.4076C15.7637 18.4076 18.4079 15.7633 18.4079 12.5015C18.4079 9.23959 15.7637 6.59536 12.5018 6.59536Z" fill="#0A0B09"/>
<path fill-rule="evenodd" clip-rule="evenodd" d="M20.0201 6.36195C20.0201 7.1242 19.4022 7.74209 18.6399 7.74209C17.8777 7.74209 17.2598 7.1242 17.2598 6.36195C17.2598 5.5997 17.8777 4.98176 18.6399 4.98176C19.4022 4.98176 20.0201 5.5997 20.0201 6.36195Z" fill="#0A0B09"/>
</svg>
