<svg width="25" height="25" viewBox="0 0 25 25" fill="none" xmlns="http://www.w3.org/2000/svg">
<path fill-rule="evenodd" clip-rule="evenodd" d="M8.66267 0H16.3373C23.3416 0 25 1.65843 25 8.66267V16.3373C25 23.3416 23.3416 25 16.3373 25H8.66267C1.65843 25 0 23.3416 0 16.3373V8.66267C0 1.65843 1.65843 0 8.66267 0Z" fill="#4680C2"/>
<path fill-rule="evenodd" clip-rule="evenodd" d="M20.466 8.60974C20.5895 8.2216 20.466 7.93931 19.9191 7.93931H18.1018C17.8672 7.93931 17.6972 8.00391 17.5706 8.10244C17.3388 8.28281 17.2527 8.58613 17.1294 8.85271C16.7985 9.56794 16.0345 11.0887 15.0673 12.1736C14.6438 12.597 14.4497 12.7382 14.2204 12.7382C14.0969 12.7382 13.9381 12.597 13.9381 12.2089V8.5921C13.9381 8.13338 13.797 7.92167 13.4088 7.92167H10.5507C10.2684 7.92167 10.0919 8.13338 10.0919 8.3451C10.0919 8.78617 10.7447 8.89203 10.8153 10.127V12.8088C10.8153 13.391 10.7095 13.4968 10.4801 13.4968C9.86259 13.4968 8.36294 11.2209 7.46316 8.62739C7.28673 8.11574 7.1103 7.92167 6.65158 7.92167H4.81672C4.28743 7.92167 4.19922 8.16867 4.19922 8.43331C4.19922 8.90967 4.81672 11.3091 7.07501 14.4848C8.57466 16.6549 10.7095 17.8193 12.6325 17.8193C13.797 17.8193 13.9381 17.5547 13.9381 17.1136V15.4728C13.9381 14.9435 14.044 14.8553 14.4145 14.8553C14.6791 14.8553 15.1555 14.9965 16.2317 16.0374C17.4667 17.2724 17.6784 17.837 18.3665 17.837H20.1837C20.713 17.837 20.96 17.5723 20.8188 17.0607C20.6601 16.5491 20.0602 15.808 19.2839 14.9259C18.8605 14.4319 18.2253 13.885 18.0313 13.6203C17.7959 13.3066 18.3123 12.3921 18.5301 12.0659C19.1951 11.0698 20.3074 9.34186 20.466 8.60974Z" fill="white"/>
</svg>
