<svg width="225" height="96" viewBox="0 0 225 96" fill="none" xmlns="http://www.w3.org/2000/svg">
<g opacity="0.6">
<path d="M123.363 20.368C123.363 20.368 113.611 32.7297 101.548 34.2317C89.4852 35.7337 75.9586 40.9238 76.5231 46.1139C77.0877 51.304 90.7279 47.2069 90.7279 47.2069C90.7279 47.2069 76.3107 50.5459 75.0593 50.895C72.6758 51.5613 68.5201 57.178 75.0593 58.5425C81.1475 59.9071 79.6603 58.0207 88.2484 57.312C83.5979 58.3345 77.8938 58.814 77.3147 61.9556C76.6395 66.0526 83.0624 67.6922 88.4754 67.1456C87.0086 69.1942 84.5291 70.8337 91.2924 72.0607C98.0558 73.2912 122.743 74.9484 138.976 66.1972C155.209 57.446 163.099 50.2532 166.708 49.2061C170.316 48.1589 197.707 49.2519 218.506 57.446C226.454 51.7094 223.439 24.1231 223.439 24.1231C223.439 24.1231 182.266 18.115 173.922 12.3784C166.201 7.06849 146.703 -3.85462 122.929 3.42628C119.699 4.41705 116.655 6.15882 113.948 8.51409C104.831 16.4614 94.1095 21.1508 94.1095 21.1508C94.1095 21.1508 100.084 29.5882 118.063 17.5685C119.294 18.7497 121.192 19.6629 123.363 20.368C130.24 22.6034 139.875 22.7586 139.875 22.7586L123.363 20.368Z" fill="#EFC5A7"/>
<path d="M123.363 20.368C123.363 20.368 113.611 32.7297 101.548 34.2317C89.4852 35.7337 75.9586 40.9238 76.5231 46.1139C77.0877 51.304 90.7279 47.2069 90.7279 47.2069C90.7279 47.2069 76.3107 50.5459 75.0593 50.8949C72.6758 51.5613 68.5201 57.178 75.0593 58.5425C81.1475 59.9071 79.6603 58.0207 88.2484 57.312C83.5979 58.3345 77.8938 58.814 77.3147 61.9556C76.6395 66.0526 83.0624 67.6922 88.4754 67.1456C87.0086 69.1942 84.5291 70.8337 91.2924 72.0607C98.0558 73.2912 122.743 74.9484 138.976 66.1972C155.209 57.446 163.099 50.2532 166.708 49.2061C170.316 48.1589 197.707 49.2519 218.506 57.446C226.454 51.7094 223.439 24.1231 223.439 24.1231C223.439 24.1231 182.266 18.115 173.922 12.3784C166.201 7.06849 146.703 -3.85462 122.929 3.42628C119.699 4.41705 116.655 6.15882 113.948 8.51409C104.831 16.4614 94.1095 21.1508 94.1095 21.1508C94.1095 21.1508 100.084 29.5882 118.063 17.5685C119.294 18.7497 121.192 19.6629 123.363 20.368ZM123.363 20.368C130.24 22.6034 139.875 22.7586 139.875 22.7586" stroke="#DCA886" stroke-miterlimit="10"/>
<path d="M90.7285 47.207C90.7285 47.207 106.397 44.887 113.16 39.5594L90.7285 47.207Z" fill="#EFC5A7"/>
<path d="M90.7285 47.207C90.7285 47.207 106.397 44.887 113.16 39.5594" stroke="#DCA886" stroke-miterlimit="10"/>
<path d="M88.249 57.312C88.249 57.312 102.791 57.9044 116.542 49.2096L88.249 57.312Z" fill="#EFC5A7"/>
<path d="M88.249 57.312C88.249 57.312 102.791 57.9044 116.542 49.2096" stroke="#DCA886" stroke-miterlimit="10"/>
<path d="M88.4717 67.1457C88.4717 67.1457 110.566 65.2347 120.824 58.8141L88.4717 67.1457Z" fill="#EFC5A7"/>
<path d="M88.4717 67.1457C88.4717 67.1457 110.566 65.2347 120.824 58.8141" stroke="#DCA886" stroke-miterlimit="10"/>
<path d="M35.7559 47.9509C37.0596 46.9989 38.3139 46.3395 39.4373 46.1139C43.7211 46.1139 41.8033 50.3484 41.2416 51.8505C41.0845 52.2665 40.5199 52.7496 39.7865 53.2255" fill="#FDE5D0"/>
<path d="M35.7559 47.9509C37.0596 46.9989 38.3139 46.3395 39.4373 46.1139C43.7211 46.1139 41.8033 50.3484 41.2416 51.8505C41.0845 52.2665 40.5199 52.7496 39.7865 53.2255" stroke="#E2BDA2" stroke-miterlimit="10"/>
<path d="M49.5626 38.089C49.0824 34.5208 47.671 31.0091 45.2293 28.9324C42.7906 26.8556 39.2401 26.5312 36.8683 28.7243C34.7933 30.6459 33.9755 33.999 33.8562 37.1582C33.635 42.9759 35.4248 48.8676 38.7046 53.1233C41.9844 57.379 46.7135 59.9458 51.5212 60.0728C51.5212 60.0728 52.598 60.0975 53.4623 59.6884C57.9411 57.5729 61.8 53.4688 63.7964 48.173C65.7928 42.8771 65.9471 36.6011 64.2155 31.1678C63.2726 28.2166 61.6225 25.3501 59.1518 24.3276C56.3288 23.1605 53.0461 24.8283 51.2767 27.7371C49.5015 30.6495 49.0824 34.5244 49.5626 38.089Z" fill="#E23531"/>
<path d="M39.9531 52.9083C38.0411 54.1459 34.8137 55.6726 34.8137 55.6726C34.8137 55.6726 45.7474 48.5715 56.2328 50.345C61.0813 52.3935 57.3591 55.3976 56.6839 55.3976C56.0088 55.3976 46.3119 56.6281 45.9744 57.4461C45.6368 58.2641 57.6967 54.8511 60.6302 55.6691C63.5607 56.4871 62.7721 61.1306 58.7153 61.8146C54.6584 62.4987 48.2327 64.1347 48.2327 64.1347C48.2327 64.1347 56.0117 62.6326 59.0557 63.5882C62.0998 64.5437 63.7907 68.6407 59.1692 69.8712C53.9833 70.2802 47.7845 70.6892 47.7845 70.6892C47.7845 70.6892 57.5919 69.0497 59.1692 74.1023C58.4941 77.1063 54.0968 76.1508 51.7278 76.8348C49.3618 77.5188 36.8479 85.3039 28.6179 85.3039C21.0659 89.676 1 95 1 95V71.7822C1 71.7822 19.1481 65.7742 23.2078 66.1832C23.3009 62.1743 29.9915 52.1644 35.7595 47.9439" fill="#FDE5D0"/>
<path d="M39.9531 52.9083C38.0411 54.1459 34.8137 55.6726 34.8137 55.6726C34.8137 55.6726 45.7474 48.5715 56.2328 50.345C61.0813 52.3935 57.3591 55.3976 56.6839 55.3976C56.0088 55.3976 46.3119 56.6281 45.9744 57.4461C45.6368 58.2641 57.6967 54.8511 60.6302 55.6691C63.5607 56.4871 62.7721 61.1306 58.7153 61.8146C54.6584 62.4987 48.2327 64.1347 48.2327 64.1347C48.2327 64.1347 56.0117 62.6326 59.0557 63.5882C62.0998 64.5437 63.7907 68.6407 59.1692 69.8712C53.9833 70.2802 47.7845 70.6892 47.7845 70.6892C47.7845 70.6892 57.5919 69.0497 59.1692 74.1023C58.4941 77.1063 54.0968 76.1508 51.7278 76.8348C49.3618 77.5188 36.8479 85.3039 28.6179 85.3039C21.0659 89.676 1 95 1 95V71.7822C1 71.7822 19.1481 65.7742 23.2078 66.1832C23.3009 62.1743 29.9915 52.1644 35.7595 47.9439" stroke="#E2BDA2" stroke-miterlimit="10"/>
</g>
</svg>
