<svg width="161" height="142" viewBox="0 0 161 142" fill="none" xmlns="http://www.w3.org/2000/svg">
<g opacity="0.6">
<path d="M16.1424 135.662C16.1424 135.662 5.61078 131.099 8.38979 105.187C6.39005 98.7582 3.46207 103.749 3.46207 103.749C3.46207 103.749 2.09834 139.553 18.5776 140.032C19.947 135.521 16.1424 135.662 16.1424 135.662Z" fill="#D0CBB8"/>
<path d="M0 96.8353C0.200547 102.373 5.02514 106.213 9.08765 104.916L10.8238 103.574L13.6028 89.8934L15.3562 75.6881L16.7485 65.6559L17.5164 57.1745L18.8743 23.8296C18.8743 23.8409 0.928246 45.1008 0 96.8353Z" fill="#746D5A"/>
<path d="M17.5174 57.2026C17.5174 57.2026 11.8506 95.9725 11.4094 99.9087C10.6301 103.315 9.09446 104.916 9.09446 104.916L9.08301 104.922C9.08874 104.922 9.08873 104.922 9.09446 104.916C10.9395 104.324 12.6298 102.666 13.6498 99.621C14.7728 90.1189 16.8184 74.2783 16.8184 74.2783L17.5117 57.1801L17.5174 57.2026Z" fill="#595642"/>
<path d="M119.377 140.269C119.377 140.269 118.448 141.898 114.3 141.949C110.157 142 109.47 142 110.157 142C110.839 142 110.839 142 110.839 142L20.7361 141.724C20.7361 141.724 16.0548 141.182 16.0204 135.171C15.986 129.159 16.0949 33.3035 16.0949 33.3035C16.0949 33.3035 15.4588 19.6621 25.9962 9.29719C31.6516 3.29703 38.3327 2 53.8436 2C69.3544 2 89.392 2 89.392 2C89.392 2 112.506 7.27833 114.334 29.8128C114.409 51.4844 114.552 76.2971 114.552 76.2971C114.552 76.2971 123.989 57.1462 130.424 57.3379C133.713 57.0278 140.371 56.5203 144.542 62.9264C148.714 69.3326 153.464 76.0997 153.939 76.534C154.415 76.9682 159.538 82.6525 158.953 89.4196C158.369 96.1867 152.879 102.379 152.879 102.379C152.879 102.379 148.33 107.634 139.89 108.785C130.934 109.287 121.56 109.721 121.56 109.721L119.377 140.269Z" fill="#A59F8F"/>
<path d="M75.6985 19.0476C75.624 18.6923 75.263 18.4667 74.9077 18.5457L30.6441 27.9745C30.2831 28.0534 30.054 28.4031 30.1342 28.7583L37.1476 60.1802C42.3217 55.5955 53.9878 54.3831 60.2048 64.8439C61.219 66.6259 62.2045 68.2838 63.1729 69.8459L74.0253 71.0978C74.1285 71.1091 74.2259 71.0978 74.3233 71.064L85.5711 67.2011C85.8862 67.094 86.0753 66.7669 86.0066 66.4454L75.6985 19.0476Z" fill="#007B42"/>
<path d="M122.838 68.4473L131.227 57.2703L128.396 57.3379L120.352 68.1822L122.838 68.4473Z" fill="#908B7B"/>
<path d="M97.7237 16.7861L98.6004 18.9685L91.0427 67.6804L89.3867 67.7762L97.7237 16.7861Z" fill="#99947B"/>
<path d="M90.7052 32.3336L90.5906 34.1551L83.984 43.2399L83.623 41.1027L90.7052 32.3336Z" fill="#99947B"/>
<path d="M81.0498 36.7265L89.192 70.0601L97.7238 16.7861L81.0498 36.7265ZM86.1208 57.338L82.7573 42.174L90.7047 32.3335L86.1208 57.338Z" fill="#FFC774"/>
<path d="M78.9023 20.886L89.9209 71.1148L86.7294 71.3065L75.7451 19.2562L78.9023 20.886L89.1932 68.4248L78.9023 20.886Z" fill="#F8F3E6"/>
<path d="M97.4082 45.3883L98.6974 45.0273L102.233 68.4471H101.087L97.4082 45.3883Z" fill="#098A4E"/>
<path d="M98.6982 45.0274L99.9703 44.8357L103.649 68.4472H102.234L98.6982 45.0274Z" fill="#016738"/>
<path d="M101.041 45.0274L104.697 68.4472H103.648L99.9697 44.8357L101.041 45.0274Z" fill="#064A28"/>
<path d="M97.0938 42.7606C97.0938 42.7606 97.9933 41.4072 100.738 42.2079C100.956 43.911 101.179 45.2813 101.179 45.2813C101.179 45.2813 98.7039 44.5144 97.4146 45.8678C97.1281 43.9223 97.0938 42.7606 97.0938 42.7606Z" fill="#FDD089"/>
<path d="M99.6833 40.0312C99.1447 39.721 98.3024 39.5236 97.4887 40.471C97.3226 40.6628 97.2366 40.9165 97.2481 41.1647L97.3111 42.5294L97.7237 42.473C99.4426 41.9654 99.6833 40.0368 99.6833 40.0312Z" fill="#ECE5DF"/>
<path d="M100.308 40.8882C100.279 40.5893 100.119 40.3186 99.8725 40.1494C99.8152 40.11 99.7522 40.0705 99.6891 40.031C99.6891 40.0366 99.4427 41.9653 97.7295 42.4728L100.428 42.1232L100.308 40.8882Z" fill="#DAD2CF"/>
<path d="M107.912 68.7124L106.594 46.3189C106.594 46.3189 106.336 45.4167 107.648 44.943C108.96 44.4693 109.613 45.0275 109.613 45.0275C109.613 45.0275 111.057 44.8414 111.206 46.6065C111.355 48.3716 112.249 69.1579 112.249 69.1579L107.912 68.7124Z" fill="#D73D28"/>
<path d="M108.484 44.7625L109.407 68.8702L107.911 68.718L106.593 46.3245C106.593 46.3189 106.387 44.9316 108.484 44.7625Z" fill="#F44B2E"/>
<path d="M97.8564 44.8357C97.8564 44.8357 99.0425 44.142 100.693 44.6101" stroke="#E0B068" stroke-width="0.25" stroke-miterlimit="10" stroke-linecap="round"/>
<path d="M97.7246 44.1195C97.7246 44.1195 98.6758 43.2173 100.578 43.6515" stroke="#E0B068" stroke-width="0.25" stroke-miterlimit="10" stroke-linecap="round"/>
<path d="M97.5068 43.0087C97.5068 43.0087 98.6815 42.1797 100.429 42.6477" stroke="#E0B068" stroke-width="0.25" stroke-miterlimit="10" stroke-linecap="round"/>
<path d="M109.481 41.7512C108.696 40.4147 107.791 41.5707 107.499 42.0275C107.436 42.129 107.401 42.2418 107.401 42.3658V44.317C108.003 44.1196 108.249 41.2493 108.249 41.2493C108.249 41.2493 108.003 44.1196 107.401 44.317V45.0276H108.112C109.59 44.6103 109.487 41.8301 109.481 41.7512Z" fill="#D0D0D0"/>
<path d="M109.556 41.8751C109.533 41.83 109.511 41.7962 109.488 41.7567C109.493 41.83 109.596 44.6102 108.118 45.0331H109.711V42.4785C109.705 42.2642 109.648 42.0612 109.556 41.8751Z" fill="#B0AFAC"/>
<path d="M123.715 108.932V134.274C123.715 134.274 123.823 138.797 119.853 140.32C115.28 140.353 42.5961 140.009 42.5961 140.009C42.5961 140.009 37.4277 139.671 37.4277 133.722C37.4277 127.772 37.72 84.0229 37.72 84.0229C37.72 84.0229 37.1584 75.4344 42.9628 69.4793C48.7672 63.5243 55.689 71.6392 57.2017 73.94C59.2988 76.4382 70.8045 94.4838 85.3413 102.401C99.6317 109.541 113.286 109.022 113.286 109.022L123.715 108.932Z" fill="#D0CBB8"/>
<path d="M28.4319 82.2014V31.0421C28.4319 31.0421 28.0881 9.73141 52.9617 3.11093C61.0065 2.96431 89.3867 2.63159 89.3867 2.63159C89.3867 2.63159 111.43 4.88729 114.547 31.3297C114.449 57.7778 115.131 72.9418 115.131 72.9418C115.131 72.9418 124.752 56.4188 132.539 56.994C140.331 57.5692 142.119 58.3756 147.534 66.8232C152.949 75.2651 157.704 78.7671 158.323 84.0962C158.942 89.4253 159.75 98.4988 150.238 102.311C144.755 103.749 138.463 105.069 118.93 103.834C99.3969 102.599 95.1224 99.6492 87.4959 95.1096C79.8693 90.57 71.773 85.1564 60.1928 64.8382C53.4888 53.5484 40.4189 55.8492 36.0298 61.3193C31.6464 66.795 28.9189 70.3421 28.4319 82.2014Z" stroke="#706A57" stroke-width="4" stroke-miterlimit="10"/>
<path d="M77.3887 20.1021L88.6308 71.3064" stroke="#AAAAAA" stroke-width="0.25" stroke-miterlimit="10"/>
<path d="M137.37 67.466C137.37 67.466 157.705 83.3067 153.316 99.5759C149.219 104.33 132.981 103.461 132.981 103.461L111.258 102.525C107.236 102.023 97.8734 101.736 78.999 88.5568C71.9742 82.4382 61.8838 66.8175 61.8838 66.8175L137.37 67.466Z" fill="#D0CBB8"/>
<path d="M76.4609 19.6227L87.7775 71.2387" stroke="#AAAAAA" stroke-width="0.25" stroke-miterlimit="10"/>
<path d="M78.998 20.6716L90.286 72.4343" stroke="#007B42" stroke-miterlimit="10" stroke-linecap="round"/>
<path d="M93.1914 22.2054L93.9649 22.9667" stroke="#8D560C" stroke-width="0.25" stroke-miterlimit="10" stroke-linecap="round"/>
<path d="M91.6904 23.9762L92.4697 24.7375" stroke="#8D560C" stroke-width="0.25" stroke-miterlimit="10" stroke-linecap="round"/>
<path d="M90.2129 25.7694L90.9692 26.5138" stroke="#8D560C" stroke-width="0.25" stroke-miterlimit="10" stroke-linecap="round"/>
<path d="M88.7227 27.5514L89.4676 28.2845" stroke="#8D560C" stroke-width="0.25" stroke-miterlimit="10" stroke-linecap="round"/>
<path d="M87.2324 29.3334L87.9659 30.0552" stroke="#8D560C" stroke-width="0.25" stroke-miterlimit="10" stroke-linecap="round"/>
<path d="M85.7373 31.1097L86.5108 31.871" stroke="#8D560C" stroke-width="0.25" stroke-miterlimit="10" stroke-linecap="round"/>
<path d="M84.2412 32.9031L85.0148 33.6644" stroke="#8D560C" stroke-width="0.25" stroke-miterlimit="10" stroke-linecap="round"/>
<path d="M82.752 34.6682L83.5255 35.4352" stroke="#8D560C" stroke-width="0.25" stroke-miterlimit="10" stroke-linecap="round"/>
<path d="M90.7048 32.3336V32.0798L83.5596 40.7925L83.6226 41.1026L90.7048 32.3336Z" fill="#BC9861"/>
<path d="M106.428 46.612C106.428 46.612 105.792 47.5256 106.697 47.8583C106.875 47.2605 108.938 46.7079 110.273 47.5199C110.473 47.644 110.599 47.8583 110.599 48.0895C110.634 50.2775 110.915 55.945 110.915 55.945C110.915 55.945 111.425 56.8811 111.94 55.945C111.917 54.4393 111.602 48.5519 111.539 47.3507C111.528 47.1872 111.459 47.0349 111.344 46.9165C110.886 46.4541 109.511 45.5236 106.428 46.612Z" fill="#D0CECE"/>
<path d="M133.639 33.123L106.428 69.265L110.599 69.3552L136.682 35.2547L133.639 33.123Z" fill="#5665F2"/>
<path d="M142.491 39.315L136.681 35.2548L110.599 69.3553L119.377 69.5527L142.491 39.315Z" fill="#3547E7"/>
<path d="M131.742 35.6438L133.96 37.1833" stroke="black" stroke-width="0.5" stroke-miterlimit="10"/>
<path d="M129.375 38.7905L131.587 40.33" stroke="black" stroke-width="0.5" stroke-miterlimit="10"/>
<path d="M126.993 41.9485L129.205 43.488" stroke="black" stroke-width="0.5" stroke-miterlimit="10"/>
<path d="M124.631 45.1177L126.843 46.6516" stroke="black" stroke-width="0.5" stroke-miterlimit="10"/>
<path d="M122.231 48.2701L124.443 49.804" stroke="black" stroke-width="0.5" stroke-miterlimit="10"/>
<path d="M119.875 51.4506L122.087 52.9901" stroke="black" stroke-width="0.5" stroke-miterlimit="10"/>
<path d="M117.457 54.603L119.669 56.1425" stroke="black" stroke-width="0.5" stroke-miterlimit="10"/>
<path d="M115.12 57.7496L117.332 59.2892" stroke="black" stroke-width="0.5" stroke-miterlimit="10"/>
<path d="M112.736 60.9188L114.948 62.4583" stroke="black" stroke-width="0.5" stroke-miterlimit="10"/>
<path d="M110.353 64.0656L112.564 65.6051" stroke="black" stroke-width="0.5" stroke-miterlimit="10"/>
<path d="M107.98 67.2124L110.192 68.7519" stroke="black" stroke-width="0.5" stroke-miterlimit="10"/>
<path d="M132.79 34.2565L133.495 34.7584" stroke="black" stroke-width="0.5" stroke-miterlimit="10"/>
<path d="M130.47 37.3412L131.174 37.8431" stroke="black" stroke-width="0.5" stroke-miterlimit="10"/>
<path d="M128.139 40.4091L128.843 40.911" stroke="black" stroke-width="0.5" stroke-miterlimit="10"/>
<path d="M125.841 43.5162L126.546 44.0181" stroke="black" stroke-width="0.5" stroke-miterlimit="10"/>
<path d="M123.492 46.5781L124.197 47.08" stroke="black" stroke-width="0.5" stroke-miterlimit="10"/>
<path d="M121.051 49.8772L121.756 50.3791" stroke="black" stroke-width="0.5" stroke-miterlimit="10"/>
<path d="M118.718 52.9167L119.423 53.4186" stroke="black" stroke-width="0.5" stroke-miterlimit="10"/>
<path d="M116.318 56.1425L117.023 56.6443" stroke="black" stroke-width="0.5" stroke-miterlimit="10"/>
<path d="M140.956 41.3282L139.891 40.6289" stroke="black" stroke-width="0.5" stroke-miterlimit="10"/>
<path d="M113.968 59.2723L114.673 59.7742" stroke="black" stroke-width="0.5" stroke-miterlimit="10"/>
<path d="M111.591 62.4585L112.29 62.9604" stroke="black" stroke-width="0.5" stroke-miterlimit="10"/>
<path d="M109.172 65.605L109.877 66.1069" stroke="black" stroke-width="0.5" stroke-miterlimit="10"/>
<path d="M137.37 67.466C137.37 67.466 157.705 83.3067 153.316 99.5759C149.219 104.33 132.981 103.461 132.981 103.461L111.258 102.525C107.236 102.023 97.8734 101.736 78.999 88.5568C71.9742 82.4382 61.8838 66.8175 61.8838 66.8175L137.37 67.466Z" fill="#D0CBB8"/>
<path d="M137.615 45.6477L136.544 44.9485" stroke="black" stroke-width="0.5" stroke-miterlimit="10"/>
<path d="M134.27 50.0578L133.204 49.3585" stroke="black" stroke-width="0.5" stroke-miterlimit="10"/>
<path d="M130.992 54.3718L129.926 53.6725" stroke="black" stroke-width="0.5" stroke-miterlimit="10"/>
<path d="M127.708 58.6576L126.643 57.9584" stroke="black" stroke-width="0.5" stroke-miterlimit="10"/>
<path d="M124.373 63.0336L123.302 62.3344" stroke="black" stroke-width="0.5" stroke-miterlimit="10"/>
<path d="M121.101 67.2856L120.035 66.5807" stroke="black" stroke-width="0.5" stroke-miterlimit="10"/>
</g>
</svg>
