<svg width="397" height="297" viewBox="0 0 397 297" fill="none" xmlns="http://www.w3.org/2000/svg">
<path d="M172.037 46.1555C172.037 46.1555 173.54 46.3363 174.354 45.4323C175.457 46.375 188.421 56.6677 188.421 56.6677C188.421 56.6677 190.31 59.8446 190.352 62.8537C190.393 65.8627 187.649 87.817 188.118 102.1C188.324 103.56 188.255 104.167 188.655 104.593C188.821 104.774 188.848 105.019 188.793 105.238C188.573 106.065 187.897 107.473 189.29 108.26C190.945 108.842 191.427 105.923 191.331 104.36C191.317 104.154 191.372 103.947 191.483 103.766C192.972 101.364 196.447 79.5777 196.447 77.4856C196.447 75.2901 198.213 75.9488 198.916 77.8213C199.15 80.3525 201.26 98.7038 203.26 104.089C203.895 105.51 203.674 107.679 203.729 107.783C203.784 107.899 205.177 111.347 206.915 107.718C206.942 105.148 206.653 104.58 206.956 104.36C207.37 104.063 207.466 103.521 207.439 103.03C207.122 96.1855 205.094 63.551 204.543 60.0125C207.011 56.6031 222.154 45.2902 223.437 44.7349C224.733 44.1796 226.016 44.9544 226.719 43.8567C227.422 42.759 223.547 37.1542 219.906 40.1245C217.562 41.8808 218.265 43.3143 218.265 43.3143L208.639 50.6755C208.639 50.6755 203.122 52.3285 200.778 49.4615C198.902 47.1499 200.902 45.8326 201.481 45.7293C202.06 45.626 203.715 42.759 202.074 40.2278C200.433 37.6966 195.261 36.7151 193.386 41.3255C192.448 45.174 195.261 46.2717 195.261 46.2717C195.261 46.2717 195.854 51.3212 187.98 50.1201C181.167 45.9488 172.603 38.0969 172.603 38.0969L169.555 40.8864C169.555 40.8864 170.258 42.759 171.32 43.3014C170.506 43.5209 168.975 45.0577 172.037 46.1555Z" fill="#BBDCF6"/>
<path d="M362.698 52.5868C359.981 48.2735 350.948 42.9399 344.7 39.3368C343.749 38.7944 341.68 38.3294 341.128 37.5029C342.094 35.8241 341.018 33.267 341.804 31.2008C342.783 28.6566 342.976 25.5055 341.211 22.7548C338.039 17.8086 332.757 19.9524 330.813 22.0962C328.868 24.2399 328.716 29.8448 330.468 32.6472C332.026 35.1267 311.367 36.9605 304.899 39.6338C303.892 40.0471 302.748 40.0341 301.769 39.5563C299.438 38.3811 296.211 39.4272 295.783 40.7186C294.611 44.1926 298.073 45.8327 300.183 46.1555C301.438 46.3492 302.927 45.7423 303.934 45.1999C304.816 44.735 305.782 44.4508 306.789 44.3734L320.952 43.3402C320.952 43.3402 324.124 52.0832 321.835 59.9868C318.663 66.9088 315.491 101.041 315.325 105.484C315.298 106.246 315.96 106.943 317.077 107.589L317.035 107.576C315.987 107.847 313.574 107.576 312.636 110.972C311.698 114.369 317.394 113.013 318.676 112.793C319.973 112.574 321.007 109.152 321.007 109.152L320.98 109.139C324.441 110.159 328.882 110.869 332.481 111.179H332.468C332.468 111.179 328.703 113.891 329.461 116.371C330.22 118.837 334.04 117.959 334.743 116.81C335.446 115.66 338.646 112.755 338.136 111.179H338.122C338.591 111.089 338.867 110.947 338.908 110.766C339.267 108.958 338.025 92.802 338.025 86.2028C340.494 66.0952 338.025 56.3578 338.025 56.3578C338.025 56.3578 338.025 49.4358 342.425 47.6148C347.128 48.493 353.885 53.8008 356.823 56.2545C358.064 57.2877 359.829 57.7009 361.36 57.1069C362.78 56.5903 363.884 55.3505 362.698 52.5868Z" fill="#DF3B27"/>
<path d="M31.7362 54.9892C34.453 50.6758 43.4862 45.3422 49.7336 41.7391C50.6852 41.1967 52.7538 40.7318 53.3055 39.9053C52.3401 38.2264 53.4158 35.6694 52.6297 33.6031C51.6506 31.059 51.4575 27.9079 53.2227 25.1571C56.3947 20.211 61.6767 22.3547 63.6213 24.4985C65.5658 26.6423 65.7175 32.2471 63.966 35.0495C62.4076 37.5291 83.0667 39.3629 89.5348 42.0361C90.5415 42.4494 91.6862 42.4365 92.6653 41.9587C94.996 40.7835 98.2232 41.8295 98.6507 43.121C99.8229 46.5949 96.3614 48.235 94.2513 48.5579C92.9963 48.7516 91.5069 48.1446 90.5001 47.6022C89.6175 47.1373 88.6521 46.8532 87.6454 46.7757L73.4819 45.7426C73.4819 45.7426 70.3099 54.4855 72.5993 62.3891C75.7712 69.3112 78.9432 103.444 79.1087 107.886C79.1363 108.648 78.4743 109.346 77.3572 109.991L77.3986 109.978C78.4467 110.25 80.8601 109.978 81.7979 113.375C82.7357 116.771 77.04 115.415 75.7574 115.196C74.4611 114.976 73.4267 111.554 73.4267 111.554L73.4543 111.541C69.9927 112.561 65.552 113.271 61.9525 113.581H61.9663C61.9663 113.581 65.7313 116.293 64.9728 118.773C64.2143 121.24 60.3941 120.361 59.6908 119.212C58.9874 118.063 55.7879 115.157 56.2982 113.581H56.312C55.8431 113.491 55.5672 113.349 55.5259 113.168C55.1673 111.36 56.4085 95.2044 56.4085 88.6052C53.9399 68.4976 56.4085 58.7602 56.4085 58.7602C56.4085 58.7602 56.4085 51.8381 52.0091 50.0172C47.3063 50.8954 40.5487 56.2031 37.6112 58.6569C36.37 59.69 34.6047 60.1033 33.0739 59.5092C31.6672 58.9926 30.5639 57.7529 31.7362 54.9892Z" fill="#F09A24"/>
<path d="M31.2416 85.7254C30.8554 84.0853 29.9176 83.0005 28.7592 82.2773C30.6899 76.8146 33.7929 67.9683 35.4065 62.9704C37.8751 55.3897 31.738 54.9894 28.3592 58.36C26.9249 59.7935 24.8701 64.3006 22.9669 69.0014C22.6911 64.5976 20.3604 60.62 12.9821 60.3359C12.9821 60.3359 -13.5382 61.6532 9.23094 82.5356C7.57601 86.6682 7.03815 92.4925 8.6655 97.9036C8.8172 98.4331 9.03787 98.9368 9.32748 99.4146C11.1203 103.857 13.1752 111.709 12.4029 114.421C11.5754 117.275 9.98944 119.548 9.82395 121.02C9.53434 123.022 8.99649 177.404 11.1203 181.033C11.8926 182.363 16.3747 182.841 21.7671 182.764C31.145 182.609 43.295 180.71 43.5157 178.399C43.8604 174.757 32.7172 91.9889 31.2416 85.7254Z" fill="#DF3B27"/>
<path d="M365.755 84.1625C366.141 82.5223 367.079 81.4375 368.237 80.7143C366.306 75.2516 363.203 66.4053 361.59 61.4074C359.121 53.8267 365.258 53.4264 368.637 56.797C370.071 58.2305 372.126 62.7376 374.029 67.4384C374.305 63.0346 376.636 59.057 384.014 58.7729C384.014 58.7729 410.534 60.0902 387.765 80.9726C389.53 85.3635 390.234 94.3777 388 97.348C385.765 100.318 383.78 109.991 384.593 112.845C385.407 115.699 387.007 117.972 387.172 119.444C387.462 121.446 388 175.828 385.876 179.457C385.104 180.787 380.621 181.265 375.229 181.188C365.851 181.033 353.701 179.134 353.48 176.823C353.136 173.181 364.293 90.4259 365.755 84.1625Z" fill="#F09A24"/>
<path d="M352.617 90.1419C349.39 94.197 347.046 100.887 355.127 109.358C347.142 113.53 324.373 147.159 321.794 151.007C321.049 152.105 319.822 153.345 319.353 154.739C318.291 157.942 319.532 161.984 326.331 159.388C326.938 159.156 327.462 158.187 328.124 157.606C334.703 151.007 338.564 147.275 339.626 147.275C340.688 147.275 341.502 150.348 340.095 152.001C338.688 153.654 321.78 201.683 324.842 227.615C315.45 228.273 303.245 230.469 328.359 239.922C335.172 241.239 337.751 241.678 337.282 233.762C339.626 224.089 340.798 192.436 348.783 186.496C350.893 195.51 352.066 217.929 351.128 217.709C350.19 217.49 332.813 212.66 349.721 224.748C357.941 230.469 361.637 231.347 363.195 219.918C364.754 208.489 366.16 167.163 364.519 157.929C362.878 148.695 375.083 133.534 369.443 114.408L365.926 109.358C365.926 109.358 374.559 102.927 372.435 94.9589C370.918 89.2379 367.526 87.107 364.298 86.2159C359.982 85.0149 355.334 86.7454 352.617 90.1419Z" fill="#026839"/>
<path d="M45.1405 91.3946C48.3676 95.4497 50.7121 102.139 42.6305 110.611C50.6156 114.782 73.3847 148.411 75.9636 152.26C78.5426 156.108 81.7145 164.348 69.6197 158.859C63.0413 152.26 59.1798 148.527 58.1179 148.527C57.056 148.527 56.2423 151.601 57.649 153.254C59.0557 154.907 75.9636 202.935 72.902 228.867C82.2938 229.526 94.4989 231.721 69.3853 241.175C62.5724 242.492 59.9935 242.931 60.4624 235.015C58.1179 225.342 56.9457 193.689 48.9606 187.748C46.8506 196.762 45.6783 219.182 46.6161 218.962C47.5539 218.743 64.9307 213.913 48.0228 226C39.8033 231.721 36.1073 232.6 34.5489 221.17C32.9905 209.741 31.5838 168.416 33.2249 159.182C34.8661 149.948 22.661 134.787 28.3015 115.661L31.8182 110.611C31.8182 110.611 23.185 104.18 25.3089 96.2116C26.8259 90.4906 30.2185 88.3597 33.4456 87.4686C37.7898 86.2547 42.4374 87.9981 45.1405 91.3946Z" fill="#3A52A0"/>
<path d="M297.739 38.0968C297.739 38.0968 286.182 26.5385 269.039 15.8325C268.791 15.5742 268.612 15.1868 268.736 14.9156C270.391 13.5208 272.129 11.4029 272.129 8.78128C272.129 4.84242 269.039 1.65259 265.219 1.65259C261.399 1.65259 258.31 4.84242 258.31 8.78128C258.31 10.4989 258.903 12.0744 259.882 13.3142C260.654 14.2828 260.296 15.6775 259.179 16.2845C254.104 19.0353 242.671 22.535 239.292 25.0662C234.893 28.3594 223.101 38.1097 223.101 38.1097C223.101 38.1097 218.233 44.696 226.742 43.8695C228.742 41.5578 237.375 34.5453 239.03 33.3185C240.395 32.3112 245.346 30.1028 248.822 29.1084C249.939 28.7855 251.166 29.0568 251.98 29.8445C253.979 31.8204 255.634 36.1338 251.511 53.5939C251.373 55.4794 246.174 76.3489 245.112 92.5048C244.753 94.1578 242.643 95.9658 244.753 97.6188C246.863 99.2719 249.153 98.2775 249.511 97.6188C249.87 96.9602 249.87 94.1578 249.87 94.1578C249.87 94.1578 257.262 68.4454 259.027 61.0197C260.792 53.6069 264.488 59.0438 264.309 61.6783C264.13 64.3128 268.184 94.4807 270.115 95.6429C269.053 96.9602 269.936 101.08 272.928 100.589C275.921 100.098 275.742 98.1225 273.99 95.475C276.1 94.1578 271.701 49.4743 271.88 46.8398C272.06 44.2052 271.784 28.8759 275.259 29.8574C278.748 30.8518 290.54 36.2888 294.056 43.3787C297.904 44.5152 297.739 38.0968 297.739 38.0968Z" fill="#3A52A0"/>
<path d="M170.403 36.7283C169.093 36.1213 167.893 35.3206 166.914 34.3004C163.218 30.4132 152.723 21.2957 135.236 14.774C134.849 14.3995 134.836 14.2445 135.001 13.6504C136.284 11.6229 136.725 9.96984 136.725 7.6711C136.725 3.3448 134.049 0 129.678 0C125.306 0 123.086 3.00904 123.086 7.33533C123.086 10.0603 123.679 12.2815 125.292 14.3607C125.554 14.6965 125.664 15.0968 125.32 15.3422C121.031 18.5062 101.047 28.8893 97.2686 39.4403C97.2686 39.4532 97.2686 39.4532 97.2548 39.4532C97.1169 39.4661 92.8416 39.8406 95.1448 43.1855C97.4892 46.5948 100.427 42.4106 101.833 41.5324C103.24 40.6543 111.101 30.2066 118.383 29.7675C121.431 29.7675 123.43 35.269 121.789 56.8101C120.148 78.3511 119.086 92.6344 119.555 93.4092C120.024 94.1841 121.196 94.7265 120.148 96.3795C119.086 98.0325 117.804 100.422 122.382 100.602C126.961 100.783 125.196 96.8186 124.837 95.2818C124.478 93.745 126.133 95.1656 126.368 90.9942C126.602 86.8229 130.243 62.7506 130.478 61.3172C130.712 59.8837 132.588 52.0834 135.994 60.8781C135.994 60.8781 135.994 60.8781 135.994 60.891C138.104 71.2224 142.807 90.5681 143.745 92.1049C144.917 92.4406 143.386 98.1488 146.792 97.9292C150.185 97.7097 151.357 95.3076 148.916 92.7764C148.903 92.7635 148.903 92.7506 148.903 92.7377C149.275 90.9038 151.399 92.2986 150.213 87.7011C149.013 83.0907 143.152 51.3215 141.745 45.82C140.338 40.3185 140.449 29.6642 141.042 28.4502C141.635 27.2363 153.84 28.5665 165.107 38.7817C168.279 41.8553 170.044 42.6043 171.796 40.7576C173.189 39.3112 172.582 37.7485 170.403 36.7283Z" fill="#026839"/>
<path d="M310.748 161.777C310.748 161.777 299.246 169.138 296.157 173.426C293.081 177.713 295.771 153.538 283.221 151.007C270.671 148.475 272.657 164.747 274.187 166.723C275.718 168.699 277.828 169.797 278.063 170.572C278.283 171.282 280.821 178.062 271.14 179.651C269.236 179.961 267.485 180.787 266.065 182.014C260.452 186.831 249.239 197.64 232.897 210.916C229.615 216.418 235.297 216.134 237.42 213.331C239.944 210.8 254.218 205.415 265.761 198.17C269.402 196.194 271.084 201.527 270.023 209.328C268.961 217.128 266.561 231.915 266.506 235.208C266.451 238.501 266.147 241.019 266.506 242.595C266.864 244.171 265.706 262.328 266.051 269.392C266.023 272.195 264.851 272.582 268.257 276.65C273.539 281.932 277.056 282.591 280.587 282.087C281.993 279.285 280.407 275.488 280.407 275.488C280.407 275.488 283.041 276.146 284.462 278.781C285.869 281.415 290.627 279.775 290.627 278.445C290.627 278.355 290.447 277.541 290.502 276.857C291.633 276.353 294.874 276.495 296.667 276.172C297.453 267.61 297.053 242.466 297.053 238.721C297.053 234.265 298.212 214.816 295.04 210.193C291.868 205.583 295.743 188.755 297.508 187.115C299.274 185.462 312.651 166.672 319.34 163.869C323.78 160.215 319.491 156.56 318.278 156.779C317.05 157.012 312.747 157.877 310.748 161.777Z" fill="#3A52A0"/>
<path d="M154.572 217.774C154.476 217.606 154.338 217.438 154.172 217.309C135.747 202.225 130.879 183.822 126.907 179.729C126.604 179.419 126.19 179.238 125.749 179.212C113.888 178.23 116.729 170.676 116.964 169.914C117.198 169.139 119.308 168.041 120.839 166.065C122.37 164.089 124.356 147.817 111.806 150.348C99.5179 152.828 103.407 165.82 106.441 169.048C106.565 169.19 106.689 169.332 106.772 169.513C108.33 173.168 101.876 176.952 98.8698 172.768C96.0977 168.919 86.5405 162.591 84.6235 161.339C84.4029 161.196 84.2236 160.99 84.0995 160.77C82.0308 157.167 77.9486 156.341 76.7902 156.121C75.5765 155.902 71.3013 159.556 75.7283 163.211C82.4169 166.014 95.7943 184.804 97.5596 186.457C99.3249 188.11 103.2 204.924 100.028 209.535C96.8562 214.145 100.911 233.271 100.911 237.727C100.911 241.136 102.042 242.027 104.552 242.079C105.696 242.105 106.482 243.151 106.151 244.171C103.669 252.126 106.358 271.898 106.358 272.35C106.358 272.841 104.428 276.47 104.428 277.787C104.428 279.104 109.186 280.757 110.592 278.123C110.606 278.097 110.62 278.071 110.634 278.045C111.461 276.547 113.847 277.193 113.888 278.872C113.902 279.35 113.957 279.84 114.068 280.318C114.233 281.003 114.895 281.493 115.654 281.545C118.798 281.713 122.108 280.667 126.797 275.992C130.617 272.169 125.956 271.459 123.087 271.368C122.066 271.33 121.294 270.477 121.432 269.522L124.756 246.186C124.825 245.734 125.073 245.333 125.473 245.075C126.452 244.429 128.3 243.086 128.548 241.95C128.907 240.374 128.603 237.869 128.548 234.563C128.493 231.27 126.08 216.483 125.032 208.682C123.97 200.882 126.204 195.652 128.079 198.842C131.596 207.688 147.387 217.412 149.911 219.944C151.979 222.682 157.523 222.991 154.572 217.774ZM115.64 267.817C112.068 267.74 111.461 267.817 111.461 267.817C111.461 267.817 114.633 249.027 113.93 244.817L117.364 245.889C117.364 245.889 114.012 256.943 115.64 267.817Z" fill="#DF3B27"/>
<path d="M214.152 294.446L241.086 288.351C241.086 288.351 239.68 283.573 234.398 284.554C229.116 285.548 228.233 280.602 226.302 274.829C224.371 269.057 222.785 266.422 222.785 266.422L222.965 246.805C222.965 246.805 222.965 242.35 213.987 241.691C205.009 241.033 196.734 241.523 195.148 240.697C193.562 239.87 194.969 236.242 195.851 234.434C196.734 232.626 196.21 224.218 196.21 223.547C196.21 222.875 220.855 220.912 225.254 217.774C229.833 219.259 234.935 217.438 234.591 214.145C234.232 210.852 227.199 211.007 224.73 214.145C221.213 214.804 199.203 217.606 192.693 216.121C191.99 214.313 192.514 213.319 192.514 213.319C192.514 213.319 201.85 206.887 193.921 196.672C188.28 189.75 174.558 197.331 177.551 205.247C180.019 212.001 183.012 210.852 183.357 212.66C183.701 214.468 180.888 219.75 180.888 219.75C180.888 219.75 178.957 210.684 169.441 213.151C169.441 216.121 169.441 216.121 169.441 216.121L175.247 216.289C175.247 216.289 177.013 217.438 176.833 218.756C176.654 220.073 164.863 225.678 164.863 225.678C164.863 225.678 163.456 221.726 159.401 221.726C155.347 221.726 149.196 221.726 149.196 221.726V224.192H158.877C158.877 224.192 161.346 222.875 161.511 227.331C161.677 231.347 163.125 249.479 163.401 252.966C162.863 252.927 162.325 252.888 161.774 252.888C148.796 252.888 138.273 262.742 138.273 274.894C138.273 287.046 148.796 296.9 161.774 296.9C171.055 296.9 179.054 291.851 182.874 284.528H199.147C197.396 285.716 196.238 287.628 196.238 289.81C196.238 293.4 199.354 296.319 203.188 296.319C207.022 296.319 210.139 293.4 210.139 289.81C210.139 287.24 208.525 285.032 206.208 283.973V274.804L214.152 294.446ZM198.223 251.687L199.037 244.817C199.037 244.817 212.18 244.545 217.117 244.817C222.041 246.844 220.634 251.571 220.055 256.853C212.056 249.711 198.223 251.687 198.223 251.687Z" fill="#24A737"/>
</svg>
