<svg width="25" height="25" viewBox="0 0 25 25" fill="none" xmlns="http://www.w3.org/2000/svg"><g clip-path="url(#clip0)"><path d="M19.3652 0.95572C19.1547 0.95572 18.9417 0.96521 18.732 0.984141C16.5669 1.18001 14.5928 2.49479 13.1548 4.69346C11.4865 2.23285 8.72888 0.652832 6.07639 0.652832C5.49348 0.652832 4.91593 0.728201 4.36003 0.87702C2.64215 1.33685 1.24149 2.61575 0.517593 4.38633C-0.284656 6.34788 -0.14659 8.64559 0.878029 10.3827C2.2852 12.7686 4.6978 14.2249 7.03064 15.633C8.22891 16.3566 9.46818 17.1041 10.531 17.961C10.8476 18.2159 11.2453 18.5481 11.5865 18.91C11.156 19.3343 10.3048 20.7444 10.2966 20.7613C10.0291 21.324 9.66163 22.5137 9.98102 23.4037C10.1175 23.7834 10.3627 24.0585 10.7106 24.2212C10.889 24.3045 11.0767 24.3471 11.2683 24.3471C12.0922 24.3471 12.8554 23.5662 13.3509 22.9115C14.257 21.7129 14.3927 20.4547 13.7536 19.1702C14.85 18.1785 16.0428 17.2566 17.1968 16.3645C19.1822 14.8301 21.235 13.2431 22.8684 11.2485C23.6665 10.2737 26.1337 6.84588 24.3898 3.65238C23.4679 1.96378 21.5894 0.95572 19.3652 0.95572ZM12.229 21.5786C12.0631 21.8954 11.8957 22.1241 11.7214 22.2702C11.7565 21.7996 11.9359 21.3402 12.0511 21.0874C12.0834 21.0164 12.2952 20.6888 12.4476 20.4697C12.4954 20.8424 12.4233 21.2074 12.229 21.5786ZM10.2451 3.93376C10.7562 4.35483 11.208 4.83046 11.588 5.34648C11.6332 5.40802 11.7027 5.52402 11.7836 5.6583C12.25 6.43531 12.7512 7.19395 13.2937 7.19395C13.5629 7.19395 13.7908 7.00474 13.971 6.63113C15.1217 4.24816 16.9579 2.82741 19.1412 2.63029C19.2681 2.61862 19.3967 2.61322 19.5239 2.61322C21.1942 2.61322 22.6631 3.59094 23.1793 5.04592C23.8594 6.964 22.783 9.23697 19.8886 11.9945C18.6459 13.1788 17.2675 14.2436 15.9348 15.2736C14.8887 16.0816 13.8079 16.9168 12.796 17.8063C11.886 16.7976 10.6924 15.9527 9.74502 15.3239C9.18301 14.9506 8.57557 14.5856 7.93254 14.199C4.7711 12.299 1.18829 10.1455 1.75312 6.13566C2.076 3.84295 3.78247 2.36152 6.10057 2.36152C6.2709 2.36152 6.44521 2.3696 6.61902 2.38636C7.89372 2.50762 9.1814 3.05731 10.2451 3.93376Z" fill="#EB3050"/></g><defs><clipPath id="clip0"><rect width="25" height="25" fill="white"/></clipPath></defs></svg>
