<svg width="28" height="30" viewBox="0 0 28 30" fill="none" xmlns="http://www.w3.org/2000/svg">
<path d="M19.6477 12.8905C19.6477 12.2433 19.1231 11.7186 18.4758 11.7186H6.40552C5.75829 11.7186 5.23364 12.2433 5.23364 12.8905C5.23364 13.5377 5.75829 14.0624 6.40552 14.0624H18.4758C19.1231 14.0624 19.6477 13.5377 19.6477 12.8905Z" fill="#1C6739"/>
<path d="M6.40552 16.4061C5.75829 16.4061 5.23364 16.9308 5.23364 17.578C5.23364 18.2252 5.75829 18.7499 6.40552 18.7499H13.7362C14.3835 18.7499 14.9081 18.2252 14.9081 17.578C14.9081 16.9308 14.3835 16.4061 13.7362 16.4061H6.40552Z" fill="#1C6739"/>
<path d="M9.16147 27.6561H5.24219C3.94984 27.6561 2.89844 26.6047 2.89844 25.3124V4.68738C2.89844 3.39503 3.94984 2.34363 5.24219 2.34363H19.6497C20.9421 2.34363 21.9935 3.39503 21.9935 4.68738V11.8944C21.9935 12.5416 22.5181 13.0663 23.1654 13.0663C23.8126 13.0663 24.3372 12.5416 24.3372 11.8944V4.68738C24.3372 2.10269 22.2344 -0.00012207 19.6497 -0.00012207H5.24219C2.6575 -0.00012207 0.554688 2.10269 0.554688 4.68738V25.3124C0.554688 27.8971 2.6575 29.9999 5.24219 29.9999H9.16147C9.80869 29.9999 10.3333 29.4752 10.3333 28.828C10.3333 28.1808 9.80869 27.6561 9.16147 27.6561Z" fill="#1C6739"/>
<path d="M26.4117 16.9665C25.041 15.5958 22.8107 15.5958 21.4408 16.9656L15.007 23.3851C14.8704 23.5215 14.7696 23.6894 14.7135 23.8741L13.3123 28.4869C13.1881 28.8959 13.2963 29.34 13.5948 29.6459C13.8184 29.875 14.1222 29.9994 14.4337 29.9994C14.5379 29.9994 14.6432 29.9855 14.7465 29.9568L19.4765 28.6466C19.6711 28.5927 19.8485 28.4894 19.9915 28.3467L26.4118 21.9385C27.7825 20.5677 27.7825 18.3374 26.4117 16.9665ZM18.5538 26.4702L16.1742 27.1294L16.8706 24.8367L21.2118 20.5051L22.8694 22.1628L18.5538 26.4702ZM24.7553 20.2805L24.5283 20.5071L22.871 18.8498L23.0973 18.6239C23.5542 18.167 24.2976 18.167 24.7545 18.6239C25.2114 19.0808 25.2114 19.8243 24.7553 20.2805Z" fill="#1C6739"/>
<path d="M18.4758 7.03113H6.40552C5.75829 7.03113 5.23364 7.55578 5.23364 8.203C5.23364 8.85023 5.75829 9.37488 6.40552 9.37488H18.4758C19.1231 9.37488 19.6477 8.85023 19.6477 8.203C19.6477 7.55578 19.1231 7.03113 18.4758 7.03113Z" fill="#1C6739"/>
</svg>
