<svg width="30" height="30" viewBox="0 0 30 30" fill="none" xmlns="http://www.w3.org/2000/svg">
<g clip-path="url(#clip0)">
<path d="M16.2493 -0.00012207C16.1245 -0.00012207 15.9918 0.000488281 15.9118 0.00628662C15.9112 0.00628662 15.91 0.00628662 15.9094 0.00628662C15.8145 0.00231934 15.7168 -0.00012207 15.6243 -0.00012207C7.698 -0.00012207 1.24933 6.44794 1.24933 14.3749C1.24933 16.8099 1.86884 19.1851 3.03553 21.2969L0.26392 26.3829C0.248051 26.4119 0.233708 26.4418 0.219975 26.4717C-0.206966 27.4269 -0.00371906 28.5225 0.736332 29.2632C1.21882 29.7457 1.85328 30.0005 2.50055 29.9999C2.84571 29.9999 3.19513 29.9282 3.52747 29.7792C3.55738 29.7661 3.58698 29.7512 3.61628 29.7356L8.70264 26.9637C10.8145 28.1301 13.1899 28.7499 15.6243 28.7499C23.5507 28.7499 29.9993 22.3018 29.9993 14.3749C29.9993 14.2681 29.9969 14.1606 29.9926 14.0535C29.9969 13.9525 29.9993 13.8494 29.9993 13.7499C29.9993 6.16809 23.8314 -0.00012207 16.2493 -0.00012207V-0.00012207ZM15.6243 26.2499C13.4075 26.2499 11.2481 25.6349 9.37952 24.4698C9.36701 24.4619 9.35328 24.4582 9.34015 24.4506C9.29926 24.4268 9.25684 24.4075 9.21442 24.3886C9.18055 24.3737 9.14698 24.3593 9.11249 24.3474C9.0719 24.3343 9.03131 24.3242 8.98951 24.3151C8.95136 24.3062 8.91382 24.2974 8.87568 24.2931C8.83448 24.2879 8.79328 24.2867 8.75177 24.2855C8.71302 24.2842 8.67517 24.283 8.63642 24.2855C8.59491 24.2879 8.55494 24.2949 8.51374 24.3019C8.47376 24.3087 8.435 24.3151 8.39563 24.3254C8.35932 24.3355 8.32392 24.3486 8.28821 24.3618C8.24427 24.3779 8.20185 24.395 8.16065 24.4155C8.14753 24.4225 8.13318 24.4255 8.12067 24.4326L2.50757 27.4916L5.56696 21.8785C5.57428 21.8642 5.57825 21.8492 5.58496 21.8349C5.6045 21.7955 5.62067 21.7549 5.63623 21.7137C5.64997 21.6762 5.6637 21.6399 5.67377 21.6017C5.68384 21.563 5.69056 21.5242 5.69757 21.4849C5.70429 21.4443 5.71131 21.4043 5.71375 21.3631C5.71619 21.3237 5.71497 21.2838 5.71375 21.2438C5.71253 21.2038 5.71192 21.1644 5.70704 21.1251C5.70185 21.0842 5.69239 21.0448 5.68384 21.0048C5.67499 20.9655 5.66553 20.9267 5.65302 20.8885C5.64142 20.8519 5.62555 20.8168 5.60999 20.7805C5.59198 20.7393 5.57306 20.6993 5.55079 20.6606C5.54316 20.6469 5.53888 20.6325 5.53003 20.6194C4.36426 18.7517 3.74933 16.5917 3.74933 14.3749C3.74933 7.82672 9.07618 2.49988 15.6243 2.49988C15.6912 2.49927 15.7632 2.49927 15.8306 2.50354C15.8575 2.50568 15.9158 2.50629 15.9432 2.50629C15.9564 2.50629 15.9689 2.50232 15.982 2.50232C15.9945 2.50171 16.0064 2.50507 16.0189 2.50354C16.0937 2.49866 16.1724 2.49988 16.2493 2.49988C22.4526 2.49988 27.4993 7.54688 27.4993 13.7499C27.4993 13.825 27.4999 13.9049 27.4957 13.98C27.4944 14.005 27.4987 14.0288 27.4987 14.0535C27.4987 14.0786 27.4944 14.103 27.4957 14.1286C27.4999 14.2098 27.4993 14.2925 27.4993 14.3749C27.4993 20.923 22.1725 26.2499 15.6243 26.2499Z" fill="#1C6739"/>
<path d="M18.125 20.6249H16.875V11.2499C16.875 10.5599 16.315 9.99988 15.625 9.99988H13.75C13.06 9.99988 12.5 10.5599 12.5 11.2499C12.5 11.9399 13.06 12.4999 13.75 12.4999H14.375V20.6249H13.125C12.435 20.6249 11.875 21.1849 11.875 21.8749C11.875 22.5649 12.435 23.1249 13.125 23.1249H18.125C18.815 23.1249 19.375 22.5649 19.375 21.8749C19.375 21.1849 18.815 20.6249 18.125 20.6249Z" fill="#1C6739"/>
<path d="M15.625 8.12488C16.6589 8.12488 17.5 7.28381 17.5 6.24988C17.5 5.21625 16.6589 4.37488 15.625 4.37488C14.5914 4.37488 13.75 5.21625 13.75 6.24988C13.75 7.28381 14.5914 8.12488 15.625 8.12488Z" fill="#1C6739"/>
</g>
<defs>
<clipPath id="clip0">
<rect width="30" height="30" fill="white" transform="translate(0 -0.00012207)"/>
</clipPath>
</defs>
</svg>
