<svg width="20" height="20" viewBox="0 0 20 20" fill="none" xmlns="http://www.w3.org/2000/svg">
<path d="M4.26604 13.1913C6.17961 15.4714 8.48313 17.2666 11.1123 18.5369C12.1133 19.0097 13.452 19.5707 14.9434 19.6669C15.0359 19.6709 15.1243 19.6749 15.2168 19.6749C16.2178 19.6749 17.0218 19.3303 17.6771 18.621C17.6811 18.617 17.6892 18.609 17.6932 18.601C17.9263 18.3205 18.1917 18.068 18.4691 17.7996C18.658 17.6192 18.851 17.4309 19.0359 17.2385C19.8922 16.3489 19.8922 15.2189 19.0279 14.3574L16.6118 11.949C16.2017 11.5243 15.7113 11.2999 15.1967 11.2999C14.6821 11.2999 14.1877 11.5243 13.7655 11.945L12.3263 13.3796C12.1937 13.3035 12.057 13.2353 11.9284 13.1712C11.7676 13.0911 11.6188 13.0149 11.4861 12.9308C10.1756 12.1013 8.98564 11.0194 7.84795 9.62885C7.27308 8.90354 6.88715 8.29445 6.6178 7.67333C6.99569 7.33271 7.34946 6.97607 7.69117 6.62744C7.81177 6.50322 7.9364 6.379 8.06102 6.25477C8.49519 5.822 8.72836 5.32109 8.72836 4.81218C8.72836 4.30326 8.49921 3.80236 8.06102 3.36958L6.86303 2.17543C6.72233 2.03518 6.58966 1.89893 6.45298 1.75868C6.18765 1.48619 5.91027 1.20569 5.6369 0.953231C5.22283 0.548503 4.7364 0.336121 4.22182 0.336121C3.71127 0.336121 3.22082 0.548503 2.79067 0.957239L1.28715 2.45594C0.740416 3.00092 0.430868 3.66211 0.366547 4.42748C0.290165 5.38521 0.467049 6.40304 0.925341 7.63326C1.62886 9.53668 2.69016 11.3039 4.26604 13.1913ZM1.34745 4.51164C1.39569 3.97868 1.60072 3.53388 1.98665 3.14918L3.48212 1.6585C3.71529 1.4341 3.97258 1.31789 4.22182 1.31789C4.46705 1.31789 4.7163 1.4341 4.94544 1.66652C5.21479 1.91496 5.46805 2.17543 5.74142 2.45193C5.8781 2.59218 6.01881 2.73243 6.15951 2.87669L7.3575 4.07084C7.60675 4.31929 7.73539 4.57174 7.73539 4.82019C7.73539 5.06864 7.60675 5.32109 7.3575 5.56954C7.23288 5.69376 7.10826 5.82199 6.98363 5.94622C6.60976 6.3229 6.26001 6.67954 5.87408 7.02015C5.86604 7.02817 5.86202 7.03217 5.85398 7.04019C5.52032 7.37279 5.57258 7.68936 5.65298 7.92979C5.657 7.94181 5.66102 7.94983 5.66504 7.96185C5.97459 8.70318 6.40474 9.40845 7.07609 10.25C8.28212 11.7326 9.55248 12.8827 10.9515 13.7683C11.1243 13.8805 11.3093 13.9687 11.4821 14.0568C11.6429 14.137 11.7917 14.2131 11.9243 14.2972C11.9404 14.3053 11.9525 14.3133 11.9686 14.3213C12.1012 14.3894 12.2299 14.4215 12.3585 14.4215C12.6801 14.4215 12.8892 14.2171 12.9575 14.149L14.461 12.6503C14.6942 12.4179 14.9475 12.2936 15.1967 12.2936C15.5022 12.2936 15.7515 12.482 15.9083 12.6503L18.3324 15.0626C18.8148 15.5435 18.8108 16.0644 18.3203 16.5733C18.1515 16.7537 17.9746 16.926 17.7856 17.1063C17.5042 17.3788 17.2108 17.6593 16.9454 17.9759C16.4831 18.4728 15.9324 18.7052 15.2208 18.7052C15.1525 18.7052 15.0801 18.7012 15.0118 18.6972C13.6932 18.613 12.467 18.1001 11.5464 17.6633C9.04594 16.4571 6.85097 14.7461 5.02986 12.5741C3.53037 10.7749 2.52132 9.0999 1.85398 7.30466C1.43991 6.20268 1.28313 5.31709 1.34745 4.51164Z" fill="#00AC00"/>
<path d="M15.218 19.7759C15.1296 19.7759 15.0452 19.7719 14.9527 19.7678H14.9406C13.4452 19.6717 12.0864 19.1067 11.0693 18.6298C8.42003 17.3515 6.10848 15.5442 4.19089 13.2561C2.60697 11.3607 1.54164 9.58552 0.834103 7.67007C0.371792 6.42784 0.190887 5.39398 0.271289 4.42022C0.335611 3.6308 0.657219 2.94958 1.22003 2.38456L2.72355 0.885863C3.16978 0.461098 3.68837 0.236694 4.22305 0.236694C4.76174 0.236694 5.27631 0.461098 5.71049 0.881856C5.98787 1.13832 6.26928 1.42283 6.52657 1.68731L6.53863 1.69933C6.67129 1.83557 6.79993 1.96781 6.93662 2.10406L8.13461 3.2982C8.58888 3.74701 8.83008 4.27196 8.83008 4.81293C8.83008 5.3499 8.58888 5.87084 8.13461 6.32766C8.014 6.44787 7.88536 6.57611 7.76476 6.70033C7.44717 7.02491 7.10546 7.36953 6.73963 7.70213C7.00094 8.28718 7.37079 8.86823 7.92958 9.56949C9.06325 10.956 10.2452 12.0259 11.5437 12.8474C11.6763 12.9315 11.8251 13.0077 11.9778 13.0838C12.0904 13.1399 12.2029 13.196 12.3155 13.2561L13.7024 11.8736C14.1447 11.4328 14.6632 11.2004 15.206 11.2004C15.7487 11.2004 16.2633 11.4369 16.6934 11.8817L19.1095 14.29C20.014 15.1916 20.018 16.3777 19.1175 17.3114C18.9567 17.4797 18.7758 17.656 18.5467 17.8764L18.4904 17.9325C18.2371 18.177 17.9959 18.4094 17.7828 18.6659C17.7748 18.6779 17.7668 18.6899 17.7587 18.6979C17.0753 19.4232 16.2472 19.7759 15.218 19.7759ZM4.34365 13.1279C6.24516 15.392 8.53662 17.1832 11.1577 18.4495C12.1587 18.9223 13.4934 19.4753 14.9527 19.5715H14.9648C15.0532 19.5755 15.1336 19.5795 15.222 19.5795C16.1909 19.5795 16.9748 19.2469 17.61 18.5577L17.614 18.5537V18.5497L17.622 18.5416C17.8431 18.2772 18.0884 18.0407 18.3457 17.7883L18.4019 17.7322C18.6271 17.5158 18.808 17.3395 18.9648 17.1752C19.7808 16.3257 19.7768 15.2517 18.9567 14.4342L16.5406 12.0219C16.1467 11.6172 15.6844 11.4008 15.1979 11.4008C14.7115 11.4008 14.2411 11.6132 13.8391 12.0179L12.3437 13.5086L12.2753 13.4685C12.1467 13.3924 12.014 13.3283 11.8854 13.2641C11.7326 13.188 11.5718 13.1079 11.4311 13.0197C10.1165 12.1862 8.91853 11.1002 7.76878 9.69772C7.17782 8.95238 6.79591 8.34329 6.52255 7.71816L6.4944 7.65405L6.54667 7.60596C6.92456 7.26535 7.28234 6.9047 7.61601 6.56408C7.73662 6.43986 7.86526 6.31163 7.98586 6.19141C8.40395 5.77466 8.62506 5.30181 8.62506 4.82095C8.62506 4.33607 8.40395 3.86322 7.98586 3.45048L6.78787 2.25633C6.65119 2.12008 6.52255 1.98785 6.38988 1.8516L6.37782 1.83958C6.12054 1.5751 5.84315 1.29059 5.56576 1.03814C5.17179 0.649437 4.70546 0.449077 4.21903 0.449077C3.73662 0.449077 3.26626 0.653444 2.85621 1.04214L1.35672 2.52882C0.826063 3.05777 0.528576 3.69893 0.464254 4.43625C0.387872 5.37795 0.564757 6.38376 1.01903 7.59794C1.71853 9.49736 2.77581 11.2525 4.34365 13.1279ZM15.222 18.8061C15.1537 18.8061 15.0813 18.8021 15.009 18.7981C13.6743 18.714 12.4361 18.197 11.5075 17.7562C8.98687 16.542 6.78385 14.8189 4.95873 12.639C3.45119 10.8318 2.43812 9.14874 1.76677 7.34148C1.3527 6.23549 1.18787 5.33387 1.25621 4.50438C1.30848 3.94337 1.52556 3.47853 1.92355 3.08182L3.41903 1.59113C3.67229 1.34669 3.94968 1.22247 4.23109 1.22247C4.50848 1.22247 4.78184 1.35471 5.02305 1.59915C5.25621 1.81554 5.47732 2.03994 5.71451 2.27637L5.82305 2.38456C5.89139 2.45669 5.96375 2.52481 6.03209 2.59694C6.10044 2.66907 6.1728 2.7372 6.24114 2.80932L7.43913 4.00347C7.70848 4.27196 7.84516 4.54846 7.84516 4.82495C7.84516 5.10145 7.70848 5.37394 7.43913 5.64643C7.37883 5.70654 7.31451 5.77066 7.2542 5.83477C7.18988 5.89889 7.12958 5.963 7.06526 6.02311L6.98084 6.10726C6.63511 6.45589 6.30948 6.78448 5.95169 7.10105L5.93561 7.11708C5.64616 7.4056 5.68234 7.67809 5.75873 7.90249C5.75873 7.9065 5.76275 7.91051 5.76275 7.91451C5.76677 7.91852 5.76677 7.92654 5.77079 7.93054C6.08033 8.67588 6.51049 9.37314 7.16576 10.1906C8.35973 11.6573 9.61802 12.8033 11.017 13.6849C11.1577 13.7771 11.3065 13.8492 11.4512 13.9253C11.4793 13.9414 11.5115 13.9534 11.5396 13.9694C11.6884 14.0456 11.8452 14.1257 11.9859 14.2139C11.9939 14.2179 12.0019 14.2219 12.006 14.2259C12.01 14.2299 12.018 14.2339 12.022 14.2339C12.1386 14.294 12.2512 14.322 12.3678 14.322C12.6532 14.322 12.8341 14.1377 12.8944 14.0776L14.3979 12.5789C14.6512 12.3265 14.9286 12.1942 15.206 12.1942C15.5758 12.1942 15.8572 12.4387 15.9899 12.5829L18.41 14.9913C18.9286 15.5082 18.9246 16.0972 18.3979 16.6422C18.221 16.8306 18.0361 17.0109 17.8592 17.1792L17.815 17.2233C17.5497 17.4797 17.2763 17.7442 17.0271 18.0407L17.023 18.0447C16.5366 18.5657 15.9658 18.8061 15.222 18.8061ZM1.44918 4.5204C1.38486 5.31784 1.54566 6.19141 1.94767 7.26935C2.61099 9.05657 3.61601 10.7236 5.10747 12.5108C6.91652 14.6667 9.09541 16.3697 11.5919 17.5719C12.5045 18.0047 13.7185 18.5136 15.021 18.5977C15.0894 18.6018 15.1577 18.6058 15.222 18.6058C15.9055 18.6058 16.4281 18.3854 16.8703 17.9085C17.1236 17.608 17.4009 17.3355 17.6703 17.079L17.7145 17.0349C17.8874 16.8706 18.0723 16.6903 18.2452 16.506C18.6994 16.0371 18.7035 15.5763 18.2612 15.1355L15.8371 12.7232C15.7205 12.5989 15.4874 12.3946 15.1979 12.3946C14.9768 12.3946 14.7477 12.5068 14.5346 12.7232L13.0271 14.2219C12.8261 14.4222 12.6009 14.5224 12.3557 14.5224C12.207 14.5224 12.0663 14.4863 11.9215 14.4102C11.9135 14.4062 11.9055 14.4022 11.8974 14.3942C11.8934 14.3902 11.8854 14.3862 11.8813 14.3862L11.8733 14.3822C11.7406 14.298 11.5919 14.2219 11.4391 14.1457C11.411 14.1297 11.3788 14.1177 11.3507 14.1017C11.2019 14.0255 11.0452 13.9494 10.9004 13.8532C9.48536 12.9596 8.21099 11.8015 7.00094 10.3148C6.3336 9.47733 5.89541 8.76404 5.5738 8.00267L5.56978 7.99466C5.56978 7.99065 5.56576 7.98664 5.56576 7.98264C5.56174 7.97462 5.56174 7.97062 5.55772 7.9626C5.4733 7.71415 5.40898 7.34549 5.78285 6.96881L5.80697 6.94477C6.16074 6.63221 6.48636 6.30361 6.82807 5.95899L6.9125 5.87484C6.97682 5.81073 7.03712 5.75062 7.09742 5.6865C7.16174 5.62239 7.22204 5.55827 7.28636 5.49816C7.51953 5.26575 7.63611 5.04134 7.63611 4.82095C7.63611 4.60055 7.51953 4.37214 7.28636 4.14373L6.08837 2.94958C6.01601 2.87745 5.94767 2.80532 5.87933 2.7372C5.80697 2.66507 5.73863 2.59694 5.67028 2.52481L5.56174 2.41662C5.32858 2.18019 5.10747 1.95579 4.87832 1.74341L4.8743 1.7394C4.66928 1.53102 4.44415 1.41882 4.22305 1.41882C3.99792 1.41882 3.76476 1.52702 3.55169 1.73138L2.05621 3.22207C1.6944 3.58672 1.4934 4.01149 1.44918 4.5204Z" fill="#00AC00"/>
<path d="M15.2156 19.8757C15.1232 19.8757 15.0387 19.8717 14.9463 19.8677H14.9302C13.4186 19.7715 12.0518 19.2025 11.0267 18.7176C8.36538 17.4313 6.03774 15.6161 4.11212 13.3199C2.52016 11.4165 1.44679 9.62929 0.735231 7.70182C0.268899 6.44756 0.087995 5.40168 0.164377 4.4119C0.232719 3.59843 0.562367 2.89316 1.14528 2.31612L2.6488 0.813419C3.11513 0.372625 3.65784 0.1362 4.22066 0.1362C4.78749 0.1362 5.32217 0.368618 5.77242 0.809412C6.05382 1.06988 6.33121 1.35039 6.59252 1.61887L6.60458 1.63089C6.73724 1.76714 6.86588 1.89937 7.00257 2.03562L8.20056 3.22977C8.67493 3.69861 8.92819 4.2476 8.92819 4.81262C8.92819 5.37363 8.67895 5.92262 8.20056 6.39547C8.07995 6.51568 7.95131 6.64391 7.83473 6.76413C7.5292 7.07669 7.20357 7.40128 6.85784 7.72185C7.11513 8.27886 7.47292 8.83185 8.00357 9.50106C9.1292 10.8755 10.3031 11.9414 11.5935 12.7589C11.7222 12.8391 11.8669 12.9152 12.0197 12.9873C12.1081 13.0314 12.2006 13.0795 12.293 13.1276L13.6237 11.8012C14.086 11.3404 14.6287 11.0959 15.1955 11.0959C15.7664 11.0959 16.3051 11.3404 16.7553 11.8052L19.1674 14.2095C19.6297 14.6704 19.8749 15.2153 19.8749 15.7804C19.8749 16.3454 19.6337 16.8944 19.1794 17.3712C19.0186 17.5395 18.8377 17.7199 18.6046 17.9362L18.5483 17.9923C18.299 18.2328 18.0619 18.4652 17.8528 18.7136C17.8408 18.7297 17.8287 18.7457 17.8207 18.7537C17.1252 19.5111 16.2729 19.8757 15.2156 19.8757ZM14.9543 19.467H14.9664C15.0508 19.471 15.1352 19.475 15.2197 19.475C16.1563 19.475 16.9121 19.1544 17.5272 18.4932L17.5433 18.4772C17.7684 18.2087 18.0136 17.9683 18.2749 17.7158L18.3312 17.6597C18.5563 17.4434 18.7372 17.267 18.894 17.1027C19.682 16.2853 19.6779 15.2875 18.89 14.5021L16.4739 12.0937C16.1001 11.705 15.6619 11.5047 15.1996 11.5047C14.7413 11.5047 14.295 11.709 13.9091 12.0897L12.3614 13.6325L12.2287 13.5564C12.1001 13.4842 11.9714 13.4161 11.8428 13.356C11.686 13.2799 11.5252 13.1957 11.3805 13.1035C10.0538 12.266 8.84779 11.1721 7.69402 9.75752C7.09905 9.00416 6.7091 8.38705 6.43573 7.75391L6.37945 7.62167L6.48799 7.5255C6.86588 7.18489 7.21965 6.82825 7.55332 6.48763C7.67392 6.36341 7.80257 6.23518 7.92317 6.11496C8.32116 5.71825 8.5302 5.26944 8.5302 4.81262C8.5302 4.35579 8.32116 3.90699 7.92317 3.51428L6.72518 2.32013C6.5885 2.18389 6.45985 2.05165 6.32317 1.9114L6.31111 1.89937C6.05382 1.6349 5.77644 1.35439 5.50307 1.10194L5.49905 1.09793C5.12518 0.733275 4.68297 0.536921 4.22468 0.536921C3.77041 0.536921 3.32418 0.733275 2.93423 1.10194L1.42669 2.59663C0.916136 3.10554 0.622668 3.72666 0.562367 4.44395C0.490005 5.36962 0.662869 6.36341 1.1091 7.56157C1.80458 9.44496 2.85784 11.1921 4.41764 13.0595C6.30709 15.3115 8.59051 17.0947 11.1955 18.353C12.1885 18.8258 13.5111 19.3748 14.9543 19.467ZM15.2197 18.906C15.1473 18.906 15.0749 18.902 14.9985 18.898C13.6478 18.8098 12.3975 18.2889 11.4568 17.8441C8.92417 16.6219 6.7091 14.8908 4.87191 12.7028C3.35634 10.8876 2.33925 9.1925 1.65985 7.37323C1.23774 6.25121 1.07292 5.33756 1.14126 4.49605V4.49204C1.19352 3.90699 1.42267 3.42211 1.83674 3.00536L3.33222 1.51468C3.60558 1.25421 3.90709 1.11396 4.21262 1.11396C4.51413 1.11396 4.81161 1.25421 5.07694 1.51869C5.31413 1.73508 5.53523 1.95948 5.7684 2.19991L5.87694 2.30811C5.94528 2.38024 6.01764 2.44836 6.08598 2.52049C6.15433 2.59262 6.22669 2.66074 6.29503 2.73287L7.49302 3.92302C7.78247 4.21154 7.93121 4.51208 7.93121 4.81262C7.93121 5.11316 7.78247 5.4137 7.49302 5.70222C7.43272 5.76233 7.3684 5.82644 7.30809 5.89056C7.24377 5.95467 7.18347 6.01879 7.11915 6.0789L7.03473 6.16305C6.689 6.51168 6.36337 6.84027 6.00558 7.15684L5.9895 7.17287C5.75232 7.40929 5.75634 7.61767 5.83674 7.8581V7.86211C5.84076 7.87012 5.84076 7.87413 5.84478 7.88214C6.15031 8.61546 6.57644 9.3047 7.22367 10.1182C8.4096 11.5768 9.66387 12.7148 11.0508 13.5924C11.1875 13.6806 11.3362 13.7567 11.4769 13.8248C11.5051 13.8409 11.5372 13.8569 11.5654 13.8689C11.7141 13.9451 11.8749 14.0252 12.0156 14.1134C12.0237 14.1174 12.0317 14.1214 12.0357 14.1254C12.0398 14.1294 12.0438 14.1294 12.0478 14.1334C12.1523 14.1855 12.2488 14.2135 12.3493 14.2135C12.5905 14.2135 12.7513 14.0533 12.8076 14.0012L14.3111 12.5025C14.5845 12.23 14.886 12.0857 15.1875 12.0857C15.489 12.0857 15.7905 12.234 16.0438 12.5025L18.4639 14.9108C19.0186 15.4638 19.0186 16.117 18.4558 16.702C18.2789 16.8904 18.09 17.0747 17.9171 17.239L17.8729 17.2831C17.6076 17.5395 17.3382 17.8 17.093 18.0925L17.085 18.1005C16.5945 18.6455 15.9835 18.906 15.2197 18.906ZM1.54729 4.52811C1.48699 5.30951 1.64377 6.17106 2.04176 7.23297C2.70106 9.00817 3.70206 10.6631 5.18548 12.4464C6.98649 14.5902 9.15332 16.2853 11.6337 17.4834C12.5382 17.9122 13.7403 18.4171 15.0227 18.4972C15.091 18.5013 15.1553 18.5053 15.2197 18.5053C15.8709 18.5053 16.3734 18.2969 16.7915 17.8441C17.0488 17.5395 17.3262 17.267 17.5955 17.0066L17.6398 16.9625C17.8126 16.7982 17.9975 16.6219 18.1664 16.4375C18.5845 16.0008 18.5925 15.6121 18.1825 15.2033L15.7543 12.787C15.6538 12.6788 15.4448 12.4944 15.1915 12.4944C14.9985 12.4944 14.7935 12.5986 14.5965 12.791L13.097 14.2897C12.8759 14.5101 12.6267 14.6223 12.3573 14.6223C12.1965 14.6223 12.0317 14.5822 11.8749 14.4981C11.8669 14.494 11.8548 14.486 11.8468 14.482C11.8428 14.478 11.8387 14.478 11.8347 14.474L11.8186 14.462C11.69 14.3818 11.5453 14.3057 11.3925 14.2336C11.3604 14.2175 11.3322 14.2015 11.3041 14.1895C11.1513 14.1134 10.9945 14.0332 10.8418 13.933C9.41865 13.0314 8.13624 11.8693 6.91815 10.3746C6.24277 9.52911 5.80056 8.80781 5.47895 8.03842L5.47091 8.01839C5.46689 8.01037 5.46287 8.00236 5.45885 7.99034C5.36639 7.71785 5.29402 7.30911 5.7081 6.89637L5.73624 6.86832C6.09 6.55575 6.41161 6.23117 6.75332 5.88655L6.83774 5.8024C6.90206 5.73828 6.96237 5.67818 7.02267 5.61406C7.08699 5.54994 7.14729 5.48583 7.21161 5.42572C7.42468 5.21334 7.5292 5.00897 7.5292 4.81662C7.5292 4.62428 7.42066 4.41991 7.21161 4.20753L6.01764 3.01739C5.94528 2.94526 5.87694 2.87313 5.8086 2.805C5.73624 2.73287 5.66789 2.66074 5.59955 2.59262L5.49101 2.48443C5.25784 2.248 5.04076 2.0276 4.81161 1.81522L4.80357 1.80721C4.61865 1.61887 4.41764 1.51869 4.22468 1.51869C4.02367 1.51869 3.81865 1.61887 3.62568 1.8032L2.12619 3.28988C1.78046 3.6385 1.59151 4.04323 1.54729 4.52811Z" fill="#00AC00"/>
<path d="M15.2172 19.9756C15.1287 19.9756 15.0483 19.9716 14.9639 19.9676H14.9237C13.4001 19.8714 12.0172 19.2984 10.984 18.8095C8.3066 17.5152 5.9669 15.6919 4.03725 13.3837C2.43725 11.4723 1.35986 9.67704 0.644287 7.73755C0.173935 6.47127 -0.0109897 5.41337 0.0694124 4.40355C0.133734 3.56604 0.475443 2.84074 1.07444 2.24767L2.57796 0.744967C3.06841 0.28013 3.63524 0.0356903 4.22218 0.0356903C4.81313 0.0356903 5.37594 0.28013 5.8463 0.736953C6.13172 1.00143 6.40911 1.28193 6.6664 1.54641L6.69052 1.57045C6.81916 1.70269 6.94378 1.83092 7.07645 1.96316L8.27444 3.15731C8.76891 3.64619 9.03022 4.21922 9.03022 4.81229C9.03022 5.40536 8.76891 5.97839 8.27444 6.46727C8.15383 6.58748 8.02519 6.71571 7.90861 6.83593C7.55886 7.19257 7.26137 7.4851 6.97997 7.74958C7.22921 8.27452 7.57092 8.79947 8.08147 9.44463C9.19906 10.8111 10.3649 11.869 11.6473 12.6784C11.7639 12.7506 11.9046 12.8267 12.0614 12.9029C12.1297 12.9389 12.2021 12.975 12.2744 13.011L13.5528 11.7368C14.0352 11.2559 14.6021 11.0034 15.1971 11.0034C15.796 11.0034 16.3589 11.2599 16.8292 11.7448L19.2413 14.1491C19.7237 14.63 19.9769 15.199 19.9769 15.7921C19.9769 16.3811 19.7277 16.9541 19.2533 17.451C19.0724 17.6434 18.8875 17.8237 18.6744 18.0201L18.6222 18.0722C18.3769 18.3086 18.1398 18.541 17.9347 18.7854C17.9227 18.8015 17.9106 18.8215 17.8986 18.8335C17.183 19.5989 16.3066 19.9756 15.2172 19.9756ZM14.9357 19.7672H14.9759C15.0563 19.7712 15.1367 19.7752 15.2172 19.7752C16.2463 19.7752 17.0744 19.4186 17.7498 18.6853L17.7538 18.6813C17.7579 18.6732 17.7659 18.6652 17.778 18.6532L17.782 18.6492C17.991 18.3967 18.2362 18.1603 18.4855 17.9199L18.5418 17.8638C18.7548 17.6674 18.9357 17.4871 19.1166 17.2988C19.5548 16.8419 19.784 16.313 19.784 15.776C19.784 15.235 19.5508 14.7181 19.1046 14.2773L16.6925 11.873C16.2624 11.4282 15.7478 11.1918 15.2051 11.1918C14.6664 11.1918 14.1478 11.4242 13.7056 11.869L12.3227 13.2475L12.2584 13.2154C12.1659 13.1673 12.0734 13.1192 11.985 13.0752C11.8161 12.995 11.6754 12.9189 11.5508 12.8427C10.2523 12.0213 9.07042 10.9473 7.93675 9.56484C7.39404 8.87961 7.03625 8.32661 6.77896 7.7656L6.7468 7.70149L6.79906 7.6534C7.09253 7.38091 7.40208 7.07636 7.77192 6.69969C7.88851 6.57947 8.01715 6.45124 8.13775 6.33102C8.59605 5.87821 8.83725 5.35727 8.83725 4.8203C8.83725 4.28334 8.59605 3.75839 8.13775 3.30958L6.93976 2.11543C6.8071 1.9832 6.68248 1.85496 6.54981 1.72273L6.52971 1.69868C6.27243 1.43421 5.99504 1.1537 5.71363 0.893234C5.27142 0.460455 4.76087 0.236051 4.22218 0.236051C3.6875 0.236051 3.16891 0.460455 2.71866 0.885219L1.21514 2.38792C0.648307 2.94893 0.330719 3.63016 0.262377 4.41958C0.185995 5.39333 0.3669 6.4272 0.829211 7.66542C1.53675 9.58488 2.6061 11.3601 4.19002 13.2555C6.10358 15.5396 8.41916 17.3468 11.0724 18.6292C12.0855 19.11 13.4443 19.675 14.9357 19.7672ZM15.2212 19.5749C15.1367 19.5749 15.0483 19.5709 14.9639 19.5668H14.9478C13.4764 19.4747 12.1458 18.9177 11.1528 18.4448C8.53172 17.1785 6.24027 15.3873 4.34278 13.1232C2.77092 11.2439 1.71363 9.4847 1.01816 7.5973C0.563885 6.38712 0.387 5.38131 0.463382 4.43561C0.523684 3.69828 0.825191 3.05312 1.35584 2.52417L2.86338 1.02948C3.27343 0.640779 3.74378 0.436412 4.2262 0.436412C4.70861 0.436412 5.17494 0.640779 5.56891 1.02547L5.57293 1.02948C5.85032 1.28594 6.13976 1.57847 6.38097 1.82691L6.41313 1.85897C6.54177 1.99121 6.6664 2.11543 6.79504 2.24767L7.99303 3.44583C8.41112 3.85456 8.62821 4.33142 8.62821 4.8163C8.62821 5.30117 8.4071 5.77402 7.99303 6.19077C7.87645 6.30698 7.74378 6.43922 7.62318 6.56344C7.29353 6.90005 6.93976 7.25669 6.55383 7.60532L6.49755 7.6534L6.52569 7.71752C6.79102 8.33463 7.17695 8.94773 7.77192 9.69708C8.91765 11.0996 10.1156 12.1896 11.4342 13.0191C11.5589 13.0992 11.6996 13.1753 11.8885 13.2675C12.0051 13.3236 12.1337 13.3877 12.2785 13.4719L12.3468 13.5119L13.8383 12.0253C14.2443 11.6245 14.7146 11.4122 15.2011 11.4122C15.6915 11.4122 16.1579 11.6245 16.5478 12.0333L18.9639 14.4416C19.796 15.2711 19.8001 16.321 18.9679 17.1826C18.8111 17.3468 18.6383 17.5192 18.4011 17.7436L18.3448 17.7997C18.0754 18.0601 17.8383 18.2926 17.6212 18.553L17.6011 18.5771C16.9659 19.2463 16.186 19.5749 15.2212 19.5749ZM14.9599 19.3665H14.9719C15.0563 19.3705 15.1408 19.3745 15.2212 19.3745C16.1297 19.3745 16.8614 19.0619 17.4563 18.4248L17.4724 18.4088C17.6976 18.1403 17.9388 17.9039 18.2081 17.6434L18.2644 17.5873C18.4976 17.3629 18.6744 17.1906 18.8272 17.0303C19.5709 16.2569 19.5709 15.3152 18.8232 14.5699L16.4031 12.1655C16.0493 11.7969 15.6352 11.6045 15.2011 11.6045C14.7709 11.6045 14.3488 11.7969 13.983 12.1615L12.383 13.7564L12.182 13.6402C12.0413 13.56 11.9166 13.4959 11.8041 13.4438C11.6111 13.3477 11.4584 13.2675 11.3297 13.1834C9.99102 12.3378 8.78097 11.2359 7.61916 9.8173C7.01213 9.04791 6.62218 8.42279 6.34479 7.78965L6.26037 7.58929L6.42117 7.44503C6.80308 7.10041 7.15283 6.74777 7.48248 6.41117C7.60308 6.28694 7.73574 6.1547 7.85233 6.0385C8.23022 5.66182 8.43122 5.23705 8.43122 4.80828C8.43122 4.37951 8.23022 3.95474 7.85233 3.58207L6.65434 2.38792C6.52569 2.25969 6.40107 2.13146 6.27243 1.99922L6.24027 1.96717C5.99906 1.71872 5.71363 1.4302 5.43625 1.17374L5.42821 1.16572C5.07042 0.817097 4.65635 0.632765 4.2262 0.632765C3.80007 0.632765 3.37795 0.817097 3.00409 1.16973L1.49655 2.66843C1.00208 3.16132 0.720669 3.7624 0.660367 4.45164C0.588005 5.36528 0.76087 6.34304 1.20308 7.52517C1.89454 9.39253 2.93976 11.1317 4.49554 12.995C6.37695 15.2391 8.64429 17.0102 11.2413 18.2645C12.2182 18.7293 13.5247 19.2743 14.9599 19.3665ZM15.2212 19.0058C15.1488 19.0058 15.0805 19.0018 15.0081 18.9978H14.996C13.6292 18.9097 12.3629 18.3807 11.4182 17.9359C8.87343 16.7097 6.6463 14.9706 4.80107 12.7666C3.28147 10.9513 2.25233 9.24827 1.56489 7.40896C1.13876 6.27492 0.969915 5.34925 1.03826 4.49171V4.4837C1.09052 3.87861 1.3277 3.36969 1.76187 2.93691L3.25735 1.44623C3.55484 1.16572 3.88047 1.01746 4.21012 1.01746C4.53574 1.01746 4.86137 1.16572 5.14278 1.45024C5.39203 1.67865 5.62117 1.91107 5.83826 2.13547L5.9468 2.24366C5.98298 2.27973 6.01514 2.31579 6.05132 2.34785C6.0875 2.38392 6.12368 2.41998 6.15584 2.45605C6.18801 2.49211 6.22419 2.52417 6.26037 2.56023C6.29655 2.5963 6.33273 2.63236 6.36489 2.66843L7.55886 3.85456C7.86841 4.16312 8.02519 4.4877 8.02519 4.8163C8.02519 5.14489 7.86841 5.46546 7.55886 5.77803C7.49856 5.83813 7.43424 5.90225 7.37795 5.96236C7.35383 5.9864 7.33373 6.00644 7.31363 6.02647C7.27343 6.06655 7.22921 6.11063 7.18499 6.1547L7.09655 6.24286C6.75082 6.59149 6.42921 6.91607 6.07142 7.23264L6.05936 7.24467C5.85836 7.44503 5.85836 7.61333 5.93072 7.82571L5.93474 7.84174C6.23625 8.56304 6.65434 9.24427 7.30157 10.0537C8.47946 11.5043 9.72569 12.6344 11.1046 13.5039C11.2453 13.5961 11.4021 13.6722 11.5227 13.7323L11.5267 13.7364C11.5508 13.7524 11.579 13.7644 11.6031 13.7764L11.6111 13.7804L11.6594 13.8045C11.796 13.8726 11.9367 13.9447 12.0654 14.0249C12.0734 14.0289 12.0855 14.0369 12.0935 14.0449L12.0976 14.0489C12.19 14.093 12.2704 14.113 12.3468 14.113C12.5398 14.113 12.6724 13.9888 12.7287 13.9367L12.7367 13.9287L14.2362 12.434C14.5297 12.1415 14.8553 11.9892 15.185 11.9892C15.5106 11.9892 15.8403 12.1495 16.1136 12.438L18.5297 14.8423C19.1207 15.4314 19.1207 16.1527 18.5217 16.7738C18.3729 16.9341 18.2001 17.1064 17.979 17.3148L17.9347 17.3589C17.6734 17.6113 17.4041 17.8718 17.1629 18.1603L17.1508 18.1723C16.6523 18.7333 16.0172 19.0058 15.2212 19.0058ZM1.24328 4.49572V4.50373C1.17494 5.32922 1.33976 6.23084 1.75383 7.33683C2.43323 9.15611 3.45032 10.8391 4.94981 12.6384C6.77896 14.8183 8.986 16.5374 11.5026 17.7516C12.4352 18.1924 13.6734 18.7093 15.0081 18.7975H15.0202C15.0925 18.8015 15.1568 18.8055 15.2212 18.8055C15.9568 18.8055 16.5438 18.553 17.0101 18.0321L17.0182 18.0241C17.2674 17.7275 17.5408 17.4671 17.8021 17.2106L17.8463 17.1665C18.0634 16.9582 18.2362 16.7898 18.381 16.6336C18.9076 16.0846 18.9116 15.4995 18.393 14.9826L15.9729 12.5743C15.7357 12.3218 15.4584 12.1856 15.189 12.1856C14.9156 12.1856 14.6383 12.3178 14.385 12.5743L12.8694 14.081C12.8011 14.1451 12.6202 14.3134 12.3508 14.3134C12.2383 14.3134 12.1297 14.2853 12.0051 14.2212L11.989 14.2092C11.985 14.2052 11.981 14.2052 11.9769 14.2012L11.9649 14.1932C11.8443 14.117 11.7036 14.0449 11.5709 13.9768L11.5267 13.9527C11.4986 13.9407 11.4624 13.9247 11.4342 13.9087C11.3096 13.8486 11.1488 13.7684 11.0001 13.6722C9.60107 12.7866 8.34278 11.6446 7.14881 10.1779C6.49353 9.35246 6.06338 8.65921 5.75785 7.91788C5.75383 7.90986 5.75383 7.90586 5.74981 7.89784L5.74177 7.87781V7.86578C5.66941 7.64138 5.64127 7.3769 5.92268 7.09239L5.94278 7.07236C6.29655 6.75979 6.61816 6.43521 6.95987 6.09059L7.05233 5.99842C7.09655 5.95835 7.13675 5.91828 7.17695 5.8742C7.19705 5.85416 7.22117 5.83012 7.24127 5.81008C7.30157 5.74597 7.36589 5.68185 7.4262 5.62175C7.69554 5.35326 7.83625 5.07676 7.83625 4.80427C7.83625 4.53178 7.69956 4.25529 7.4262 3.9868L6.22419 2.80467C6.18801 2.76861 6.15584 2.73254 6.11966 2.69648C6.08348 2.66041 6.0473 2.62435 6.01514 2.58828C5.98298 2.55222 5.9468 2.52016 5.91062 2.4841C5.87444 2.44803 5.83826 2.41197 5.8061 2.3759L5.70157 2.27171C5.48851 2.05132 5.25936 1.81489 5.01414 1.5945L5.01012 1.59049C4.76489 1.34605 4.4875 1.21381 4.21816 1.21381C3.94479 1.21381 3.66338 1.34204 3.4061 1.58648L1.9066 3.07716C1.51263 3.47789 1.29152 3.94272 1.24328 4.49572ZM11.9649 14.1972C11.9649 14.1972 11.9689 14.2012 11.9649 14.1972C11.9689 14.2012 11.9649 14.1972 11.9649 14.1972ZM15.2212 18.6051C15.1568 18.6051 15.0965 18.6011 15.0322 18.5971H15.0202C13.7257 18.517 12.5076 18.008 11.595 17.5753C9.1066 16.3731 6.92368 14.67 5.11464 12.5101C3.61916 10.7109 2.61414 9.04791 1.95484 7.26871C1.55283 6.19478 1.39203 5.3212 1.45635 4.51976C1.50459 4.01085 1.70157 3.58608 2.06338 3.22142L3.56288 1.73475C3.77997 1.53038 4.00911 1.42219 4.23424 1.42219C4.45534 1.42219 4.68047 1.53038 4.88549 1.74276L4.89353 1.75078C5.11866 1.95915 5.33574 2.17955 5.56489 2.41197L5.66941 2.52417C5.70157 2.55623 5.73775 2.59229 5.76992 2.62836C5.8061 2.66442 5.83826 2.70049 5.87846 2.73655C5.91062 2.76861 5.9468 2.80467 5.98298 2.84074C6.01916 2.8768 6.05132 2.91287 6.0875 2.94893L7.28147 4.13908C7.51062 4.37149 7.6272 4.59991 7.6272 4.8203C7.6272 5.0407 7.51062 5.26911 7.28147 5.50153C7.23725 5.5416 7.19705 5.58167 7.15685 5.62575C7.13675 5.64579 7.11263 5.66983 7.09253 5.68987C7.03223 5.75398 6.97193 5.81409 6.9076 5.87821L6.81916 5.96637C6.47745 6.31099 6.15986 6.63156 5.8061 6.94413L5.78198 6.96817C5.41213 7.33683 5.46439 7.69347 5.55685 7.95795C5.56087 7.96596 5.56087 7.96997 5.56489 7.97398L5.57695 8.00203C5.89856 8.76741 6.33675 9.48069 7.00007 10.3142C8.21012 11.7969 9.48449 12.9549 10.8996 13.8486C11.0483 13.9447 11.2051 14.0249 11.3498 14.097C11.3699 14.105 11.39 14.117 11.4101 14.1251C11.4182 14.1291 11.4302 14.1371 11.4423 14.1411C11.6111 14.2212 11.7518 14.2974 11.8764 14.3735L11.8965 14.3895C11.9006 14.3895 11.9006 14.3935 11.9046 14.3935C11.9086 14.3935 11.9126 14.3975 11.9166 14.4015C11.9207 14.4015 11.9207 14.4056 11.9247 14.4056C12.0654 14.4817 12.2101 14.5178 12.3629 14.5178C12.6041 14.5178 12.8292 14.4176 13.0302 14.2132L14.5297 12.7145C14.7468 12.5021 14.98 12.3899 15.1971 12.3899C15.4905 12.3899 15.7197 12.5943 15.8322 12.7145L18.2563 15.1269C18.7026 15.5717 18.6986 16.0245 18.2403 16.5013C18.0674 16.6897 17.8785 16.87 17.7096 17.0303L17.6654 17.0744C17.388 17.3428 17.1187 17.6073 16.8654 17.9039L16.8614 17.9079C16.4272 18.3847 15.9046 18.6051 15.2212 18.6051ZM1.64931 4.53579C1.58901 5.30517 1.74579 6.1507 2.13976 7.19658C2.79102 8.95575 3.78399 10.6027 5.2674 12.3819C7.06037 14.5178 9.21916 16.2048 11.6835 17.3909C12.584 17.8157 13.7739 18.3166 15.0362 18.3967H15.0483C15.1086 18.4007 15.1689 18.4048 15.2252 18.4048C15.8483 18.4048 16.3267 18.2044 16.7207 17.7756C16.978 17.4711 17.2513 17.2026 17.5287 16.9341L17.5729 16.89C17.7378 16.7297 17.9267 16.5534 18.0955 16.3691C18.4775 15.9684 18.4855 15.6398 18.1156 15.2751L15.6875 12.8588C15.595 12.7586 15.4101 12.5943 15.1971 12.5943C15.0322 12.5943 14.8513 12.6865 14.6704 12.8628L13.1709 14.3615C12.9297 14.6019 12.6563 14.7221 12.3589 14.7221C12.1739 14.7221 11.9971 14.678 11.8282 14.5859C11.8242 14.5859 11.8161 14.5819 11.8081 14.5739C11.8041 14.5739 11.8041 14.5699 11.8001 14.5699L11.784 14.5618C11.78 14.5578 11.7759 14.5578 11.7679 14.5498L11.7599 14.5418C11.6433 14.4697 11.5066 14.3975 11.3458 14.3214C11.3337 14.3134 11.3217 14.3094 11.3096 14.3014C11.2935 14.2934 11.2775 14.2853 11.2614 14.2773L11.2574 14.2733C11.1046 14.1972 10.9438 14.113 10.783 14.0128C9.35182 13.1072 8.06137 11.9331 6.83524 10.4344C6.15584 9.58488 5.70961 8.85957 5.37997 8.07416L5.37193 8.05813C5.36791 8.05012 5.35986 8.03809 5.35584 8.02207C5.29956 7.84976 5.12268 7.33283 5.62921 6.82391L5.66137 6.79185C6.01112 6.4833 6.32871 6.16272 6.6664 5.8181L6.75484 5.72994C6.81916 5.66582 6.87946 5.60572 6.93574 5.54561C6.95986 5.52156 6.97997 5.50153 7.00007 5.48149C7.04027 5.44142 7.08449 5.39734 7.12871 5.35326C7.31765 5.16492 7.41414 4.9846 7.41414 4.8163C7.41414 4.652 7.31765 4.47167 7.12469 4.27933L5.93072 3.08919C5.89454 3.05312 5.85836 3.01706 5.82218 2.97698C5.79002 2.94092 5.75383 2.90886 5.72167 2.8768C5.68549 2.84074 5.64931 2.80467 5.61313 2.7646C5.58097 2.72854 5.54479 2.69648 5.51263 2.66442L5.39605 2.54421C5.1669 2.31179 4.95383 2.0954 4.72871 1.88702L4.71665 1.875C4.55182 1.7067 4.37494 1.61453 4.21012 1.61453C4.04127 1.61453 3.85635 1.70269 3.67946 1.87099L2.19605 3.36168C1.87042 3.69027 1.68951 4.07496 1.64931 4.53579ZM11.7759 14.5538C11.78 14.5538 11.78 14.5578 11.7759 14.5538V14.5538Z" fill="#00AC00"/>
</svg>
