<svg width="20" height="20" viewBox="0 0 20 20" fill="none" xmlns="http://www.w3.org/2000/svg">
<g clip-path="url(#clip0)">
<path d="M9.65856 0.335266C5.60272 0.335266 2.30145 3.63653 2.30145 7.69237C2.30145 10.3107 3.09753 11.3596 6.927 16.4077C7.59102 17.283 8.3456 18.2753 9.20581 19.426C9.31145 19.5694 9.48123 19.6524 9.65856 19.6524C9.83588 19.6524 10.0057 19.5694 10.1113 19.426C10.9677 18.2828 11.7185 17.2943 12.3788 16.4228C16.2158 11.3596 17.0157 10.307 17.0157 7.69237C17.0157 3.63653 13.7144 0.335266 9.65856 0.335266ZM11.4771 15.7361C10.9338 16.453 10.3301 17.2491 9.65856 18.1432C8.97944 17.2415 8.37578 16.4417 7.82871 15.7248C4.10489 10.8163 3.43331 9.92968 3.43331 7.69237C3.43331 4.25905 6.22524 1.46713 9.65856 1.46713C13.0919 1.46713 15.8838 4.25905 15.8838 7.69237C15.8838 9.92591 15.2122 10.8125 11.4771 15.7361Z" fill="#00AC00"/>
<path d="M9.65856 19.9353C9.39446 19.9353 9.13791 19.8071 8.97944 19.5958C8.123 18.4526 7.3722 17.4641 6.70818 16.5888L6.70063 16.5775C4.78024 14.0421 3.61819 12.5141 2.93153 11.2766C2.25618 10.0617 2.01849 9.12607 2.01849 7.69238C2.01849 3.47808 5.44426 0.0523071 9.65856 0.0523071C13.8729 0.0523071 17.2986 3.47808 17.2986 7.69238C17.2986 10.4013 16.4912 11.469 12.6052 16.5926C11.9449 17.4641 11.1979 18.4488 10.3377 19.5958C10.1792 19.8071 9.92266 19.9353 9.65856 19.9353ZM9.65856 0.618238C5.75741 0.618238 2.58442 3.79122 2.58442 7.69238C2.58442 10.2164 3.37296 11.254 7.15337 16.2379L7.16092 16.2493C7.82495 17.1246 8.57575 18.1131 9.43219 19.2562C9.48501 19.3279 9.57179 19.3694 9.65856 19.3694C9.74534 19.3694 9.83211 19.3279 9.88493 19.2562C10.7451 18.1093 11.4922 17.1208 12.1524 16.2493C15.9404 11.2502 16.7327 10.2089 16.7327 7.69238C16.7327 3.79122 13.5597 0.618238 9.65856 0.618238ZM9.65856 18.6148L9.43219 18.313C8.75307 17.4113 8.14187 16.6039 7.60235 15.8946C3.82947 10.922 3.15036 10.024 3.15036 7.69238C3.15036 4.10437 6.07056 1.18417 9.65856 1.18417C13.2466 1.18417 16.1668 4.10437 16.1668 7.69238C16.1668 10.0202 15.4839 10.9182 11.7035 15.9097C11.1677 16.619 10.5565 17.4188 9.88493 18.3168L9.65856 18.6148ZM9.65856 1.7501C6.38371 1.7501 3.71629 4.41752 3.71629 7.69238C3.71629 9.83537 4.38031 10.7069 8.05509 15.5513C8.53425 16.1813 9.06999 16.8906 9.65856 17.6716C10.2434 16.8944 10.7753 16.1927 11.2507 15.5626C14.9368 10.7031 15.6008 9.82782 15.6008 7.6886C15.6008 4.41375 12.9334 1.7501 9.65856 1.7501Z" fill="#00AC00"/>
<path d="M9.65854 3.73087C7.47404 3.73087 5.69702 5.50789 5.69702 7.69238C5.69702 9.87688 7.47404 11.6539 9.65854 11.6539C11.843 11.6539 13.6201 9.87688 13.6201 7.69238C13.6201 5.50789 11.843 3.73087 9.65854 3.73087ZM9.65854 10.522C8.09657 10.522 6.82888 9.25435 6.82888 7.69238C6.82888 6.13041 8.09657 4.86273 9.65854 4.86273C11.2205 4.86273 12.4882 6.13041 12.4882 7.69238C12.4882 9.25435 11.2205 10.522 9.65854 10.522Z" fill="#00AC00"/>
<path d="M9.65854 11.9369C7.31936 11.9369 5.41406 10.0316 5.41406 7.69239C5.41406 5.35321 7.31936 3.44791 9.65854 3.44791C11.9977 3.44791 13.903 5.35321 13.903 7.69239C13.903 10.0316 11.9977 11.9369 9.65854 11.9369ZM9.65854 4.01384C7.62874 4.01384 5.97999 5.66258 5.97999 7.69239C5.97999 9.72219 7.62874 11.3709 9.65854 11.3709C11.6884 11.3709 13.3371 9.72219 13.3371 7.69239C13.3371 5.66258 11.6884 4.01384 9.65854 4.01384ZM9.65854 10.805C7.94189 10.805 6.54592 9.40905 6.54592 7.69239C6.54592 5.97573 7.94189 4.57977 9.65854 4.57977C11.3752 4.57977 12.7712 5.97573 12.7712 7.69239C12.7712 9.40905 11.3752 10.805 9.65854 10.805ZM9.65854 5.1457C8.25504 5.1457 7.11186 6.28888 7.11186 7.69239C7.11186 9.0959 8.25504 10.2391 9.65854 10.2391C11.0621 10.2391 12.2052 9.0959 12.2052 7.69239C12.2052 6.28888 11.0621 5.1457 9.65854 5.1457Z" fill="#00AC00"/>
</g>
<defs>
<clipPath id="clip0">
<rect width="20" height="20" fill="white" transform="translate(0 -0.00012207)"/>
</clipPath>
</defs>
</svg>
