<svg width="202" height="186" viewBox="0 0 202 186" fill="none" xmlns="http://www.w3.org/2000/svg">
<g opacity="0.6">
<path d="M101.009 120.927L101.407 42.0447C73.4229 34.3836 45.4844 42.0447 45.4844 42.0447V122.861C45.4844 122.861 78.8578 114.779 101.009 120.927Z" fill="#4051F1"/>
<path d="M48.2347 45.5612H47.9683L47.375 119.745L62.3272 118.157C62.3272 118.157 76.9827 113.518 101.025 118.157C101.005 117.747 101.025 116.292 101.025 116.292L48.2347 45.5612Z" fill="#2837C6"/>
<path d="M101.387 46.4219C101.387 46.4219 83.3533 37.9199 49.9799 44.315C48.7833 45.0717 48.2705 45.4921 48.2705 45.4921L48.4415 119.745C48.4415 119.745 79.2507 110.862 101.035 117.386C101.03 110.991 101.387 46.4219 101.387 46.4219Z" fill="#F0E0D0"/>
<path d="M49.9795 44.3148V118.157C49.9795 118.157 77.8225 108.255 101.03 117.39L101.387 46.4218C101.387 46.4218 83.6746 37.4944 49.9795 44.3148Z" fill="#FFF7EF"/>
<path d="M48.7734 45.1162L48.9947 119.592" stroke="#E3D1BE" stroke-width="0.25" stroke-miterlimit="10" stroke-linecap="round"/>
<path d="M49.5918 44.5621V119.408" stroke="#E3D1BE" stroke-width="0.25" stroke-miterlimit="10" stroke-linecap="round"/>
<path d="M49.5918 118.775C49.5918 118.775 77.0326 111.114 92.7841 115.649" stroke="#E3D1BE" stroke-width="0.25" stroke-miterlimit="10" stroke-linecap="round"/>
<path d="M55.7217 48.6079C55.7217 48.6079 60.0857 46.9955 72.7301 47.3121" stroke="#EDDAC8" stroke-width="0.25" stroke-miterlimit="10" stroke-linecap="round"/>
<path d="M53.957 54.5776C53.957 54.5776 73.0419 50.6951 94.6909 55.3046" stroke="#EDDAC8" stroke-width="0.25" stroke-miterlimit="10" stroke-linecap="round"/>
<path d="M54.3428 61.1111C54.3428 61.1111 80.401 57.6391 95.6749 62.8174" stroke="#EDDAC8" stroke-width="0.25" stroke-miterlimit="10" stroke-linecap="round"/>
<path d="M54.79 69.0641C54.79 69.0641 68.3948 65.7158 95.6747 69.7566" stroke="#EDDAC8" stroke-width="0.25" stroke-miterlimit="10" stroke-linecap="round"/>
<path d="M56.0732 77.2744C56.0732 77.2744 80.8494 74.3069 95.9323 78.4763" stroke="#EDDAC8" stroke-width="0.25" stroke-miterlimit="10" stroke-linecap="round"/>
<path d="M56.9072 84.0303C56.9072 84.0303 79.7578 80.0539 96.4445 84.2826" stroke="#EDDAC8" stroke-width="0.25" stroke-miterlimit="10" stroke-linecap="round"/>
<path d="M58.5117 91.6718C58.5117 91.6718 77.7022 87.5024 95.9323 91.6718" stroke="#EDDAC8" stroke-width="0.25" stroke-miterlimit="10" stroke-linecap="round"/>
<path d="M58.1299 98.2993C58.1299 98.2993 73.0217 95.0795 93.6249 97.8591" stroke="#EDDAC8" stroke-width="0.25" stroke-miterlimit="10" stroke-linecap="round"/>
<path d="M62.5586 109.982C62.5586 109.982 75.8466 108.087 82.0055 108.592" stroke="#EDDAC8" stroke-width="0.25" stroke-miterlimit="10" stroke-linecap="round"/>
<path d="M58.1299 105.624C58.1299 105.624 69.2962 100.51 94.3942 104.739" stroke="#EDDAC8" stroke-width="0.25" stroke-miterlimit="10" stroke-linecap="round"/>
<path d="M100.995 120.936L100.598 42.0543C128.581 34.3931 156.52 42.0543 156.52 42.0543V122.87C156.525 122.87 123.147 114.789 100.995 120.936Z" fill="#4051F1"/>
<path d="M153.77 45.5464H154.036L154.629 119.73L139.677 118.142C139.677 118.142 125.022 113.503 100.979 118.142C101 117.732 100.979 116.278 100.979 116.278L153.77 45.5464Z" fill="#2837C6"/>
<path d="M100.678 46.4219C100.678 46.4219 118.712 37.9199 152.085 44.315C153.282 45.0717 153.795 45.4921 153.795 45.4921L153.624 119.745C153.624 119.745 122.739 110.862 100.954 117.386C100.959 110.991 100.678 46.4219 100.678 46.4219Z" fill="#F0E0D0"/>
<path d="M152.031 43.9687V117.811C152.031 117.811 124.238 108.255 101.03 117.386L100.623 46.0707C100.623 46.0756 118.335 37.1532 152.031 43.9687Z" fill="#FFF7EF"/>
<path d="M153.287 45.1162L153.071 119.592" stroke="#E3D1BE" stroke-width="0.25" stroke-miterlimit="10" stroke-linecap="round"/>
<path d="M152.473 44.5621V119.408" stroke="#E3D1BE" stroke-width="0.25" stroke-miterlimit="10" stroke-linecap="round"/>
<path d="M152.473 118.775C152.473 118.775 125.032 111.114 109.28 115.649" stroke="#E3D1BE" stroke-width="0.25" stroke-miterlimit="10" stroke-linecap="round"/>
<path d="M146.344 48.6079C146.344 48.6079 141.98 46.9955 129.336 47.3121" stroke="#EDDAC8" stroke-width="0.25" stroke-miterlimit="10" stroke-linecap="round"/>
<path d="M148.108 54.5776C148.108 54.5776 129.023 50.6951 107.374 55.3046" stroke="#EDDAC8" stroke-width="0.25" stroke-miterlimit="10" stroke-linecap="round"/>
<path d="M147.721 61.1111C147.721 61.1111 121.663 57.6391 106.389 62.8174" stroke="#EDDAC8" stroke-width="0.25" stroke-miterlimit="10" stroke-linecap="round"/>
<path d="M147.273 69.0641C147.273 69.0641 133.669 65.7158 106.389 69.7566" stroke="#EDDAC8" stroke-width="0.25" stroke-miterlimit="10" stroke-linecap="round"/>
<path d="M145.987 77.2744C145.987 77.2744 121.211 74.3069 106.128 78.4763" stroke="#EDDAC8" stroke-width="0.25" stroke-miterlimit="10" stroke-linecap="round"/>
<path d="M145.152 84.0303C145.152 84.0303 122.301 80.0539 105.614 84.2826" stroke="#EDDAC8" stroke-width="0.25" stroke-miterlimit="10" stroke-linecap="round"/>
<path d="M143.549 91.6718C143.549 91.6718 124.358 87.5024 106.128 91.6718" stroke="#EDDAC8" stroke-width="0.25" stroke-miterlimit="10" stroke-linecap="round"/>
<path d="M143.935 98.2993C143.935 98.2993 129.043 95.0795 108.439 97.8591" stroke="#EDDAC8" stroke-width="0.25" stroke-miterlimit="10" stroke-linecap="round"/>
<path d="M139.505 109.982C139.505 109.982 126.217 108.087 120.059 108.592" stroke="#EDDAC8" stroke-width="0.25" stroke-miterlimit="10" stroke-linecap="round"/>
<path d="M143.936 105.624C143.936 105.624 132.77 100.51 107.672 104.739" stroke="#EDDAC8" stroke-width="0.25" stroke-miterlimit="10" stroke-linecap="round"/>
<path d="M100.623 46.0757L100.96 117.391" stroke="#E3D1BE" stroke-width="0.5" stroke-miterlimit="10" stroke-linecap="round"/>
<path d="M121.442 7.99123C120.256 4.18289 116.556 1.17084 112.619 0.231118C111.674 0.00360697 110.673 -0.100258 109.728 0.137145C108.32 0.498195 107.199 1.62091 106.611 2.93158C106.023 4.24224 105.922 5.71612 106.048 7.14054C106.309 10.118 107.526 12.952 109.145 15.4744C110.764 18.0017 112.78 20.2521 114.801 22.4827C116.023 23.8329 117.254 25.1832 118.481 26.5285C119.517 27.666 120.301 28.6206 121.337 29.7581C122.373 28.6206 123.247 27.666 124.278 26.5285C125.505 25.1832 126.736 23.8329 127.958 22.4827C129.979 20.2521 131.995 18.0017 133.614 15.4744C135.233 12.947 136.45 10.113 136.711 7.14054C136.837 5.71612 136.736 4.24224 136.148 2.93158C135.56 1.62091 134.439 0.498195 133.031 0.137145C132.091 -0.105204 131.085 0.00360697 130.14 0.231118C126.209 1.16589 122.629 4.17794 121.442 7.99123Z" fill="#F85531"/>
<path opacity="0.09" d="M58.5625 90.7916C58.5625 90.7916 62.3634 90.4552 63.3287 96.6524C64.0979 102.409 63.0069 103.859 62.8159 105.501C62.6248 107.143 62.7505 113.459 64.294 116.298C64.294 117.752 62.0668 116.995 62.0668 116.995L60.7646 114.848L59.4825 108.913L58.5625 90.7916Z" fill="black"/>
<path d="M0 177.289C0 177.289 12.0677 165.006 15.2355 160.303C18.4033 155.599 30.9386 152.913 31.3711 152.25C31.7985 151.586 38.7726 141.514 38.7726 141.514C38.7726 141.514 39.3307 140.799 42.5387 141.514C45.7467 142.229 59.0162 144.725 59.0162 144.725C59.0162 144.725 61.832 145.545 62.4706 146.035C63.1142 146.524 63.0488 146.687 62.903 147.137C62.7572 147.588 57.9452 154.968 57.4927 156.389C57.0451 157.806 56.1753 158.843 56.1753 158.843C56.1753 158.843 59.2224 166.058 59.3079 166.466C59.3933 166.875 60.2481 169.407 59.8207 170.864C59.3933 172.321 59.0514 176.946 59.2224 177.292C58.3273 177.289 0 177.289 0 177.289Z" fill="#006838"/>
<path d="M43.7507 142.056C43.7507 142.056 40.4425 140.458 39.4521 141.012C38.4566 141.566 43.1122 144.989 43.1122 144.989L43.7507 142.056Z" fill="#024023"/>
<path d="M64.0316 122.188C62.6641 118.864 61.0602 116.861 60.8642 116.317C60.6731 115.768 58.3202 110.679 59.5369 106.91C60.7335 103.206 61.92 96.8651 61.9602 96.6524C61.8647 93.9025 61.015 91.8746 59.3006 91.0437C56.2186 89.5501 55.0221 94.2635 54.3383 95.4209C53.6545 96.5782 52.3273 100.095 51.9401 104.279C51.553 108.468 48.9034 113.666 48.647 113.686C48.3906 113.706 47.3851 113.899 46.4852 111.055C45.5852 108.211 45.6707 75.8252 45.6707 75.8252L45.4344 75.6373C45.4344 75.6373 43.6395 73.5303 41.9251 76.394C40.2157 79.2577 35.6758 107.375 35.6758 107.375C35.6758 107.375 34.5345 112.029 40.1353 118.83C40.4118 119.166 40.6581 119.522 40.8542 119.903C45.0774 128.237 45.7913 138.796 42.4832 144.524C43.0613 144.989 44.4691 146.111 46.5606 147.244C47.2041 147.422 50.5022 148.006 56.0025 143.356C62.1663 138.148 64.4086 129.528 64.474 128.959C64.5444 128.385 65.1678 125.556 64.0316 122.188Z" fill="#FFEBDC"/>
<path d="M58.5927 146.601C58.5927 146.601 61.6595 148.149 62.2176 148.985C62.7807 149.821 60.6439 150.909 57.1296 150.518C53.6203 150.122 58.5927 146.601 58.5927 146.601Z" fill="#024023"/>
<path d="M59.758 91.3009C60.2608 92.3643 60.4317 93.5958 60.1904 94.8174C60.1552 94.9708 60.11 95.1192 60.0647 95.2725L59.8938 95.7176L59.6776 96.1479C59.5871 96.2963 59.4815 96.4397 59.3609 96.5683C59.1195 96.8255 58.8229 97.0431 58.486 97.1865C58.1391 97.33 57.7721 97.3695 57.4353 97.3695C56.7364 97.3695 56.103 97.1173 55.56 96.7909C55.4192 96.7068 55.3086 96.6276 55.1578 96.5089C55.012 96.3853 54.8863 96.2419 54.7907 96.0836C54.5997 95.7572 54.5343 95.406 54.6148 95.0054C54.8159 94.3872 55.0974 93.9123 55.3639 93.3881L56.1934 91.8647C56.0476 92.4236 55.8566 92.9726 55.6756 93.5216C55.4946 94.0558 55.2835 94.6295 55.1829 95.1241C55.1779 95.2922 55.2734 95.5395 55.4041 95.683C55.4695 95.7621 55.5499 95.8264 55.6354 95.8759C55.7259 95.9253 55.8666 95.9946 55.9773 96.049C56.4549 96.2765 56.9576 96.4051 57.4353 96.4001C57.6816 96.3952 57.9079 96.3556 58.0989 96.2765C58.3 96.1974 58.486 96.0737 58.6469 95.9105C58.7274 95.8313 58.7978 95.7423 58.8581 95.6434L59.0642 95.317L59.2352 94.9658L59.3759 94.5998C59.7279 93.5958 59.8033 92.4632 59.758 91.3009Z" fill="#F8E1D0"/>
<path d="M53.4845 98.8237C53.4845 98.8237 54.2738 98.8336 55.1738 98.6308C56.0737 98.428 56.9938 99.1353 57.7881 99.2144C58.2808 98.9523 57.9189 98.2697 56.134 97.7306C54.3543 97.1915 53.6353 98.2994 53.4795 98.4725C53.3337 98.6456 53.4191 98.8286 53.4845 98.8237Z" fill="#F8E1D0"/>
<path d="M57.7921 101.351C57.0832 101.173 55.3336 101.771 54.8911 100.995C54.4487 100.218 53.8303 99.7534 53.5739 100.154C53.3175 100.555 53.6895 101.88 54.8911 102.281C56.0978 102.681 57.415 102.048 57.7921 101.757C58.1692 101.455 57.963 101.395 57.7921 101.351Z" fill="#F8E1D0"/>
<path d="M49.3212 112.603C49.3212 112.603 48.18 115.556 47.7979 115.966C48.009 115.051 48.6525 113.686 48.6525 113.686L49.3212 112.603Z" fill="#F8E1D0"/>
<path d="M63.6503 120.586C61.0811 115.284 58.8137 110.842 60.699 104.358C61.5336 101.485 62.0414 98.8385 61.966 96.6475C61.9258 96.8651 60.6337 103.206 59.4371 106.905C58.2154 110.674 60.5733 115.763 60.7644 116.312C60.9554 116.861 62.5593 118.859 63.9318 122.183C65.063 125.556 64.4446 128.38 64.3792 128.949C64.3139 129.518 62.0666 138.134 55.9077 143.347C50.4075 147.996 47.1094 147.412 46.4658 147.234C49.2863 148.757 53.3235 150.296 58.0445 150.587C58.1249 149.658 58.6679 144.563 61.6844 138.094C65.0228 130.942 66.2194 125.893 63.6503 120.586Z" fill="#F8E1D0"/>
<path d="M45.4852 75.6323C45.4601 75.6323 45.44 75.6323 45.44 75.6323L42.9814 102.088C42.9814 102.088 43.7607 108.656 46.5661 112.168C46.5661 112.168 45.8924 109.556 45.8874 107.795C45.8874 107.242 45.7718 105.431 45.7718 105.431L45.5757 97.9729L45.4852 75.6323Z" fill="#F8E1D0"/>
<path opacity="0.09" d="M143.439 90.7916C143.439 90.7916 139.638 90.4552 138.672 96.6524C137.903 102.409 138.994 103.859 139.185 105.501C139.376 107.143 139.251 113.459 137.707 116.298C137.707 117.752 139.934 116.995 139.934 116.995L141.236 114.848L142.518 108.913L143.439 90.7916Z" fill="black"/>
<path d="M202 178.025C202 178.025 189.895 165.343 186.717 160.486C183.54 155.629 170.966 152.856 170.532 152.171C170.103 151.485 163.107 141.086 163.107 141.086C163.107 141.086 162.547 140.347 159.329 141.086C156.111 141.824 142.801 144.401 142.801 144.401C142.801 144.401 139.976 145.248 139.336 145.753C138.69 146.259 138.756 146.427 138.902 146.892C139.048 147.357 143.875 154.978 144.329 156.445C144.778 157.909 145.651 158.979 145.651 158.979C145.651 158.979 142.594 166.429 142.508 166.85C142.423 167.272 141.565 169.887 141.994 171.391C142.423 172.895 142.766 177.672 142.594 178.028C143.492 178.025 202 178.025 202 178.025Z" fill="#006838"/>
<path d="M140.23 110.01C140.23 110.01 143.162 108.767 144.04 109.198C144.922 109.629 140.796 112.292 140.796 112.292L140.23 110.01Z" fill="#024023"/>
<path d="M137.968 122.188C139.336 118.864 140.939 116.861 141.135 116.317C141.327 115.768 143.679 110.679 142.463 106.91C141.266 103.206 140.08 96.8651 140.039 96.6524C140.135 93.9025 140.985 91.8746 142.699 91.0437C145.781 89.5501 146.978 94.2635 147.661 95.4209C148.345 96.5782 149.672 100.095 150.06 104.279C150.447 108.468 153.096 113.666 153.353 113.686C153.609 113.706 154.615 113.899 155.514 111.055C156.414 108.211 156.329 75.8252 156.329 75.8252L156.565 75.6373C156.565 75.6373 158.36 73.5303 160.075 76.394C161.784 79.2577 166.324 107.375 166.324 107.375C166.324 107.375 167.465 112.029 161.864 118.83C161.588 119.166 161.342 119.522 161.145 119.903C156.922 128.237 156.208 138.796 159.516 144.524C158.938 144.989 157.531 146.111 155.439 147.244C154.796 147.422 151.497 148.006 145.997 143.356C139.833 138.148 137.591 129.528 137.526 128.959C137.455 128.385 136.837 125.556 137.968 122.188Z" fill="#FFEBDC"/>
<path d="M143.408 146.601C143.408 146.601 140.341 148.149 139.783 148.985C139.22 149.821 141.357 150.909 144.871 150.518C148.38 150.122 143.408 146.601 143.408 146.601Z" fill="#024023"/>
<path d="M142.241 91.3009C142.196 92.4632 142.272 93.5958 142.618 94.6048L142.759 94.9708L142.93 95.3219L143.136 95.6484C143.197 95.7423 143.272 95.8314 143.347 95.9154C143.503 96.0786 143.694 96.2023 143.895 96.2814C144.087 96.3606 144.313 96.4001 144.559 96.4051C145.037 96.41 145.539 96.2814 146.017 96.0539C146.128 95.9995 146.269 95.9303 146.359 95.8808C146.444 95.8313 146.525 95.7671 146.59 95.6879C146.721 95.5395 146.817 95.2972 146.811 95.129C146.711 94.6394 146.5 94.0607 146.319 93.5266C146.138 92.9825 145.947 92.4335 145.801 91.8697L146.63 93.393C146.897 93.9173 147.179 94.3921 147.38 95.0103C147.46 95.406 147.395 95.7572 147.204 96.0885C147.108 96.2468 146.982 96.3952 146.837 96.5139C146.686 96.6326 146.58 96.7117 146.434 96.7958C145.891 97.1173 145.258 97.3745 144.559 97.3745C144.222 97.3745 143.855 97.3398 143.508 97.1915C143.171 97.048 142.875 96.8304 142.634 96.5732C142.513 96.4446 142.407 96.3012 142.317 96.1528L142.101 95.7225L141.93 95.2774C141.889 95.1241 141.839 94.9757 141.804 94.8224C141.568 93.5958 141.739 92.3643 142.241 91.3009Z" fill="#F8E1D0"/>
<path d="M148.516 98.8237C148.516 98.8237 147.727 98.8336 146.827 98.6308C145.927 98.428 145.007 99.1353 144.213 99.2144C143.72 98.9523 144.082 98.2697 145.867 97.7306C147.647 97.1915 148.366 98.2994 148.521 98.4725C148.667 98.6456 148.587 98.8286 148.516 98.8237Z" fill="#F8E1D0"/>
<path d="M144.208 101.351C144.917 101.173 146.666 101.771 147.109 100.995C147.551 100.218 148.17 99.7534 148.426 100.154C148.682 100.555 148.31 101.88 147.109 102.281C145.907 102.681 144.585 102.048 144.208 101.757C143.831 101.455 144.042 101.395 144.208 101.351Z" fill="#F8E1D0"/>
<path d="M152.679 112.603C152.679 112.603 153.82 115.556 154.202 115.966C153.991 115.051 153.347 113.686 153.347 113.686L152.679 112.603Z" fill="#F8E1D0"/>
<path d="M138.349 120.586C140.918 115.284 143.186 110.842 141.301 104.358C140.466 101.485 139.958 98.8385 140.034 96.6475C140.074 96.8651 141.366 103.206 142.562 106.905C143.784 110.674 141.426 115.763 141.235 116.312C141.044 116.861 139.44 118.859 138.068 122.183C136.937 125.556 137.555 128.38 137.62 128.949C137.686 129.518 139.933 138.134 146.092 143.347C151.592 147.996 154.89 147.412 155.534 147.234C152.713 148.757 148.676 150.296 143.955 150.587C143.875 149.658 143.332 144.563 140.315 138.094C136.977 130.942 135.78 125.893 138.349 120.586Z" fill="#F8E1D0"/>
<path d="M156.516 75.6323C156.541 75.6323 156.561 75.6323 156.561 75.6323L159.019 102.088C159.019 102.088 158.24 108.656 155.435 112.168C155.435 112.168 156.108 109.556 156.113 107.795C156.113 107.242 156.229 105.431 156.229 105.431L156.425 97.9729L156.516 75.6323Z" fill="#F8E1D0"/>
</g>
</svg>
