<svg width="149" height="189" viewBox="0 0 149 189" fill="none" xmlns="http://www.w3.org/2000/svg">
<g opacity="0.6">
<path d="M86.333 30.1885C86.333 30.1885 85.9879 40.1162 85.0597 42.1097C84.1316 44.1032 84.8143 52.9279 86.9697 56.9548C89.1251 60.9817 89.4166 61.7459 90.5441 63.148C91.6717 64.5501 93.7274 65.1415 97.4016 64.9687C101.076 64.7959 98.7209 73.4079 99.0201 75.448C99.3116 77.4814 119.439 72.564 119.439 72.564L119.24 70.6569C119.24 70.6569 118.012 68.577 121.809 60.5165C125.606 52.4561 114.054 53.898 114.054 53.898L113.072 35.4115C113.072 35.4115 100.884 34.3018 100.585 33.9629C100.293 33.624 91.9709 28.494 91.9709 28.494L86.333 30.1885Z" fill="#FFDDC7"/>
<path d="M88.6493 35.4182C88.6493 35.4182 88.5496 36.8668 89.5314 36.8402C90.5133 36.8136 91.5565 34.0426 91.5565 34.0426C91.5565 34.0426 94.0724 41.2259 95.246 43.0932C97.0716 42.1629 94.6247 27.9624 94.6247 27.9624L88.6493 32.913V35.4182Z" fill="#F5CEB4"/>
<path d="M105.079 63.0216C105.079 63.0216 105.033 64.8689 106.084 65.0815C107.135 65.2942 109.758 63.5332 109.758 63.5332L111.131 64.3572C111.131 64.3572 110.571 66.2045 111.845 66.2444C113.118 66.2843 115.442 64.1047 115.442 64.1047L115.879 62.6229L116.662 65.5932C116.662 65.5932 117.812 66.2311 121.019 62.3305C124.225 58.4298 116.516 58.3036 116.516 58.3036L111.254 57.453L105.079 63.0216Z" fill="#F5CEB4"/>
<path d="M88.6264 14.1873C87.8593 14.7189 82.4746 18.7524 83.7096 26.8129C83.7326 26.9723 83.9781 27.0188 84.0778 26.8859C84.5917 26.2214 85.0673 25.6632 85.3894 25.3044C85.5122 25.1715 85.7576 25.2513 85.7423 25.424C85.5812 27.072 85.4354 31.9162 88.496 35.983C88.5804 36.1026 88.7951 36.0827 88.8488 35.9498C89.2324 35.0859 90.3523 32.6738 91.4031 31.7634C91.5182 31.6637 91.7176 31.7235 91.7329 31.8697C91.9631 34.1822 94.6708 40.9336 94.8932 43.8308C94.9316 44.3292 95.154 44.8143 95.5836 45.1466C96.0285 45.4921 96.389 45.4522 96.5577 45.4057C96.6191 45.3858 96.6651 45.3459 96.6804 45.2861C96.8645 44.6681 98.2299 40.5881 102.433 39.2125C106.99 37.7307 108.7 39.2989 109.337 41.0333C109.973 42.7676 109.536 47.1135 103.415 51.2201C103.377 51.2401 103.354 51.2733 103.338 51.3132C102.08 55.1008 103.86 62.0449 105.363 63.952C105.586 64.2311 106.023 64.3242 106.368 64.1713C107.496 63.673 107.757 62.8357 108.056 62.8357C108.401 62.8357 110.158 65.8924 111.285 65.8459C112.19 65.8127 113.717 64.3906 114.292 63.8258C114.392 63.7261 114.568 63.7593 114.622 63.8856C114.844 64.4504 115.42 65.6864 116.279 65.8525C117.406 66.0652 119.462 61.6529 120.099 61.613C120.735 61.5731 120.198 62.6762 121.226 62.8822C122.2 63.0816 123.082 60.9751 124.041 60.3438C124.141 60.2773 124.294 60.3172 124.333 60.4235C124.524 60.9086 124.164 61.9452 124.847 61.9452C125.629 61.9452 129.533 55.8251 136.644 50.848C143.724 45.8974 146.408 40.1428 146.562 35.4714C146.562 35.4248 146.554 35.385 146.516 35.3517C144.192 33.2718 91.4645 15.071 88.7951 14.154C88.7491 14.1407 88.6801 14.154 88.6264 14.1873Z" fill="#575343"/>
<path d="M139.612 35.6639C134.603 35.6639 125.959 34.7469 113.256 30.3944C89.6081 22.2941 87.8745 13.4694 87.8132 13.0973L87.7979 13.0043L87.8592 12.9245C93.9496 4.99035 104.113 0.252441 115.028 0.252441C133.062 0.252441 147.728 13.0774 147.728 28.8328C147.728 30.7732 147.505 32.7135 147.06 34.5941L147.03 34.7203L146.892 34.7801C146.8 34.8134 144.552 35.6639 139.612 35.6639Z" fill="white"/>
<path d="M115.021 0.498379C132.924 0.498379 147.436 13.1838 147.436 28.8329C147.436 30.7865 147.206 32.7003 146.777 34.541V34.5476C146.777 34.5476 144.552 35.4115 139.612 35.4115C134.258 35.4115 125.713 34.3948 113.356 30.1619C89.5929 22.0151 88.0895 13.0575 88.0895 13.0575C93.9114 5.48881 103.799 0.498379 115.021 0.498379ZM115.021 0C104.006 0 93.758 4.7778 87.6139 12.7784L87.4912 12.9379L87.5219 13.124C87.5833 13.5027 89.3475 22.4603 113.141 30.6204C125.89 34.9928 134.573 35.9099 139.605 35.9099C144.614 35.9099 146.907 35.0394 147.007 34.9995L147.275 34.8932L147.337 34.6473C147.782 32.7402 148.012 30.7865 148.012 28.8329C148.012 12.9379 133.208 0 115.021 0Z" fill="#D5D5D5"/>
<path d="M145.764 19.8555C145.603 19.4302 145.434 19.0115 145.25 18.5995C142.918 19.3371 139.981 19.8023 138.163 19.397C136.345 18.9916 135.386 18.2009 134.373 17.3636C133.307 16.4864 132.21 15.5761 130.185 15.1574C127.769 14.659 126.074 15.297 124.578 15.8684C123.144 16.4133 121.909 16.8785 120.083 16.4598C118.534 16.1077 117.866 15.4166 117.023 14.5527C116.095 13.6025 115.044 12.5193 112.704 11.7884C110.526 11.1039 108.923 11.2568 107.634 11.383C106.399 11.5026 105.586 11.5824 104.627 10.9312C103.745 10.3331 103.461 9.60215 103.07 8.5921C102.648 7.49567 102.126 6.14009 100.638 4.53198C100.401 4.27283 100.147 4.02694 99.8944 3.78772C99.4265 4.00701 98.9662 4.23296 98.5137 4.47218C98.8435 4.75792 99.158 5.05694 99.4495 5.36261C100.761 6.77801 101.221 7.96082 101.62 9.01074C102.042 10.1005 102.441 11.1305 103.684 11.9744C105.133 12.9579 106.43 12.8316 107.81 12.6987C108.999 12.5858 110.342 12.4529 112.19 13.0376C114.146 13.649 114.975 14.5062 115.857 15.4099C116.754 16.3336 117.682 17.2838 119.7 17.749C122.047 18.2872 123.727 17.6493 125.207 17.0845C126.603 16.5529 127.915 16.0479 129.84 16.4466C131.459 16.7788 132.325 17.4965 133.323 18.3271C134.381 19.2042 135.585 20.1944 137.787 20.6861C138.6 20.8655 139.436 20.9586 140.295 20.9586C141.683 20.9519 144 20.4203 145.764 19.8555Z" fill="#047541"/>
<path d="M113.81 6.027C114.516 6.49216 115.252 6.41905 115.958 6.3526C116.671 6.28615 117.407 6.21305 118.32 6.61175C119.31 7.04368 119.931 7.62182 120.476 8.12684C121.143 8.74483 121.772 9.32959 122.831 9.36281C122.861 9.36281 122.892 9.36281 122.93 9.36281C123.751 9.36281 124.28 9.01062 124.802 8.67172C125.285 8.35276 125.784 8.02716 126.604 7.86768C127.502 7.6949 128.2 8.01388 128.867 8.33284C129.55 8.6518 130.248 8.98404 131.046 8.65179C131.613 8.41921 131.82 8.04044 132.02 7.67496C132.181 7.37594 132.35 7.07027 132.741 6.78453C133.186 6.45228 133.784 6.27286 134.497 6.19976C134.214 6.0137 133.922 5.8343 133.631 5.65488C133.094 5.78778 132.634 5.98712 132.242 6.2795C131.728 6.65827 131.506 7.06362 131.33 7.38923C131.153 7.70819 131.038 7.92084 130.716 8.05374C130.294 8.22651 129.903 8.06039 129.235 7.74807C128.522 7.40917 127.625 6.99053 126.436 7.2231C125.454 7.41581 124.833 7.82117 124.334 8.14678C123.828 8.47903 123.437 8.71824 122.861 8.69831C122.11 8.67173 121.657 8.25308 121.036 7.67496C120.476 7.15665 119.778 6.50544 118.665 6.02035C117.546 5.53526 116.617 5.62165 115.866 5.69475C115.206 5.7612 114.73 5.80107 114.263 5.50204C113.841 5.22295 113.825 4.85746 113.825 4.22618C113.833 3.5949 113.841 2.81078 113.158 2.0466C112.59 1.40868 111.885 1.10965 111.317 0.863784C111.202 0.817268 111.102 0.770759 111.01 0.724243C110.665 0.764113 110.32 0.810637 109.982 0.857152C110.205 1.11631 110.581 1.28243 110.98 1.4552C111.501 1.68113 112.092 1.93364 112.552 2.44531C113.074 3.03007 113.066 3.62813 113.058 4.2129C113.066 4.86411 113.058 5.53527 113.81 6.027Z" fill="#047541"/>
<path d="M119.462 4.34578C120.951 4.87074 120.774 5.9871 122.07 6.26619C123.459 6.57187 123.996 5.36912 125.691 5.5286C127.256 5.68144 127.524 6.76457 128.828 6.65825C129.856 6.57186 129.933 5.87414 131.306 5.41563C131.881 5.22292 132.395 5.16976 132.84 5.16976C127.724 2.21936 121.603 0.498291 115.014 0.498291C114.154 0.498291 113.311 0.538151 112.475 0.591311C112.636 0.657762 112.804 0.724217 112.989 0.803958C113.725 1.12957 114.101 1.28906 114.362 1.48177C115.573 2.37885 114.945 3.51515 115.865 4.13979C116.831 4.80429 117.844 3.78095 119.462 4.34578Z" fill="#047541"/>
<path d="M108.881 8.7462C109.106 8.40932 109.002 7.99339 108.65 7.81723C108.298 7.64107 107.83 7.77139 107.606 8.10827C107.381 8.44516 107.485 8.86106 107.837 9.03722C108.189 9.21338 108.657 9.08309 108.881 8.7462Z" fill="#047541"/>
<path d="M96.802 8.45908C97.0266 8.1222 96.9231 7.70629 96.5709 7.53014C96.2187 7.35398 95.7512 7.48428 95.5267 7.82116C95.3021 8.15805 95.4056 8.57395 95.7578 8.75011C96.11 8.92627 96.5775 8.79597 96.802 8.45908Z" fill="#047541"/>
<path d="M112.965 17.3655C113.19 17.0286 113.086 16.6127 112.734 16.4365C112.382 16.2604 111.914 16.3906 111.69 16.7275C111.465 17.0644 111.569 17.4803 111.921 17.6565C112.273 17.8326 112.741 17.7024 112.965 17.3655Z" fill="#047541"/>
<path d="M123.524 13.8566C123.748 13.5197 123.645 13.1038 123.293 12.9276C122.94 12.7514 122.473 12.8817 122.248 13.2186C122.024 13.5555 122.127 13.9714 122.479 14.1476C122.832 14.3237 123.299 14.1934 123.524 13.8566Z" fill="#047541"/>
<path d="M130.191 21.1377C130.257 20.7529 129.985 20.399 129.582 20.3473C129.18 20.2956 128.801 20.5656 128.735 20.9505C128.669 21.3353 128.941 21.6891 129.344 21.7409C129.746 21.7926 130.126 21.5226 130.191 21.1377Z" fill="#047541"/>
<path d="M141.386 17.2582C141.789 17.2174 142.075 16.8711 142.023 16.4847C141.971 16.0982 141.601 15.8181 141.197 15.8589C140.793 15.8997 140.508 16.246 140.56 16.6324C140.612 17.0188 140.982 17.299 141.386 17.2582Z" fill="#047541"/>
<path d="M144.637 24.2161C145.041 24.1753 145.327 23.8289 145.275 23.4425C145.223 23.0561 144.853 22.776 144.449 22.8168C144.045 22.8576 143.76 23.2039 143.812 23.5903C143.864 23.9767 144.234 24.2569 144.637 24.2161Z" fill="#047541"/>
<path d="M23.5039 117.272L31.5886 127.705L32.0105 129.658L26.9403 127.492L23.5039 117.272Z" fill="#F5CEB4"/>
<path d="M140.188 30.4278C135.548 30.4278 128.698 29.8696 119.355 27.7564C116.364 27.0786 113.426 26.1217 110.626 24.9123C93.3214 17.4167 90.2915 10.9312 90.1611 10.6454L91.2887 9.52905C91.3194 9.5955 94.6331 16.4997 111.309 23.7229C114.016 24.8924 116.847 25.8161 119.739 26.4739C138.762 30.7733 147.345 28.5073 147.429 28.4807V29.8164C147.245 29.8696 145.205 30.4278 140.188 30.4278Z" fill="#3647E8"/>
<path d="M101.252 44.0966C101.728 43.8175 102.249 43.6115 102.855 43.4786C103.162 43.4254 103.507 43.3856 103.922 43.5052C104.121 43.5783 104.336 43.6912 104.482 43.8706C104.627 44.0434 104.704 44.2361 104.742 44.4089C104.857 45.1133 104.597 45.605 104.29 46.0502C103.968 46.4822 103.576 46.8609 103.078 47.16C103.039 47.1799 102.986 47.1732 102.963 47.14C102.947 47.1267 102.947 47.1068 102.947 47.0935C103.001 46.5685 103.147 46.11 103.262 45.6648C103.362 45.2395 103.53 44.801 103.523 44.5485C103.515 44.4156 103.53 44.4089 103.454 44.3225C103.362 44.2361 103.139 44.1697 102.901 44.1431C102.41 44.0833 101.851 44.1497 101.314 44.2228H101.306C101.26 44.2295 101.222 44.2029 101.214 44.1697C101.214 44.1365 101.222 44.1165 101.252 44.0966Z" fill="#F5CEB4"/>
<path d="M101.022 42.1694C101.682 41.4185 102.556 40.8005 103.607 40.4284C104.136 40.2357 104.719 40.156 105.31 40.1626C105.908 40.156 106.484 40.3154 107.036 40.4949L107.082 40.5215C107.511 40.7341 107.903 41.0863 108.094 41.5116C108.294 41.9302 108.348 42.3688 108.325 42.7675C108.271 43.5715 108.048 44.3158 107.673 44.9736C107.297 45.6315 106.813 46.2229 106.276 46.7611C105.732 47.2928 105.141 47.7978 104.428 48.1898C104.39 48.2098 104.343 48.2031 104.32 48.1699C104.305 48.15 104.305 48.1234 104.313 48.1034C104.604 47.4256 104.949 46.8077 105.272 46.1897C105.601 45.5783 105.931 44.9736 106.23 44.3822C106.53 43.7975 106.867 43.226 106.998 42.6545C107.12 42.0764 107.005 41.5979 106.514 41.2856L106.56 41.3122C106.138 41.1328 105.709 40.9534 105.233 40.9135C104.765 40.8603 104.274 40.867 103.791 40.9733C102.825 41.1727 101.897 41.6511 101.122 42.2625L101.114 42.2691C101.084 42.2957 101.038 42.289 101.007 42.2625C101.007 42.2292 101.007 42.1893 101.022 42.1694Z" fill="#F5CEB4"/>
<path d="M147.068 106.341C147.068 106.341 149.001 116.348 145.472 137.499C142.335 157.182 141.491 166.658 141.752 169.821C142.005 172.984 136.598 168.379 136.598 168.379L147.068 106.341Z" fill="#045A33"/>
<path d="M99.3193 71.9593C99.3193 71.9593 112.536 66.7827 119.033 68.0852C118.802 68.9623 119.033 69.9192 119.033 69.9192L99.3193 73.0358V71.9593Z" fill="#F5CEB4"/>
<path d="M100.653 72.2783C100.653 72.2783 117.114 67.8859 123.013 70.2449C128.144 74.0459 102.387 75.3217 102.387 75.3217L100.653 72.2783Z" fill="#045A33"/>
<path d="M15.4345 101.364L14.3223 105.038L35.4699 133.313L40.8546 131.585C40.8546 131.585 47.3822 127.798 61.1892 130.622C63.6054 128.502 64.0963 127.904 64.0963 127.904L15.4345 101.364Z" fill="#C7C5C5"/>
<path d="M37.2344 130.356C34.3503 127.087 16.4779 102.646 15.5498 101.37C16.1021 100.779 22.2462 94.5192 36.1912 94.5192C40.0341 94.5192 44.1762 94.991 48.5024 95.9346L48.5637 95.9479L48.6021 95.908C51.4249 92.8513 61.7647 89.1566 70.3634 89.1566C72.979 89.1566 75.2725 89.4955 77.1825 90.16C81.1865 98.0411 62.7542 126.595 61.7954 128.077C61.2431 127.937 57.6994 127.107 52.8516 127.107C47.1677 127.107 41.9057 128.196 37.2344 130.356Z" fill="#FFF9F2"/>
<path d="M70.3709 89.2363C72.9405 89.2363 75.1957 89.5619 77.0826 90.2131C80.9562 98.1008 63.0686 125.957 61.7646 127.977C61.0205 127.798 57.5458 127.027 52.8668 127.027C47.1906 127.027 41.9439 128.11 37.2726 130.25C34.2734 126.814 16.961 103.124 15.68 101.377C16.4471 100.573 22.5989 94.6055 36.2064 94.6055C40.0416 94.6055 44.176 95.0773 48.4946 96.0143L48.6173 96.0408L48.694 95.9545C51.4937 92.911 61.7953 89.2363 70.3709 89.2363ZM70.3709 89.0702C61.5958 89.0702 51.279 92.8711 48.5329 95.8481C43.8769 94.8381 39.7808 94.4327 36.1987 94.4327C21.4099 94.4327 15.4346 101.364 15.4346 101.364C15.4346 101.364 34.3885 127.319 37.2112 130.462C42.757 127.891 48.3872 127.193 52.8591 127.193C58.1671 127.193 61.8489 128.176 61.8489 128.176C61.8489 128.176 81.4318 98.3135 77.2207 90.0869C75.1957 89.3692 72.8485 89.0702 70.3709 89.0702Z" fill="#D9D9D9"/>
<path d="M48.5322 95.8483L62.761 128.456" stroke="#D9D9D9" stroke-width="0.5" stroke-miterlimit="10" stroke-linecap="round"/>
<path d="M28.4277 98.4796C28.4277 98.4796 31.8258 96.7851 37.2412 97.4629" stroke="#D9D9D9" stroke-width="0.5" stroke-miterlimit="10" stroke-linecap="round"/>
<path d="M47.5513 100.174C47.5513 100.174 31.2975 97.5758 20.1982 104.36" stroke="#D9D9D9" stroke-width="0.5" stroke-miterlimit="10" stroke-linecap="round"/>
<path d="M23.2051 107.304C23.2051 107.304 33.9055 101.762 48.9857 103.742" stroke="#D9D9D9" stroke-width="0.5" stroke-miterlimit="10" stroke-linecap="round"/>
<path d="M26.0127 111.371C26.0127 111.371 38.6768 106.168 51.149 108.374" stroke="#D9D9D9" stroke-width="0.5" stroke-miterlimit="10" stroke-linecap="round"/>
<path d="M29.7324 114.993C29.7324 114.993 39.5507 111.039 51.9309 112.507" stroke="#D9D9D9" stroke-width="0.5" stroke-miterlimit="10" stroke-linecap="round"/>
<path d="M32.0098 118.667C32.0098 118.667 39.8184 115.019 54.216 116.747" stroke="#D9D9D9" stroke-width="0.5" stroke-miterlimit="10" stroke-linecap="round"/>
<path d="M34.8867 122.595C34.8867 122.595 40.6933 118.275 54.9912 119.917" stroke="#D9D9D9" stroke-width="0.5" stroke-miterlimit="10" stroke-linecap="round"/>
<path d="M36.0986 126.302C36.0986 126.302 44.682 122.256 56.5636 123.458" stroke="#D9D9D9" stroke-width="0.5" stroke-miterlimit="10" stroke-linecap="round"/>
<path d="M54.4697 96.9115C54.4697 96.9115 62.24 92.0872 74.5742 92.9975" stroke="#D9D9D9" stroke-width="0.5" stroke-miterlimit="10" stroke-linecap="round"/>
<path d="M56.5635 100.234C56.5635 100.234 65.3769 95.6555 74.5815 96.4994" stroke="#D9D9D9" stroke-width="0.5" stroke-miterlimit="10" stroke-linecap="round"/>
<path d="M57.5381 103.968C57.5381 103.968 65.6995 100.234 72.8791 101.37" stroke="#D9D9D9" stroke-width="0.5" stroke-miterlimit="10" stroke-linecap="round"/>
<path d="M59.1729 107.829C59.1729 107.829 64.2661 105.683 70.5329 105.304" stroke="#D9D9D9" stroke-width="0.5" stroke-miterlimit="10" stroke-linecap="round"/>
<path d="M60.6748 111.371C60.6748 111.371 67.5323 109.338 70.5314 109.112" stroke="#D9D9D9" stroke-width="0.5" stroke-miterlimit="10" stroke-linecap="round"/>
<path d="M61.9795 115.783C61.9795 115.783 66.0909 114.315 67.0037 114.368" stroke="#D9D9D9" stroke-width="0.5" stroke-miterlimit="10" stroke-linecap="round"/>
<path d="M63.4131 119.544C63.4131 119.544 65.1543 118.581 66.4813 118.448" stroke="#D9D9D9" stroke-width="0.5" stroke-miterlimit="10" stroke-linecap="round"/>
<path d="M62.7607 122.854C62.7607 122.854 64.8318 121.857 65.7216 121.904" stroke="#D9D9D9" stroke-width="0.5" stroke-miterlimit="10" stroke-linecap="round"/>
<path opacity="0.1" d="M35.7535 119.325C35.7535 119.325 38.8371 118.76 38.8371 122.595C38.8371 126.435 38.8524 128.668 42.1661 130.888C40.701 131.738 40.5246 132.097 40.5246 132.097L35.4697 128.044L35.7535 119.325Z" fill="black"/>
<path opacity="0.1" d="M65.6069 110.554C65.6069 110.554 62.3393 114.508 63.4209 115.996C64.0115 116.926 64.1035 117.265 64.1035 117.265L58.0361 129.99C58.0361 129.99 60.2376 130.163 60.6825 130.542C61.1197 130.921 67.0183 116.8 67.0183 116.8L65.6069 110.554Z" fill="black"/>
<path d="M0.553625 161.894C0.553625 161.894 -4.31716 170.04 14.8361 179.496C33.9895 188.952 43.593 187.896 43.593 187.896L47.5126 187.218C47.5126 187.218 52.859 184.201 52.2607 182.467C51.6624 180.732 52.3067 176.393 52.3067 176.393L46.0399 171.688L23.4655 161.894L12.9415 156.764L6.9662 157.169L3.14627 158.804C3.14627 158.797 1.13659 160.432 0.553625 161.894Z" fill="#C7C5C5"/>
<path d="M37.5635 187.437C37.5635 187.437 45.909 190.035 51.0406 185.909C56.1799 181.782 52.3753 176.067 52.3753 176.067L49.3071 175.057C49.3071 175.057 50.9946 175.782 51.5622 178.26C52.1221 180.739 51.2017 183.928 48.6244 185.63C46.0548 187.324 43.4084 188.401 37.5635 187.437Z" fill="#575343"/>
<path d="M26.3262 165.668C26.3262 165.668 31.312 171.103 39.4121 171.495C38.8368 169.761 26.3262 165.668 26.3262 165.668Z" fill="#575343"/>
<path d="M1.06738 161.083C1.06738 161.083 2.68585 157.501 9.78109 157.521C9.78109 157.521 14.3374 157.667 18.1036 160C17.3673 157.049 15.488 156.817 15.488 156.817C15.488 156.817 5.10208 154.026 1.06738 161.083Z" fill="#575343"/>
<path d="M74.2373 151.547L92.846 144.922L88.9724 150.823L74.2373 151.547Z" fill="#2A39CC"/>
<path d="M88.4195 150.763L76.254 150.829L74.3057 151.52L86.2794 153.421L88.4195 150.763Z" fill="#212FB7"/>
<path d="M54.9684 176.652L52.6979 176.227C52.6979 176.227 55.7814 181.908 51.5703 185.39C56.3184 184.287 57.2465 183.908 57.2465 183.908C57.2465 183.908 56.3567 177.456 54.9684 176.652Z" fill="#16207A"/>
<path d="M71.2522 181.729L55.5199 186.261C55.5199 186.261 54.6761 186.321 55.0673 185.769C55.4585 185.218 57.6293 181.357 54.96 177.137C58.8106 176.652 71.2522 181.729 71.2522 181.729Z" fill="#3647E8"/>
<path d="M14.9286 154.371C14.9286 154.371 12.3513 160.113 34.2353 169.356C56.1194 178.599 76.4386 184.58 90.8362 186.62C105.234 188.653 115.052 190.434 129.519 187.297C134.382 186.307 137.603 183.928 138.148 183.45C138.693 182.972 135.494 174.572 135.494 174.572L93.0606 161.143L14.9286 154.371Z" fill="#202DB4"/>
<path d="M86.0024 152.996C86.0024 152.996 71.183 149.547 36.1287 147.766C25.8118 147.002 19.4836 149.268 16.7376 152.092C14.352 154.318 14.7355 154.823 15.4336 155.262C15.8017 155.514 56.3635 180.686 126.672 186.241C134.503 186.54 140.433 184.207 141.552 177.204C139.504 171.602 86.0024 152.996 86.0024 152.996Z" fill="#3647E8"/>
<path d="M141.1 177.317C141.1 177.317 141.3 178.818 140.901 179.323C140.019 179.636 129.411 182.633 117.076 180.991C105.386 179.436 95.9824 174.891 89.4778 166.478C88.7261 165.502 88.1201 164.445 87.7136 163.322C86.7241 160.618 86.4326 158.352 86.4326 158.352L141.1 177.317Z" fill="#2837CB"/>
<path d="M51.5866 134.915C51.5866 134.915 41.8297 132.516 38.9379 129.951C36.3223 127.087 37.5649 122.595 37.5649 122.595L34.2129 125.372L35.7777 133.366L51.1264 135.925L51.5866 134.915Z" fill="#F5CEB4"/>
<path d="M66.743 115.783L57.7378 135.127C57.7378 135.127 46.7459 135.646 39.8501 131.732C39.2442 131.386 38.7226 130.928 38.3544 130.383C35.662 126.382 37.3572 122.854 37.5643 122.595C37.71 122.189 37.5643 119.943 36.7282 119.518C35.8921 119.093 34.895 119.219 33.9362 120.854C32.985 122.488 30.9753 126.582 30.9753 127.725C30.2926 128.296 26.1659 124.13 25.8437 123.279C25.5139 122.429 23.4966 117.272 23.4966 117.272H23.2051C23.2051 117.272 23.8801 121.006 23.7574 122.189C23.6346 123.372 24.0488 128.682 25.1304 130.037C26.2043 131.393 28.6588 133.625 31.5966 134.815C34.5344 136.004 40.5405 140.583 41.0621 141.008C41.5837 141.433 47.1678 144.969 47.1678 144.969L52.0616 147.454L65.9376 147.766L77.3283 125.306L78.2104 117.657L66.743 115.783Z" fill="#FFDDC7"/>
<path d="M74.3282 121.764C74.3282 121.764 67.5321 140.669 62.9605 144.291C58.3888 147.912 49.9052 146.437 47.1592 144.969C51.6004 147.341 58.4502 151.866 64.1034 151.527C69.7489 151.188 72.5103 143.267 74.3282 139.991C76.1461 136.709 83.295 122.462 83.295 122.462L75.4097 120.315L74.3282 121.764Z" fill="#F5CEB4"/>
<path d="M34.6643 121.97C34.8561 122.076 35.0709 122.116 35.2626 122.116C35.4084 122.116 35.5388 122.096 35.6385 122.063C36.1141 121.917 36.7891 121.365 36.8198 120.701C36.8351 120.276 36.8274 119.804 36.8198 119.578C36.7891 119.558 36.7661 119.538 36.7354 119.518C36.6433 119.471 36.5513 119.438 36.4592 119.405C36.4516 119.425 36.4362 119.438 36.4362 119.458C36.4362 119.465 36.4592 120.123 36.4362 120.688C36.4132 121.179 35.884 121.638 35.5158 121.751C35.347 121.804 35.0785 121.804 34.8791 121.691C34.6797 121.578 34.557 121.372 34.5263 121.073C34.4419 120.295 35.5388 119.452 35.5541 119.438C35.5848 119.418 35.5848 119.385 35.6001 119.359C35.1936 119.458 34.7717 119.731 34.3575 120.262C34.2118 120.521 34.1197 120.807 34.1504 121.1C34.1888 121.611 34.4496 121.857 34.6643 121.97Z" fill="#F5CEB4"/>
<path d="M86.5244 158.624C86.5244 158.624 85.1513 154.81 85.6729 152.604C88.0201 151.979 95.008 140.39 94.4864 134.848C93.9648 129.306 94.7855 128.043 90.0375 115.099C94.5171 103.118 97.8154 99.3302 97.8154 99.3302L109.367 117.086C109.367 117.086 101.336 157.581 101.336 157.408C101.336 157.235 86.5244 158.624 86.5244 158.624Z" fill="#045A33"/>
<path d="M67.5313 117.651L64.1025 114.514C64.1025 114.514 67.4239 105.457 69.1651 102.327C70.8143 99.3568 77.9095 83.721 80.5865 80.4982C83.2635 77.2753 86.7229 76.1722 86.7229 76.1722V98.7388L67.5313 117.651Z" fill="#0C9757"/>
<path d="M67.5332 117.651L81.8311 84.4852C81.8311 84.4852 85.4515 77.189 86.7249 76.1723C87.9982 75.1556 95.7301 72.5241 102.687 72.0989C109.936 72.4377 116.003 72.0988 117.376 71.5074C118.749 70.916 122.661 70.1519 122.661 70.1519C122.661 70.1519 135.486 73.4611 142.835 84.3191C146.049 89.0703 147.613 97.7621 147.598 106.347C147.583 117.385 145.305 128.442 144.2 132.928C142.244 140.902 139.989 166.778 141.753 169.828C141.953 174.492 142.827 177.21 142.827 177.21C142.827 177.21 135.578 181.197 120.498 180.347C105.418 179.496 89.5553 170.931 86.5178 158.631C91.611 155.494 101.107 144.038 101.107 132.416C101.107 120.794 102.572 116.468 96.6045 103.404C94.6485 106.713 84.953 124.269 84.953 124.269C84.953 124.269 76.0475 124.435 67.5332 117.651Z" fill="#047541"/>
<path d="M129.611 79.9332C132.173 82.372 133.938 85.3556 135.403 88.3857C136.845 91.4425 137.788 94.652 138.517 97.8815L138.977 100.32L139.284 102.779L139.437 104.008C139.476 104.42 139.491 104.832 139.522 105.238C139.575 106.062 139.614 106.879 139.652 107.703C139.69 109.344 139.621 110.992 139.606 112.634C139.46 114.275 139.322 115.91 139.146 117.544C139.146 115.903 139.207 114.268 139.23 112.627C139.169 110.992 139.176 109.358 139.061 107.723C138.877 106.095 138.877 104.46 138.594 102.845L138.256 100.413L137.765 98.0078C137.105 94.7982 136.162 91.6352 134.858 88.5718C134.191 87.0501 133.47 85.535 132.595 84.093C131.751 82.6311 130.785 81.2224 129.611 79.9332Z" fill="#056339"/>
<path d="M138.745 123.332C139.021 123.631 139.006 123.93 139.037 124.236C139.052 124.535 139.029 124.841 139.029 125.14C139.021 125.744 138.998 126.349 138.96 126.954C138.922 127.558 138.876 128.163 138.807 128.761C138.722 129.359 138.646 129.971 138.446 130.555C138.438 130.569 138.423 130.575 138.408 130.575C138.392 130.569 138.385 130.555 138.385 130.542C138.507 129.951 138.508 129.353 138.515 128.748C138.523 128.15 138.515 127.545 138.5 126.947L138.454 125.146C138.446 124.847 138.423 124.548 138.431 124.243C138.454 123.943 138.423 123.644 138.684 123.339C138.699 123.319 138.722 123.319 138.745 123.332Z" fill="#045A33"/>
</g>
</svg>
