<svg width="198" height="144" viewBox="0 0 198 144" fill="none" xmlns="http://www.w3.org/2000/svg">
<g opacity="0.6">
<path d="M74.9628 5.85394C74.9628 5.85394 76.1043 10.7463 74.9628 13.2397C73.8213 15.7331 71.6769 20.868 71.6769 23.1233C71.416 25.4954 71.522 28.1864 71.6769 29.9879C71.8319 31.7894 77.2743 33.5146 77.2743 33.5146L95.3913 26.7308L95.322 24.3498C95.322 24.3498 94.0623 17.4312 87.6904 11.838C85.0609 9.71754 83.2753 6.61768 82.623 3.43695C80.5153 3.86824 76.3081 4.8521 76.3081 4.8521L74.9913 5.41816L74.9628 5.85394Z" fill="#EE982A"/>
<path d="M82.6209 12.9208C82.7605 12.9208 82.8737 12.7961 82.8737 12.6422C82.8737 12.4884 82.7605 12.3637 82.6209 12.3637C82.4813 12.3637 82.3682 12.4884 82.3682 12.6422C82.3682 12.7961 82.4813 12.9208 82.6209 12.9208Z" fill="#C97D1B"/>
<path d="M84.3349 14.291C84.5151 14.291 84.6611 14.1301 84.6611 13.9316C84.6611 13.7331 84.5151 13.5722 84.3349 13.5722C84.1548 13.5722 84.0088 13.7331 84.0088 13.9316C84.0088 14.1301 84.1548 14.291 84.3349 14.291Z" fill="#C97D1B"/>
<path d="M76.0315 17.8581C76.2409 17.8581 76.4106 17.671 76.4106 17.4403C76.4106 17.2095 76.2409 17.0225 76.0315 17.0225C75.8221 17.0225 75.6523 17.2095 75.6523 17.4403C75.6523 17.671 75.8221 17.8581 76.0315 17.8581Z" fill="#C97D1B"/>
<path d="M77.7495 19.345C77.9228 19.345 78.0634 19.1901 78.0634 18.9991C78.0634 18.808 77.9228 18.6531 77.7495 18.6531C77.5761 18.6531 77.4355 18.808 77.4355 18.9991C77.4355 19.1901 77.5761 19.345 77.7495 19.345Z" fill="#C97D1B"/>
<path d="M80.82 21.5823C81.1509 21.5823 81.4193 21.2867 81.4193 20.9219C81.4193 20.5572 81.1509 20.2615 80.82 20.2615C80.489 20.2615 80.2207 20.5572 80.2207 20.9219C80.2207 21.2867 80.489 21.5823 80.82 21.5823Z" fill="#C97D1B"/>
<path d="M75.9447 25.4236C76.2082 25.4236 76.4217 25.1882 76.4217 24.8979C76.4217 24.6076 76.2082 24.3723 75.9447 24.3723C75.6813 24.3723 75.4678 24.6076 75.4678 24.8979C75.4678 25.1882 75.6813 25.4236 75.9447 25.4236Z" fill="#C97D1B"/>
<path d="M79.1165 24.8979C79.3011 24.8979 79.4508 24.733 79.4508 24.5295C79.4508 24.3261 79.3011 24.1611 79.1165 24.1611C78.9319 24.1611 78.7822 24.3261 78.7822 24.5295C78.7822 24.733 78.9319 24.8979 79.1165 24.8979Z" fill="#C97D1B"/>
<path d="M81.1197 26.6096C81.4101 26.6096 81.6456 26.3501 81.6456 26.03C81.6456 25.71 81.4101 25.4505 81.1197 25.4505C80.8292 25.4505 80.5938 25.71 80.5938 26.03C80.5938 26.3501 80.8292 26.6096 81.1197 26.6096Z" fill="#C97D1B"/>
<path d="M79.8659 9.15046C81.6616 8.71118 82.9975 7.76014 82.8496 7.02623C82.7018 6.29233 81.1262 6.05349 79.3305 6.49277C77.5348 6.93204 76.1989 7.88309 76.3468 8.61699C76.4946 9.35089 78.0702 9.58973 79.8659 9.15046Z" fill="#BA7215"/>
<g opacity="0.25">
<path opacity="0.25" d="M85.9202 38.663C85.9202 38.663 83.996 36.6953 82.7811 30.1002C81.5662 23.5052 80.5878 17.6559 83.3437 16.079C86.0996 14.5021 88.99 18.4016 91.383 22.1574C93.776 25.9132 95.9897 34.6018 95.9897 34.6018L86.283 39.0224L85.9202 38.663Z" fill="white"/>
</g>
<path opacity="0.11" d="M71.6824 29.8307L73.2071 30.0599C73.2071 30.0599 75.9304 40.0872 85.0908 43.0748C84.0512 46.9788 80.4433 47.5134 80.4433 47.5134L73.0889 41.6641L71.6824 32.4499L71.821 32.104C71.821 32.1085 71.2543 29.8397 71.6824 29.8307Z" fill="black"/>
<path opacity="0.11" d="M81.3749 5.11277C81.3749 5.11277 78.0279 7.5028 78.7373 9.794C79.4466 12.0897 79.2224 18.3703 78.301 21.5241C77.3838 24.6778 77.0169 28.7526 77.8241 30.4283C78.6313 32.104 81.754 38.5284 85.2682 39.5886C88.7823 40.6488 83.9392 47.1001 83.9392 47.1001L77.0454 43.259L72.5202 33.1373L71.8965 24.5341L73.303 17.966L75.0478 13.7789L75.8795 10.7958L75.7245 8.18567L75.2557 5.28798L81.5747 4.19629L81.3749 5.11277Z" fill="black"/>
<path opacity="0.18" d="M84.7377 9.22345C84.7377 9.22345 83.5921 10.0276 84.7377 11.8201C85.8832 13.6127 88.0276 15.7916 88.158 15.9353C88.2885 16.0791 91.7741 19.6911 93.3355 26.2412C94.4566 26.1694 95.0803 25.1091 95.0803 25.1091C95.0803 25.1091 93.1806 18.1097 90.4492 15.7152C87.8727 12.4042 84.7377 9.22345 84.7377 9.22345Z" fill="black"/>
<path d="M82.0286 4.47022C82.8643 7.63297 84.7192 10.5397 87.1979 12.5478C92.9135 17.5705 94.3648 23.7657 94.5156 24.4576L94.9274 25.9401L77.2629 32.5666C74.878 31.7759 72.595 30.5046 72.4931 29.8981C72.3953 28.7749 72.1996 25.8772 72.489 23.2266L72.4931 23.1727V23.1188C72.4931 21.3937 74.0993 17.1167 75.6893 13.6395C76.7777 11.2585 76.1051 7.314 75.836 6.01116L76.5454 5.71016C77.0183 5.59785 80.0065 4.9015 82.0286 4.47022ZM82.6279 3.43243C80.5202 3.86372 76.313 4.84759 76.313 4.84759L74.9962 5.41365L74.9677 5.85842C74.9677 5.85842 76.1092 10.7508 74.9677 13.2442C73.8262 15.7375 71.6818 20.8725 71.6818 23.1278C71.4209 25.4998 71.5269 28.1909 71.6818 29.9924C71.8367 31.7939 77.2792 33.5191 77.2792 33.5191L95.3962 26.7353L95.3269 24.3542C95.3269 24.3542 94.0672 17.4357 87.6953 11.8425C85.0658 9.70853 83.2761 6.61316 82.6279 3.43243Z" fill="#D4D4D4"/>
<path d="M73.1994 3.39199C73.1994 3.39199 73.1057 4.61397 73.444 5.07221C73.7824 5.53045 76.9296 7.21515 81.3733 5.11264C85.8128 3.01013 83.4606 1.15021 83.4606 1.15021L73.1994 3.39199Z" fill="#034B2A"/>
<path d="M76.4145 0.638145C76.4145 0.638145 71.2452 2.70472 74.0215 4.57811C76.7978 6.45151 85.3997 2.97427 83.3205 0.984074C81.2414 -1.00613 76.4145 0.638145 76.4145 0.638145Z" fill="#006838"/>
<path d="M77.8457 0.264339C77.8457 0.264339 75.685 2.32192 79.7821 2.85653C82.2445 3.08565 83.5001 1.43689 82.909 0.655188C82.3179 -0.126515 79.2766 -0.108543 77.8457 0.264339Z" fill="#0F844E"/>
<path d="M71.6819 29.8128C71.6819 29.8128 71.3109 29.8038 71.8124 31.9647C72.3138 34.1257 75.4896 40.8241 75.4896 40.8241C75.4896 40.8241 80.6956 47.2754 80.773 47.3068C80.8505 47.3383 83.9488 46.6778 83.9488 46.6778L93.2805 41.2014L96.126 36.7269L97.1044 30.1408L95.6124 24.5026C95.6124 24.5026 95.5675 24.2466 95.327 24.3499C95.1721 24.6374 91.6498 27.8091 83.8958 29.4175C76.1378 31.0168 71.6819 29.8128 71.6819 29.8128Z" fill="#EFDDBF"/>
<g opacity="0.25">
<path opacity="0.25" d="M93.2203 25.9401C91.3939 27.0542 88.3405 28.4873 83.8927 29.4083C83.4851 29.4937 83.0896 29.57 82.6982 29.6374C82.7268 29.7902 82.7553 29.9429 82.7839 30.0957C83.9987 36.6907 85.9229 38.6585 85.9229 38.6585L86.2858 39.0134L95.9925 34.5927C95.9925 34.5972 94.8021 29.916 93.2203 25.9401Z" fill="white"/>
</g>
<path opacity="0.11" d="M85.2749 39.5886C81.7607 38.5283 78.6379 32.104 77.8307 30.4283C77.7981 30.3609 77.7696 30.2845 77.7411 30.2081C75.0423 30.3339 72.7022 30.0778 71.6789 29.8307C71.2713 30.3294 71.842 32.1354 72.0785 32.8497C72.9101 35.3611 76.5425 42.1269 76.5425 42.1269C76.9135 42.5851 77.3456 43.1197 77.7941 43.6723L83.3833 46.7856C83.7135 46.7183 83.9418 46.6688 83.9418 46.6688L84.4473 46.3723C85.5929 44.6607 88.0593 40.4332 85.2749 39.5886Z" fill="black"/>
<path opacity="0.11" d="M73.2102 30.0778C72.5906 30.0015 72.1584 29.9206 71.9138 29.8667L71.6815 29.8307C71.6611 29.8307 71.6407 29.8397 71.6244 29.8532C71.5428 29.9655 71.4409 30.3833 71.8119 31.9602C72.3134 34.1211 75.4891 40.8195 75.4891 40.8195C75.4891 40.8195 80.6951 47.2708 80.7726 47.3023C80.797 47.3113 81.1354 47.2484 81.5798 47.163C82.7294 46.6778 84.4294 45.5592 85.0939 43.0748C76.0803 40.1367 73.2999 30.3923 73.2102 30.0778Z" fill="black"/>
<path d="M52.1969 18.2444C52.1969 18.2444 49.4533 17.7502 47.4149 18.5319C46.9216 20.019 46.3672 25.5268 46.3672 25.5268L50.8067 31.2638L54.484 34.5973L56.983 41.9426L62.984 47.3067L69.3681 54.5352L79.6741 56.1211L81.5984 51.2287L74.0034 40.5634L52.1969 18.2444Z" fill="#F6C376"/>
<path d="M47.098 18.6847C47.098 18.6847 47.3467 18.541 47.416 18.532C47.3589 18.6488 46.6822 27.8585 54.2527 30.9539C55.6062 31.0123 55.1129 31.6727 55.1129 31.6727C55.1129 31.6727 55.6428 39.1528 62.0678 40.9363C62.9361 41.4889 63.3153 41.4709 63.3153 41.4709C63.3153 41.4709 65.4474 49.4632 71.2078 50.6088C72.0395 50.9547 73.3604 50.6088 73.3604 50.6088C73.3604 50.6088 73.8863 52.9404 74.6934 53.7042C75.5006 54.4679 68.7985 53.9512 68.7985 53.9512L60.3923 54.5263L56.9841 50.8559L47.0939 37.3198L44.334 24.7587L45.6345 19.9966L47.098 18.6847Z" fill="#ECB666"/>
<path d="M52.1982 18.2444C52.1982 18.2444 51.7661 23.9994 56.9843 27.8046C60.262 24.88 64.0452 24.1522 64.0452 24.1522C64.0452 24.1522 58.1135 18.9722 52.1982 18.2444Z" fill="#FFD494"/>
<path d="M65.2427 36.884C65.2427 36.884 60.3954 35.343 58.3652 29.5791C61.3046 26.8836 64.7127 25.9356 65.1041 25.9087C65.365 26.5107 66.8734 28.2044 69.0341 29.6375C71.1947 31.0706 73.4573 33.1372 73.6938 33.7662C72.5971 33.5954 69.2053 34.2109 65.2427 36.884Z" fill="#FFD494"/>
<path d="M66.7695 38.8337C66.7695 38.8337 70.1777 36.5201 75.2002 36.5785C76.0319 37.9262 79.0242 38.8427 80.769 42.9175C81.3153 44.2652 81.2379 44.0091 81.2379 44.0091C81.2379 44.0091 76.7616 44.4404 73.6918 47.3067C71.1683 46.4172 67.3973 42.3514 66.7695 38.8337Z" fill="#FFD494"/>
<path d="M75.4102 49.1217C75.4102 49.1217 78.5329 46.2914 81.4804 46.0623C82.7279 47.5133 83.9428 53.7086 83.9428 53.7086H79.6744C79.6744 53.7086 76.7596 51.5117 75.4102 49.1217Z" fill="#FFD494"/>
<path d="M44.268 21.3622C44.268 21.3622 43.8848 23.1413 43.261 24.9383C42.6373 26.7353 44.7001 34.458 44.7001 34.458L45.8987 37.3243L51.3126 46.0623L54.5373 50.2853L57.815 53.7086L58.9606 54.0141C58.9606 54.0141 58.9606 54.0141 61.3536 53.7086C39.2536 32.9081 46.6081 19.1834 47.0932 18.6847C47.0932 18.6847 45.6256 19.4664 45.3483 19.7764C45.0752 20.0819 44.268 21.3622 44.268 21.3622Z" fill="#DAA75B"/>
<path d="M45.3519 19.7762C45.3519 19.7762 40.3294 22.8177 44.6507 35.4912C47.6675 44.2606 56.4651 53.5557 57.2438 54.014C58.0224 54.4722 58.9601 54.014 58.9601 54.014C58.9601 54.014 37.5042 33.6358 45.3519 19.7762Z" fill="#CD9644"/>
<path d="M64.0454 24.152C64.0454 24.152 64.9097 24.8484 65.1053 25.9086C64.1147 25.994 59.989 27.5529 55.7207 31.8523C54.6281 32.9619 53.5356 34.1255 53.1523 33.2674C53.4663 32.4633 55.3212 29.3679 56.5523 28.6042C57.7835 27.8404 60.2989 25.7379 61.1998 25.5088C62.1008 25.2797 64.0454 24.152 64.0454 24.152Z" fill="#BD8F49"/>
<path d="M53.3346 33.51C53.3346 33.51 54.2967 29.6779 61.3576 25.7963C63.8566 24.3812 64.5008 24.6328 64.5008 24.6328L64.0483 24.1521C64.0483 24.1521 60.8929 23.7882 55.373 29.2196C52.8046 31.7804 52.9269 33.0203 53.3346 33.51Z" fill="#AF8341"/>
<path d="M75.1989 36.5785C75.1989 36.5785 74.2613 35.3341 74.2083 34.7231C73.132 34.4355 70.9632 34.7231 70.9632 34.7231L68.3418 35.4509L63.4661 38.7978L60.5512 42.2391L59.3037 44.9346L59.5442 45.4108C59.5442 45.4108 60.0334 45.9634 62.0963 43.1736C64.1591 40.3837 68.5742 36.848 75.1989 36.5785Z" fill="#BD8F49"/>
<path d="M73.6898 33.7708C73.6898 33.7708 74.2605 34.3054 74.2116 34.7277C73.8121 34.557 67.3953 34.9208 62.76 40.2131C59.7595 43.4612 59.5476 45.411 59.5476 45.411C59.5476 45.411 58.72 45.2941 59.36 43.9014C60.0001 42.5043 60.0001 42.5043 60.0001 42.5043C60.0001 42.5043 62.1322 39.3685 63.3838 38.3576C64.6353 37.3423 68.6958 33.8067 73.6898 33.7708Z" fill="#AF8341"/>
<path d="M68.958 53.7086C68.958 53.7086 69.3453 50.438 74.0091 46.8439C78.6729 43.2499 81.0863 43.9777 81.2412 44.0047C81.3961 44.0316 81.604 44.5213 81.604 44.5213L81.2453 45.2581L74.3352 48.9689L70.3645 52.8325L69.5043 53.9017L68.958 53.7086Z" fill="#AF8341"/>
<path d="M69.5039 53.7086C69.5039 53.7086 72.2639 46.79 81.6037 44.5213C81.9176 45.3794 82.0969 45.8107 82.0969 45.8107L81.4814 46.0578C81.4814 46.0578 78.4075 46.3273 74.7629 49.7686C71.2202 53.2099 71.0653 54.5307 71.0653 54.5307L69.5039 53.7086Z" fill="#BD8F49"/>
<path d="M81.3549 46.3498C81.3549 46.3498 80.352 50.4021 82.5901 53.439C83.2913 53.6098 83.593 53.439 83.593 53.439L82.4597 49.6383L81.3549 46.3498Z" fill="#E0AE65"/>
<path d="M103.072 26.084C103.072 26.084 103.517 24.0848 104.65 23.2717C105.111 23.0695 105.787 24.1433 105.787 24.314C105.787 24.4847 105.881 24.907 105.041 25.491C104.202 26.075 104.157 26.722 104.157 26.722L103.072 26.084Z" fill="#9E7639"/>
<path d="M100.279 26.4074C100.279 26.4074 102.354 24.88 104.421 26.7444C106.488 28.6088 105.318 34.9612 105.318 34.9612L104.445 55.5461L96.292 54.4769L101.147 32.7958L100.279 26.4074Z" fill="#DEA327"/>
<path d="M83.3726 53.439C83.3726 53.439 80.2498 50.6851 81.5503 45.3794C82.8508 40.0737 86.6258 37.6927 88.9414 36.6639C91.257 35.6306 93.3891 34.741 97.7349 28.5773C101.119 24.3318 104.89 25.5942 103.12 31.6726C101.799 35.5183 101.278 37.194 101.09 37.8499C101.021 38.088 100.923 38.3171 100.809 38.5328C100.222 39.6559 98.4565 43.6453 99.9975 48.7578C100.389 50.1415 98.0488 53.439 98.0488 53.439H83.3726Z" fill="#F4BF1A"/>
<path d="M86.33 40.604C86.8273 40.1323 87.3818 39.7414 87.9688 39.4224C89.7422 38.4565 94.777 35.5858 97.8427 32.6252C99.612 31.1337 101.589 34.7771 97.8427 40.595C94.0962 46.5611 94.6425 50.2854 88.4499 51.75C85.1967 52.4958 81.7355 48.5333 83.8187 44.2609C84.7074 42.3561 85.6247 41.2689 86.33 40.604Z" fill="#F7D239"/>
<path d="M100.994 28.1775C101.111 28.1775 101.206 28.0729 101.206 27.9439C101.206 27.8149 101.111 27.7103 100.994 27.7103C100.877 27.7103 100.782 27.8149 100.782 27.9439C100.782 28.0729 100.877 28.1775 100.994 28.1775Z" fill="#DEA327"/>
<path d="M101.461 29.8892C101.621 29.8892 101.751 29.7464 101.751 29.5702C101.751 29.394 101.621 29.2512 101.461 29.2512C101.301 29.2512 101.172 29.394 101.172 29.5702C101.172 29.7464 101.301 29.8892 101.461 29.8892Z" fill="#DEA327"/>
<path d="M99.5985 30.4283C99.8034 30.4283 99.9695 30.2453 99.9695 30.0195C99.9695 29.7937 99.8034 29.6107 99.5985 29.6107C99.3936 29.6107 99.2275 29.7937 99.2275 30.0195C99.2275 30.2453 99.3936 30.4283 99.5985 30.4283Z" fill="#DEA327"/>
<path d="M100.338 52.2127C100.57 52.2127 100.758 52.0055 100.758 51.75C100.758 51.4944 100.57 51.2872 100.338 51.2872C100.106 51.2872 99.918 51.4944 99.918 51.75C99.918 52.0055 100.106 52.2127 100.338 52.2127Z" fill="#CB9420"/>
<path d="M86.2344 43.1557C86.2344 43.1557 83.5641 45.6895 85.7492 47.5179C87.9344 49.3464 91.3344 44.6472 93.1037 41.5114C94.873 38.3756 93.5073 38.0836 92.7653 38.2588C92.0233 38.4295 89.7077 40.7387 88.8476 41.1834C87.9914 41.6282 86.2344 43.1557 86.2344 43.1557Z" fill="#FAEE8A"/>
<path d="M139.04 53.21L144.487 36.1563C144.487 36.1563 144.801 34.8175 144.593 33.7303C144.385 32.6431 143.663 26.0256 144.446 23.8736C145.225 21.7217 140.801 21.3219 140.801 21.3219L135.131 19.2283C135.131 19.2283 133.439 23.357 131.747 24.6778C130.186 26.0256 128.624 27.3733 127.764 29.5522C126.904 31.7311 122.998 41.9696 122.998 41.9696L119.774 51.0041L119.513 54.5892L139.04 53.21Z" fill="#D4D4D4"/>
<path opacity="0.11" d="M144.18 25.1855C144.18 25.1855 137.939 25.2439 134.449 20.7244C134.877 20.0146 135.13 19.2328 135.13 19.2328L144.454 23.6221C144.454 23.6176 144.115 24.8755 144.18 25.1855Z" fill="black"/>
<path d="M143.545 35.1544L137.364 55.1597L132.762 50.2314L128.819 29.9565L128.856 29.5163L129.137 28.7705L143.545 35.1544Z" fill="#C7C5C5"/>
<path d="M128.856 29.5165C128.856 29.5165 128.856 32.9398 137.495 37.1269C141.971 39.6786 137.156 52.6711 136.634 53.5876C136.113 54.504 123.365 54.8769 123.365 54.8769L118.497 53.7313L123.805 42.5494L128.856 29.5165Z" fill="#EDEDED"/>
<path d="M143.541 35.1587C144.059 33.7384 141.253 31.1577 137.273 29.3947C133.294 27.6317 129.648 27.3539 129.13 28.7742C128.611 30.1946 131.417 32.7752 135.397 34.5383C139.376 36.3013 143.022 36.5791 143.541 35.1587Z" fill="#FAFAFA"/>
<path opacity="0.42" d="M136.193 25.0507C136.193 25.0507 134.371 24.1612 132.369 27.0589C130.368 29.9566 127.139 36.7808 125.602 40.9094C124.065 45.0381 124.171 49.8541 127.11 50.1731C128.619 50.3168 130.673 43.6139 130.849 43.1961C131.024 42.7738 133.902 34.0178 136.956 27.7103C137.755 25.7605 136.193 25.0507 136.193 25.0507Z" fill="white"/>
<path d="M135.64 16.8697L135.803 18.4106L143.932 24.0218C143.932 24.0218 144.833 23.8511 145.24 23.4872C145.579 22.8358 146.484 20.302 146.484 20.302L136.08 15.76L135.64 16.8697Z" fill="#6F9DBA"/>
<path d="M146.582 20.0977C146.961 18.9876 144.917 17.1132 142.017 15.9111C139.118 14.709 136.46 14.6344 136.081 15.7445C135.702 16.8546 137.745 18.729 140.645 19.9311C143.545 21.1332 146.203 21.2078 146.582 20.0977Z" fill="#BADEF5"/>
<path d="M135.639 16.8698C135.639 16.8698 137.983 19.7944 141.33 20.5986C144.677 21.4027 144.086 23.6939 143.931 24.0219C143.585 24.2914 137.894 25.0552 134.946 19.2328C134.946 18.9633 135.162 18.3029 135.219 18.0917C135.276 17.8806 135.639 16.8698 135.639 16.8698Z" fill="#89B5D0"/>
<path d="M140.931 17.4481C141.125 16.813 140.446 15.9888 139.415 15.6072C138.384 15.2257 137.392 15.4312 137.198 16.0663C137.005 16.7013 137.683 17.5255 138.714 17.9071C139.745 18.2887 140.738 18.0831 140.931 17.4481Z" fill="#D2EDFF"/>
<path d="M103.113 35.7968C103.113 35.7968 98.5922 40.1097 100.443 47.9671C102.159 54.4769 106.195 54.7329 106.195 54.7329H120.17L119.779 54.2567C119.779 54.2567 121.601 52.8416 122.486 50.6762C122.563 48.0795 119.726 47.3067 119.726 47.3067L103.113 35.7968Z" fill="#C0321D"/>
<path d="M105.178 34.265C105.178 34.265 103.87 34.8849 103.116 35.7924C102.716 36.673 100.983 43.2276 106.532 50.2854C109.83 54.2433 115.753 56.5974 122.484 50.6717C123.194 49.5441 124.955 42.3291 122.953 39.7953C120.951 37.266 114.029 41.1925 114.029 41.1925L108.122 43.3983L105.178 34.265Z" fill="#D53D26"/>
<path d="M105.179 34.2649C105.179 34.2649 102.994 41.9427 108.563 45.2087C110.177 46.269 112.632 46.1926 113.333 46.0488C114.034 45.9051 116.61 45.8916 117.218 45.9725C118.09 46.0848 119.778 45.2671 121.079 44.0586C120.414 42.3964 114.91 35.0825 114.91 35.0825C114.91 35.0825 113.557 36.7223 112.517 36.0709C111.478 35.4195 110.345 34.2334 108.848 33.8561C107.352 33.4832 105.664 33.8606 105.179 34.2649Z" fill="#EC5038"/>
<path d="M111.08 42.8866C112.362 42.1712 112.668 39.9979 111.765 38.0324C110.861 36.0668 109.09 35.0534 107.809 35.7687C106.527 36.4841 106.221 38.6574 107.124 40.6229C108.028 42.5884 109.799 43.6019 111.08 42.8866Z" fill="#FE816E"/>
<path d="M112.648 36.1204C112.648 36.1204 112.493 31.9064 114.548 30.3565C115.2 29.9836 116.044 31.7042 115.816 32.3916C115.588 33.079 114.572 33.5102 113.716 36.1204C113.064 36.6371 112.648 36.1204 112.648 36.1204Z" fill="#82602D"/>
<path opacity="0.11" d="M121.939 36.2686C120.031 33.2272 118.042 33.335 116.929 33.3395C116.778 33.326 116.631 33.326 116.484 33.3305C116.195 33.8382 115.881 34.3279 115.677 34.4986C115.294 34.8265 114.589 35.424 114.308 35.6621C114.047 36.9785 113.994 38.7126 114.943 40.1727C116.374 42.3785 118.743 43.0659 120.207 45.1459C120.337 45.3301 120.492 45.5862 120.602 45.7884C120.724 46.0085 121.14 46.6374 121.14 46.6374C121.222 46.7632 121.389 46.7632 121.474 46.6374C122.131 45.6446 122.432 44.0183 122.6 43.295C122.6 43.295 123.847 39.3056 121.939 36.2686Z" fill="black"/>
<path d="M123.051 42.7062C123.051 42.7062 124.294 38.7213 122.387 35.6798C120.479 32.6384 118.489 32.7462 117.376 32.7507C116.263 32.7552 123.051 42.7062 123.051 42.7062Z" fill="#0DC80D"/>
<path d="M115.427 33.0027C115.427 33.0027 117.062 32.4141 118.423 33.0027C119.785 33.5912 123.645 35.222 123.115 42.4101C123.115 42.4101 122.516 45.3931 121.55 46.5612C121.505 45.3976 115.427 33.0027 115.427 33.0027Z" fill="#00AC00"/>
<path d="M115.394 33.043C115.394 33.043 113.588 36.8078 115.394 39.5932C117.2 42.3741 120.409 42.8143 121.55 46.5656C121.713 46.642 121.864 33.043 115.394 33.043Z" fill="#048E04"/>
<path d="M121.551 46.5656C121.49 45.8693 121.457 45.1729 121.412 44.4811C121.404 44.1352 121.363 43.7892 121.322 43.4433L121.208 42.41L121.151 41.8934L121.062 41.3857L120.886 40.3704C120.841 40.029 120.744 39.701 120.662 39.3686C120.576 39.0406 120.507 38.7037 120.405 38.3802C120.006 37.0863 119.447 35.8419 118.628 34.8266C118.228 34.31 117.727 33.8966 117.18 33.5777C116.638 33.2497 116.019 33.0655 115.387 33.0475C116.667 32.8903 117.955 33.5777 118.852 34.5885C119.773 35.6038 120.368 36.9066 120.788 38.2409C120.89 38.5779 120.956 38.9238 121.045 39.2607C121.123 39.6022 121.225 39.9391 121.261 40.2895L121.408 41.3318L121.481 41.8529L121.51 42.3786L121.567 43.4298C121.587 43.7803 121.612 44.1262 121.6 44.4766C121.587 45.1684 121.583 45.8693 121.551 46.5656Z" fill="#0E700E"/>
<path d="M116.056 44.3642C116.48 44.3642 116.823 43.986 116.823 43.5196C116.823 43.0531 116.48 42.675 116.056 42.675C115.633 42.675 115.29 43.0531 115.29 43.5196C115.29 43.986 115.633 44.3642 116.056 44.3642Z" fill="#C0321D"/>
<path d="M114.433 42.9311C114.595 42.9311 114.727 42.7863 114.727 42.6076C114.727 42.429 114.595 42.2842 114.433 42.2842C114.271 42.2842 114.14 42.429 114.14 42.6076C114.14 42.7863 114.271 42.9311 114.433 42.9311Z" fill="#C0321D"/>
<path d="M114.095 45.1728C114.304 45.1728 114.474 44.9857 114.474 44.755C114.474 44.5242 114.304 44.3372 114.095 44.3372C113.886 44.3372 113.716 44.5242 113.716 44.755C113.716 44.9857 113.886 45.1728 114.095 45.1728Z" fill="#C0321D"/>
<path d="M107.724 48.1874C107.89 48.1874 108.025 48.0385 108.025 47.8549C108.025 47.6713 107.89 47.5225 107.724 47.5225C107.557 47.5225 107.422 47.6713 107.422 47.8549C107.422 48.0385 107.557 48.1874 107.724 48.1874Z" fill="#C0321D"/>
<path d="M109.322 50.3932C109.532 50.3932 109.702 50.2061 109.702 49.9754C109.702 49.7446 109.532 49.5576 109.322 49.5576C109.113 49.5576 108.943 49.7446 108.943 49.9754C108.943 50.2061 109.113 50.3932 109.322 50.3932Z" fill="#C0321D"/>
<path d="M116.909 51.9251C117.093 51.9251 117.243 51.7602 117.243 51.5567C117.243 51.3533 117.093 51.1884 116.909 51.1884C116.724 51.1884 116.574 51.3533 116.574 51.5567C116.574 51.7602 116.724 51.9251 116.909 51.9251Z" fill="#C0321D"/>
<path d="M119.411 52.361C119.613 52.361 119.778 52.1799 119.778 51.9566C119.778 51.7333 119.613 51.5523 119.411 51.5523C119.208 51.5523 119.044 51.7333 119.044 51.9566C119.044 52.1799 119.208 52.361 119.411 52.361Z" fill="#C0321D"/>
<path d="M103.295 49.9844C103.601 49.9844 103.849 49.7108 103.849 49.3734C103.849 49.0359 103.601 48.7624 103.295 48.7624C102.988 48.7624 102.74 49.0359 102.74 49.3734C102.74 49.7108 102.988 49.9844 103.295 49.9844Z" fill="#C0321D"/>
<path d="M106.034 51.5074C106.293 51.5074 106.503 51.2761 106.503 50.9908C106.503 50.7054 106.293 50.4741 106.034 50.4741C105.775 50.4741 105.565 50.7054 105.565 50.9908C105.565 51.2761 105.775 51.5074 106.034 51.5074Z" fill="#C0321D"/>
<path d="M88.9449 53.2101L89.43 112.741H57.1626L56.123 60.6632L88.9449 53.2101Z" fill="#948F80"/>
<path d="M56.3779 73.6646C56.3779 73.6646 67.6379 66.0946 79.6398 74.8911C91.6458 83.683 88.4537 105.247 86.4398 112.745C81.511 112.745 57.1566 112.745 57.1566 112.745L56.3779 73.6646Z" fill="#A49F8F"/>
<path d="M56.4167 53.2101L47.3623 68.8666H80.1474L88.945 53.2101H56.4167Z" fill="#575343"/>
<path d="M49.4277 65.2904C49.4277 65.2904 51.0543 69.4415 67.6548 67.9545C84.2553 66.4629 87.7939 54.5352 87.2762 53.2144C85.4009 53.2144 56.4153 53.2144 56.4153 53.2144L49.4277 65.2904Z" fill="#736D5A"/>
<path d="M88.9443 53.2101L89.4295 112.741L139.736 112.458V62.2716L88.9443 53.2101Z" fill="#575343"/>
<path d="M94.6597 112.714C94.6597 112.714 84.6432 98.0862 95.6749 79.797C106.707 61.5078 135.851 73.6691 139.74 73.1345C139.74 77.4923 139.74 112.458 139.74 112.458L94.6597 112.714Z" fill="#736D5A"/>
<path d="M88.9443 53.2099L98.2882 68.4981H148.722L139.667 52.8281L88.9443 53.2099Z" fill="#948F80"/>
<path d="M90.5913 55.9055C90.5913 55.9055 96.9918 66.2114 114.065 67.5861C131.134 68.9608 143.511 62.8824 144.73 61.5841C143.654 59.7241 139.671 52.8281 139.671 52.8281L88.9443 53.2099L90.5913 55.9055Z" fill="#A49F8F"/>
<path d="M156.963 62.0156C156.963 62.0156 149.727 64.5673 143.742 63.4801C137.758 62.3929 123.913 68.6421 122.927 69.7293C122.103 70.6368 121.063 72.3799 123.571 73.503C124.822 74.0646 126.216 74.1005 127.517 73.6917C129.718 72.9998 132.862 71.688 135.21 72.025C138.434 72.4832 139.009 72.8561 138.125 74.105C137.24 75.3539 132.87 77.8204 129.07 77.9327C125.271 78.0495 126 78.4493 116.946 77.4744C112.939 77.416 112.417 79.4242 113.146 80.1116C113.876 80.7989 122.67 83.8404 131.153 82.1781C129.176 83.6113 120.379 83.782 119.131 83.2698C117.884 82.7532 114.239 83.0991 113.717 85.1073C113.195 87.1154 121.471 89.0068 131.83 87.403C129.8 88.6654 119.392 89.0652 117.933 89.0652C116.477 89.0652 112.417 91.3025 116.526 92.7356C120.639 94.1688 130.407 93.1939 134.916 91.5316C132.972 93.5398 123.501 94.8561 121.626 95.4312C119.751 96.0062 117.358 98.4142 121.312 98.7556C125.267 99.1016 136.302 98.0683 144.627 94.2227C152.956 90.3815 158.264 83.6113 164.04 81.374L160.033 60.7846L156.963 62.0156Z" fill="#FFDDC0"/>
<path d="M198 59.7872V70.8164L164.041 82.5734C164.041 82.5734 162.235 79.806 160.519 74.5048C162.793 72.3079 198 59.7872 198 59.7872Z" fill="#024F2B"/>
<path d="M156.596 60.3217C156.596 60.3217 178.871 51.0895 197.999 28.4336C197.999 49.881 197.999 59.7871 197.999 59.7871C197.999 59.7871 179.788 75.8435 160.518 74.5092C158.157 68.0669 156.596 60.3217 156.596 60.3217Z" fill="#006838"/>
<path d="M30.3982 105.53C30.3982 105.53 37.0514 102.421 41.0059 97.1427C43.8677 94.1596 56.4608 89.3436 57.2965 89.1145C58.1282 88.8854 60.8351 89.1729 59.2737 92.0975C57.7123 95.0222 50.9449 97.8884 50.2193 99.2093C49.1267 100.243 47.5123 102.192 51.1569 101.846C54.8015 101.5 58.9639 99.0924 63.2812 93.3599C67.1337 89.3436 69.3718 89.8602 69.3718 91.4102C69.3718 92.9601 66.6649 97.6054 61.5649 101.846C63.9049 100.988 67.9123 96.2846 68.7481 95.422C69.5797 94.5639 72.6495 93.3554 72.3397 95.5927C72.0258 97.83 67.2397 103.221 62.2946 106.775C64.1169 106.146 70.5174 99.3755 73.0164 99.3171C75.5155 99.2587 75.7764 100.234 73.3792 102.929C70.9821 105.625 64.2188 111.186 62.8164 111.761C63.7011 111.932 70.9862 107.404 71.6099 106.77C72.2337 106.141 78.2713 104.304 74.4188 109.066C70.2565 113.482 56.9581 122.705 45.845 122.373C39.7543 122.382 34.6054 124.781 34.6054 124.781L28.7227 105.912L30.3982 105.53Z" fill="#FFE5CF"/>
<path d="M31.5764 104.919C31.5764 104.919 32.8646 118.316 38.3397 123.474C35.4289 124.444 36.6356 123.698 34.6054 124.79C33.5944 121.546 28.7227 105.521 28.7227 105.521C28.7227 105.521 30.5776 105.872 31.5764 104.919Z" fill="#F2D4BB"/>
<path d="M33.9837 119.453L35.7 125.36C35.7 125.36 2.60911 141.65 0 144C0 132.126 0 130.064 0 130.064C0 130.064 30.706 123.523 33.9837 119.453Z" fill="#2736C6"/>
<path d="M0.00488281 109.875L29.9281 103.679L33.9886 119.453C33.9886 119.453 25.4967 133.007 0.00896353 130.064C0.00488679 120.468 0.00488281 109.875 0.00488281 109.875Z" fill="#3647E8"/>
</g>
</svg>
