<svg width="176" height="136" viewBox="0 0 176 136" fill="none" xmlns="http://www.w3.org/2000/svg">
<g opacity="0.6">
<path d="M76.2675 21.1425C76.2675 21.1425 76.9339 21.2253 77.2946 20.8112C77.7838 21.243 83.5309 25.9578 83.5309 25.9578C83.5309 25.9578 84.3685 27.413 84.3868 28.7913C84.4052 30.1697 83.1885 40.2262 83.3964 46.7689C83.4881 47.4374 83.4575 47.7154 83.6348 47.9106C83.7082 47.9934 83.7204 48.1058 83.6959 48.2064C83.5981 48.585 83.2985 49.2298 83.916 49.5907C84.6497 49.8569 84.8637 48.5199 84.8209 47.8041C84.8148 47.7095 84.8393 47.6148 84.8882 47.532C85.5485 46.4317 87.0892 36.4521 87.0892 35.4937C87.0892 34.4881 87.8718 34.7898 88.1836 35.6475C88.2875 36.807 89.223 45.2131 90.1095 47.6799C90.3907 48.3306 90.2929 49.3244 90.3174 49.3718C90.3418 49.425 90.9593 51.0045 91.7297 49.3422C91.7419 48.165 91.6135 47.9047 91.748 47.8041C91.9314 47.6681 91.9742 47.4196 91.962 47.1948C91.8214 44.0596 90.9226 29.1108 90.6781 27.4899C91.7725 25.9282 98.4856 20.7461 99.0542 20.4917C99.6289 20.2374 100.197 20.5923 100.509 20.0895C100.821 19.5866 99.1031 17.0193 97.489 18.3799C96.4496 19.1844 96.7615 19.841 96.7615 19.841L92.4939 23.2129C92.4939 23.2129 90.0483 23.9701 89.009 22.6569C88.1775 21.598 89.064 20.9946 89.3208 20.9472C89.5776 20.8999 90.3112 19.5866 89.5837 18.4272C88.8561 17.2677 86.5634 16.8181 85.7319 18.93C85.3161 20.6929 86.5634 21.1957 86.5634 21.1957C86.5634 21.1957 86.8263 23.5087 83.3352 22.9585C80.3149 21.0478 76.5182 17.4511 76.5182 17.4511L75.167 18.7289C75.167 18.7289 75.4788 19.5866 75.9496 19.8351C75.5889 19.9357 74.9102 20.6396 76.2675 21.1425Z" fill="#BBDCF6"/>
<path d="M160.792 24.0884C159.588 22.1125 155.583 19.6694 152.813 18.0189C152.392 17.7705 151.474 17.5575 151.23 17.1789C151.658 16.4099 151.181 15.2386 151.529 14.2921C151.964 13.1267 152.049 11.6833 151.267 10.4233C149.86 8.1576 147.519 9.13959 146.657 10.1216C145.795 11.1036 145.727 13.671 146.504 14.9546C147.195 16.0904 138.036 16.9305 135.169 18.155C134.722 18.3443 134.215 18.3384 133.781 18.1195C132.747 17.5812 131.317 18.0603 131.127 18.6519C130.608 20.2432 132.142 20.9945 133.078 21.1424C133.634 21.2311 134.294 20.9531 134.741 20.7046C135.132 20.4917 135.56 20.3615 136.006 20.326L142.285 19.8528C142.285 19.8528 143.691 23.8576 142.676 27.478C141.27 30.6488 139.864 46.2837 139.791 48.3187C139.778 48.6677 140.072 48.9872 140.567 49.283L140.549 49.2771C140.084 49.4013 139.014 49.277 138.598 50.8329C138.183 52.3887 140.708 51.7675 141.276 51.667C141.851 51.5664 142.31 49.9988 142.31 49.9988L142.297 49.9928C143.832 50.4602 145.801 50.7855 147.396 50.9275H147.39C147.39 50.9275 145.721 52.1698 146.057 53.3056C146.394 54.4355 148.087 54.0332 148.399 53.5067C148.711 52.9802 150.129 51.6492 149.903 50.9275H149.897C150.105 50.8861 150.227 50.821 150.246 50.7382C150.404 49.91 149.854 42.5096 149.854 39.4867C150.949 30.2761 149.854 25.8157 149.854 25.8157C149.854 25.8157 149.854 22.6449 151.805 21.8108C153.889 22.2131 156.885 24.6444 158.188 25.7684C158.738 26.2416 159.52 26.4309 160.199 26.1588C160.829 25.9222 161.318 25.3543 160.792 24.0884Z" fill="#DF3B27"/>
<path d="M14.0696 25.1886C15.274 23.2128 19.2787 20.7697 22.0483 19.1192C22.4701 18.8708 23.3872 18.6578 23.6318 18.2792C23.2038 17.5102 23.6807 16.3389 23.3322 15.3924C22.8981 14.227 22.8125 12.7836 23.5951 11.5236C25.0013 9.25788 27.343 10.2399 28.205 11.2219C29.0671 12.2039 29.1344 14.7712 28.3579 16.0549C27.667 17.1907 36.8257 18.0307 39.6931 19.2553C40.1395 19.4446 40.6469 19.4387 41.081 19.2198C42.1143 18.6815 43.5449 19.1606 43.7345 19.7522C44.2541 21.3435 42.7195 22.0948 41.7841 22.2427C41.2277 22.3314 40.5674 22.0534 40.1211 21.8049C39.7298 21.5919 39.3018 21.4618 38.8555 21.4263L32.5765 20.9531C32.5765 20.9531 31.1703 24.9579 32.1852 28.5783C33.5914 31.7491 34.9976 47.384 35.071 49.419C35.0832 49.768 34.7898 50.0875 34.2945 50.3832L34.3129 50.3773C34.7775 50.5016 35.8475 50.3773 36.2632 51.9331C36.679 53.4889 34.1539 52.8678 33.5853 52.7672C33.0106 52.6667 32.5521 51.099 32.5521 51.099L32.5643 51.0931C31.0297 51.5605 29.061 51.8858 27.4652 52.0278H27.4714C27.4714 52.0278 29.1405 53.2701 28.8042 54.4059C28.4679 55.5358 26.7744 55.1335 26.4626 54.607C26.1507 54.0805 24.7323 52.7495 24.9585 52.0278H24.9646C24.7568 51.9864 24.6345 51.9213 24.6161 51.8385C24.4572 51.0103 25.0074 43.6099 25.0074 40.587C23.913 31.3764 25.0074 26.916 25.0074 26.916C25.0074 26.916 25.0074 23.7452 23.0571 22.9111C20.9722 23.3134 17.9764 25.7447 16.6741 26.8687C16.1239 27.3419 15.3413 27.5312 14.6626 27.2591C14.039 27.0225 13.5499 26.4546 14.0696 25.1886Z" fill="#F09A24"/>
<path d="M13.8502 39.2679C13.679 38.5166 13.2632 38.0197 12.7497 37.6885C13.6056 35.1861 14.9812 31.134 15.6966 28.8446C16.791 25.3721 14.0703 25.1888 12.5724 26.7327C11.9365 27.3894 11.0255 29.4539 10.1818 31.6072C10.0595 29.59 9.02626 27.768 5.7553 27.6378C5.7553 27.6378 -6.00182 28.2412 4.09231 37.8068C3.35863 39.6998 3.12019 42.3677 3.84163 44.8464C3.90889 45.0889 4.00671 45.3196 4.13511 45.5385C4.92992 47.5735 5.8409 51.1701 5.49852 52.4124C5.13168 53.7198 4.42857 54.7609 4.3552 55.4353C4.22681 56.3522 3.98837 81.2629 4.92992 82.9252C5.2723 83.5345 7.25933 83.7534 9.64988 83.7179C13.8074 83.6469 19.1938 82.7773 19.2916 81.7184C19.4444 80.0502 14.5044 42.137 13.8502 39.2679Z" fill="#DF3B27"/>
<path d="M162.15 38.552C162.321 37.8008 162.737 37.3039 163.25 36.9726C162.395 34.4703 161.019 30.4181 160.304 28.1287C159.209 24.6563 161.93 24.4729 163.428 26.0169C164.064 26.6735 164.975 28.738 165.818 30.8913C165.941 28.8741 166.974 27.0521 170.245 26.9219C170.245 26.9219 182.002 27.5253 171.908 37.0909C172.69 39.1022 173.002 43.2313 172.012 44.5919C171.021 45.9525 170.141 50.3833 170.502 51.6906C170.862 52.998 171.572 54.0391 171.645 54.7135C171.773 55.6304 172.012 80.5411 171.07 82.2034C170.728 82.8127 168.741 83.0316 166.35 82.9961C162.193 82.9251 156.806 82.0555 156.709 80.9966C156.556 79.3284 161.502 41.4211 162.15 38.552Z" fill="#F09A24"/>
<path d="M156.323 41.2909C154.892 43.1484 153.853 46.2127 157.436 50.0934C153.896 52.0041 143.802 67.4084 142.658 69.1712C142.328 69.674 141.784 70.2419 141.576 70.8808C141.105 72.3479 141.656 74.1995 144.67 73.0105C144.939 72.904 145.171 72.4603 145.465 72.1941C148.381 69.1712 150.093 67.4616 150.564 67.4616C151.035 67.4616 151.395 68.8695 150.772 69.6267C150.148 70.3839 142.652 92.3841 144.01 104.263C139.846 104.564 134.435 105.57 145.569 109.9C148.589 110.504 149.732 110.705 149.524 107.078C150.564 102.648 151.083 88.1485 154.623 85.4273C155.559 89.5564 156.079 99.826 155.663 99.7254C155.247 99.6248 147.543 97.4124 155.039 102.949C158.683 105.57 160.322 105.972 161.013 100.737C161.703 95.5016 162.327 76.5717 161.599 72.342C160.872 68.1123 166.283 61.1674 163.782 52.4064L162.223 50.0934C162.223 50.0934 166.05 47.1474 165.109 43.4974C164.436 40.8768 162.932 39.9007 161.502 39.4926C159.588 38.9424 157.528 39.7351 156.323 41.2909Z" fill="#026839"/>
<path d="M20.0122 41.8647C21.4428 43.7222 22.4822 46.7865 18.8995 50.6672C22.4394 52.5779 32.5336 67.9822 33.6769 69.745C34.8202 71.5079 36.2264 75.2821 30.8644 72.7679C27.9481 69.745 26.2362 68.0354 25.7654 68.0354C25.2946 68.0354 24.9339 69.4433 25.5575 70.2005C26.1812 70.9577 33.6769 92.9579 32.3196 104.836C36.4832 105.138 41.894 106.144 30.7605 110.474C27.7402 111.077 26.5969 111.279 26.8048 107.652C25.7654 103.222 25.2457 88.7223 21.7058 86.0012C20.7703 90.1303 20.2506 100.4 20.6664 100.299C21.0821 100.199 28.7857 97.9862 21.29 103.523C17.6461 106.144 16.0076 106.546 15.3167 101.311C14.6258 96.0755 14.0022 77.1455 14.7297 72.9158C15.4573 68.6861 10.0465 61.7412 12.5471 52.9802L14.1061 50.6672C14.1061 50.6672 10.2788 47.7212 11.2203 44.0713C11.8929 41.4506 13.3969 40.4746 14.8276 40.0664C16.7535 39.5103 18.8139 40.3089 20.0122 41.8647Z" fill="#3A52A0"/>
<path d="M131.995 17.451C131.995 17.451 126.872 12.1565 119.272 7.25249C119.162 7.13417 119.083 6.9567 119.138 6.83248C119.871 6.19359 120.642 5.22343 120.642 4.02256C120.642 2.2183 119.272 0.757141 117.579 0.757141C115.885 0.757141 114.515 2.2183 114.515 4.02256C114.515 4.80934 114.778 5.53104 115.212 6.09894C115.555 6.54261 115.396 7.1815 114.901 7.45954C112.651 8.71956 107.582 10.3227 106.084 11.4822C104.134 12.9906 98.9066 17.4569 98.9066 17.4569C98.9066 17.4569 96.7484 20.4739 100.521 20.0953C101.407 19.0364 105.235 15.8242 105.968 15.2622C106.573 14.8008 108.768 13.7892 110.309 13.3337C110.804 13.1858 111.348 13.3101 111.709 13.6709C112.596 14.576 113.329 16.5518 111.501 24.5497C111.44 25.4134 109.135 34.9731 108.664 42.3735C108.505 43.1307 107.57 43.9589 108.505 44.7161C109.441 45.4733 110.456 45.0178 110.615 44.7161C110.774 44.4144 110.774 43.1307 110.774 43.1307C110.774 43.1307 114.051 31.3527 114.833 27.9512C115.616 24.5557 117.255 27.0461 117.175 28.2529C117.096 29.4597 118.893 43.2786 119.749 43.811C119.278 44.4144 119.67 46.3015 120.996 46.0767C122.323 45.8519 122.244 44.9468 121.467 43.7341C122.402 43.1307 120.452 22.6627 120.532 21.4559C120.611 20.2491 120.489 13.2273 122.03 13.6768C123.576 14.1323 128.804 16.6228 130.363 19.8705C132.069 20.3911 131.995 17.451 131.995 17.451Z" fill="#3A52A0"/>
<path d="M75.5461 16.824C74.9653 16.546 74.4333 16.1792 73.9993 15.7119C72.3607 13.9313 67.708 9.75485 59.9555 6.76746C59.7843 6.59591 59.7782 6.52493 59.8516 6.25281C60.4202 5.32405 60.6158 4.56685 60.6158 3.51387C60.6158 1.53214 59.4297 0 57.4916 0C55.5535 0 54.5691 1.37834 54.5691 3.36007C54.5691 4.60827 54.832 5.62575 55.5474 6.57816C55.6635 6.73197 55.7124 6.91535 55.5596 7.02775C53.6582 8.47708 44.799 13.2332 43.1238 18.0663C43.1238 18.0722 43.1238 18.0722 43.1177 18.0722C43.0566 18.0781 41.1613 18.2497 42.1823 19.7818C43.2217 21.3435 44.5239 19.4269 45.1475 19.0246C45.7712 18.6224 49.2561 13.8366 52.4843 13.6355C53.8355 13.6355 54.722 16.1555 53.9944 26.0228C53.2669 35.89 52.7961 42.4327 53.004 42.7877C53.2118 43.1426 53.7315 43.391 53.2669 44.1482C52.7961 44.9054 52.2275 45.9998 54.2573 46.0826C56.2872 46.1655 55.5046 44.3494 55.3456 43.6454C55.1866 42.9415 55.9203 43.5922 56.0243 41.6814C56.1282 39.7707 57.7423 28.744 57.8462 28.0873C57.9501 27.4307 58.7816 23.8577 60.2918 27.8862C60.2918 27.8862 60.2918 27.8862 60.2918 27.8921C61.2272 32.6246 63.3121 41.4862 63.7278 42.1902C64.2475 42.344 63.5689 44.9587 65.079 44.8581C66.583 44.7576 67.1027 43.6572 66.0206 42.4978C66.0144 42.4919 66.0144 42.486 66.0144 42.48C66.1795 41.64 67.1211 42.2789 66.5953 40.173C66.0634 38.0611 63.4649 23.5087 62.8413 20.9886C62.2177 18.4686 62.2666 13.5882 62.5295 13.0321C62.7924 12.476 68.2032 13.0853 73.1983 17.7646C74.6045 19.1725 75.3871 19.5156 76.1636 18.6697C76.7811 18.0071 76.5121 17.2913 75.5461 16.824Z" fill="#026839"/>
<path d="M137.762 74.1049C137.762 74.1049 132.662 77.4767 131.293 79.4407C129.93 81.4047 131.122 70.3307 125.558 69.1712C119.994 68.0118 120.875 75.4654 121.553 76.3705C122.232 77.2756 123.168 77.7785 123.271 78.1334C123.369 78.4587 124.494 81.5644 120.202 82.2921C119.359 82.434 118.582 82.8126 117.952 83.3746C115.464 85.5812 110.493 90.5325 103.248 96.6138C101.793 99.1338 104.312 99.0037 105.254 97.72C106.373 96.5605 112.7 94.0937 117.818 90.7751C119.432 89.87 120.178 92.3131 119.707 95.8862C119.236 99.4592 118.172 106.233 118.148 107.741C118.124 109.25 117.989 110.403 118.148 111.125C118.307 111.846 117.793 120.164 117.946 123.4C117.934 124.683 117.414 124.861 118.924 126.724C121.266 129.144 122.825 129.445 124.39 129.215C125.014 127.931 124.311 126.192 124.311 126.192C124.311 126.192 125.479 126.494 126.108 127.7C126.732 128.907 128.841 128.156 128.841 127.547C128.841 127.505 128.762 127.132 128.786 126.819C129.288 126.588 130.724 126.653 131.519 126.505C131.868 122.583 131.69 111.066 131.69 109.35C131.69 107.309 132.204 98.4003 130.798 96.2825C129.392 94.1706 131.11 86.4626 131.892 85.7113C132.675 84.9541 138.605 76.3469 141.571 75.0632C143.539 73.3891 141.638 71.7149 141.1 71.8155C140.556 71.922 138.648 72.3183 137.762 74.1049Z" fill="#3A52A0"/>
<path d="M68.5266 99.7551C68.4838 99.6782 68.4227 99.6013 68.3493 99.5421C60.1811 92.6327 58.0229 84.2029 56.2621 82.3277C56.1276 82.1857 55.9441 82.1029 55.7485 82.0911C50.4905 81.6415 51.75 78.1808 51.8539 77.8318C51.9578 77.4769 52.8933 76.974 53.5719 76.069C54.2506 75.1639 55.131 67.7102 49.5673 68.8696C44.1198 70.0054 45.8439 75.9566 47.189 77.4355C47.244 77.5005 47.299 77.5656 47.3357 77.6484C48.0266 79.3225 45.1653 81.0558 43.8324 79.1392C42.6035 77.3763 38.3665 74.4777 37.5167 73.9038C37.4189 73.8388 37.3394 73.7441 37.2844 73.6435C36.3673 71.9931 34.5575 71.6145 34.044 71.5139C33.5059 71.4134 31.6106 73.0875 33.5732 74.7616C36.5385 76.0453 42.469 84.6525 43.2516 85.4097C44.0342 86.1669 45.7522 93.869 44.346 95.9809C42.9398 98.0928 44.7373 106.854 44.7373 108.895C44.7373 110.456 45.2386 110.865 46.3514 110.888C46.8588 110.9 47.2073 111.379 47.0606 111.847C45.9601 115.491 47.1523 124.547 47.1523 124.754C47.1523 124.979 46.2963 126.642 46.2963 127.245C46.2963 127.848 48.4056 128.606 49.0293 127.399C49.0354 127.387 49.0415 127.375 49.0476 127.363C49.4144 126.677 50.4722 126.973 50.4905 127.742C50.4966 127.961 50.5211 128.186 50.57 128.404C50.6433 128.718 50.9368 128.943 51.2731 128.966C52.6671 129.043 54.1344 128.564 56.2132 126.423C57.9067 124.672 55.8402 124.346 54.5685 124.305C54.1161 124.287 53.7737 123.897 53.8348 123.459L55.3083 112.769C55.3389 112.562 55.4489 112.379 55.6262 112.261C56.0603 111.965 56.8796 111.35 56.9896 110.829C57.1486 110.107 57.0141 108.96 56.9896 107.445C56.9652 105.937 55.8952 99.1635 55.4306 95.5905C54.9598 92.0175 55.9503 89.6216 56.7817 91.0828C58.3408 95.135 65.3413 99.5894 66.4601 100.749C67.3772 102.003 69.835 102.145 68.5266 99.7551ZM51.267 122.678C49.6835 122.643 49.4144 122.678 49.4144 122.678C49.4144 122.678 50.8207 114.071 50.5088 112.142L52.0312 112.633C52.0312 112.633 50.5455 117.697 51.267 122.678Z" fill="#DF3B27"/>
<path d="M94.9397 134.876L106.88 132.084C106.88 132.084 106.257 129.895 103.915 130.345C101.573 130.8 101.182 128.534 100.326 125.89C99.4702 123.246 98.7671 122.039 98.7671 122.039L98.8465 113.053C98.8465 113.053 98.8465 111.012 94.8664 110.711C90.8862 110.409 87.2178 110.634 86.5147 110.255C85.8116 109.877 86.4352 108.214 86.8265 107.386C87.2178 106.558 86.9855 102.707 86.9855 102.399C86.9855 102.092 97.9111 101.192 99.8614 99.755C101.891 100.435 104.153 99.6012 104.001 98.0927C103.842 96.5842 100.724 96.6552 99.6291 98.0927C98.0701 98.3944 88.3122 99.6781 85.4264 98.9978C85.1146 98.1696 85.3469 97.7141 85.3469 97.7141C85.3469 97.7141 89.4861 94.7681 85.9706 90.0889C83.4699 86.9181 77.3866 90.3906 78.7133 94.0169C79.8077 97.1107 81.1344 96.5842 81.2873 97.4124C81.4401 98.2406 80.1929 100.66 80.1929 100.66C80.1929 100.66 79.3369 96.5073 75.1183 97.6372C75.1183 98.9978 75.1183 98.9978 75.1183 98.9978L77.6923 99.0747C77.6923 99.0747 78.4749 99.6012 78.3954 100.205C78.3159 100.808 73.0885 103.375 73.0885 103.375C73.0885 103.375 72.4649 101.565 70.6674 101.565C68.8699 101.565 66.143 101.565 66.143 101.565V102.695H70.435C70.435 102.695 71.5294 102.092 71.6028 104.133C71.6762 105.972 72.3181 114.278 72.4404 115.875C72.202 115.857 71.9635 115.84 71.719 115.84C65.9657 115.84 61.3008 120.353 61.3008 125.92C61.3008 131.486 65.9657 136 71.719 136C75.8336 136 79.3797 133.687 81.0733 130.333H88.2877C87.5113 130.877 86.9977 131.753 86.9977 132.752C86.9977 134.397 88.3794 135.734 90.0791 135.734C91.7788 135.734 93.1606 134.397 93.1606 132.752C93.1606 131.575 92.4452 130.564 91.4181 130.078V125.878L94.9397 134.876ZM87.8781 115.289L88.2388 112.142C88.2388 112.142 94.0654 112.018 96.2542 112.142C98.4369 113.071 97.8133 115.236 97.5565 117.656C94.0104 114.384 87.8781 115.289 87.8781 115.289Z" fill="#24A737"/>
</g>
</svg>
