<svg width="180" height="174" viewBox="0 0 180 174" fill="none" xmlns="http://www.w3.org/2000/svg">
<g opacity="0.6">
<path d="M15.9056 132.882C15.6276 130.816 15.5699 127.761 16.021 123.248C12.521 120.924 12.4804 116.94 16.2926 115.444C15.2364 111.904 13.032 100.577 23.4187 103.646C24.0857 103.842 24.7699 103.825 25.4156 103.538C30.3224 101.361 43.1806 97.4351 59.124 96.4354C94.0383 94.2432 143.421 96.526 154.387 95.5234C154.387 95.5234 159.698 96.3536 159.971 109.969C160.243 123.529 160.649 128.854 159.98 130.535" fill="#F5D539"/>
<path d="M158.038 88.7597C158.373 86.4008 158.502 83.1388 158.44 78.421C158.134 58.8311 154.251 60.8217 154.251 60.8217L16.7021 68.1262C11.1175 71.4468 15.0686 79.4149 14.115 81.4083C13.3517 83.0014 11.7183 81.8322 10.7455 84.7873C10.0848 86.7954 10.2858 89.09 11.1196 90.9987C13.2384 95.8538 16.7021 94.5238 16.7021 94.5238C16.7021 94.5238 16.5203 95.8304 16.8346 97.4761L158.038 88.7597Z" fill="#026838"/>
<path d="M155.885 53.1838C158.325 49.913 159.015 43.7163 157.961 36.2597C157.745 34.731 156.647 33.7839 155.381 33.6465C138.725 31.8518 29.8519 38.1801 28.1607 38.2415C28.1371 38.2415 28.1436 38.2415 28.1222 38.2415C27.6539 38.1947 18.8944 37.388 14.257 43.8098C13.1259 45.3765 12.5636 47.4285 12.5337 49.5155C12.4845 52.8886 12.5957 58.8106 13.7417 63.1337L155.885 53.1838Z" fill="#385CA7"/>
<path d="M155.886 53.1838L13.7422 63.1337C14.3708 65.5043 15.3008 67.4071 16.7034 68.1262C23.7846 68.1262 154.828 60.8041 154.828 60.8041C154.828 60.8041 153.162 56.8376 155.886 53.1838Z" fill="#344797"/>
<path d="M159.966 130.515L15.907 132.885L15.8984 132.862C16.4607 137.027 17.921 137.173 17.921 137.173C17.921 137.173 151.387 137.837 154.382 137.173C157.377 136.51 159.284 132.192 159.966 130.532C159.969 130.526 159.973 130.518 159.975 130.512H159.966V130.515Z" fill="#EF9729"/>
<path d="M16.835 97.4789C17.2925 99.8787 18.8127 103 23.5548 103.86C24.1514 103.968 24.7564 103.874 25.3358 103.673C36.2164 99.9342 63.4145 98.6773 63.4145 98.6773C63.4145 98.6773 150.574 96.5201 154.388 95.5234C156.278 94.1613 157.463 92.7933 158.038 88.7625L16.835 97.4789Z" fill="#104928"/>
<path d="M84.6172 116.414C84.6172 116.414 84.9593 141.517 107.052 125.335L110.86 123.868L112.786 121.979L111.276 116.414L106 101.7L106.68 96.2513C106.851 94.8804 106.34 93.5183 105.375 92.7846C102.258 90.4082 94.9055 86.547 87.1508 94.9535C86.6312 95.5176 86.3554 96.3565 86.4132 97.2013C86.7168 101.641 87.3411 104.401 87.3411 104.401L84.6172 116.414Z" fill="#344797"/>
<path d="M86.8881 121.5C86.9373 121.436 86.9929 121.377 87.0528 121.328L90.0247 118.864C90.0247 118.864 92.1157 117.694 91.3053 115.055C91.284 114.988 91.269 114.92 91.2604 114.85C90.8221 111.325 89.8557 105.581 89.6826 104.558C89.6633 104.45 89.6355 104.357 89.5928 104.257C89.3939 103.804 88.7696 102.36 88.4318 101.364C88.2458 100.814 87.754 100.507 87.2901 100.688C86.5375 100.984 85.4899 101.878 84.3524 103.664C84.3139 103.722 84.2776 103.793 84.2498 103.86C82.5351 107.794 83.277 109.329 83.711 109.829C83.8671 110.007 83.9697 110.241 83.9996 110.498L85.2611 120.889C85.3765 121.848 86.3515 122.213 86.8881 121.5Z" fill="#B03023"/>
<path d="M84.2918 103.758C84.2918 103.758 81.972 106.757 82.6754 112.757C80.0734 116.443 76.4879 128.442 75.9256 131.099C74.6599 133.499 73.1846 137.933 72.9259 139.842C72.2867 141.534 72.2354 143.741 72.2354 143.741L83.1907 153.44C83.1907 153.44 101.61 146.869 101.892 146.983C102.174 147.097 109.251 142.256 109.251 142.256L112.632 134.355L109.955 126.241L105.877 120.299C105.877 120.299 100.582 118.928 89.8015 121.728C87.6934 122.757 86.4747 121.158 86.4277 120.299C86.3807 119.442 86.1006 109.615 85.6772 107.557C85.2539 105.5 84.2918 103.758 84.2918 103.758Z" fill="#D43C27"/>
<path d="M91.0595 125.525C91.3028 125.525 91.4999 125.286 91.4999 124.99C91.4999 124.695 91.3028 124.455 91.0595 124.455C90.8163 124.455 90.6191 124.695 90.6191 124.99C90.6191 125.286 90.8163 125.525 91.0595 125.525Z" fill="#010202"/>
<path d="M94.8565 124.067C95.0997 124.067 95.2969 123.827 95.2969 123.532C95.2969 123.236 95.0997 122.997 94.8565 122.997C94.6132 122.997 94.416 123.236 94.416 123.532C94.416 123.827 94.6132 124.067 94.8565 124.067Z" fill="#010202"/>
<path d="M95.0059 126.457C95.2491 126.457 95.4463 126.218 95.4463 125.923C95.4463 125.627 95.2491 125.388 95.0059 125.388C94.7626 125.388 94.5654 125.627 94.5654 125.923C94.5654 126.218 94.7626 126.457 95.0059 126.457Z" fill="#010202"/>
<path d="M98.751 123.178C98.9942 123.178 99.1914 122.938 99.1914 122.643C99.1914 122.348 98.9942 122.108 98.751 122.108C98.5077 122.108 98.3105 122.348 98.3105 122.643C98.3105 122.938 98.5077 123.178 98.751 123.178Z" fill="#010202"/>
<path d="M98.9766 125.557C99.2198 125.557 99.417 125.318 99.417 125.022C99.417 124.727 99.2198 124.487 98.9766 124.487C98.7333 124.487 98.5361 124.727 98.5361 125.022C98.5361 125.318 98.7333 125.557 98.9766 125.557Z" fill="#010202"/>
<path d="M99.2598 127.615C99.503 127.615 99.7002 127.375 99.7002 127.08C99.7002 126.785 99.503 126.545 99.2598 126.545C99.0165 126.545 98.8193 126.785 98.8193 127.08C98.8193 127.375 99.0165 127.615 99.2598 127.615Z" fill="#010202"/>
<path d="M102.633 122.792C102.876 122.792 103.073 122.553 103.073 122.257C103.073 121.962 102.876 121.722 102.633 121.722C102.39 121.722 102.192 121.962 102.192 122.257C102.192 122.553 102.39 122.792 102.633 122.792Z" fill="#010202"/>
<path d="M102.879 125.256C103.122 125.256 103.319 125.017 103.319 124.721C103.319 124.426 103.122 124.186 102.879 124.186C102.636 124.186 102.438 124.426 102.438 124.721C102.438 125.017 102.636 125.256 102.879 125.256Z" fill="#010202"/>
<path d="M103.319 127.314C103.563 127.314 103.76 127.074 103.76 126.779C103.76 126.484 103.563 126.244 103.319 126.244C103.076 126.244 102.879 126.484 102.879 126.779C102.879 127.074 103.076 127.314 103.319 127.314Z" fill="#010202"/>
<path d="M103.758 129.22C104.001 129.22 104.198 128.98 104.198 128.685C104.198 128.389 104.001 128.15 103.758 128.15C103.515 128.15 103.317 128.389 103.317 128.685C103.317 128.98 103.515 129.22 103.758 129.22Z" fill="#010202"/>
<path d="M91.2836 117.341C91.2836 117.341 100.505 108.148 108.974 118.036C105.119 112.45 101.506 106.783 91.4226 115.534C91.2174 116.698 91.2836 117.341 91.2836 117.341Z" fill="#282828"/>
<path d="M88.0538 117.662C88.0538 117.662 96.1377 108.063 104.996 110.515C105.346 108.426 103.924 107.312 103.924 107.312C103.924 107.312 95.0666 104.289 87.8699 115.359C87.562 116.87 88.0538 117.662 88.0538 117.662Z" fill="#282828"/>
<path d="M87.632 111.255C87.632 111.255 95.6989 99.5133 102.878 103.757C103.802 101.828 98.6515 93.2581 87.3412 107.958C87.1403 111.255 87.632 111.255 87.632 111.255Z" fill="#282828"/>
<path d="M110.216 119.515L107.054 115.756C107.054 115.756 105.161 113.731 104.629 110.662C104.546 110.185 104.383 109.729 104.174 109.314C103.242 107.461 102.925 106.169 102.671 102.878C102.671 102.878 101.937 98.0139 103.485 97.4994C104.402 97.1954 105.707 99.1071 106.438 100.884C106.94 102.106 107.054 103.369 107.054 103.369L109.837 112.658L111.854 119.515H110.216Z" fill="#B03023"/>
<path d="M106.665 109.112C106.665 109.112 101.044 100.934 90.6293 110.422C89.9536 109.627 90.3748 108.785 90.3748 108.785C90.3748 108.785 97.3384 98.429 106.002 106.964C107.105 108.814 106.665 109.112 106.665 109.112Z" fill="#282828"/>
<path d="M89.4432 105.342C89.4432 105.342 94.9679 90.9431 105.624 103.413C105.981 101.27 104.839 99.3409 104.839 99.3409C104.839 99.3409 94.8054 89.7155 88.8809 102.565C88.9685 104.672 89.4432 105.342 89.4432 105.342Z" fill="#282828"/>
<path d="M116.489 127.314C116.489 127.314 114.194 119.714 111.755 115.254C111.655 115.069 111.575 114.882 111.511 114.675C109.824 109.104 106.436 100.884 106.436 100.884L107.21 106.821C107.346 107.87 107.588 108.893 107.934 109.869C108.666 111.942 109.931 115.604 110.057 116.484C110.233 117.726 110.239 121.599 110.239 121.599L111.462 125.923L116.489 127.314Z" fill="#385CA7"/>
<path d="M105.876 120.351C105.876 120.351 106.346 127.65 109.066 132.944C109.186 133.177 109.286 133.429 109.348 133.695C110.518 138.714 109.25 142.309 109.25 142.309C109.25 142.309 118.037 146.234 118.46 146.234C118.884 146.234 119.222 143.993 119.222 143.993C119.222 143.993 120.077 139.377 117.864 132.093C116.141 124.593 114.7 122.538 105.876 120.351Z" fill="#385CA7"/>
<path d="M161.479 115.873C161.479 115.873 161.137 140.976 139.045 124.794L135.237 123.327L133.311 121.439L134.82 115.873L140.097 101.159L139.417 95.7105C139.246 94.3396 139.757 92.9775 140.721 92.2439C143.838 89.8675 151.191 86.0062 158.946 94.4127C159.465 94.9769 159.741 95.8158 159.683 96.6605C159.38 101.101 158.755 103.86 158.755 103.86L161.479 115.873Z" fill="#344797"/>
<path d="M159.209 120.959C159.16 120.895 159.105 120.837 159.045 120.787L156.073 118.323C156.073 118.323 153.982 117.154 154.792 114.514C154.813 114.447 154.828 114.38 154.837 114.31C155.275 110.784 156.242 105.041 156.415 104.018C156.434 103.91 156.462 103.813 156.505 103.717C156.703 103.264 157.328 101.82 157.666 100.823C157.852 100.273 158.343 99.9664 158.807 100.148C159.56 100.443 160.608 101.337 161.745 103.123C161.784 103.182 161.82 103.252 161.848 103.319C163.562 107.253 162.82 108.788 162.386 109.288C162.23 109.466 162.128 109.7 162.098 109.957L160.836 120.348C160.721 121.307 159.746 121.673 159.209 120.959Z" fill="#B03023"/>
<path d="M161.805 103.217C161.805 103.217 164.124 106.216 163.421 112.217C166.023 115.903 169.608 127.902 170.171 130.559C171.437 132.958 172.912 137.392 173.17 139.301C173.81 140.994 173.861 143.2 173.861 143.2L162.906 152.899C162.906 152.899 144.486 146.328 144.204 146.442C143.922 146.556 136.845 141.716 136.845 141.716L133.465 133.815L136.142 125.7L140.219 119.758C140.219 119.758 145.515 118.387 156.295 121.187C158.403 122.216 159.622 120.617 159.669 119.758C159.716 118.899 159.996 109.074 160.419 107.017C160.843 104.959 161.805 103.217 161.805 103.217Z" fill="#D43C27"/>
<path d="M155.038 124.984C155.281 124.984 155.479 124.745 155.479 124.449C155.479 124.154 155.281 123.914 155.038 123.914C154.795 123.914 154.598 124.154 154.598 124.449C154.598 124.745 154.795 124.984 155.038 124.984Z" fill="#010202"/>
<path d="M151.241 123.529C151.484 123.529 151.682 123.289 151.682 122.994C151.682 122.698 151.484 122.459 151.241 122.459C150.998 122.459 150.801 122.698 150.801 122.994C150.801 123.289 150.998 123.529 151.241 123.529Z" fill="#010202"/>
<path d="M151.092 125.917C151.335 125.917 151.532 125.677 151.532 125.382C151.532 125.086 151.335 124.847 151.092 124.847C150.849 124.847 150.651 125.086 150.651 125.382C150.651 125.677 150.849 125.917 151.092 125.917Z" fill="#010202"/>
<path d="M147.347 122.64C147.59 122.64 147.787 122.401 147.787 122.105C147.787 121.81 147.59 121.57 147.347 121.57C147.103 121.57 146.906 121.81 146.906 122.105C146.906 122.401 147.103 122.64 147.347 122.64Z" fill="#010202"/>
<path d="M147.119 125.016C147.362 125.016 147.56 124.777 147.56 124.482C147.56 124.186 147.362 123.947 147.119 123.947C146.876 123.947 146.679 124.186 146.679 124.482C146.679 124.777 146.876 125.016 147.119 125.016Z" fill="#010202"/>
<path d="M146.839 127.074C147.082 127.074 147.279 126.835 147.279 126.539C147.279 126.244 147.082 126.004 146.839 126.004C146.596 126.004 146.398 126.244 146.398 126.539C146.398 126.835 146.596 127.074 146.839 127.074Z" fill="#010202"/>
<path d="M143.464 122.254C143.707 122.254 143.904 122.015 143.904 121.719C143.904 121.424 143.707 121.184 143.464 121.184C143.221 121.184 143.023 121.424 143.023 121.719C143.023 122.015 143.221 122.254 143.464 122.254Z" fill="#010202"/>
<path d="M143.218 124.718C143.461 124.718 143.658 124.479 143.658 124.183C143.658 123.888 143.461 123.648 143.218 123.648C142.975 123.648 142.777 123.888 142.777 124.183C142.777 124.479 142.975 124.718 143.218 124.718Z" fill="#010202"/>
<path d="M142.778 126.773C143.022 126.773 143.219 126.534 143.219 126.238C143.219 125.943 143.022 125.703 142.778 125.703C142.535 125.703 142.338 125.943 142.338 126.238C142.338 126.534 142.535 126.773 142.778 126.773Z" fill="#010202"/>
<path d="M142.339 128.682C142.582 128.682 142.779 128.442 142.779 128.147C142.779 127.852 142.582 127.612 142.339 127.612C142.096 127.612 141.898 127.852 141.898 128.147C141.898 128.442 142.096 128.682 142.339 128.682Z" fill="#010202"/>
<path d="M154.814 116.8C154.814 116.8 145.593 107.607 137.124 117.496C140.979 111.91 144.592 106.242 154.675 114.994C154.881 116.157 154.814 116.8 154.814 116.8Z" fill="#282828"/>
<path d="M158.042 117.121C158.042 117.121 149.958 107.522 141.101 109.975C140.75 107.885 142.172 106.771 142.172 106.771C142.172 106.771 151.03 103.749 158.226 114.818C158.536 116.329 158.042 117.121 158.042 117.121Z" fill="#282828"/>
<path d="M158.466 110.714C158.466 110.714 150.399 98.9727 143.22 103.217C142.296 101.288 147.446 92.7175 158.757 107.417C158.958 110.714 158.466 110.714 158.466 110.714Z" fill="#282828"/>
<path d="M135.882 118.975L139.044 115.216C139.044 115.216 140.936 113.19 141.469 110.121C141.552 109.644 141.714 109.188 141.924 108.773C142.856 106.92 143.173 105.628 143.427 102.337C143.427 102.337 144.16 97.473 142.612 96.9586C141.695 96.6546 140.391 98.5663 139.66 100.343C139.157 101.565 139.044 102.828 139.044 102.828L136.26 112.117L134.244 118.975H135.882Z" fill="#B03023"/>
<path d="M139.432 108.572C139.432 108.572 145.053 100.393 155.468 109.881C156.143 109.086 155.722 108.244 155.722 108.244C155.722 108.244 148.758 97.8882 140.095 106.423C138.99 108.274 139.432 108.572 139.432 108.572Z" fill="#282828"/>
<path d="M156.655 104.801C156.655 104.801 151.13 90.4023 140.474 102.872C140.117 100.729 141.259 98.8001 141.259 98.8001C141.259 98.8001 151.293 89.1746 157.217 102.024C157.13 104.132 156.655 104.801 156.655 104.801Z" fill="#282828"/>
<path d="M129.605 126.776C129.605 126.776 131.9 119.176 134.339 114.716C134.44 114.532 134.519 114.345 134.583 114.137C136.27 108.566 139.659 100.346 139.659 100.346L138.885 106.283C138.748 107.332 138.506 108.355 138.16 109.332C137.429 111.404 136.163 115.067 136.037 115.946C135.861 117.189 135.855 121.062 135.855 121.062L134.632 125.385L129.605 126.776Z" fill="#385CA7"/>
<path d="M140.221 119.811C140.221 119.811 139.751 127.109 137.031 132.403C136.911 132.637 136.811 132.888 136.749 133.154C135.579 138.173 136.847 141.768 136.847 141.768C136.847 141.768 128.06 145.694 127.637 145.694C127.213 145.694 126.875 143.452 126.875 143.452C126.875 143.452 126.02 138.836 128.233 131.552C129.956 124.055 131.397 121.997 140.221 119.811Z" fill="#385CA7"/>
<path d="M138.039 143.779C137.93 143.534 137.819 143.288 137.71 143.043" stroke="black" stroke-width="0.5" stroke-miterlimit="10" stroke-linecap="round"/>
<path d="M129.771 126.946C129.747 126.946 129.724 126.934 129.705 126.913C129.657 126.864 129.651 126.77 129.687 126.709L130.085 126.022C130.121 125.958 130.19 125.949 130.235 125.999C130.282 126.048 130.288 126.142 130.252 126.203L129.854 126.89C129.833 126.928 129.801 126.946 129.771 126.946Z" fill="black"/>
<path d="M130.671 125.347C130.641 125.347 130.611 125.329 130.59 125.294C130.551 125.233 130.558 125.139 130.603 125.09L131.176 124.432C131.22 124.379 131.289 124.388 131.327 124.449C131.366 124.511 131.359 124.604 131.315 124.657L130.739 125.315C130.72 125.335 130.697 125.347 130.671 125.347Z" fill="black"/>
<path d="M131.879 123.961C131.843 123.961 131.807 123.935 131.787 123.891C131.757 123.821 131.774 123.733 131.824 123.689L132.42 123.204C132.471 123.163 132.536 123.187 132.568 123.254C132.598 123.324 132.58 123.412 132.531 123.456L131.935 123.941C131.918 123.952 131.898 123.961 131.879 123.961Z" fill="black"/>
<path d="M133.309 122.842C133.268 122.842 133.23 122.81 133.21 122.757C133.187 122.684 133.21 122.596 133.264 122.564L133.905 122.167C133.959 122.134 134.023 122.167 134.046 122.24C134.07 122.313 134.046 122.4 133.993 122.433L133.351 122.83C133.339 122.836 133.324 122.842 133.309 122.842Z" fill="black"/>
<path d="M141.259 120.053C141.203 120.053 141.156 119.995 141.152 119.916C141.147 119.834 141.192 119.767 141.25 119.761L142.163 119.676C142.221 119.667 142.272 119.732 142.276 119.811C142.281 119.892 142.236 119.96 142.178 119.965L141.265 120.05C141.263 120.053 141.261 120.053 141.259 120.053Z" fill="#010202"/>
<path d="M142.971 119.904C142.913 119.904 142.864 119.84 142.864 119.758C142.864 119.676 142.911 119.612 142.971 119.612L143.788 119.6C143.846 119.6 143.895 119.665 143.895 119.746C143.895 119.828 143.848 119.892 143.788 119.892L142.971 119.904C142.973 119.904 142.973 119.904 142.971 119.904Z" fill="#010202"/>
<path d="M145.123 119.872L144.411 119.86C144.352 119.86 144.305 119.793 144.307 119.711C144.307 119.632 144.356 119.568 144.414 119.568C144.414 119.568 144.414 119.568 144.416 119.568L145.128 119.58C145.188 119.58 145.235 119.647 145.232 119.729C145.23 119.808 145.183 119.872 145.123 119.872Z" fill="#010202"/>
<path d="M146.585 120.012C146.583 120.012 146.581 120.012 146.578 120.012L145.762 119.936C145.702 119.93 145.659 119.86 145.661 119.781C145.665 119.7 145.721 119.641 145.775 119.644L146.591 119.72C146.651 119.726 146.694 119.796 146.692 119.875C146.687 119.951 146.64 120.012 146.585 120.012Z" fill="#010202"/>
<path d="M147.929 120.173C147.925 120.173 147.92 120.173 147.916 120.173L147.204 120.065C147.146 120.056 147.104 119.983 147.11 119.904C147.116 119.825 147.17 119.767 147.228 119.776L147.94 119.884C147.997 119.892 148.04 119.966 148.034 120.044C148.027 120.118 147.982 120.173 147.929 120.173Z" fill="#010202"/>
<path d="M149.335 120.31C149.33 120.31 149.326 120.31 149.322 120.31L148.548 120.182C148.49 120.173 148.447 120.1 148.454 120.018C148.46 119.939 148.516 119.881 148.573 119.889L149.347 120.018C149.405 120.027 149.448 120.1 149.442 120.182C149.435 120.258 149.388 120.31 149.335 120.31Z" fill="#010202"/>
<path d="M150.626 120.515C150.621 120.515 150.617 120.515 150.613 120.515L149.989 120.407C149.931 120.398 149.888 120.325 149.897 120.243C149.903 120.161 149.959 120.106 150.016 120.118L150.641 120.226C150.698 120.235 150.741 120.308 150.733 120.389C150.726 120.46 150.679 120.515 150.626 120.515Z" fill="#010202"/>
<path d="M151.998 120.772C151.992 120.772 151.988 120.772 151.981 120.769L151.216 120.609C151.158 120.597 151.118 120.521 151.126 120.442C151.135 120.363 151.192 120.308 151.248 120.319L152.013 120.48C152.071 120.492 152.112 120.568 152.103 120.647C152.095 120.72 152.05 120.772 151.998 120.772Z" fill="#010202"/>
<path d="M153.211 121.006C153.204 121.006 153.198 121.006 153.192 121.003L152.567 120.854C152.51 120.84 152.471 120.764 152.48 120.685C152.49 120.606 152.546 120.55 152.604 120.565L153.228 120.714C153.286 120.728 153.324 120.804 153.316 120.883C153.307 120.956 153.262 121.006 153.211 121.006Z" fill="#010202"/>
<path d="M154.597 121.307C154.591 121.307 154.584 121.307 154.578 121.304L153.883 121.132C153.825 121.117 153.787 121.041 153.798 120.962C153.808 120.883 153.864 120.831 153.922 120.845L154.617 121.018C154.674 121.032 154.713 121.108 154.702 121.187C154.693 121.257 154.649 121.307 154.597 121.307Z" fill="#010202"/>
<path d="M155.776 121.585C155.769 121.585 155.761 121.585 155.754 121.582L155.139 121.41C155.081 121.392 155.042 121.316 155.055 121.237C155.068 121.158 155.124 121.108 155.181 121.123L155.797 121.296C155.855 121.313 155.893 121.389 155.881 121.468C155.87 121.538 155.825 121.585 155.776 121.585Z" fill="#010202"/>
<path d="M156.979 121.982C156.971 121.982 156.962 121.982 156.951 121.977L156.344 121.763C156.286 121.743 156.252 121.664 156.267 121.585C156.282 121.506 156.34 121.459 156.398 121.48L157.005 121.693C157.063 121.714 157.097 121.792 157.082 121.871C157.071 121.939 157.026 121.982 156.979 121.982Z" fill="#010202"/>
<path d="M157.525 122.058C157.47 122.058 157.423 122 157.418 121.924C157.414 121.842 157.457 121.772 157.517 121.766L158.22 121.69C158.278 121.678 158.331 121.743 158.336 121.825C158.34 121.906 158.297 121.977 158.237 121.982L157.534 122.058C157.529 122.058 157.527 122.058 157.525 122.058Z" fill="#010202"/>
<path d="M158.754 121.757C158.72 121.757 158.688 121.737 158.667 121.696C158.633 121.629 158.645 121.538 158.692 121.491L159.184 121.021C159.233 120.974 159.3 120.992 159.334 121.056C159.368 121.123 159.355 121.214 159.308 121.26L158.816 121.731C158.797 121.749 158.776 121.757 158.754 121.757Z" fill="#010202"/>
<path d="M159.625 120.878C159.61 120.878 159.593 120.872 159.578 120.863C159.524 120.828 159.503 120.74 159.528 120.667L159.8 119.895C159.826 119.822 159.89 119.793 159.943 119.828C159.997 119.863 160.018 119.951 159.992 120.024L159.721 120.796C159.704 120.848 159.665 120.878 159.625 120.878Z" fill="#010202"/>
<path d="M159.958 119.498C159.899 119.498 159.852 119.433 159.852 119.352V118.6C159.852 118.519 159.899 118.454 159.958 118.454C160.018 118.454 160.065 118.519 160.065 118.6V119.352C160.065 119.431 160.018 119.498 159.958 119.498Z" fill="#010202"/>
<path d="M159.986 118.019C159.984 118.019 159.982 118.019 159.979 118.019C159.92 118.013 159.877 117.946 159.879 117.864L159.913 117.113C159.917 117.031 159.967 116.97 160.027 116.975C160.086 116.981 160.129 117.051 160.127 117.13L160.093 117.881C160.089 117.957 160.042 118.019 159.986 118.019Z" fill="#010202"/>
<path d="M160.028 116.443C160.026 116.443 160.024 116.443 160.022 116.443C159.962 116.437 159.917 116.37 159.921 116.288L159.955 115.441C159.958 115.362 160.002 115.298 160.069 115.303C160.129 115.309 160.173 115.376 160.169 115.458L160.135 116.306C160.133 116.382 160.086 116.443 160.028 116.443Z" fill="#010202"/>
<path d="M160.091 114.964C160.088 114.964 160.086 114.964 160.084 114.964C160.024 114.958 159.979 114.891 159.984 114.809L160.018 113.994C160.022 113.912 160.069 113.848 160.131 113.857C160.191 113.862 160.236 113.93 160.232 114.011L160.197 114.827C160.193 114.906 160.146 114.964 160.091 114.964Z" fill="#010202"/>
<path d="M160.197 113.646C160.193 113.646 160.191 113.646 160.187 113.646C160.127 113.637 160.084 113.567 160.09 113.488L160.144 112.696C160.15 112.614 160.206 112.562 160.259 112.565C160.319 112.573 160.362 112.643 160.356 112.722L160.302 113.515C160.298 113.591 160.251 113.646 160.197 113.646Z" fill="#010202"/>
<path d="M160.293 112.266C160.291 112.266 160.286 112.266 160.284 112.266C160.224 112.26 160.182 112.19 160.186 112.109L160.231 111.293C160.235 111.211 160.288 111.15 160.346 111.159C160.406 111.164 160.449 111.235 160.445 111.316L160.4 112.132C160.395 112.208 160.348 112.266 160.293 112.266Z" fill="#010202"/>
<path d="M160.399 110.828C160.394 110.828 160.39 110.828 160.386 110.828C160.328 110.82 160.285 110.746 160.292 110.668L160.354 109.96C160.36 109.878 160.418 109.823 160.471 109.832C160.529 109.84 160.572 109.913 160.565 109.992L160.503 110.7C160.499 110.776 160.452 110.828 160.399 110.828Z" fill="#010202"/>
<path d="M160.478 109.405C160.473 109.405 160.467 109.405 160.463 109.405C160.405 109.393 160.364 109.32 160.371 109.241L160.441 108.554C160.45 108.475 160.505 108.42 160.561 108.428C160.619 108.44 160.659 108.513 160.653 108.592L160.582 109.279C160.576 109.352 160.531 109.405 160.478 109.405Z" fill="#010202"/>
<path d="M160.601 108.151C160.595 108.151 160.586 108.151 160.58 108.148C160.522 108.13 160.484 108.054 160.497 107.975L160.584 107.385C160.597 107.306 160.653 107.256 160.71 107.271C160.768 107.289 160.805 107.365 160.794 107.443L160.706 108.031C160.695 108.104 160.651 108.151 160.601 108.151Z" fill="#010202"/>
<path d="M160.829 106.92C160.816 106.92 160.803 106.917 160.79 106.909C160.734 106.879 160.709 106.795 160.73 106.719L160.933 106.023C160.955 105.947 161.017 105.912 161.072 105.941C161.128 105.97 161.153 106.055 161.132 106.131L160.929 106.827C160.912 106.885 160.871 106.92 160.829 106.92Z" fill="#010202"/>
<path d="M161.199 105.643C161.181 105.643 161.162 105.637 161.147 105.625C161.096 105.587 161.077 105.497 161.105 105.427L161.387 104.731C161.414 104.661 161.481 104.634 161.532 104.672C161.583 104.71 161.603 104.801 161.575 104.871L161.293 105.567C161.273 105.617 161.237 105.643 161.199 105.643Z" fill="#010202"/>
<path d="M161.672 104.553C161.653 104.553 161.632 104.544 161.614 104.529C161.565 104.485 161.55 104.395 161.582 104.328L161.837 103.781C161.869 103.714 161.935 103.693 161.984 103.737C162.033 103.781 162.048 103.872 162.016 103.939L161.762 104.485C161.743 104.526 161.706 104.553 161.672 104.553Z" fill="#010202"/>
<path d="M134.821 122.061C134.776 122.061 134.736 122.023 134.721 121.962C134.701 121.886 134.731 121.801 134.787 121.778L135.619 121.392C135.674 121.369 135.736 121.407 135.753 121.483C135.773 121.559 135.743 121.64 135.687 121.667L134.855 122.053C134.843 122.058 134.832 122.061 134.821 122.061Z" fill="#010202"/>
<path d="M136.262 121.462C136.217 121.462 136.174 121.421 136.159 121.36C136.142 121.284 136.172 121.202 136.23 121.176L137.051 120.819C137.106 120.796 137.166 120.837 137.185 120.916C137.202 120.992 137.173 121.073 137.115 121.1L136.294 121.456C136.283 121.459 136.272 121.462 136.262 121.462Z" fill="#010202"/>
<path d="M137.842 120.904C137.794 120.904 137.75 120.86 137.739 120.793C137.724 120.714 137.758 120.635 137.816 120.614L138.543 120.357C138.601 120.337 138.658 120.384 138.673 120.462C138.688 120.541 138.654 120.62 138.596 120.641L137.869 120.898C137.861 120.901 137.85 120.904 137.842 120.904Z" fill="#010202"/>
<path d="M139.272 120.489C139.223 120.489 139.18 120.445 139.167 120.378C139.152 120.299 139.189 120.22 139.247 120.202C139.394 120.153 139.559 120.118 139.719 120.085C139.875 120.053 140.033 120.021 140.172 119.974C140.23 119.957 140.288 120.004 140.301 120.082C140.316 120.161 140.279 120.24 140.221 120.258C140.074 120.308 139.909 120.343 139.749 120.375C139.595 120.407 139.435 120.439 139.296 120.486C139.289 120.489 139.281 120.489 139.272 120.489Z" fill="#010202"/>
<path d="M140.368 121.459C140.363 121.459 140.359 121.459 140.353 121.459C140.295 121.447 140.252 121.374 140.261 121.295L140.368 120.185C140.376 120.106 140.43 120.047 140.487 120.059C140.545 120.071 140.588 120.144 140.579 120.223L140.472 121.333C140.466 121.404 140.421 121.459 140.368 121.459Z" fill="#010202"/>
<path d="M140.097 123.388C140.091 123.388 140.083 123.388 140.076 123.385C140.018 123.368 139.98 123.292 139.993 123.213L140.14 122.234C140.153 122.155 140.211 122.102 140.266 122.12C140.324 122.137 140.363 122.213 140.35 122.292L140.202 123.272C140.192 123.342 140.147 123.388 140.097 123.388Z" fill="#010202"/>
<path d="M139.787 124.943C139.778 124.943 139.77 124.943 139.763 124.94C139.705 124.923 139.669 124.844 139.684 124.765L139.829 123.915C139.842 123.836 139.9 123.786 139.958 123.806C140.015 123.824 140.052 123.903 140.037 123.982L139.891 124.832C139.881 124.897 139.836 124.943 139.787 124.943Z" fill="#010202"/>
<path d="M139.432 126.741C139.422 126.741 139.411 126.738 139.4 126.735C139.345 126.712 139.313 126.63 139.33 126.551L139.546 125.587C139.563 125.511 139.623 125.464 139.68 125.49C139.736 125.513 139.768 125.595 139.751 125.674L139.535 126.639C139.522 126.703 139.479 126.741 139.432 126.741Z" fill="#010202"/>
<path d="M139.043 128.203C139.03 128.203 139.017 128.2 139.007 128.194C138.951 128.167 138.923 128.083 138.943 128.007L139.165 127.177C139.184 127.101 139.246 127.063 139.302 127.089C139.357 127.115 139.385 127.2 139.366 127.276L139.144 128.106C139.129 128.167 139.088 128.203 139.043 128.203Z" fill="#010202"/>
<path d="M138.513 129.825C138.5 129.825 138.486 129.822 138.473 129.813C138.417 129.784 138.391 129.696 138.415 129.623L138.684 128.729C138.708 128.653 138.77 128.618 138.823 128.65C138.879 128.679 138.905 128.767 138.881 128.84L138.612 129.734C138.595 129.79 138.556 129.825 138.513 129.825Z" fill="#010202"/>
<path d="M137.973 131.172C137.956 131.172 137.941 131.166 137.926 131.158C137.873 131.123 137.852 131.035 137.879 130.962L138.136 130.26C138.162 130.187 138.228 130.158 138.279 130.196C138.333 130.231 138.354 130.319 138.326 130.392L138.07 131.093C138.05 131.143 138.012 131.172 137.973 131.172Z" fill="#010202"/>
<path d="M137.292 132.678C137.273 132.678 137.254 132.672 137.237 132.654C137.185 132.61 137.17 132.523 137.202 132.453L137.577 131.625C137.606 131.555 137.673 131.535 137.724 131.579C137.775 131.619 137.79 131.71 137.758 131.78L137.384 132.607C137.363 132.654 137.329 132.678 137.292 132.678Z" fill="#010202"/>
<path d="M137.258 142.233C137.213 142.233 137.173 142.195 137.158 142.134L136.927 141.216C136.907 141.14 136.937 141.055 136.993 141.029C137.049 141.002 137.111 141.043 137.13 141.119L137.361 142.037C137.38 142.113 137.35 142.195 137.294 142.221C137.282 142.23 137.271 142.233 137.258 142.233Z" fill="black"/>
<path d="M136.77 140.301C136.719 140.301 136.672 140.248 136.666 140.175L136.571 139.307C136.563 139.228 136.604 139.152 136.661 139.14C136.719 139.129 136.775 139.184 136.783 139.263L136.877 140.131C136.886 140.21 136.845 140.286 136.787 140.298C136.781 140.301 136.775 140.301 136.77 140.301Z" fill="black"/>
<path d="M136.576 138.24C136.519 138.24 136.469 138.176 136.469 138.097L136.461 137.22C136.461 137.138 136.508 137.074 136.566 137.071H136.568C136.626 137.071 136.675 137.135 136.675 137.214L136.683 138.091C136.683 138.173 136.636 138.24 136.576 138.24Z" fill="black"/>
<path d="M136.666 136.247C136.662 136.247 136.657 136.247 136.655 136.247C136.595 136.238 136.555 136.168 136.559 136.086L136.642 135.004C136.649 134.923 136.702 134.864 136.76 134.873C136.82 134.882 136.86 134.952 136.856 135.034L136.773 136.115C136.766 136.191 136.721 136.247 136.666 136.247Z" fill="#010202"/>
<path d="M136.799 134.391C136.788 134.391 136.779 134.388 136.769 134.385C136.711 134.361 136.679 134.279 136.696 134.203L136.916 133.175C136.933 133.099 136.991 133.052 137.049 133.075C137.107 133.099 137.139 133.18 137.122 133.256L136.901 134.285C136.888 134.35 136.846 134.391 136.799 134.391Z" fill="#010202"/>
<path d="M116.201 127.53C116.224 127.53 116.248 127.519 116.267 127.498C116.314 127.448 116.32 127.355 116.284 127.293L115.886 126.607C115.85 126.542 115.782 126.533 115.737 126.583C115.69 126.633 115.683 126.726 115.72 126.788L116.117 127.475C116.139 127.513 116.171 127.53 116.201 127.53Z" fill="black"/>
<path d="M115.3 125.931C115.33 125.931 115.36 125.914 115.381 125.879C115.42 125.817 115.413 125.724 115.368 125.674L114.795 125.016C114.75 124.964 114.682 124.973 114.643 125.034C114.605 125.095 114.611 125.189 114.656 125.242L115.231 125.899C115.251 125.92 115.274 125.931 115.3 125.931Z" fill="black"/>
<path d="M114.093 124.546C114.129 124.546 114.166 124.52 114.185 124.476C114.215 124.406 114.198 124.318 114.149 124.274L113.552 123.789C113.501 123.748 113.437 123.771 113.404 123.839C113.375 123.909 113.392 123.996 113.441 124.04L114.037 124.525C114.054 124.537 114.074 124.546 114.093 124.546Z" fill="black"/>
<path d="M112.662 123.426C112.702 123.426 112.741 123.394 112.76 123.342C112.784 123.269 112.76 123.181 112.707 123.149L112.065 122.751C112.012 122.719 111.948 122.751 111.924 122.824C111.901 122.897 111.924 122.985 111.978 123.017L112.619 123.415C112.632 123.421 112.647 123.426 112.662 123.426Z" fill="black"/>
<path d="M104.712 120.638C104.768 120.638 104.815 120.579 104.819 120.5C104.823 120.419 104.779 120.351 104.721 120.346L103.808 120.261C103.75 120.252 103.699 120.316 103.695 120.395C103.69 120.477 103.735 120.544 103.793 120.55L104.706 120.635C104.708 120.638 104.71 120.638 104.712 120.638Z" fill="#010202"/>
<path d="M103.001 120.489C103.058 120.489 103.108 120.424 103.108 120.343C103.108 120.261 103.061 120.196 103.001 120.196L102.184 120.185C102.126 120.185 102.077 120.249 102.077 120.331C102.077 120.413 102.124 120.477 102.184 120.477L103.001 120.489C102.999 120.489 102.999 120.489 103.001 120.489Z" fill="#010202"/>
<path d="M100.846 120.457L101.558 120.445C101.618 120.445 101.665 120.378 101.663 120.296C101.663 120.217 101.614 120.153 101.556 120.153C101.556 120.153 101.556 120.153 101.554 120.153L100.842 120.164C100.782 120.164 100.735 120.232 100.737 120.313C100.74 120.392 100.787 120.457 100.846 120.457Z" fill="#010202"/>
<path d="M99.3873 120.597C99.3894 120.597 99.3915 120.597 99.3937 120.597L100.21 120.521C100.27 120.515 100.313 120.445 100.311 120.366C100.307 120.284 100.251 120.226 100.198 120.229L99.3808 120.305C99.321 120.31 99.2782 120.381 99.2804 120.46C99.2846 120.536 99.3317 120.597 99.3873 120.597Z" fill="#010202"/>
<path d="M98.0409 120.758C98.0452 120.758 98.0495 120.758 98.0538 120.758L98.7657 120.65C98.8234 120.641 98.8662 120.568 98.8598 120.489C98.8534 120.41 98.7999 120.351 98.7422 120.36L98.0303 120.468C97.9725 120.477 97.9298 120.55 97.9362 120.629C97.9426 120.702 97.9875 120.758 98.0409 120.758Z" fill="#010202"/>
<path d="M96.6368 120.895C96.6411 120.895 96.6454 120.895 96.6497 120.895L97.4236 120.766C97.4813 120.758 97.5241 120.685 97.5177 120.603C97.5113 120.524 97.4557 120.465 97.398 120.474L96.624 120.603C96.5663 120.612 96.5235 120.685 96.5299 120.766C96.5363 120.842 96.5834 120.895 96.6368 120.895Z" fill="#010202"/>
<path d="M95.3453 121.1C95.3496 121.1 95.3539 121.1 95.3581 121.1L95.9825 120.992C96.0402 120.983 96.083 120.91 96.0744 120.828C96.068 120.746 96.0124 120.691 95.9547 120.702L95.3303 120.81C95.2726 120.819 95.2298 120.892 95.2384 120.974C95.2448 121.044 95.2918 121.1 95.3453 121.1Z" fill="#010202"/>
<path d="M93.9731 121.357C93.9795 121.357 93.9838 121.357 93.9902 121.354L94.7556 121.193C94.8133 121.182 94.8539 121.106 94.8454 121.027C94.8368 120.948 94.7791 120.892 94.7235 120.904L93.9581 121.065C93.9004 121.076 93.8598 121.152 93.8683 121.231C93.8769 121.304 93.9218 121.357 93.9731 121.357Z" fill="#010202"/>
<path d="M92.7612 121.591C92.7676 121.591 92.7741 121.591 92.7805 121.588L93.4048 121.439C93.4625 121.424 93.501 121.348 93.4925 121.269C93.4818 121.19 93.4262 121.135 93.3685 121.149L92.7441 121.298C92.6864 121.313 92.6479 121.389 92.6565 121.468C92.665 121.541 92.7099 121.591 92.7612 121.591Z" fill="#010202"/>
<path d="M91.3731 121.892C91.3796 121.892 91.386 121.892 91.3924 121.889L92.0873 121.716C92.145 121.702 92.1835 121.626 92.1728 121.547C92.1621 121.468 92.1065 121.415 92.0488 121.43L91.3539 121.602C91.2962 121.617 91.2577 121.693 91.2684 121.772C91.2769 121.842 91.3218 121.892 91.3731 121.892Z" fill="#010202"/>
<path d="M90.1961 122.169C90.2025 122.169 90.2111 122.169 90.2175 122.167L90.8332 121.994C90.891 121.977 90.9294 121.901 90.9166 121.822C90.9038 121.743 90.8482 121.693 90.7905 121.708L90.1747 121.88C90.117 121.898 90.0785 121.974 90.0913 122.053C90.102 122.123 90.1469 122.169 90.1961 122.169Z" fill="#010202"/>
<path d="M88.9909 122.567C88.9995 122.567 89.008 122.567 89.0187 122.561L89.6259 122.348C89.6836 122.327 89.7178 122.248 89.7029 122.169C89.6879 122.091 89.6302 122.044 89.5724 122.064L88.9652 122.278C88.9075 122.298 88.8733 122.377 88.8883 122.456C88.899 122.523 88.9439 122.567 88.9909 122.567Z" fill="#010202"/>
<path d="M88.4464 122.643C88.502 122.643 88.549 122.585 88.5533 122.509C88.5575 122.427 88.5148 122.357 88.4549 122.351L87.7515 122.275C87.6938 122.263 87.6403 122.327 87.636 122.409C87.6318 122.491 87.6745 122.561 87.7344 122.567L88.4378 122.643C88.44 122.643 88.4442 122.643 88.4464 122.643Z" fill="#010202"/>
<path d="M87.2168 122.342C87.251 122.342 87.2831 122.321 87.3045 122.281C87.3387 122.213 87.3259 122.123 87.2788 122.076L86.7871 121.605C86.738 121.559 86.6717 121.576 86.6375 121.64C86.6033 121.708 86.6161 121.798 86.6631 121.845L87.1549 122.316C87.1741 122.333 87.1955 122.342 87.2168 122.342Z" fill="#010202"/>
<path d="M86.3473 121.462C86.3623 121.462 86.3794 121.456 86.3943 121.447C86.4478 121.412 86.4692 121.325 86.4435 121.252L86.172 120.48C86.1463 120.407 86.0822 120.378 86.0287 120.413C85.9753 120.448 85.9539 120.536 85.9796 120.609L86.2511 121.38C86.2682 121.433 86.3067 121.462 86.3473 121.462Z" fill="#010202"/>
<path d="M86.0141 120.082C86.074 120.082 86.1211 120.018 86.1211 119.936V119.185C86.1211 119.103 86.074 119.039 86.0141 119.039C85.9543 119.039 85.9072 119.103 85.9072 119.185V119.936C85.9072 120.015 85.9543 120.082 86.0141 120.082Z" fill="#010202"/>
<path d="M85.9859 118.603C85.9881 118.603 85.9902 118.603 85.9923 118.603C86.0522 118.598 86.095 118.53 86.0928 118.449L86.0586 117.697C86.0543 117.615 86.0052 117.554 85.9453 117.56C85.8854 117.566 85.8427 117.636 85.8448 117.715L85.879 118.466C85.8833 118.542 85.9303 118.603 85.9859 118.603Z" fill="#010202"/>
<path d="M85.9432 117.028C85.9453 117.028 85.9474 117.028 85.9496 117.028C86.0094 117.022 86.0543 116.955 86.0501 116.873L86.0158 116.025C86.0137 115.946 85.9688 115.882 85.9025 115.888C85.8427 115.894 85.7978 115.961 85.802 116.043L85.8362 116.89C85.8384 116.966 85.8854 117.028 85.9432 117.028Z" fill="#010202"/>
<path d="M85.8816 115.549C85.8838 115.549 85.8859 115.549 85.888 115.549C85.9479 115.543 85.9928 115.476 85.9885 115.394L85.9543 114.578C85.95 114.497 85.903 114.432 85.841 114.441C85.7811 114.447 85.7362 114.514 85.7405 114.596L85.7747 115.411C85.779 115.49 85.826 115.549 85.8816 115.549Z" fill="#010202"/>
<path d="M85.7731 114.231C85.7774 114.231 85.7795 114.231 85.7838 114.231C85.8437 114.222 85.8864 114.152 85.88 114.073L85.8266 113.281C85.8202 113.199 85.7646 113.146 85.7111 113.149C85.6512 113.158 85.6085 113.228 85.6149 113.307L85.6683 114.099C85.6726 114.175 85.7197 114.231 85.7731 114.231Z" fill="#010202"/>
<path d="M85.6785 112.851C85.6806 112.851 85.6849 112.851 85.687 112.851C85.7469 112.845 85.7896 112.775 85.7853 112.693L85.7404 111.878C85.7362 111.796 85.6827 111.734 85.625 111.743C85.5651 111.749 85.5224 111.819 85.5267 111.901L85.5716 112.716C85.5758 112.792 85.6229 112.851 85.6785 112.851Z" fill="#010202"/>
<path d="M85.5727 111.413C85.577 111.413 85.5812 111.413 85.5855 111.413C85.6432 111.404 85.686 111.331 85.6796 111.252L85.6176 110.545C85.6112 110.463 85.5534 110.407 85.5 110.416C85.4423 110.425 85.3995 110.498 85.4059 110.577L85.4679 111.284C85.4722 111.36 85.5192 111.413 85.5727 111.413Z" fill="#010202"/>
<path d="M85.4934 109.989C85.4976 109.989 85.5041 109.989 85.5083 109.989C85.5661 109.978 85.6067 109.905 85.6003 109.826L85.5297 109.139C85.5212 109.06 85.4656 109.004 85.41 109.013C85.3523 109.025 85.3116 109.098 85.318 109.177L85.3886 109.864C85.395 109.937 85.4399 109.989 85.4934 109.989Z" fill="#010202"/>
<path d="M85.3691 108.736C85.3755 108.736 85.3841 108.736 85.3905 108.733C85.4482 108.715 85.4867 108.639 85.4738 108.56L85.3862 107.97C85.3734 107.891 85.3178 107.841 85.26 107.856C85.2023 107.873 85.166 107.949 85.1767 108.028L85.2643 108.616C85.275 108.689 85.3199 108.736 85.3691 108.736Z" fill="#010202"/>
<path d="M85.1431 107.505C85.1559 107.505 85.1688 107.502 85.1816 107.493C85.2372 107.464 85.2628 107.379 85.2415 107.303L85.0384 106.607C85.017 106.531 84.955 106.496 84.8994 106.526C84.8438 106.555 84.8182 106.64 84.8395 106.716L85.0426 107.411C85.0597 107.47 85.1004 107.505 85.1431 107.505Z" fill="#010202"/>
<path d="M84.7728 106.227C84.7899 106.227 84.8092 106.222 84.8241 106.21C84.8754 106.172 84.8947 106.081 84.8669 106.011L84.5847 105.315C84.5569 105.245 84.4906 105.219 84.4393 105.257C84.388 105.295 84.3687 105.386 84.3965 105.456L84.6787 106.151C84.698 106.201 84.7343 106.227 84.7728 106.227Z" fill="#010202"/>
<path d="M84.2986 105.137C84.3179 105.137 84.3393 105.128 84.3564 105.114C84.4055 105.07 84.4205 104.979 84.3884 104.912L84.134 104.366C84.102 104.298 84.0357 104.278 83.9865 104.322C83.9373 104.366 83.9224 104.456 83.9544 104.523L84.2088 105.07C84.2281 105.111 84.2623 105.137 84.2986 105.137Z" fill="#010202"/>
<path d="M111.15 122.646C111.195 122.646 111.235 122.608 111.25 122.547C111.27 122.471 111.24 122.386 111.184 122.362L110.352 121.977C110.297 121.953 110.235 121.991 110.218 122.067C110.199 122.143 110.228 122.225 110.284 122.251L111.116 122.637C111.129 122.643 111.139 122.646 111.15 122.646Z" fill="#010202"/>
<path d="M109.709 122.047C109.754 122.047 109.796 122.006 109.811 121.944C109.828 121.868 109.798 121.787 109.741 121.76L108.92 121.404C108.864 121.38 108.804 121.421 108.785 121.5C108.768 121.576 108.798 121.658 108.856 121.684L109.677 122.041C109.687 122.044 109.698 122.047 109.709 122.047Z" fill="#010202"/>
<path d="M108.129 121.488C108.176 121.488 108.221 121.445 108.232 121.377C108.247 121.298 108.213 121.22 108.155 121.199L107.428 120.942C107.37 120.921 107.312 120.968 107.297 121.047C107.282 121.126 107.317 121.205 107.374 121.225L108.101 121.483C108.11 121.485 108.121 121.488 108.129 121.488Z" fill="#010202"/>
<path d="M106.699 121.073C106.748 121.073 106.791 121.03 106.804 120.962C106.819 120.883 106.782 120.805 106.724 120.787C106.577 120.737 106.412 120.702 106.252 120.67C106.096 120.638 105.938 120.606 105.799 120.559C105.741 120.541 105.683 120.588 105.67 120.667C105.655 120.746 105.692 120.825 105.749 120.843C105.897 120.892 106.062 120.927 106.222 120.959C106.376 120.992 106.536 121.024 106.675 121.071C106.682 121.073 106.69 121.073 106.699 121.073Z" fill="#010202"/>
<path d="M105.604 122.044C105.609 122.044 105.613 122.044 105.619 122.044C105.677 122.032 105.72 121.959 105.711 121.88L105.604 120.769C105.596 120.69 105.542 120.632 105.485 120.644C105.427 120.655 105.384 120.728 105.393 120.807L105.5 121.918C105.506 121.988 105.551 122.044 105.604 122.044Z" fill="#010202"/>
<path d="M105.875 123.973C105.881 123.973 105.89 123.973 105.896 123.97C105.954 123.953 105.993 123.877 105.98 123.798L105.832 122.818C105.819 122.74 105.762 122.687 105.706 122.704C105.648 122.722 105.61 122.798 105.623 122.877L105.77 123.856C105.781 123.926 105.826 123.973 105.875 123.973Z" fill="#010202"/>
<path d="M106.184 125.528C106.193 125.528 106.201 125.528 106.208 125.525C106.265 125.508 106.302 125.429 106.287 125.35L106.141 124.499C106.129 124.42 106.071 124.371 106.013 124.391C105.955 124.409 105.919 124.487 105.934 124.566L106.079 125.417C106.09 125.481 106.135 125.528 106.184 125.528Z" fill="#010202"/>
<path d="M106.539 127.326C106.55 127.326 106.56 127.323 106.571 127.32C106.627 127.296 106.659 127.215 106.642 127.136L106.426 126.171C106.409 126.095 106.349 126.048 106.291 126.075C106.235 126.098 106.203 126.18 106.22 126.259L106.436 127.223C106.449 127.288 106.492 127.326 106.539 127.326Z" fill="#010202"/>
<path d="M106.927 128.787C106.939 128.787 106.952 128.784 106.963 128.778C107.019 128.752 107.046 128.667 107.027 128.591L106.805 127.761C106.785 127.685 106.723 127.647 106.668 127.673C106.612 127.7 106.584 127.785 106.604 127.861L106.826 128.691C106.841 128.752 106.882 128.787 106.927 128.787Z" fill="#010202"/>
<path d="M107.458 130.41C107.471 130.41 107.486 130.407 107.499 130.398C107.555 130.369 107.58 130.281 107.557 130.208L107.287 129.313C107.264 129.237 107.202 129.202 107.148 129.234C107.093 129.264 107.067 129.351 107.091 129.424L107.36 130.319C107.377 130.374 107.416 130.41 107.458 130.41Z" fill="#010202"/>
<path d="M107.997 131.757C108.014 131.757 108.029 131.751 108.044 131.742C108.097 131.707 108.119 131.62 108.091 131.546L107.834 130.845C107.809 130.772 107.742 130.743 107.691 130.781C107.638 130.816 107.616 130.903 107.644 130.976L107.901 131.678C107.92 131.728 107.958 131.757 107.997 131.757Z" fill="#010202"/>
<path d="M108.679 133.262C108.698 133.262 108.718 133.256 108.735 133.239C108.786 133.195 108.801 133.107 108.769 133.037L108.395 132.21C108.365 132.14 108.299 132.119 108.247 132.163C108.196 132.204 108.181 132.295 108.213 132.365L108.587 133.192C108.609 133.239 108.643 133.262 108.679 133.262Z" fill="#010202"/>
<path d="M108.713 142.818C108.758 142.818 108.798 142.78 108.813 142.718L109.044 141.8C109.064 141.724 109.034 141.64 108.978 141.613C108.922 141.587 108.86 141.628 108.841 141.704L108.61 142.622C108.591 142.698 108.621 142.78 108.677 142.806C108.689 142.815 108.7 142.818 108.713 142.818Z" fill="black"/>
<path d="M109.2 140.885C109.251 140.885 109.298 140.833 109.305 140.76L109.399 139.892C109.407 139.813 109.367 139.737 109.309 139.725C109.251 139.713 109.196 139.769 109.187 139.848L109.093 140.716C109.084 140.795 109.125 140.871 109.183 140.882C109.189 140.885 109.196 140.885 109.2 140.885Z" fill="black"/>
<path d="M109.396 138.825C109.454 138.825 109.503 138.76 109.503 138.681L109.511 137.805C109.511 137.723 109.464 137.659 109.407 137.656H109.405C109.347 137.656 109.298 137.72 109.298 137.799L109.289 138.676C109.289 138.757 109.336 138.825 109.396 138.825C109.394 138.825 109.396 138.825 109.396 138.825Z" fill="black"/>
<path d="M109.305 136.831C109.309 136.831 109.313 136.831 109.316 136.831C109.375 136.822 109.416 136.752 109.412 136.67L109.328 135.589C109.322 135.507 109.269 135.449 109.211 135.457C109.151 135.466 109.11 135.536 109.115 135.618L109.198 136.7C109.204 136.776 109.249 136.831 109.305 136.831Z" fill="#010202"/>
<path d="M109.172 134.975C109.183 134.975 109.191 134.972 109.202 134.969C109.26 134.946 109.292 134.864 109.275 134.788L109.055 133.759C109.037 133.683 108.98 133.636 108.922 133.66C108.864 133.683 108.832 133.765 108.849 133.841L109.07 134.87C109.082 134.934 109.125 134.975 109.172 134.975Z" fill="#010202"/>
<path d="M173.169 139.298C173.169 139.298 177.199 148.555 154.797 143.183C140.267 139.412 132.674 142.727 132.674 142.727C132.674 142.727 127.988 143.756 126.957 143.414C125.927 143.072 123.466 148.985 123.137 151.157C122.81 153.328 123.348 154.67 125.386 155.556C127.423 156.441 136.6 157.812 142.505 156.441C145.808 157.257 156.847 159.271 159.272 156.012C161.521 156.526 165.352 156.354 165.352 156.354C165.352 156.354 174.21 158.239 174.914 151.639C176.111 144.311 173.169 139.298 173.169 139.298Z" fill="#CFCBC9"/>
<path d="M72.926 139.839C72.926 139.839 68.8957 149.096 91.2982 143.724C105.828 139.953 113.421 143.268 113.421 143.268C113.421 143.268 118.107 144.296 119.138 143.954C120.168 143.613 122.629 149.526 122.958 151.698C123.286 153.869 122.747 155.211 120.709 156.097C118.67 156.982 109.495 158.353 103.59 156.982C100.287 157.798 89.2478 159.812 86.8233 156.553C84.574 157.067 80.7427 156.895 80.7427 156.895C80.7427 156.895 71.8847 158.78 71.1813 152.18C69.9861 144.852 72.926 139.839 72.926 139.839Z" fill="#CFCBC9"/>
</g>
</svg>
