<svg width="277" height="258" viewBox="0 0 277 258" fill="none" xmlns="http://www.w3.org/2000/svg">
<path fill-rule="evenodd" clip-rule="evenodd" d="M107.64 29.2198C107.64 29.2198 107.943 33.2968 105.586 42.7198C105.586 42.7198 104.025 48.4866 101.568 54.5928L81.054 59.3528L80.2792 61.1333C80.2792 61.1333 78.7049 62.0545 77.974 64.4133L60.75 51.0476C60.75 51.0476 63.0744 48.7202 63.2815 46.1266L72.3735 40.2736C72.3735 40.2736 68.6475 33.6187 73.8956 31.3924C73.8956 31.3924 79.0052 28.4332 79.8678 34.6098L92.6501 29.3536L107.64 29.2198Z" fill="#EFD3BA" stroke="#EFD3BA" stroke-width="0.000863431" stroke-miterlimit="1.5" stroke-linecap="round" stroke-linejoin="round"/>
<path fill-rule="evenodd" clip-rule="evenodd" d="M184.319 99.7803C184.319 99.7803 184.878 106.524 177.03 114.987L181.091 122.81L194.808 120.099L194.929 105.667L192.363 96.8557L184.319 99.7803Z" fill="#EFD3BA" stroke="#EFD3BA" stroke-width="0.000282167" stroke-miterlimit="1.5" stroke-linecap="round" stroke-linejoin="round"/>
<path fill-rule="evenodd" clip-rule="evenodd" d="M199.474 166.071L233.213 163.997L237.98 199.213L227.18 257.897L199.336 257.869L199.474 166.071Z" fill="#736D5A" stroke="#736D5A" stroke-width="0.000282167" stroke-miterlimit="1.5" stroke-linecap="round" stroke-linejoin="round"/>
<path fill-rule="evenodd" clip-rule="evenodd" d="M229.711 171.809L245.51 257.901C245.51 257.901 274.268 257.931 274.541 257.929C274.783 257.928 275.538 162.496 275.293 162.613C275.046 162.728 229.711 171.809 229.711 171.809Z" fill="#736D5A" stroke="#736D5A" stroke-width="0.000282167" stroke-miterlimit="1.5" stroke-linecap="round" stroke-linejoin="round"/>
<path fill-rule="evenodd" clip-rule="evenodd" d="M231.135 171.753C231.135 171.753 233.393 188.756 236.571 207.595C240.461 230.654 245.447 256.512 245.848 257.892L257.477 257.911L248.006 169.139L231.135 171.753Z" fill="#8C8674" stroke="#8C8674" stroke-width="0.000282167" stroke-miterlimit="1.5" stroke-linecap="round" stroke-linejoin="round"/>
<path fill-rule="evenodd" clip-rule="evenodd" d="M9.90321 185.407C9.90321 185.407 10.7787 201.98 11.8511 216.06C11.8511 216.06 11.301 227.909 9.69243 240.941C9.69243 240.941 9.4253 243.647 8.06836 257.675C8.06836 257.675 21.32 257.675 39.4776 257.703L41.9605 244.878L42.3123 257.706C42.3123 257.706 53.4268 257.727 70.7756 257.737C70.7756 257.737 70.8785 255.47 70.8826 255.054C71.0211 241.002 71.3064 225.751 71.4558 223.734C71.4558 223.734 73.7844 179.567 73.7624 176.26L69.6224 171.66L20.6927 175.882L9.90321 185.407Z" fill="#736D5A" stroke="#736D5A" stroke-width="1.693e-05" stroke-miterlimit="1.5" stroke-linecap="round" stroke-linejoin="round"/>
<path fill-rule="evenodd" clip-rule="evenodd" d="M178.453 118.683C178.815 119.295 184.177 117.8 187.282 112.923C189.243 109.844 188.49 104.492 188.368 100.006L191.235 99.921L195.602 118.097L182.704 123.646L178.453 118.683Z" fill="#E2C1A4" stroke="#E2C1A4" stroke-width="0.000282167" stroke-miterlimit="1.5" stroke-linecap="round" stroke-linejoin="round"/>
<path fill-rule="evenodd" clip-rule="evenodd" d="M60.8648 35.2952C60.8648 35.2952 58.2935 42.4901 63.9009 46.8825C63.9009 46.8825 72.0892 45.5326 72.8269 40.9736C72.8269 40.9736 72.8887 40.0481 72.5815 39.6405C72.5815 39.6405 69.8114 33.1326 74.271 31.2635C74.271 31.2635 79.4149 28.7082 80.1787 34.4318C80.1787 34.4318 80.5887 36.0968 80.3213 37.3853C80.3213 37.3853 86.4073 35.4808 91.7541 30.6817C91.7541 30.6817 93.0446 29.6572 93.7028 28.6048C94.3597 27.5522 75.2199 26.7972 75.2199 26.7972L60.8648 35.2952ZM83.0626 36.1329C83.0626 36.1329 81.5445 36.9646 82.8665 43.0115C82.8665 43.0115 83.8662 48.2484 87.6017 51.9663C87.6017 51.9663 96.2357 55.1478 102.638 52.6319C102.638 52.6319 103.672 59.8506 98.9413 63.4185C98.9413 63.4185 90.8024 68.7773 83.4864 64.1797C83.4864 64.1797 69.6482 55.0815 72.4745 47.866C75.3022 40.6508 79.6631 38.3516 80.3213 37.3853" fill="#CDCDCD"/>
<path d="M83.0626 36.1329C83.0626 36.1329 81.5445 36.9646 82.8665 43.0115C82.8665 43.0115 83.8662 48.2484 87.6017 51.9663C87.6017 51.9663 96.2357 55.1478 102.638 52.6319C102.638 52.6319 103.672 59.8506 98.9413 63.4185C98.9413 63.4185 90.8024 68.7773 83.4864 64.1797C83.4864 64.1797 69.6482 55.0815 72.4745 47.866C75.3022 40.6508 79.6631 38.3516 80.3213 37.3853M60.8648 35.2952C60.8648 35.2952 58.2935 42.4901 63.9009 46.8825C63.9009 46.8825 72.0892 45.5326 72.8269 40.9736C72.8269 40.9736 72.8887 40.0481 72.5815 39.6405C72.5815 39.6405 69.8114 33.1326 74.271 31.2635C74.271 31.2635 79.4149 28.7082 80.1787 34.4318C80.1787 34.4318 80.5887 36.0968 80.3213 37.3853C80.3213 37.3853 86.4073 35.4808 91.7541 30.6817C91.7541 30.6817 93.0446 29.6572 93.7028 28.6048C94.3597 27.5522 75.2199 26.7972 75.2199 26.7972L60.8648 35.2952Z" stroke="#CDCDCD" stroke-width="0.000863431" stroke-miterlimit="1.5" stroke-linecap="round" stroke-linejoin="round"/>
<path fill-rule="evenodd" clip-rule="evenodd" d="M199.709 165.283C199.709 165.283 198.988 257.826 199.553 257.826C202.156 257.826 208.343 257.839 208.343 257.839L215.616 168.471L199.709 165.283Z" fill="#8C8674" stroke="#8C8674" stroke-width="0.000282167" stroke-miterlimit="1.5" stroke-linecap="round" stroke-linejoin="round"/>
<path fill-rule="evenodd" clip-rule="evenodd" d="M191.379 61.2161C191.398 61.1327 188.463 61.7053 185.937 63.8184C185.235 64.4047 184.751 65.1235 184.145 65.9646C183.219 67.6366 181.744 68.6652 181.833 80.3427L181.301 91.7175C181.301 91.7175 184.844 92.9129 189.508 92.9277L192.394 90.8912L191.379 61.2161Z" fill="#00AC00" stroke="#00AC00" stroke-width="0.000282167" stroke-miterlimit="1.5" stroke-linecap="round" stroke-linejoin="round"/>
<path fill-rule="evenodd" clip-rule="evenodd" d="M141.797 115.7C141.808 115.676 136.86 132.969 150.914 137.674C150.914 137.674 162.903 140.391 173.9 135.593C173.9 135.593 183.096 133.569 181.29 121.124C181.29 121.124 178.439 113.071 175.459 109.463L168.199 111.232C168.199 111.232 141.787 115.723 141.797 115.7Z" fill="#3647E8" stroke="#3647E8" stroke-width="0.000933973" stroke-miterlimit="1.5" stroke-linecap="round" stroke-linejoin="round"/>
<path fill-rule="evenodd" clip-rule="evenodd" d="M138.271 110.926C138.271 110.926 137.451 113.222 139.531 115.309C139.531 115.309 140.101 116.068 141.96 116.416C141.96 116.416 159.628 118.944 174.523 110.468C174.523 110.468 175.882 109.194 175.786 107.986C175.69 106.778 175.046 104.922 173.428 104.027C173.428 104.027 171.956 103.369 169.905 103.04C163.68 102.043 150.164 101.251 140.421 108.276C140.421 108.276 138.656 109.153 138.271 110.926Z" fill="#CDCDCD" stroke="#CDCDCD" stroke-width="0.000933973" stroke-miterlimit="1.5" stroke-linecap="round" stroke-linejoin="round"/>
<path fill-rule="evenodd" clip-rule="evenodd" d="M47.4945 182.7C47.4945 182.7 45.6816 222.013 44.9191 227.536C44.9191 227.536 43.9729 237.084 41.2208 248.262C41.2208 248.262 39.5793 256.898 39.3755 257.718C39.3755 257.718 36.1083 257.714 30.8506 257.706C30.8506 257.706 35.177 234.295 35.5545 225.825C35.5545 225.825 34.6485 187.54 33.9011 182.312C33.1536 177.086 33.599 177.197 33.599 177.197L47.4945 182.7ZM64.1809 181.541C64.1809 181.541 64.2838 225.071 64.41 227.041C64.41 227.041 63.8834 253.882 64.5389 257.749C64.5389 257.749 67.1636 257.755 70.6756 257.754C70.6756 257.754 71.4381 227.508 71.5094 227.362C71.5094 227.362 74.2877 176.502 74.0847 175.912L64.1809 181.541Z" fill="#8C8674" stroke="#8C8674" stroke-width="1.693e-05" stroke-miterlimit="1.5" stroke-linecap="round" stroke-linejoin="round"/>
<path fill-rule="evenodd" clip-rule="evenodd" d="M174.28 104.173C174.417 105.793 174.225 107.86 172.981 109.198C170.665 111.688 166.492 113.07 163.098 114.15C161.012 114.814 158.902 115.427 156.783 116.019C156.088 116.214 155.366 116.333 154.664 116.509C154.427 116.568 153.573 116.703 153.818 116.679C156.465 116.417 159.102 116.168 161.736 115.604C163.152 115.301 164.783 114.885 166.137 114.5C168.93 113.706 171.846 112.692 174.206 111.148C175.022 110.614 175.727 110.123 176.079 109.288C176.732 107.742 176.065 105.063 174.28 104.173Z" fill="#808080" stroke="#808080" stroke-width="0.000406321" stroke-miterlimit="1.5" stroke-linecap="round" stroke-linejoin="round"/>
<path fill-rule="evenodd" clip-rule="evenodd" d="M3.86566 158.212C3.86566 158.212 0.223255 171.627 6.71147 187.214C6.71147 187.214 11.586 183.725 30.3343 182.78C30.3343 182.78 41.1068 183.653 50.8689 183.637C50.8689 183.637 67.6843 182.222 73.3959 176.633C73.3959 176.633 74.1282 176.819 74.7206 175.237C74.7206 175.237 74.7823 165.871 74.5122 161.169L3.86566 158.212Z" fill="#CDCDCD" stroke="#CDCDCD" stroke-width="0.000863431" stroke-miterlimit="1.5" stroke-linecap="round" stroke-linejoin="round"/>
<path fill-rule="evenodd" clip-rule="evenodd" d="M192.834 60.9426C192.834 60.9426 186.566 60.7312 187.02 70.6431C187.02 70.6431 188.481 89.2474 189.162 93.0977C189.162 93.0977 192.543 115.315 192.774 116.708C193.004 118.1 195.004 134.006 195.478 143.905C195.478 143.905 195.507 158.609 194.794 165.17C194.794 165.17 230.765 184.051 276.998 163.193C276.998 163.193 273.742 49.4887 215.244 51.444C215.094 51.449 214.992 51.4667 214.844 51.4728C214.648 51.4807 214.456 51.5042 214.331 51.5522C211.069 52.8075 208.233 54.665 205.076 56.2021L192.834 60.9426Z" fill="#00AC00" stroke="#00AC00" stroke-width="0.000282167" stroke-miterlimit="1.5" stroke-linecap="round" stroke-linejoin="round"/>
<path fill-rule="evenodd" clip-rule="evenodd" d="M194.589 131.102C194.589 131.102 194.899 133.162 194.904 135.511C194.904 135.511 240.896 119.465 247.989 116.515C247.989 116.515 260.616 112.976 261.368 101.451C261.368 101.451 262.432 94.2719 262.395 90.3096C262.395 90.3096 256.893 72.2481 252.808 67.7842L248.997 105.3L194.589 131.102Z" fill="#019D01" stroke="#019D01" stroke-width="0.000282167" stroke-miterlimit="1.5" stroke-linecap="round" stroke-linejoin="round"/>
<path fill-rule="evenodd" clip-rule="evenodd" d="M3.24755 159.893C3.24755 159.893 1.58742 165.798 2.83931 173.142C2.83931 173.142 11.5883 169.19 31.1583 170.129C31.1583 170.129 49.8335 171.846 59.0133 168.822C59.0133 168.822 65.9166 167.625 71.9614 162.484L3.24755 159.893Z" fill="#AAAAAA" stroke="#AAAAAA" stroke-width="0.000863431" stroke-miterlimit="1.5" stroke-linecap="round" stroke-linejoin="round"/>
<path fill-rule="evenodd" clip-rule="evenodd" d="M104.848 125.46C104.848 125.46 115.137 132.827 127.148 129.112C127.148 129.112 133.893 126.325 131.258 123.351C131.258 123.351 130.85 122.236 124.392 121.098C124.392 121.098 118.735 120.874 115.574 118.179L114.59 117.424C114.59 117.424 116.689 117.667 119.119 117.202C119.119 117.202 121.056 116.693 119.997 115.671C119.997 115.671 116.689 113.121 108.756 114.344L104.841 120.499L104.848 125.46Z" fill="#EFD3BA" stroke="#EFD3BA" stroke-width="0.000863431" stroke-miterlimit="1.5" stroke-linecap="round" stroke-linejoin="round"/>
<path fill-rule="evenodd" clip-rule="evenodd" d="M105.827 126.317C105.827 126.317 119.766 135.518 130.501 127.379C130.501 127.379 112.531 127.899 107.331 120.637L104.414 120.98L105.827 126.317Z" fill="#E2C1A4" stroke="#DDB998" stroke-width="1.693e-05" stroke-miterlimit="1.5" stroke-linecap="round" stroke-linejoin="round"/>
<path fill-rule="evenodd" clip-rule="evenodd" d="M223.742 100.042C223.66 100.114 186.577 120.164 188.78 119.047C188.894 118.989 185.735 120.855 183.146 120.323C183.146 120.323 175.431 119.021 175.044 119.625C175.044 119.625 170.626 120.539 174.983 122.532C174.983 122.532 178.735 124.012 180.157 126.485C180.157 126.485 180.863 129.211 170.508 131.073C170.508 131.073 163.204 132.017 163.782 133.568C163.782 133.568 162.575 137.35 173.041 139.565C173.041 139.565 179.887 141.33 187.908 136.886C187.908 136.886 192.707 132.665 194.955 131.309C194.955 131.309 195.457 130.515 202.281 127.728C202.281 127.728 241.179 111.502 244.763 109.856C244.763 109.856 252.594 106.946 252.133 99.7657L251.945 96.1635L225.951 97.0469C225.951 97.0469 225.681 98.3234 223.742 100.042Z" fill="#EFD3BA" stroke="#EFD3BA" stroke-width="0.000282167" stroke-miterlimit="1.5" stroke-linecap="round" stroke-linejoin="round"/>
<path fill-rule="evenodd" clip-rule="evenodd" d="M223.483 90.0033C223.483 90.0033 219.07 56.5397 239.012 56.206C239.012 56.206 256.141 53.6563 256.213 89.0445L232.901 93.3541L223.483 90.0033Z" fill="#00AC00" stroke="#00AC00" stroke-width="0.000282167" stroke-miterlimit="1.5" stroke-linecap="round" stroke-linejoin="round"/>
<path fill-rule="evenodd" clip-rule="evenodd" d="M247.384 99.7761C247.384 99.7761 248.687 101.617 245.955 105.478C245.955 105.478 237.633 112.664 194.688 127.743C194.688 127.743 192.013 128.715 187.047 133.396C187.047 133.396 183.274 136.211 174.677 138.24C174.677 138.24 170.482 138.553 166.588 137.342C166.588 137.342 171.687 140.078 176.619 140.144C178.975 140.174 181.844 139.915 186.651 137.806C186.651 137.806 188.295 137.109 193.071 133.01C193.071 133.01 194.661 131.541 196.615 130.452C196.615 130.452 213.588 123.028 216.542 122.015C216.542 122.015 245.618 110.626 248.008 108.418C248.008 108.418 253.088 105.264 252.696 98.6355L247.384 99.7761Z" fill="#E2C1A4" stroke="#E2C1A4" stroke-width="0.000282167" stroke-miterlimit="1.5" stroke-linecap="round" stroke-linejoin="round"/>
<path fill-rule="evenodd" clip-rule="evenodd" d="M172.283 24.3537C172.283 24.3537 173.672 35.5378 177.567 43.4182L189.156 49.109L196.836 46.1544L206.007 38.6778L210.864 37.3036C210.864 37.3036 217.311 37.1072 216.573 30.7422C216.573 30.7422 217.291 24.1111 208.487 27.3073L189.19 17.5516L172.283 24.3537Z" fill="#EFD3BA" stroke="#EFD3BA" stroke-width="0.000282167" stroke-miterlimit="1.5" stroke-linecap="round" stroke-linejoin="round"/>
<path fill-rule="evenodd" clip-rule="evenodd" d="M192.217 56.6569C192.217 56.6569 192.9 58.3003 192.266 60.9186C192.266 60.9186 207.116 71.5996 214.332 51.5994C214.332 51.5994 209.653 47.3735 209.961 44.0027L195.951 52.8469L192.217 56.6569Z" fill="#EFD3BA" stroke="#EFD3BA" stroke-width="0.000282167" stroke-miterlimit="1.5" stroke-linecap="round" stroke-linejoin="round"/>
<path fill-rule="evenodd" clip-rule="evenodd" d="M198.861 54.9675C198.861 54.9675 206.146 50.5582 210.438 52.0784L213.307 53.7504L213.356 53.6315L214.209 51.5563C214.209 51.5563 209.399 46.9675 209.698 42.7667L198.861 54.9675Z" fill="#E2C1A4" stroke="#E2C1A4" stroke-width="0.000933973" stroke-miterlimit="1.5" stroke-linecap="round" stroke-linejoin="round"/>
<path fill-rule="evenodd" clip-rule="evenodd" d="M195.501 23.4128C195.501 23.4128 202.316 27.0786 200.467 37.862C198.615 48.6454 205.109 31.1879 205.109 31.1879L200.853 22.5946L195.501 23.4128ZM193.832 40.4528C193.832 40.4528 196.543 43.1336 191.72 47.0467C186.897 50.9597 196.067 45.385 196.067 45.385L197.215 41.618L193.832 40.4528Z" fill="#E2C1A4" stroke="#E2C1A4" stroke-width="0.000933973" stroke-miterlimit="1.5" stroke-linecap="round" stroke-linejoin="round"/>
<path fill-rule="evenodd" clip-rule="evenodd" d="M239.458 56.1621C239.32 55.8684 231.627 55.9301 228.042 61.2341C228.042 61.2341 224.934 64.0523 223.317 72.7985C223.317 72.7985 222.124 82.3858 222.798 89.0943L227.723 90.6703L229.884 89.7114C229.884 89.7114 228.639 83.8258 229.617 73.0362C229.617 73.0362 229.526 68.0534 232.148 61.7083C232.147 61.7906 232.413 61.0169 233.059 60.1564C234.067 58.8158 236.268 56.6913 239.458 56.1621Z" fill="#50B450" stroke="#50B450" stroke-width="0.000282167" stroke-miterlimit="1.5" stroke-linecap="round" stroke-linejoin="round"/>
<path fill-rule="evenodd" clip-rule="evenodd" d="M60.2764 31.4092C60.2764 31.4092 60.6123 23.2365 62.8079 19.7678C62.8079 19.7678 63.1082 18.4452 66.0826 16.9002C66.0826 16.9002 80.2787 10.6765 101.044 13.8603C101.044 13.8603 104.75 15.1713 106.574 19.5104C106.574 19.5104 108.014 22.9897 108.265 24.7112L63.2906 32.549" fill="#3647E8"/>
<path d="M60.2764 31.4092C60.2764 31.4092 60.6123 23.2365 62.8079 19.7678C62.8079 19.7678 63.1082 18.4452 66.0826 16.9002C66.0826 16.9002 80.2787 10.6765 101.044 13.8603C101.044 13.8603 104.75 15.1713 106.574 19.5104C106.574 19.5104 108.014 22.9897 108.265 24.7112L63.2906 32.549" stroke="#3647E8" stroke-width="0.000863431" stroke-miterlimit="1.5" stroke-linecap="round" stroke-linejoin="round"/>
<path fill-rule="evenodd" clip-rule="evenodd" d="M59.7998 31.3419C59.8094 31.4027 60.1358 22.8914 61.9843 20.0053C61.9843 20.0053 63.5586 17.2125 67.9593 16.118C67.9593 16.118 75.3288 25.4858 89.0738 24.0855L66.7306 31.4181C66.7306 31.4181 59.7916 31.2812 59.7998 31.3419Z" fill="#0908CF" stroke="#0908CF" stroke-width="0.000863431" stroke-miterlimit="1.5" stroke-linecap="round" stroke-linejoin="round"/>
<path fill-rule="evenodd" clip-rule="evenodd" d="M85.4326 14.0913C85.4326 14.0913 91.2279 19.843 99.7179 20.4848C99.7179 20.4848 103.324 20.2462 104.415 19.025C104.415 19.025 104.05 16.5354 101.411 14.807C101.411 14.807 89.548 12.8893 85.4326 14.0913Z" fill="#4B58D8" stroke="#3647E8" stroke-width="0.000863431" stroke-miterlimit="1.5" stroke-linecap="round" stroke-linejoin="round"/>
<path fill-rule="evenodd" clip-rule="evenodd" d="M79.8157 37.5261C79.8157 37.5261 71.8647 44.2465 71.8331 48.3484C71.8331 48.3484 68.7503 63.7605 89.0667 66.0119C89.3176 66.0393 83.0355 63.341 80.2174 60.1091C79.6195 59.4257 78.89 58.5251 78.7049 57.8565C78.6624 57.7948 76.0225 52.744 76.8193 46.4595C76.8193 46.4595 76.8604 41.7497 79.8157 37.5261Z" fill="#B9B5B5" stroke="#B9B5B5" stroke-width="0.000863431" stroke-miterlimit="1.5" stroke-linecap="round" stroke-linejoin="round"/>
<path fill-rule="evenodd" clip-rule="evenodd" d="M199.172 24.8599C199.489 25.0709 199.745 25.3166 200.012 25.5569C200.288 25.8258 200.625 26.2545 200.857 26.61C200.881 26.5942 205.417 32.6413 201.103 36.7138C201.005 36.8055 200.698 37.029 200.39 37.1848C200.39 37.1848 197.784 38.3463 193.656 37.7911C193.656 37.7911 184.851 35.4778 178.866 42.0073C178.866 42.0073 176.48 43.9245 178.236 48.6379C178.55 49.481 179.478 53.3211 185.076 55.4913C185.076 55.4913 209.335 61.7427 211.257 37.3345C211.257 37.3345 205.414 32.0159 208.649 27.6022C208.649 27.6022 214.115 24.1885 216.591 29.1729C216.591 29.1729 217.206 30.6849 216.805 33.1934C216.805 33.1934 221.81 32.4898 221.774 26.7898C221.774 26.7898 222.096 25.7452 219.938 22.1938C219.938 22.1938 218.242 19.4032 218.166 15.6481C218.166 15.6481 218.427 9.98077 214.852 6.96995C214.852 6.96995 212.767 4.81455 207.289 4.70118C207.289 4.70118 207.159 4.71615 206.703 4.69946C205.739 4.66403 203.69 4.22541 201.263 2.20338C201.263 2.20338 201.027 1.97103 200.588 1.54818C199.325 0.333679 195.584 -1.39922 189.073 1.9324C189.073 1.9324 188.569 2.22657 187.876 2.73502C186.756 3.55616 184.338 4.30072 180.682 4.41398C180.456 4.42107 180.305 4.46564 180.075 4.44792C180.075 4.44792 179.74 4.39398 179.319 4.28975C178.059 3.97855 175.023 4.36987 172.185 8.70113C172.185 8.70113 171.922 9.15152 171.66 9.85689C171.435 10.4657 171.164 11.2108 171.032 13.2062C171.024 13.3272 171.062 13.501 171.037 13.7335C171.037 13.7335 171.031 13.7988 170.965 13.9792C170.844 14.3117 170.467 14.9459 169.133 16.5509C169.092 16.6001 169.013 16.6866 168.861 16.8201C168.861 16.8201 165.459 18.9249 169.566 23.1759C169.566 23.1759 171.996 26.3833 178.809 22.7532C178.809 22.7532 183.373 20.3771 185.766 20.2861C185.766 20.2861 188.659 19.8692 190.707 21.3954C190.707 21.3954 193.47 23.7679 196.511 24.0341C196.511 24.0341 197.844 23.9526 199.172 24.8599Z" fill="black" stroke="black" stroke-width="0.000282167" stroke-miterlimit="1.5" stroke-linecap="round" stroke-linejoin="round"/>
<path fill-rule="evenodd" clip-rule="evenodd" d="M224.728 88.8678C222.986 89.0712 221.89 88.8072 221.456 93.4837C221.418 93.902 221.347 94.2094 221.323 94.4026C221.323 94.4026 220.764 97.2951 221.768 98.4402C221.862 98.5339 222.279 99.1831 226.85 99.9271C226.85 99.9271 244.074 103.318 256.122 98.2608C256.122 98.2608 258.605 97.4963 258.354 93.9763C258.354 93.9763 258.611 91.5798 257.32 89.0358C257.32 89.0358 256.777 87.6781 252.362 88.2415C252.362 88.2415 251.822 88.3204 250.876 88.389C246.869 88.6792 234.311 89.0621 224.728 88.8678Z" fill="#CDCDCD" stroke="#CDCDCD" stroke-width="0.000282167" stroke-miterlimit="1.5" stroke-linecap="round" stroke-linejoin="round"/>
<path fill-rule="evenodd" clip-rule="evenodd" d="M59.9987 31.1874C59.9987 31.1874 58.8508 32.2492 59.5543 34.7726C59.6641 35.1656 59.8149 35.7939 60.2153 36.2562C60.2153 36.2562 60.3552 36.7372 61.5771 36.5093C61.5771 36.5093 69.694 33.9165 72.5642 32.5434C72.5642 32.5434 74.8132 29.2677 78.7284 31.5125C78.7284 31.5125 79.0836 31.3809 79.8309 31.1445C82.0868 30.4313 88.8406 29.0283 107.621 29.5237C107.621 29.5237 108.752 29.6578 108.898 28.0245C108.898 28.0245 109.003 24.7252 108.085 24.2338C108.085 24.2338 85.2121 19.5036 59.9987 31.1874Z" fill="#736D5A" stroke="#736D5A" stroke-width="0.000863431" stroke-miterlimit="1.5" stroke-linecap="round" stroke-linejoin="round"/>
<path fill-rule="evenodd" clip-rule="evenodd" d="M180.904 91.7162C180.904 91.7162 185.381 93.0545 188.896 92.9242C188.896 92.9242 190.055 100.572 190.059 100.635C190.059 100.635 183.744 101.661 180.194 99.7881C180.194 99.7881 178.858 99.0327 178.931 97.3824C178.931 97.3824 179.227 93.067 179.601 92.5208C179.601 92.5208 179.722 92.1882 179.899 91.9962C180.041 91.8431 180.192 91.6933 180.904 91.7162Z" fill="#CDCDCD" stroke="#CDCDCD" stroke-width="0.000282167" stroke-miterlimit="1.5" stroke-linecap="round" stroke-linejoin="round"/>
<path fill-rule="evenodd" clip-rule="evenodd" d="M182.338 43.3917C182.338 43.3917 182.393 43.227 182.6 43.0241C183.593 42.0526 187.164 39.4374 194.757 41.2852C194.588 41.2407 195.063 41.3754 195.198 41.538C195.659 42.0885 195.872 43.6235 194.511 44.9785C194.362 45.1275 194.023 45.3891 193.599 45.6781C193.454 45.7764 192.923 46.0078 192.7 46.099C192.7 46.099 188.332 47.9582 184.17 46.1143C184.17 46.1143 181.766 45.0722 182.338 43.3917Z" fill="#E2C1A4" stroke="#E2C1A4" stroke-width="0.000282167" stroke-miterlimit="1.5" stroke-linecap="round" stroke-linejoin="round"/>
<path fill-rule="evenodd" clip-rule="evenodd" d="M247.702 88.4909C247.702 88.4909 251.465 88.1571 254.309 87.9069C254.309 87.9069 256.145 87.8726 257.207 88.9388C257.207 88.9388 259.162 92.0074 258.159 96.5125C258.159 96.5125 257.844 98.749 250.452 100.079C250.452 100.079 241.654 101.388 238.255 101.053C238.256 101.043 248.09 99.357 250.046 95.3788C250.046 95.3788 251.786 90.8405 247.702 88.4909Z" fill="#AAAAAA" stroke="#AAAAAA" stroke-width="0.000282167" stroke-miterlimit="1.5" stroke-linecap="round" stroke-linejoin="round"/>
<path fill-rule="evenodd" clip-rule="evenodd" d="M187.471 92.9141C187.472 92.9095 188.279 93.8558 187.579 100.923C187.579 100.923 188.904 100.904 190.142 100.664C190.142 100.664 189.078 92.8913 189.088 92.9004C189.096 92.9095 187.441 92.977 187.471 92.9141Z" fill="#AAAAAA" stroke="#AAAAAA" stroke-width="0.000282167" stroke-miterlimit="1.5" stroke-linecap="round" stroke-linejoin="round"/>
<path fill-rule="evenodd" clip-rule="evenodd" d="M211.334 34.7913C211.334 34.7913 208.999 32.8623 210.047 29.625C210.047 29.625 211.665 28.0032 214.221 29.1145C214.221 29.1145 214.916 30.0454 214.911 31.2176C214.907 32.3991 214.19 33.8256 211.334 34.7913Z" fill="#E6C4A6" stroke="#E2C1A4" stroke-width="0.000282167" stroke-miterlimit="1.5" stroke-linecap="round" stroke-linejoin="round"/>
<path d="M209.778 29.6644C209.778 29.6644 214.024 26.4882 214.773 31.2486" stroke="#C59E7C" stroke-width="0.000863431" stroke-miterlimit="1.5" stroke-linecap="round" stroke-linejoin="round"/>
<path d="M213.13 28.7142C213.13 28.7142 209.339 31.1126 211.283 34.8358" stroke="#C59E7C" stroke-width="0.000863431" stroke-miterlimit="1.5" stroke-linecap="round" stroke-linejoin="round"/>
<path fill-rule="evenodd" clip-rule="evenodd" d="M142.474 111.16C142.545 111.17 155.105 114.161 167.728 107.358C168.71 106.829 169.385 106.15 170.213 105.028C170.213 105.028 168.084 103.807 164.333 102.778C164.333 102.778 159.201 100.598 152.287 101.147C152.287 101.147 147.664 102.947 144.473 105.87C144.473 105.87 142.136 107.39 140.485 109.999C140.485 109.999 141.607 111.056 142.474 111.16Z" fill="#F5E7DA" stroke="#F5E7DA" stroke-width="0.000863431" stroke-miterlimit="1.5" stroke-linecap="round" stroke-linejoin="round"/>
<path fill-rule="evenodd" clip-rule="evenodd" d="M142.9 117.986C142.9 117.986 140.938 121.333 142.536 125.851C142.728 126.395 143.17 127.102 143.78 127.701C143.78 127.701 147.019 130.778 153.163 130.085C153.163 130.085 160.511 128.91 160.497 121.858C160.497 121.858 160.589 119.106 159.752 117.473C159.752 117.473 152.294 119.86 142.9 117.986Z" fill="#4453DF" stroke="#4453DF" stroke-width="0.000863431" stroke-miterlimit="1.5" stroke-linecap="round" stroke-linejoin="round"/>
<path fill-rule="evenodd" clip-rule="evenodd" d="M189.291 61.7523C189.291 61.7523 186.334 64.2723 186.928 71.4391C186.928 71.4391 188.814 92.7326 188.677 92.76C187.973 92.904 186.777 92.8377 185.512 92.5337C184.384 92.2628 184.775 87.4229 184.631 80.4938C184.579 77.9899 184.83 74.8733 184.781 73.9225C184.781 73.9225 184.984 64.0072 189.291 61.7523Z" fill="#019D01" stroke="#019D01" stroke-width="0.000863431" stroke-miterlimit="1.5" stroke-linecap="round" stroke-linejoin="round"/>
<path fill-rule="evenodd" clip-rule="evenodd" d="M99.668 137.262C99.668 137.262 108.397 145.66 124.119 140.181C124.119 140.181 130.965 136 126.793 134.139C126.793 134.139 124.075 132.854 119.858 132.893C119.858 132.893 113.927 131.698 111.977 130.119C111.977 130.119 112.811 130.482 117.75 130.139C117.75 130.139 119.757 129.723 118.776 128.889C118.776 128.889 117.303 126.506 106.854 125.441L103.247 125.383L100.027 133.901L99.668 137.262Z" fill="#EFD3BA" stroke="#EFD3BA" stroke-width="1.693e-05" stroke-miterlimit="1.5" stroke-linecap="round" stroke-linejoin="round"/>
<path fill-rule="evenodd" clip-rule="evenodd" d="M61.0798 50.0354C61.0798 50.0354 8.52026 48.6946 0 159.257C0 159.257 39.133 176.299 75.1922 161.753C75.1922 161.753 84.0182 83.4302 78.8715 63.9002C78.8715 63.9002 62.3195 54.7174 61.0798 50.0354Z" fill="#3647E8" stroke="#3647E8" stroke-width="0.000863431" stroke-miterlimit="1.5" stroke-linecap="round" stroke-linejoin="round"/>
<path fill-rule="evenodd" clip-rule="evenodd" d="M81.8183 98.6364L80.2659 97.0536L79.2607 99.9987L88.0565 113.919C88.0565 113.919 102.488 123.912 106.342 123.013C106.342 123.013 108.28 120.768 108.931 118.128L108.023 116.188L83.9836 100.635L81.8183 98.6364Z" fill="#3647E8" stroke="#3647E8" stroke-width="0.000863431" stroke-miterlimit="1.5" stroke-linecap="round" stroke-linejoin="round"/>
<path fill-rule="evenodd" clip-rule="evenodd" d="M36.9097 62.3456C36.9097 62.3456 31.4117 64.0221 26.609 76.022C26.609 76.022 21.4613 89.6127 30.5329 108.163C30.5329 108.163 39.798 129.789 77.7308 138.083L78.0627 132.862L36.9097 62.3456ZM80.01 98.672C80.01 98.672 83.692 115.842 106.497 122.889C106.497 122.889 106.137 123.367 105.724 123.713C105.724 123.713 83.548 117.507 78.0956 111.435L80.01 98.672Z" fill="#0908CF" stroke="#0908CF" stroke-width="0.000863431" stroke-miterlimit="1.5" stroke-linecap="round" stroke-linejoin="round"/>
<path fill-rule="evenodd" clip-rule="evenodd" d="M31.3771 69.822C31.3771 69.822 35.1312 57.4027 50.3398 59.2747C50.3398 59.2747 56.3011 59.469 57.3858 67.7946C57.3858 67.7946 60.1285 89.7681 66.3324 99.6925C66.3324 99.6925 80.6628 116.191 106.042 124.058C106.042 124.058 106.393 123.745 106.454 125.113C106.454 125.113 101.643 137.764 98.663 138.675C98.663 138.675 66.8439 134.113 47.5327 119.09C47.5327 119.09 20.9426 97.6103 31.3771 69.822Z" fill="#3647E8" stroke="#3647E8" stroke-width="0.000863431" stroke-miterlimit="1.5" stroke-linecap="round" stroke-linejoin="round"/>
<path fill-rule="evenodd" clip-rule="evenodd" d="M47.46 59.085C47.46 59.085 55.6839 57.5559 57.5708 66.3763C57.5708 66.3763 62.1854 94.2343 66.154 98.8948C66.154 98.8948 81.7215 115.653 106 123.532C106 123.532 107.411 124.058 106.614 125.763C106.614 125.763 105.398 128.341 104.73 129.675C104.73 129.675 70.711 117.762 59.9433 101.34C59.9433 101.34 56.6891 95.3006 54.6252 86.7213C53.1496 80.5785 52.6669 73.6231 52.394 68.7352C52.394 68.7352 52.6532 65.1924 51.6288 62.8175C50.7841 60.861 49.2633 59.4016 47.46 59.085ZM73.7526 60.7021C73.7526 60.7021 79.1269 63.8667 79.1159 63.8792C79.1063 63.8918 84.4285 80.0002 78.7868 104.99C78.7868 104.99 77.4497 86.1007 76.8532 82.2893C76.8532 82.2893 75.294 66.0163 73.7526 60.7021ZM81.535 98.2788C81.535 98.2788 99.4954 111.3 108.382 113.063C108.382 113.063 109.676 115.765 108.925 118.042C108.925 118.042 90.8889 111.015 81.535 98.2788Z" fill="#5360D2" stroke="#5360D2" stroke-width="0.000863431" stroke-miterlimit="1.5" stroke-linecap="round" stroke-linejoin="round"/>
<path fill-rule="evenodd" clip-rule="evenodd" d="M75.0014 37.4771C75.0014 37.4771 73.7795 36.3858 74.0894 34.9142C74.0894 34.9142 74.1731 33.1381 76.7567 32.483C76.7567 32.483 79.2374 33.7802 78.5216 35.9777C78.5216 35.9777 77.142 37.2245 75.0014 37.4771Z" fill="#E6C4A6" stroke="#E6C4A6" stroke-width="0.000863431" stroke-miterlimit="1.5" stroke-linecap="round" stroke-linejoin="round"/>
</svg>
