<svg width="345" height="298" viewBox="0 0 345 298" fill="none" xmlns="http://www.w3.org/2000/svg">
<mask id="mask0" mask-type="alpha" maskUnits="userSpaceOnUse" x="0" y="0" width="345" height="298">
<path d="M0 10C0 4.47716 4.47715 0 10 0H335C340.523 0 345 4.47715 345 10V288C345 293.523 340.523 298 335 298H10C4.47715 298 0 293.523 0 288V10Z" fill="#C4C4C4"/>
</mask>
<g mask="url(#mask0)">
<path fill-rule="evenodd" clip-rule="evenodd" d="M249.01 180.545L247.76 182.666C247.76 182.666 247.785 184.283 245.553 187.493C245.553 187.493 241.864 192.079 238.626 194.348C238.626 194.348 236.122 196.189 233.227 196.206C233.227 196.206 230.439 196.315 230.153 195.185C230.153 195.185 229.102 193.485 231.195 190.566C231.195 190.566 233.122 188.587 235.694 185.307C235.694 185.307 238.883 181.485 239.236 180.572C239.236 180.572 235.935 181.563 235.54 181.696C235.54 181.696 234.529 182.008 233.814 181.896C233.814 181.896 233.01 181.611 233.629 180.626C233.629 180.626 236.011 178.287 237.912 177.19C237.912 177.19 241.03 175.681 242.54 174.932L249.01 180.545Z" fill="#EFD3BA" stroke="#EFD3BA" stroke-width="1.56867e-05" stroke-miterlimit="1.5" stroke-linecap="round" stroke-linejoin="round"/>
<path d="M236.818 161.921L237.605 161.623" stroke="#EFD3BA" stroke-width="1.56867e-05" stroke-miterlimit="1.5" stroke-linecap="round" stroke-linejoin="round"/>
<path fill-rule="evenodd" clip-rule="evenodd" d="M275.915 75.5352C275.915 75.5352 273.234 76.6595 270.688 81.8269C269.753 83.7245 269.094 86.5325 267.846 91.3582C267.846 91.3582 266.473 96.3335 264.898 109.952C264.484 113.521 264.175 118.11 263.755 122.568L262.75 137.287C262.75 137.287 260.134 143.496 256.421 150.084C252.697 156.695 247.871 163.692 245.282 167.577L241.12 173.758C241.12 173.758 240.421 180.064 249.558 184.585C249.558 184.585 255.772 177.651 261.917 169.674C268.58 161.024 275.28 151.186 277.045 148.706L277.957 138.643L275.915 75.5352Z" fill="#3647E8" stroke="#3647E8" stroke-width="1.56867e-05" stroke-miterlimit="1.5" stroke-linecap="round" stroke-linejoin="round"/>
<path fill-rule="evenodd" clip-rule="evenodd" d="M301.229 69.6862C301.229 69.6862 306.066 71.2866 310.753 73.8789C312.259 74.7117 312.857 75.1915 313.759 75.7707C316.337 77.4241 318.379 79.0463 319.304 80.6845C322.379 86.1283 317.436 126.298 317.436 126.298L314.933 160.876C314.933 160.876 315.011 169.893 316.173 185.709C316.894 195.523 320.687 219.894 321.32 230.239C321.32 230.239 324.393 264.369 340.333 300.888L345 313.683L247.519 314.182C247.519 314.182 254.538 284.526 264.02 215.148C264.02 215.148 269.139 182.387 269.561 167.969C269.561 167.969 270.991 146.393 270.308 139.515C269.991 136.327 269.312 133.063 268.976 130.203C268.976 130.203 268.4 128.622 267.569 119.541C267.569 119.541 267.321 113.689 267.773 110.583C267.979 109.172 268.177 107.16 268.77 104.546C269.586 100.946 269.854 99.6194 271.315 93.1222C271.315 93.1222 273.614 79.3624 274.344 76.7162L280.99 69.1411L301.229 69.6862Z" fill="#CDCDCD" stroke="#CDCDCD" stroke-width="1.56867e-05" stroke-miterlimit="1.5" stroke-linecap="round" stroke-linejoin="round"/>
<path fill-rule="evenodd" clip-rule="evenodd" d="M314.865 164.963L315.058 169.891C315.058 169.891 299.865 180.836 298.9 181.498C298.9 181.498 297.449 183.058 295.265 181.604C295.265 181.604 294.187 181.068 292.056 183.988C292.056 183.988 287.064 190.713 277.614 189.12C277.614 189.12 275.946 188.857 275.04 188.077C274.113 187.279 273.507 185.705 273.802 184.88L284.011 176.355L278.183 175.038C278.183 175.038 278.02 174.995 277.875 174.913C277.711 174.82 277.558 174.68 277.475 174.561C277.258 174.25 277.143 173.984 277.104 173.464C277.104 173.464 277.062 172.588 277.456 172.168L290.595 171.231L314.024 162.965L314.865 164.963Z" fill="#B2B2B2" stroke="#B2B2B2" stroke-width="1.56867e-05" stroke-miterlimit="1.5" stroke-linecap="round" stroke-linejoin="round"/>
<path fill-rule="evenodd" clip-rule="evenodd" d="M305.73 28.0766C305.73 28.0766 301.031 20.2124 291.762 18.3081C291.762 18.3081 283.617 15.9396 276.621 24.3318C276.621 24.3318 274.714 26.7557 273.727 32.5258C273.592 33.3163 273.474 34.0673 273.4 35.4834C273.373 35.9983 273.372 37.0223 273.35 37.5719C273.35 37.5719 273.485 39.6716 273.9 43.7648C273.9 43.7648 274.604 48.0238 274.545 49.6957C274.545 49.6957 274.325 53.605 274.828 57.0704C274.828 57.0704 274.792 59.345 276.898 64.7035C276.898 64.7035 279.493 70.6149 282.47 73.705C282.47 73.705 284.424 75.365 287.268 76.2858C289.307 76.9455 291.896 77.0695 294.124 76.6511C294.124 76.6511 298.001 75.329 301.401 72.5835C304.494 70.0868 307.048 66.3368 308.699 62.785C308.699 62.785 309.859 60.1194 310.485 57.0839C311.936 50.0509 312.767 37.6993 305.73 28.0766Z" fill="#3647E8" stroke="#3647E8" stroke-width="1.56867e-05" stroke-miterlimit="1.5" stroke-linecap="round" stroke-linejoin="round"/>
<path fill-rule="evenodd" clip-rule="evenodd" d="M282.036 73.2799C282.036 73.2799 293.197 75.0838 299.104 65.8364C299.104 65.8364 296.235 74.3229 285.015 75.381C285.015 75.381 283.374 74.6996 282.036 73.2799Z" fill="#071EF4" stroke="#182CF2" stroke-width="1.56867e-05" stroke-miterlimit="1.5" stroke-linecap="round" stroke-linejoin="round"/>
<path fill-rule="evenodd" clip-rule="evenodd" d="M302.354 38.6177C302.354 38.6177 299.82 56.7062 298.388 58.9606C298.388 58.9606 297.355 60.9396 297.317 61.0569C297.317 61.0569 302.249 58.6379 302.354 38.6177Z" fill="#071EF4" stroke="#182CF2" stroke-width="1.56867e-05" stroke-miterlimit="1.5" stroke-linecap="round" stroke-linejoin="round"/>
<path fill-rule="evenodd" clip-rule="evenodd" d="M309.651 50.6233C309.651 50.6233 310.024 39.7004 297.078 22.4297C296.972 22.5905 311.364 28.7747 309.651 50.6233Z" fill="#5C6AEE" stroke="#5360E0" stroke-width="1.56867e-05" stroke-miterlimit="1.5" stroke-linecap="round" stroke-linejoin="round"/>
<path fill-rule="evenodd" clip-rule="evenodd" d="M270.126 82.9558C270.126 82.9558 264.39 93.0777 262.705 137.214C262.705 137.214 247.25 167.122 240.951 173.049C240.951 173.049 240.905 175.155 241.619 176.907C241.619 176.907 251.384 162.807 258.58 151.125C261.754 145.974 264.841 141.411 265.67 138.534C265.67 138.534 265.964 135.989 266.007 131.006C266.007 131.006 265.421 98.6823 270.126 82.9558Z" fill="#5C6AEE" stroke="#5360E0" stroke-width="1.56867e-05" stroke-miterlimit="1.5" stroke-linecap="round" stroke-linejoin="round"/>
<path fill-rule="evenodd" clip-rule="evenodd" d="M295.883 35.6702C295.883 35.6702 301.507 42.7169 300.259 52.2049C300.259 52.2049 300.046 53.7275 299.555 55.6698C298.902 58.2589 297.584 61.797 293.956 65.4316C293.956 65.4316 292.612 66.6597 290.738 67.5645C289.044 68.3822 286.884 68.8885 285.483 68.8318C285.483 68.8318 285.06 68.7125 284.701 68.4863C283.461 67.7046 280.686 65.5416 278.721 61.7212C278.721 61.7212 277.935 60.2416 277.368 58.3535C276.876 56.7143 276.46 54.9564 276.409 52.7294C276.409 52.7294 276.435 51.7819 276.513 50.7806C276.562 50.1592 276.657 49.5601 276.695 49.0238C276.695 49.0238 275.884 45.4803 276.017 42.1284C276.017 42.1284 276.066 39.5021 276.674 37.572C277.703 34.3068 279.762 30.2097 283.183 29.5422C283.183 29.5422 290.7 30.2766 295.883 35.6702Z" fill="#EFD3BA" stroke="#EFD3BA" stroke-width="1.56867e-05" stroke-miterlimit="1.5" stroke-linecap="round" stroke-linejoin="round"/>
<path fill-rule="evenodd" clip-rule="evenodd" d="M293.498 176.239C293.602 176.11 290.541 182.576 285.769 185.447C285.769 185.447 281 187.413 276.395 187.139C276.395 187.139 273.495 186.726 273.704 184.778C273.704 184.778 274.898 182.601 278.081 180.133C278.081 180.133 282.021 175.983 284.085 174.885C284.085 174.885 282.665 174.535 281.694 174.507C281.694 174.507 280.104 174.285 279.152 174.225C279.152 174.225 278.188 174.231 277.563 173.737C277.563 173.737 277.247 173.522 277.222 172.81C277.191 171.931 278.51 170.953 279.257 170.599C279.257 170.599 280.378 169.863 284.268 168.874C284.268 168.874 284.474 168.843 284.839 168.8C285.814 168.685 287.923 168.48 290.271 168.516C290.271 168.516 291.942 168.001 293.243 166.578C293.243 166.578 295.574 171.429 296.328 172.408C296.328 172.408 293.394 176.367 293.498 176.239Z" fill="#EFD3BA" stroke="#EFD3BA" stroke-width="1.53251e-05" stroke-miterlimit="1.5" stroke-linecap="round" stroke-linejoin="round"/>
<path fill-rule="evenodd" clip-rule="evenodd" d="M310.075 105.153C310.075 105.153 309.32 93.9063 311.884 88.0793C314.001 83.2677 318.837 79.906 319.277 80.4285C319.277 80.4285 323.412 84.8851 325.901 95.2105C325.901 95.2105 329.76 116.3 330.052 131.413C330.052 131.413 330.623 143.963 330.251 148.238C330.251 148.238 331.141 152.271 321.462 160.646C321.462 160.646 309.49 169.718 302.678 174.447C301.064 175.567 299.997 176.273 299.076 176.844C299.076 176.844 296.634 178.399 296.538 178.52C296.538 178.52 291.837 172.677 289.439 165.723C289.439 165.723 307.326 147.416 314.115 142.903C314.115 142.903 310.894 113.736 310.075 105.153Z" fill="#3647E8" stroke="#00AC00" stroke-width="1.56867e-05" stroke-miterlimit="1.5" stroke-linecap="round" stroke-linejoin="round"/>
<path fill-rule="evenodd" clip-rule="evenodd" d="M312.893 85.95C312.893 85.95 312.012 87.0516 311.153 89.6353C310.943 90.2675 310.782 91.0293 310.559 91.8281C309.546 95.4633 308.768 102.188 309.766 109.905C309.766 109.905 313.595 140.298 313.859 142.537C313.859 142.537 294.219 158.398 289.13 164.688C289.13 164.688 289.076 165.503 289.811 166.938L313.894 148.216L315.024 147.226L315.996 146.132L316.454 145.152C316.454 145.152 316.865 143.705 316.585 140.932C315.355 128.729 310.382 91.9086 312.893 85.95Z" fill="#5C6AEE" stroke="#5360E0" stroke-width="1.56867e-05" stroke-miterlimit="1.5" stroke-linecap="round" stroke-linejoin="round"/>
<path fill-rule="evenodd" clip-rule="evenodd" d="M139.812 151.79C139.812 151.79 134.455 150.167 131.762 149.901C131.762 149.901 130.391 149.668 129.519 150.424C129.519 150.424 129.484 151.815 132.024 152.654C132.024 152.654 134.424 153.215 134.987 153.44C134.987 153.44 128.498 156.395 124.593 156.445C124.593 156.445 121.261 156.18 120.34 157.195C120.34 157.195 118.782 159.93 121.144 162.158C121.144 162.158 131.862 167.972 140.82 162.362L144.148 156.365L139.812 151.79Z" fill="#FFE4CB" stroke="#FFE4CB" stroke-width="1.54507e-05" stroke-miterlimit="1.5" stroke-linecap="round" stroke-linejoin="round"/>
<path fill-rule="evenodd" clip-rule="evenodd" d="M212.706 60.8853C212.706 60.8853 228.411 71.9147 236.566 97.0369C236.566 97.0369 240.211 111.753 245.431 120.952C246.472 122.787 248.299 125.569 249.4 126.752C249.4 126.752 250.872 128.476 253.048 130.883C254.327 132.299 255.514 133.62 257.302 134.768C257.302 134.768 257.622 143.517 250.11 149.629C250.11 149.629 248.129 151.05 244.134 154.871C244.134 154.871 240.987 158.066 239.333 162.185C238.465 164.346 237.472 165.286 237.096 165.621C237.096 165.621 230.55 172.879 222.796 172.673L215.72 168.691L216.46 82.0636L211.414 69.0317L211.277 61.5881L212.706 60.8853Z" fill="#00AC00" stroke="#149B14" stroke-width="1.58278e-05" stroke-miterlimit="1.5" stroke-linecap="round" stroke-linejoin="round"/>
<path fill-rule="evenodd" clip-rule="evenodd" d="M193.578 66.3532C193.578 66.3532 186.502 73.0711 181.177 81.0286C181.177 81.0286 176.078 84.8301 172.392 112.961C172.392 112.961 168.948 125.832 167.48 132.052C167.48 132.052 156.467 138.989 146.481 144.048L137.902 148.144C137.902 148.144 136.02 157.938 139.596 165.028C139.596 165.028 161.054 160.659 171.522 151.412C173.052 150.06 174.099 148.536 174.738 146.791C174.738 146.791 171.786 180.334 163.517 220.855C163.517 220.855 146.37 286.692 142.083 298.156L234.029 301.517C234.029 301.517 224.389 275.526 222.383 250.73C222.383 250.73 220.65 219.487 222.209 201.315C222.209 201.315 223.358 174.118 223.388 162.152C223.388 162.152 223.774 150.67 221.755 139.839L225.622 79.7413C225.622 79.7413 222.515 73.3958 212.072 64.2935L193.578 66.3532Z" fill="#246A36" stroke="#736D5A" stroke-width="1.58278e-05" stroke-miterlimit="1.5" stroke-linecap="round" stroke-linejoin="round"/>
<path fill-rule="evenodd" clip-rule="evenodd" d="M185.785 23.272C185.785 23.272 187.503 17.2051 193.008 13.9302C195.954 12.1772 199.653 10.9391 205.384 12.2627C205.384 12.2627 212.778 13.0764 218.67 30.0852C218.67 30.0852 220.204 35.5718 220.229 41.6748C220.26 49.1539 218.481 57.9512 214.452 63.548C214.452 63.548 207.747 72.5654 196.801 69.3454C195.533 68.972 194.525 68.4344 192.922 67.298C192.922 67.298 190.155 64.9078 188.049 61.4099C186.048 58.0887 185.043 54.5956 184.312 51.4807C184.312 51.4807 184.025 50.3259 183.753 48.4974C183.645 47.7681 183.549 46.9129 183.464 45.8888C183.286 43.7341 183.063 42.3982 183.597 39.3283C183.715 38.6485 183.98 38.0621 184.306 37.0324C184.518 36.3607 184.847 35.6135 184.9 35.1002C184.9 35.1002 184.216 27.6139 185.785 23.272Z" fill="#00AC00" stroke="#00AC00" stroke-width="1.58278e-05" stroke-miterlimit="1.5" stroke-linecap="round" stroke-linejoin="round"/>
<path fill-rule="evenodd" clip-rule="evenodd" d="M195.684 20.9297C195.684 20.9297 191.494 22.0065 188.751 25.9702C188.246 26.6987 187.809 27.2686 187.453 28.7473C187.453 28.7473 186.797 32.808 186.936 34.7731C186.936 34.7731 186.906 35.9684 186.69 36.863C186.69 36.863 186.535 37.4294 186.373 37.8227C186.125 38.4214 185.81 39.2754 185.653 40.5283C185.653 40.5283 185.375 43.2067 185.74 45.6424C185.802 46.0541 185.965 46.8598 186.062 47.216C186.062 47.216 187.804 53.0466 191.107 56.6066C191.107 56.6066 193 59.2709 194.838 59.7932C194.838 59.7932 197.056 60.8522 202.45 56.026C202.45 56.026 206.989 52.0181 208.411 45.8291C208.411 45.8291 209.23 38.8198 208.329 33.3906C208.09 31.9535 207.625 29.8408 207.151 28.672C207.151 28.672 203.462 18.5965 195.684 20.9297Z" fill="#FFE4CB" stroke="#FFE6CE" stroke-width="1.58278e-05" stroke-miterlimit="1.5" stroke-linecap="round" stroke-linejoin="round"/>
<path fill-rule="evenodd" clip-rule="evenodd" d="M169.558 124.656L168.972 127.039C168.972 127.039 175.296 130.343 175.449 130.371C175.602 130.399 175.895 131.336 176.218 132.807C176.218 132.807 176.43 134.14 177.749 135.009C177.749 135.009 210.052 154.364 215.697 155.281C215.697 155.281 221.158 156.093 223.575 154.789L223.449 151.976L223.22 148.681L189.706 128.681L173.181 123.987L169.558 124.656Z" fill="#145C27" stroke="#676356" stroke-width="1.58278e-05" stroke-miterlimit="1.5" stroke-linecap="round" stroke-linejoin="round"/>
<path fill-rule="evenodd" clip-rule="evenodd" d="M184.74 89.6592C184.74 89.6592 183.015 114.644 183.476 122.499L181.031 126.597L180.345 120.6C180.345 120.6 183.196 95.3064 184.74 89.6592Z" fill="#145C27" stroke="#676356" stroke-width="1.66643e-05" stroke-miterlimit="1.5" stroke-linecap="round" stroke-linejoin="round"/>
<path fill-rule="evenodd" clip-rule="evenodd" d="M182.928 128.655C182.928 128.655 182.062 128.499 180.229 128.221C180.229 128.221 179.219 128.213 177.734 128.029C176.755 127.909 175.316 127.437 174.281 127.128C174.065 127.063 173.839 126.983 173.637 126.875C173.637 126.875 169.176 125.046 167.606 123.714C167.606 123.714 163.122 120.245 162.518 118.633C162.518 118.633 161.682 117.44 161.496 116.645C161.383 116.161 161.81 116.056 161.946 115.788C161.946 115.788 163.337 117.043 163.913 117.543C163.913 117.543 167.418 121.077 169.754 121.968C169.754 121.968 166.588 118.878 165.441 117.005C165.441 117.005 162.593 113.684 162.484 112.423C162.484 112.423 162.274 111.358 162.799 111.287C162.799 111.287 163.057 111.341 163.589 111.856C164.237 112.482 165.228 113.641 165.845 114.32C165.845 114.32 168.192 116.918 169.408 117.697C169.408 117.697 170.345 118.445 171.365 118.885C171.365 118.885 168.93 116.112 167.64 114.234C167.64 114.234 165.082 110.853 164.671 109.366C164.671 109.366 164.118 107.69 164.582 107.423C164.582 107.423 164.7 106.482 166.304 108.777C166.304 108.777 168.137 111.152 168.829 112.027C169.21 112.507 169.56 112.817 169.988 113.253C169.988 113.253 171.653 115.069 172.75 115.682C172.75 115.682 170.502 112.891 169.764 111.504C169.764 111.504 167.719 108.737 167.478 107.477C167.478 107.477 167.364 106.699 167.671 106.482C167.671 106.482 168.465 106.633 170.201 109.354C170.201 109.354 170.989 110.174 171.649 110.846C172.061 111.267 172.399 111.679 173.104 112.353C173.104 112.353 175.356 114.405 176.866 115.064C176.866 115.064 175.011 111.356 173.766 108.895C173.766 108.895 173.414 108.518 173.114 107.44C173.114 107.44 172.671 106.24 173.141 105.915C173.141 105.915 173.453 105.309 175.419 107.537C175.419 107.537 176.908 109.111 179.163 112.695C179.163 112.695 181.774 115.988 183.89 118.904L186.07 122.355L182.928 128.655Z" fill="#FFE4CB" stroke="#EFD3BA" stroke-width="1.55326e-05" stroke-miterlimit="1.5" stroke-linecap="round" stroke-linejoin="round"/>
<path fill-rule="evenodd" clip-rule="evenodd" d="M224.156 77.1145C224.156 77.1145 218.167 74.943 214.058 81.4317C214.058 81.4317 213.604 82.2042 212.911 84.1084C211.737 87.336 210.102 93.7359 210.467 104.549C210.467 104.549 210.963 122.561 211.465 127.728L184.477 114.975C184.477 114.975 179.293 120.011 178.391 131.044C178.391 131.044 200.504 143.864 208.436 147.561C208.436 147.561 212.837 149.998 216.588 150.582C216.588 150.582 222.822 150.847 226.149 148.805C226.149 148.805 228.86 147.346 230.191 135.412C230.191 135.412 233.696 84.2344 224.156 77.1145Z" fill="#246A36" stroke="#006912" stroke-width="1.58278e-05" stroke-miterlimit="1.5" stroke-linecap="round" stroke-linejoin="round"/>
<path fill-rule="evenodd" clip-rule="evenodd" d="M177.406 131.692C177.619 132.554 174.975 146.705 174.975 146.705C174.975 146.705 174.363 147.999 173.848 148.862C173.848 148.862 174.452 144.486 175.058 139.674C175.263 138.047 175.876 135.296 175.663 132.931C175.399 130.017 174.16 128.717 174.886 128.554C176.405 128.212 177.228 130.973 177.406 131.692Z" fill="#145C27" stroke="#006912" stroke-width="1.58278e-05" stroke-miterlimit="1.5" stroke-linecap="round" stroke-linejoin="round"/>
<path fill-rule="evenodd" clip-rule="evenodd" d="M167.809 132.033C167.896 131.944 138.131 148.085 138.131 148.085C138.131 148.085 137.734 149.401 137.705 151.717C137.705 151.717 162.435 137.572 167.809 132.033Z" fill="#579266" stroke="#8B846D" stroke-width="1.58278e-05" stroke-miterlimit="1.5" stroke-linecap="round" stroke-linejoin="round"/>
<path fill-rule="evenodd" clip-rule="evenodd" d="M223.678 77.1274C223.678 77.1274 217.344 76.2813 214.01 81.4828C213.534 82.2257 212.915 83.3898 212.505 84.4555C212.505 84.4555 208.895 90.5766 211.106 116.047L211.491 127.426C211.491 127.426 184.74 114.581 184.818 114.667C184.896 114.752 182.784 116.731 181.971 118.912L212.12 131.967C212.12 131.967 212.889 132.194 213.748 131.919C213.748 131.919 214.469 131.614 214.671 130.681C214.792 130.126 214.795 129.132 214.761 128.25C214.761 128.25 213.883 116.25 213.499 106.011C213.297 100.63 213.404 95.1182 213.474 93.4251C213.474 93.4251 213.474 91.1763 213.811 88.4853C214.404 83.7384 216.383 77.2983 223.678 77.1274Z" fill="#579266" stroke="#8B846D" stroke-width="1.58278e-05" stroke-miterlimit="1.5" stroke-linecap="round" stroke-linejoin="round"/>
<path fill-rule="evenodd" clip-rule="evenodd" d="M211.237 28.5139C211.237 28.5139 210.082 42.3256 208.662 46.1385C208.662 46.1385 208.947 42.7277 208.957 42.1464C208.957 42.1464 211.048 31.4798 211.237 28.5139Z" fill="#149B14" stroke="#149B14" stroke-width="1.58278e-05" stroke-miterlimit="1.5" stroke-linecap="round" stroke-linejoin="round"/>
<path fill-rule="evenodd" clip-rule="evenodd" d="M191.749 65.6938C191.749 65.6938 198.581 68.8565 205.813 64.8076C205.813 64.8076 199.159 69.5565 193.345 67.2923L191.749 65.6938Z" fill="#149B14" stroke="#149B14" stroke-width="1.58278e-05" stroke-miterlimit="1.5" stroke-linecap="round" stroke-linejoin="round"/>
<path d="M189.461 64.8086C189.461 64.8086 189.787 68.5376 189.541 68.6799" stroke="#149B14" stroke-width="1.58278e-05" stroke-miterlimit="1.5" stroke-linecap="round" stroke-linejoin="round"/>
<path fill-rule="evenodd" clip-rule="evenodd" d="M176.746 135.026C176.746 135.026 171.574 177.065 164.851 210.186C158.174 243.072 149.219 276.359 142.283 293.137L143.003 293.164L150.429 292.884C150.429 292.884 156.121 268.362 165.291 226.27C165.291 226.27 176.697 156.563 176.746 135.026Z" fill="#579266" stroke="#579266" stroke-width="0.000853652" stroke-miterlimit="1.5" stroke-linecap="round" stroke-linejoin="round"/>
<path fill-rule="evenodd" clip-rule="evenodd" d="M110.387 142.844C110.387 142.844 126.429 138.308 141.408 142.41L133.908 149.603L118.62 150.746L110.387 142.844Z" fill="#0004B7" stroke="#2328FF" stroke-width="0.000250258" stroke-miterlimit="1.5" stroke-linecap="round" stroke-linejoin="round"/>
<path fill-rule="evenodd" clip-rule="evenodd" d="M110.386 142.835C110.386 142.835 112.02 149.166 116.126 153.287C120.293 157.47 127.122 160.328 134.23 153.771C136.403 151.767 138.12 149.173 140.293 145.197C140.66 144.525 141.221 143.408 141.587 142.447C141.587 142.447 126.646 149.944 110.386 142.835Z" fill="#2328FF" stroke="#0006FF" stroke-width="0.00024925" stroke-miterlimit="1.5" stroke-linecap="round" stroke-linejoin="round"/>
<path fill-rule="evenodd" clip-rule="evenodd" d="M29.843 159.277C29.843 159.277 28.095 194.851 25.1955 212.902C25.1955 212.902 11.3433 260.285 9.30157 279.391L5.28027 298.633L56.9818 319.696L85.1173 290.262C85.1173 290.262 86.3241 229.059 84.6057 209.738C84.6057 209.738 76.1729 164.217 73.105 149.962L42.0906 139.714L29.843 159.277Z" fill="#A8A8A8"/>
<path fill-rule="evenodd" clip-rule="evenodd" d="M75.6742 168.115C75.6742 168.115 83.1341 205.845 84.5106 220.952C84.5106 220.952 86.2778 238.593 85.3863 298.055L73.1039 300.609C73.1039 300.609 78.6101 242.909 77.9437 224.823C77.9437 224.823 78.8201 208.555 75.7701 192.12C75.7701 192.12 72.8878 175.82 71.3262 168.305L75.6742 168.115Z" fill="#C6C6C6"/>
<path fill-rule="evenodd" clip-rule="evenodd" d="M29.6309 165.724C29.6309 165.724 29.4103 170.333 29.3498 170.394C29.2894 170.455 42.7851 178.005 61.7893 174.676C61.7893 174.676 63.6244 176.631 65.6749 177.515C65.6749 177.515 68.6048 178.045 72.1685 175.547C72.1685 175.547 75.4467 172.386 76.1984 171.663L75.8244 168.445L66.6019 157.074L29.6309 165.724Z" fill="#A0A0A0"/>
<path fill-rule="evenodd" clip-rule="evenodd" d="M72.9512 171.608C72.9512 171.608 77.9776 179.009 83.3425 180.656C83.3425 180.656 84.7001 181.107 87.0257 180.975C87.5034 180.949 87.9497 180.782 88.5089 180.38C88.5089 180.38 89.152 179.998 89.2276 178.317C89.2276 178.317 89.1096 176.755 88.0524 175.179C88.0524 175.179 85.697 172.48 83.8168 170.453C83.8168 170.453 81.027 166.678 80.198 165.32L72.9512 171.608Z" fill="#FFE7D2"/>
<path d="M82.7305 174.092C82.7305 174.092 86.3373 178.155 89.0481 179.375" stroke="#F3D3B4" stroke-width="0.000661582" stroke-miterlimit="1.5" stroke-linecap="round" stroke-linejoin="round"/>
<path fill-rule="evenodd" clip-rule="evenodd" d="M72.9512 171.608C72.9512 171.608 77.9776 179.009 83.3425 180.656C83.3425 180.656 84.7001 181.107 87.0257 180.975C87.5034 180.949 87.9497 180.782 88.5089 180.38C88.5089 180.38 89.152 179.998 89.2276 178.317C89.2276 178.317 89.1096 176.755 88.0524 175.179C88.0524 175.179 85.697 172.48 83.8168 170.453C83.8168 170.453 81.027 166.678 80.198 165.32L72.9512 171.608Z" stroke="#FFE7D2" stroke-width="0.000225406" stroke-miterlimit="1.5" stroke-linecap="round" stroke-linejoin="round"/>
<path d="M81.1064 175.635C81.1064 175.635 83.7832 179.05 87.9287 180.476" stroke="#F3D3B4" stroke-width="0.000661583" stroke-miterlimit="1.5" stroke-linecap="round" stroke-linejoin="round"/>
<path d="M84.6885 173.679C84.6885 173.679 87.3562 176.538 88.9027 177.497" stroke="#F3D3B4" stroke-width="0.000661583" stroke-miterlimit="1.5" stroke-linecap="round" stroke-linejoin="round"/>
<path fill-rule="evenodd" clip-rule="evenodd" d="M73.3079 170.568C72.9294 170.435 76.3534 174.929 80.5261 177.633C80.5261 177.633 80.8699 177.837 81.2053 177.841C81.7161 177.848 82.2479 177.542 81.8316 176.527L80.1552 173.426C80.1552 173.426 77.968 171.042 77.6265 167.279L76.7274 166.874C76.7274 166.874 73.6865 170.701 73.3079 170.568Z" fill="#F1D3B7" stroke="#F1D3B7" stroke-width="0.000226569" stroke-miterlimit="1.5" stroke-linecap="round" stroke-linejoin="round"/>
<path fill-rule="evenodd" clip-rule="evenodd" d="M72.3794 179.719C72.3794 179.719 87.6765 172.949 91.5821 170.623L100.903 165.517C100.903 165.517 102.146 167.117 104.364 167.213C104.364 167.213 106.329 167.615 107.969 166.851C108.413 166.645 110.199 165.549 110.618 165.087C111.232 164.411 112.72 162.604 113.108 160.556C113.387 159.075 113.608 157.765 113.184 156.305C113.103 156.026 112.913 155.543 112.667 155.21C112.667 155.21 110.86 153.657 109.026 153.739C105.238 153.91 103.377 155.851 102.455 156.63C101.858 157.135 99.6711 160.391 99.5128 161.207L71.7777 177.499C71.7777 177.499 71.1309 177.86 70.7526 178.412C70.707 178.478 70.657 178.547 70.6024 178.637C70.5296 178.756 70.4693 178.961 70.4471 179.068C70.426 179.169 70.4464 179.337 70.5109 179.482C70.5476 179.565 70.6096 179.633 70.6568 179.696C70.6568 179.696 70.8689 180.006 71.8301 179.88C71.9925 179.859 72.1767 179.776 72.3794 179.719Z" fill="#808080" stroke="#949494" stroke-opacity="0.42" stroke-width="0.000225413" stroke-miterlimit="1.5" stroke-linecap="round" stroke-linejoin="round"/>
<path fill-rule="evenodd" clip-rule="evenodd" d="M70.6982 179.56C70.6982 179.56 71.3042 180.368 72.6671 179.706C72.6671 179.706 79.3473 176.841 80.4156 176.212L101.104 165.85C101.104 165.85 105.303 169.366 109.834 166.073C109.834 166.073 114.637 162.093 113.567 156.818C113.459 156.286 113.262 155.82 113 155.329C113 155.329 112.906 160.996 109.634 163.91C109.634 163.91 106.157 167.869 101.505 164.781L73.3977 178.909C73.3977 178.909 71.0805 180.117 70.6982 179.56Z" fill="#646363"/>
<path fill-rule="evenodd" clip-rule="evenodd" d="M72.9473 168.494C72.9473 168.494 73.4376 170.272 76.7422 173.506C76.7422 173.506 77.2114 174.14 79.0843 175.84C79.0843 175.84 81.4899 177.689 81.953 177.072C81.953 177.072 82.1426 176.274 80.9345 174.609C80.9345 174.609 79.2943 172.255 78.4331 170.704C78.4331 170.704 77.265 166.21 76.5571 165.177C75.8492 164.144 72.9473 168.494 72.9473 168.494Z" fill="#FFE7D2" stroke="#FFE7D2" stroke-opacity="0.42" stroke-width="0.000226569" stroke-miterlimit="1.5" stroke-linecap="round" stroke-linejoin="round"/>
<path fill-rule="evenodd" clip-rule="evenodd" d="M112.008 117C112.008 117 113.645 116.513 115.851 114.677C115.851 114.677 116.602 113.613 117.984 113.261C117.984 113.261 118.526 113.202 118.632 113.66C118.632 113.66 118.93 114.061 117.781 115.235C117.781 115.235 116.592 116.461 116.209 116.851C116.209 116.851 118.719 117.556 121.261 116.656C121.261 116.656 123.053 115.806 124.224 115.492C124.224 115.492 126.436 114.75 127.203 115.285C127.203 115.285 128.033 116.074 128.059 117.908C128.069 118.652 127.893 119.925 127.449 120.707C127.449 120.707 125.965 123.594 121.821 124.875C121.821 124.875 116.187 126.545 112.26 124.214L112.008 117Z" fill="#FFE2C6" stroke="#FFE2C6" stroke-width="0.000661583" stroke-miterlimit="1.5" stroke-linecap="round" stroke-linejoin="round"/>
<path fill-rule="evenodd" clip-rule="evenodd" d="M100.933 160.473C100.933 160.473 107.12 162.281 110.89 155.199C110.89 155.199 105.55 152.663 100.933 160.473Z" fill="#949494" stroke="#808080" stroke-width="0.000661583" stroke-miterlimit="1.5" stroke-linecap="round" stroke-linejoin="round"/>
<path fill-rule="evenodd" clip-rule="evenodd" d="M65.5332 71.6018C65.5332 71.6018 83.5363 97.6842 87.3048 102.495L88.6474 104.293C88.6474 104.293 111.301 113.522 112.534 113.993C112.534 113.993 114.592 120.714 112.207 126.064C112.207 126.064 92.9168 123.209 85.2604 120.014C85.2604 120.014 76.4496 114.746 72.7113 111.592L68.1004 106.98L65.4932 86.3479L65.5332 71.6018Z" fill="#EDB666"/>
<path fill-rule="evenodd" clip-rule="evenodd" d="M72.7364 112.018C72.7364 112.018 82.1516 118.902 84.6599 120.258C84.6599 120.258 105.715 125.948 111.629 125.908C111.629 125.908 112.183 125.556 112.645 124.435C112.645 124.435 93.881 119.488 93.0575 119.225C92.2332 118.961 76.6666 111.547 72.8067 105.634L70.0332 104.7L72.7364 112.018Z" fill="#E0AB5F"/>
<path fill-rule="evenodd" clip-rule="evenodd" d="M31.2153 76.447C31.2153 76.447 25.7091 137.784 19.2744 160.018C19.2744 160.018 50.8821 187.704 82.8304 156.088C82.8304 156.088 75.8578 134.474 73.3865 114.745C73.3865 114.745 72.8003 104.345 72.8652 99.5395C72.8652 99.5395 72.6915 86.8473 68.0549 77.7618L63.8225 69.1888L68.0549 77.7618L63.8225 69.1888L49.1867 64.0713C49.1867 64.0713 42.7323 64.0273 40.283 66.6807L31.2153 76.447Z" fill="#EDB666" stroke="#EDB666" stroke-width="0.000226569" stroke-miterlimit="1.5" stroke-linecap="round" stroke-linejoin="round"/>
<path fill-rule="evenodd" clip-rule="evenodd" d="M30.9364 80.4634L30.0146 86.9701C30.0146 86.9701 30.0645 99.4682 36.0081 124.926C36.0081 124.926 40.1038 140.358 45.922 149.718C45.922 149.718 57.7072 166.611 60.7346 169.42C60.7346 169.42 61.7047 169.855 65.6046 167.847L67.4851 163.047L42.0326 122.25L36.6088 90.8942L30.9364 80.4634Z" fill="#DEA758"/>
<path fill-rule="evenodd" clip-rule="evenodd" d="M30.7059 79.0615C30.7059 79.0615 31.7349 98.8284 38.7159 124.166C38.7159 124.166 41.6828 133.695 44.6444 139.426C44.6444 139.426 60.0357 161.932 69.571 172.993C69.571 172.993 77.0922 170.841 80.3892 164.401C80.3892 164.401 62.9565 130.539 58.9085 122.627C58.9085 122.627 52.0273 92.6822 51.5347 86.3026C51.5347 86.3026 49.3815 71.6483 47.2532 68.0541C47.2532 68.0541 43.6229 64.9131 38.9493 64.5038C36.9329 64.3279 34.6792 65.3271 32.8675 68.2166C32.8675 68.2166 30.3939 71.3653 30.7059 79.0615Z" fill="#EDB666" stroke="#EDB666" stroke-width="0.000226569" stroke-miterlimit="1.5" stroke-linecap="round" stroke-linejoin="round"/>
<path fill-rule="evenodd" clip-rule="evenodd" d="M42.7966 64.5914C42.7966 64.5914 45.3132 65.4692 47.0365 67.7487C48.1539 69.2269 49.0809 73.1386 50.1167 77.0494C50.1167 77.0494 56.7872 114.416 58.7515 121.58C58.7515 121.58 73.2098 148.555 80.375 164.173C80.375 164.173 80.6516 164.255 79.4578 165.872C79.4578 165.872 62.2782 136.771 60.8601 134.812C60.8601 134.812 55.5708 126.214 53.4674 118.732C53.4674 118.732 48.4531 86.4466 46.4948 79.6167C46.4948 79.6167 42.5722 64.7243 37.8057 64.4231C37.8057 64.4231 40.4598 64.0139 42.7966 64.5914Z" fill="#F6C987"/>
<path fill-rule="evenodd" clip-rule="evenodd" d="M64.499 69.4331C64.499 69.4331 73.4065 84.0453 73.3393 100.73C73.3393 100.73 73.5214 110.147 73.7125 114.357C73.7125 114.357 77.1372 134.35 79.3426 142.615L83.0854 156.001L82.3835 156.623C82.3835 156.623 77.1372 141.192 74.9274 129.898C74.9274 129.898 73.5811 125.461 72.5513 119.309C72.2181 117.319 71.9831 114.722 71.7527 112.597C71.7527 112.597 71.6756 108.066 71.5525 104.626C71.3538 99.0849 70.9927 91.6258 69.6222 86.7714C69.6222 86.7714 65.5711 70.4744 64.499 69.4331Z" fill="#F6C987"/>
<path fill-rule="evenodd" clip-rule="evenodd" d="M71.6423 56.2516C71.6423 56.2516 70.3816 66.8677 62.6655 70.8245C62.6655 70.8245 53.8704 75.256 43.5555 66.1221C43.5555 66.1221 35.744 58.7158 35.3192 46.7112C35.3192 46.7112 33.6967 33.9074 39.8401 25.7764C39.8401 25.7764 45.7911 15.8303 57.3062 16.0723C57.3062 16.0723 66.7155 15.9882 71.5912 25.512C71.5912 25.512 72.6234 27.9283 73.145 30.6498C73.7172 33.6348 73.765 37.4727 73.3006 39.7519C73.1409 40.5312 72.7221 41.8078 72.3766 42.221L69.9606 48.4089L71.5427 53.35L71.726 55.1215L71.6423 56.2516Z" fill="#B5B5B5" stroke="#9A9A9A" stroke-opacity="0.42" stroke-width="0.000225493" stroke-miterlimit="1.5" stroke-linecap="round" stroke-linejoin="round"/>
<path fill-rule="evenodd" clip-rule="evenodd" d="M42.0527 59.9573C42.0527 59.9573 46.9522 67.2376 55.21 69.061C55.21 69.061 47.1426 69.4979 42.0527 59.9573Z" fill="#A8A8A8" stroke="#A8A8A8" stroke-width="0.000661583" stroke-miterlimit="1.5" stroke-linecap="round" stroke-linejoin="round"/>
<path fill-rule="evenodd" clip-rule="evenodd" d="M57.2016 16.1335C57.2016 16.1335 46.7279 18.1616 41.0094 27.2873C37.4819 32.9163 35.8591 41.9253 37.8453 53.7311C38.2949 56.4036 39.2989 58.6879 40.0892 61.7104C40.1391 61.9016 37.4729 58.4345 36.02 51.8398C35.0839 47.5887 34.4093 42.3881 35.3166 35.9942C35.5342 34.4614 35.8047 32.8818 36.4914 30.8509C36.4914 30.8509 39.4787 21.8906 48.1936 17.6663C50.8311 16.3888 53.2042 16.2894 57.2016 16.1335Z" fill="#D4D4D4" stroke="#D4D4D4" stroke-width="0.000661583" stroke-miterlimit="1.5" stroke-linecap="round" stroke-linejoin="round"/>
<path fill-rule="evenodd" clip-rule="evenodd" d="M45.9619 36.135C45.9619 36.135 47.2893 48.9687 52.0015 54.4505L52.5794 57.1134C52.5794 57.1134 46.493 54.3568 45.9619 36.135Z" fill="#A8A8A8" stroke="#A8A8A8" stroke-width="0.000661583" stroke-miterlimit="1.5" stroke-linecap="round" stroke-linejoin="round"/>
<path fill-rule="evenodd" clip-rule="evenodd" d="M64.7403 25.7803C64.7403 25.7803 72.0565 29.0705 72.611 40.112C72.611 40.112 72.5991 40.7879 71.666 46.1431C71.666 46.1431 71.9491 46.971 71.9463 51.7954C71.9463 51.7954 72.2792 55.9757 69.365 60.1553C69.365 60.1553 65.8343 64.3405 63.3239 64.3607C63.3239 64.3607 55.8702 64.1761 51.9491 56.6043C51.9491 56.6043 48.3474 48.6415 49.6096 40.4747C49.6096 40.4747 52.7975 25.7127 64.7403 25.7803Z" fill="#FFE7D2" stroke="#FFE7D2" stroke-width="0.000226198" stroke-miterlimit="1.5" stroke-linecap="round" stroke-linejoin="round"/>
</g>
</svg>
