<svg xmlns="http://www.w3.org/2000/svg" width="73" height="73" fill="none"><rect id="backgroundrect" width="100%" height="100%" x="0" y="0" fill="none" stroke="none" class="" style=""/>




















<g class="currentLayer" style=""><title>Layer 1</title><path d="M39.091,6.78901 C39.184,5.17701 39.711,3.68901 40.579,2.44901 C39.308,2.29401 38.006,2.23201 36.673,2.23201 C31.961,2.23201 27.466,3.19301 23.374,4.89801 C24.8,4.681010000000001 26.319,4.55701 27.838,4.55701 C31.837,4.55701 35.619,5.36301 39.091,6.78901 z" fill="#736D5A" id="svg_1" class=""/><path d="M20.274,61.69 C15.004,60.264 10.292,57.381 6.66504,53.506 C9.57904,58.652 13.733,62.992 18.786,66.061 C18.848,64.449 19.406,62.961 20.274,61.69 z" fill="#736D5A" id="svg_2" class=""/><path d="M36.642,72.292 C19.096,72.292 4.526,59.613 1.55,42.904 C5.363,53.723 15.686,61.473 27.838,61.473 C43.214,61.473 55.707,49.011 55.707,33.604 C55.707,18.228 43.245,5.735 27.838,5.735 C22.32,5.735 17.174,7.347 12.834,10.106 C19.158,4.433 27.497,0.992 36.642,0.992 C56.327,0.992 72.261,16.957 72.261,36.611 C72.261,56.265 56.327,72.292 36.642,72.292 zM0.031000000000000007,35.278 C0,35.712 0,36.177 0,36.642 C0,56.885 16.399,73.284 36.642,73.284 C56.885,73.284 73.284,56.885 73.284,36.642 C73.284,16.399 56.885,0 36.642,0 C24.397,0 13.516,6.014 6.882,15.252 L7.688000000000001,15.903 C12.617,10.323 19.809,6.789 27.838,6.789 C42.656,6.789 54.684,18.817 54.684,33.635 C54.684,48.453 42.656,60.481 27.838,60.481 C13.547,60.481 1.891,49.321 1.054,35.278 H0.031000000000000007 z" fill="#736D5A" id="svg_3" class=""/><path d="M51.2741,10.633000000000001 C50.7161,10.819 50.1581,10.943 49.6001,11.005 C49.6311,10.695 49.6621,10.385 49.7551,10.106 C49.8171,9.88902 49.8791,9.641020000000001 49.9411,9.30002 C50.3441,7.25402 48.8871,6.6340200000000005 48.4221,7.22302 C47.3681,5.58002 45.8181,6.01403 45.2601,6.82002 C46.4691,6.66502 46.3451,8.43202 47.3991,8.18402 C46.9341,8.89702 47.8641,9.734020000000001 48.5151,9.48602 C47.9881,9.23802 48.2361,8.30802 48.7321,8.49402 C49.1041,8.61802 49.2901,9.02102 49.1351,10.168 C49.0731,10.447 49.0421,10.757 49.0421,11.036 C47.7711,11.067 46.5931,10.726 45.7871,9.920020000000001 C44.9501,9.08302 44.7641,8.21502 44.5781,7.4400200000000005 C44.4541,6.91302 44.3301,6.41702 44.0201,5.98302 C44.4541,5.89002 44.8571,5.70403 45.2601,5.48703 C46.1901,5.02203 47.1511,4.52603 48.8561,5.14602 C50.4991,5.7350200000000005 51.2431,8.27703 51.2741,10.633000000000001 zM53.5061,10.261 C53.3201,11.036 53.1961,11.78 53.1341,12.524000000000001 C52.5761,12.586 52.0801,12.679 51.7081,12.772 C51.8011,12.276 51.8321,11.656 51.8631,11.036 C52.4211,10.85 53.0101,10.571 53.5061,10.261 zM62.6511,15.5 C64.8211,18.321 63.8911,21.855 62.2791,25.451 C60.9771,25.11 59.8301,24.614 58.8071,23.994 C58.7141,23.715 58.6211,23.436 58.5591,23.157 C58.4661,22.723 58.4661,22.258 58.4971,21.793 C59.2721,23.064 61.1011,23.932 62.0931,21.793 C60.2021,22.32 59.3961,20.894 59.6441,19.84 C59.8301,19.065 61.0701,18.693 61.4421,20.243 C62.5891,20.274 63.2091,18.6 62.1241,18.228 C62.6511,17.174 62.0621,16.244 61.0081,16.461 C61.3491,15.469 59.9541,14.477 59.1481,15.469 C59.9541,16.275 59.2411,17.422 58.2491,16.988 C57.3811,16.585 56.8851,15.345 57.3811,14.446 C55.6761,14.911 55.7071,16.275 56.2031,17.112 C55.3661,16.895 54.5291,16.616 53.7541,16.306 C53.5991,15.283 53.5681,14.198 53.6611,13.051 C56.5131,12.741 60.7601,13.082 62.6511,15.5 zM66.0301,26.66 C65.2241,27.28 64.5421,27.993 63.9221,28.768 C63.4881,28.52 63.0541,28.272 62.6201,28.024 C62.3721,27.869 62.1241,27.714 61.9071,27.559 C62.1551,27.094 62.3721,26.598 62.5891,26.133 C63.6741,26.381 64.8211,26.567 66.0301,26.66 zM62.3411,28.489 C62.7751,28.737000000000002 63.2091,28.985 63.6121,29.202 C62.0621,31.403 61.2561,34.007 61.0081,36.456 C60.9461,36.363 60.8531,36.301 60.7911,36.208 C60.5741,35.898 60.4191,35.557 60.2951,35.154 C60.2951,35.123 60.2641,35.061 60.2641,35.03 C60.2021,34.782 60.1401,34.503 60.1091,34.162 C59.9851,32.55 60.5121,30.442 61.6591,28.055 C61.8761,28.21 62.0931,28.365 62.3411,28.489 zM64.3561,29.636 C66.9291,31.062 68.7581,32.085 69.7191,33.635 C70.0291,34.193 70.0601,35.154 69.8431,36.115 C69.3161,38.099 67.7351,39.401 65.8441,38.502 C65.6891,39.835 64.3561,40.083 63.5811,39.091 C62.4341,40.145 63.3331,41.323 64.5111,41.075 C64.7901,42.036 65.9681,42.005 66.1851,41.199 C67.3011,41.788 69.1301,40.3 70.1841,36.983 C70.2151,36.921 70.2151,36.89 70.2461,36.828 C70.2461,36.828 70.2461,36.828 70.2461,36.797 C70.3391,36.518 70.4011,36.208 70.4631,35.929 C70.4941,36.146 70.4941,36.363 70.4941,36.611 C70.5251,39.029 69.1921,41.416 66.9601,43.028 C65.8751,43.803 64.6971,44.33 63.5501,44.547 C62.5271,43.307 61.8451,41.633 61.5971,39.618 C61.5041,38.936 61.4731,38.223 61.5041,37.51 C62.0931,37.82 63.0231,37.944 63.9531,37.758 C65.0071,37.541 65.8751,36.983 66.4021,36.208 C67.0531,36.301 67.6421,36.146 68.0141,35.774 C68.2001,35.588 68.3551,35.371 68.4481,35.123 C68.5721,34.813 68.5721,34.441 68.5101,34.1 L68.4791,33.914 L68.2931,33.883 C67.7351,33.759 67.2701,33.79 66.8671,33.945 C66.7741,33.418 66.5571,32.829 66.1541,32.147 L65.9681,31.868 L65.7201,32.085 C65.0691,32.643 64.8211,33.294 64.9141,34.193 C64.6351,34.1 64.3251,34.069 64.0151,34.1 C63.5191,34.162 63.1161,34.41 62.8371,34.751 L62.7131,34.937 L62.8371,35.123 C63.3641,35.836 63.9221,36.146 64.5421,36.115 C64.5421,36.301 64.4801,36.549 64.3251,36.797 C64.1391,37.076 63.8291,37.231 63.3951,37.293 C62.6821,37.386 62.0311,37.262 61.4731,36.89 C61.6591,34.41 62.4651,31.682 64.0461,29.45 C64.1701,29.543 64.2631,29.605 64.3561,29.636 zM59.2411,24.893 C60.1091,25.327 61.0391,25.699 62.0311,25.978 C61.8451,26.381 61.6281,26.815 61.4421,27.218 C60.4811,26.505 59.7371,25.73 59.2411,24.893 zM58.7141,18.662 C58.8381,18.91 58.6831,19.251 58.3421,19.437 C58.0011,19.592 57.6291,19.53 57.5051,19.282 C57.3811,19.034 57.5361,18.693 57.8771,18.507 C58.2181,18.321 58.5901,18.414 58.7141,18.662 zM55.7071,21.266 C54.7771,19.995 54.1571,18.538 53.8161,16.926 C54.7461,17.267 55.7071,17.546 56.6991,17.794 C55.6451,19.096 56.2341,20.956 58.0321,20.894 C57.8461,21.7 57.8461,22.506 58.0011,23.281 C58.0011,23.374 58.0321,23.436 58.0631,23.529 C57.1331,22.878 56.3581,22.134 55.7071,21.266 zM50.1891,13.609 C49.8481,13.02 49.6311,12.307 49.6001,11.563 C50.1581,11.501 50.7161,11.377 51.2741,11.222 C51.2431,11.904 51.1811,12.524000000000001 51.0571,13.113 L50.9331,13.609 L51.3981,13.454 C51.8011,13.33 52.3901,13.206 53.0721,13.113 C53.0101,14.136 53.0101,15.097 53.1341,16.027 C51.8631,15.438 50.8091,14.663 50.1891,13.609 zM64.4491,46.159 C63.9531,46.128 63.4571,46.159 62.9611,46.252 C62.6201,45.88 62.2481,45.57 61.8761,45.291 C62.3411,45.291 62.8371,45.291 63.3331,45.198 C63.6741,45.57 64.0461,45.88 64.4491,46.159 zM58.2181,44.857 C57.6911,44.671 57.5671,43.834 57.5671,43.834 C57.5671,43.834 58.1561,43.245 58.6831,43.431 C59.2101,43.617 59.5201,44.516 59.5201,44.516 C59.5201,44.516 58.7451,45.043 58.2181,44.857 zM64.5111,50.189 C65.2861,52.824 64.85210000000001,55.521 63.3641,57.412 C63.2091,57.598 63.0851,57.753 62.9301,57.908 C63.0541,57.629 63.1781,57.381 63.3021,57.071 C63.3021,57.071 63.3021,57.071 63.3021,57.04 C63.3331,56.978 63.3331,56.947 63.3331,56.885 C64.5421,53.63 63.9841,51.336 62.7751,51.119 C63.1161,50.344 62.1861,49.6 61.3801,50.189 C60.6051,49.29 59.1791,49.631 59.4271,51.181 C60.6671,50.871 61.5661,51.925 60.8531,53.041 C62.8991,53.506 63.3331,55.49 62.5271,57.381 C62.1241,58.28 61.5041,58.993 60.9151,59.241 C59.2101,59.892 57.1641,59.582 54.2191,59.117 C54.1261,59.117 54.0021,59.086 53.9091,59.086 C54.0331,56.358 55.0561,53.723 56.4511,51.646 C57.1021,51.708 57.7221,51.987 58.2181,52.514 C58.5281,52.824 58.6521,53.134 58.6521,53.475 C58.6521,53.754 58.5281,53.971 58.4041,54.126 C57.9391,53.723 57.2881,53.661 56.4511,53.878 L56.2341,53.94 V54.157 C56.2341,54.591 56.4201,55.056 56.7611,55.397 C56.9781,55.614 57.2261,55.769 57.5051,55.862 C56.8541,56.513 56.6681,57.195 56.8231,58.001 L56.8851,58.311 L57.1951,58.187 C57.9391,57.908 58.4661,57.567 58.8381,57.195 C59.0551,57.567 59.3961,57.877 59.9231,58.125 L60.0781,58.218 L60.2331,58.094 C60.5121,57.846000000000004 60.7291,57.567 60.8221,57.226 C60.9151,56.978 60.9461,56.699 60.884100000000004,56.451 C60.7911,55.924 60.4501,55.459 59.8611,55.118 C59.9231,54.188 59.5511,53.196 58.8691,52.39 C58.2491,51.677 57.4431,51.212 56.7611,51.088 C57.1951,50.499 57.6601,49.941 58.1251,49.476 C59.5511,48.05 61.1321,47.151 62.6821,46.81 C63.5191,47.802 64.1391,48.918 64.5111,50.189 zM51.9251,58.838 C51.6461,58.807 51.3981,58.776 51.1191,58.745 C51.6771,56.172 52.5451,54.188 53.6611,52.979 C53.8781,52.731 54.0951,52.576 54.3121,52.39 C54.3431,52.359 54.3741,52.328 54.4051,52.297 C54.7461,52.049 55.0871,51.894 55.4591,51.77 C55.5521,51.739 55.6761,51.708 55.7691,51.708 C54.4671,53.785 53.5061,56.358 53.3821,59.024 C52.9171,58.993 52.4521,58.9 51.9251,58.838 zM53.7231,62.558 C52.7001,61.876 51.6771,61.318 50.6851,60.853 C50.8091,60.326 50.9021,59.83 51.0261,59.303 C51.3051,59.334 51.5841,59.334 51.8631,59.396 C52.3901,59.458 52.8861,59.551 53.3511,59.613 C53.3511,60.605 53.4751,61.597 53.7231,62.558 zM44.2061,69.285 C41.2611,70.06 37.6961,67.704 35.5881,65.72 C36.2081,64.759 36.8901,63.922 37.634100000000004,63.209 C38.4401,63.426 39.2771,63.736 40.0521,64.077 C39.1531,64.449 38.2851,65.503 39.3701,66.898 C39.5251,65.906 40.7031,65.193 41.6331,65.41 C42.6871,65.658 42.5321,67.022 41.4161,67.146 C41.4471,68.417 43.1521,68.479 43.4931,67.487 C44.1751,68.293 45.2291,67.921 45.4461,66.743 C46.5311,67.146 47.0581,65.41 46.1591,64.759 C44.9191,65.751 44.1751,64.697 44.4851,63.953 C44.9191,62.961 46.4381,62.341 47.6161,63.922 C48.1431,61.628 46.1591,61.163 44.7951,61.721000000000004 C45.0431,61.349 45.3221,61.008 45.6941,60.698 C45.9111,60.512 46.1591,60.357 46.4071,60.202 C47.5851,60.357 48.7941,60.667 50.0341,61.194 C49.0731,65.007 47.6471,68.417 44.2061,69.285 zM33.7901,67.828 C33.5731,67.27 33.2941,66.712 32.9531,66.185 C33.3251,65.68900000000001 33.6661,65.193 33.9141,64.728 C34.1621,65.038 34.5031,65.41 34.9061,65.813 C34.5031,66.433 34.1311,67.115 33.7901,67.828 zM26.9701,69.006 C25.2341,68.448 24.8001,67.456 24.3351,66.526 C24.1491,66.092 23.9321,65.68900000000001 23.6531,65.379 C24.1491,65.255 24.5521,64.914 24.9861,64.573 C25.6061,64.077 26.2881,63.519 27.4661,63.364 C28.6131,63.209 29.7601,63.674 30.7211,64.48 C30.5661,64.697 30.4111,64.945 30.2871,65.224 C29.6981,66.185 29.3261,66.402 28.9541,66.278 C28.4271,66.092 28.7991,65.224 29.3881,65.348 C29.0161,64.728 27.7451,64.821 27.6831,65.68900000000001 C27.0011,64.852 26.0091,66.34 25.1411,65.472 C25.1101,66.464 26.0401,67.766 27.9001,67.146 C27.9001,67.89 29.4191,68.262 30.3801,66.433 C30.5351,66.092 30.6281,65.875 30.7211,65.658 C30.8451,65.379 31.0001,65.1 31.1551,64.852 C31.5581,65.224 31.9301,65.68900000000001 32.2711,66.154 C30.7521,68.014 28.6441,69.564 26.9701,69.006 zM33.2011,63.147 C34.3171,62.713 35.6501,62.744 37.0141,63.054 C36.3631,63.736 35.7431,64.48 35.1851,65.317 C34.6891,64.821 34.3171,64.387 34.1001,64.015 L33.8211,63.612 L33.6041,64.077 C33.3561,64.604 33.0151,65.162 32.6121,65.68900000000001 C32.2711,65.224 31.8991,64.79 31.4961,64.387 C31.9921,63.829 32.5811,63.395 33.2011,63.147 zM43.2141,63.55 C43.3691,63.891 43.3071,64.263 43.0591,64.387 C42.8111,64.511 42.4701,64.356 42.2841,64.015 C42.1291,63.674 42.1911,63.302 42.4391,63.178 C42.6871,63.054 43.0281,63.209 43.2141,63.55 zM38.1301,62.775 C39.3701,61.69 40.7651,60.946 42.2841,60.512 C43.3381,60.233 44.3921,60.109 45.5081,60.171 C45.4461,60.233 45.3841,60.264 45.3221,60.326 C44.7331,60.853 44.2371,61.504 43.8961,62.248 C42.5321,61.101 40.9201,62.186 40.9511,63.86 C40.0211,63.426 39.0601,63.054 38.1301,62.775 zM50.4371,59.303 C50.3441,59.768 50.2511,60.202 50.1581,60.667 C49.1971,60.264 48.2361,59.985 47.2751,59.799 C48.1741,59.427 49.2591,59.272 50.4371,59.303 zM50.5301,5.76603 C50.1271,5.27003 49.6621,4.86703 49.0421,4.61903 C47.1201,3.93703 45.9421,4.52603 45.0121,4.99103 C44.5781,5.20803 44.1751,5.42502 43.7721,5.45603 C43.7721,5.02203 43.4931,4.71203 43.2141,4.4330300000000005 C42.7801,4.03003 42.7491,3.34803 43.2451,2.85203 C42.3461,2.72803 41.6021,3.6890300000000003 41.8501,4.4330300000000005 C41.2611,3.96803 40.9821,4.58803 40.4241,4.80503 C40.7961,5.23902 40.6721,5.89002 41.4161,5.85903 C40.7031,6.38602 40.7031,7.78102 41.8501,8.12202 C41.5401,7.31602 41.8501,6.75803 42.5321,6.72703 C42.9041,6.72703 43.2761,6.6340200000000005 43.5241,6.29302 C43.8031,6.60302 43.8961,7.03702 44.0201,7.56402 C44.2061,8.37002 44.4231,9.36202 45.3841,10.323 C46.3451,11.284 47.6471,11.656 49.0421,11.625 C49.0731,12.462 49.2901,13.237 49.6931,13.919 C50.4371,15.159 51.7081,16.027 53.2271,16.709 C53.2581,16.864 53.2891,17.019 53.3201,17.174 C53.4131,17.732 53.3821,18.476 52.6071,18.383 C52.8861,19.096 53.4441,19.065 53.7541,18.755 C54.1261,19.778 54.6221,20.739 55.2421,21.607 C55.3971,21.824 55.5831,22.041 55.7381,22.227 C56.3581,23.126 55.9551,24.242 55.3661,24.18 C55.4591,25.079 56.7921,25.11 57.0711,24.242 C57.1641,23.932 57.1641,23.684 57.0711,23.498 C57.4741,23.808 57.8771,24.118 58.3111,24.397 C58.5281,24.893 58.8071,25.358 59.1481,25.823 C59.0241,25.823 58.9001,25.823 58.7761,25.823 C58.3421,25.885 57.7221,26.412 57.3191,27.156 C56.7301,28.241 56.4821,29.264 56.6991,30.101 C56.8851,30.814 57.3501,31.403 58.0941,31.775 L58.3111,31.868 L58.4661,31.682 C58.5901,31.496 58.7761,31.248 58.8691,30.938 C58.9621,30.721 58.9931,30.442 58.9001,30.194 C58.8071,29.822 58.5281,29.481 58.0631,29.202 C58.4041,28.706 58.2801,28.334 58.1561,27.993 C58.0321,27.683 57.9701,27.249 58.1561,26.908 C58.3421,26.567 58.5901,26.443 58.8691,26.412 C59.2411,26.35 59.6441,26.505 60.0161,26.846 C60.3571,27.156 60.7291,27.466 61.1321,27.776 C59.7681,30.597 59.3961,32.612 59.4891,34.069 C59.4891,34.1 59.4891,34.1 59.4891,34.131 C59.5201,34.596000000000004 59.5821,34.968 59.6751,35.309 C59.7061,35.526 59.7681,35.743 59.7991,35.991 C59.7991,36.363 59.5511,36.456 59.3341,36.518 C58.8381,36.611 58.1871,36.332 57.9701,35.712 L57.8151,35.278 L57.5051,35.619 C56.4511,36.766 56.5441,37.789 57.0711,38.316 C57.4741,38.688 58.1871,38.812 58.9001,38.223 C59.4581,38.502 59.7991,38.409 60.0161,38.285 C60.1711,38.161 60.2951,38.006 60.3881,37.758 C60.4811,37.51 60.5121,37.2 60.4811,36.828 C60.6361,36.983 60.7601,37.169 60.9461,37.293 C60.9151,38.192 60.9461,39.029 61.0391,39.835 C61.2871,41.819 61.9381,43.493 62.9301,44.795 C62.1861,44.888 61.4731,44.857 60.8221,44.702 C61.2251,44.33 61.4731,43.555 60.4501,42.78 C59.3961,42.005 59.4581,40.641 60.1091,39.618 C58.4971,40.3 57.9081,41.571 58.0321,42.532 C56.9161,42.222 55.8931,42.346000000000004 55.3661,43.152 C55.3041,44.113 56.0481,44.857 57.1021,45.26 C56.3891,45.942 56.0791,47.337 56.9471,48.825 C57.0401,47.647 57.8461,46.531 59.1481,46.531 C60.3881,46.562 60.6981,45.787 60.6051,45.26 C61.2251,45.539 61.8141,45.973 62.3411,46.469 C60.7911,46.872 59.2411,47.802 57.8151,49.228 C57.2571,49.786 56.6991,50.468 56.1721,51.181 C55.9551,51.181 55.7381,51.212 55.5211,51.274 C55.7691,50.995 55.9241,50.716 56.0171,50.468 C56.1101,50.22 56.1101,50.034 56.0481,49.848 C55.9551,49.6 55.7381,49.321 55.1181,49.197 C54.9011,48.298 54.2811,47.957 53.7541,47.988 C53.0411,48.081 52.3281,48.856 52.4521,50.375 L52.4831,50.84 L52.8861,50.592 C53.4441,50.251 54.1261,50.406 54.4671,50.778 C54.6221,50.933 54.7461,51.181 54.5291,51.491 C54.3741,51.677 54.1881,51.801 54.0331,51.956 C53.7541,52.173 53.4441,52.421 53.1651,52.762 L53.1341,52.793 C52.1731,53.878 51.2121,55.707 50.5921,58.776 C50.0961,58.745 49.6001,58.776 49.1351,58.807 C48.6391,58.838 48.2051,58.714 47.9571,58.435 C47.7711,58.218 47.6471,57.97 47.7091,57.598 C47.7711,57.226 48.1121,56.916 48.3911,56.73 C48.7011,56.544 49.0111,56.327 49.0421,55.738 C49.5691,55.8 50.0031,55.707 50.3131,55.49 C50.5301,55.335 50.6541,55.087 50.7471,54.87 C50.8401,54.56 50.8711,54.25 50.8711,54.033 V53.785 L50.6231,53.723 C49.8171,53.568 49.1041,53.723 48.5151,54.188 C47.8021,54.715 47.3681,55.645 47.1821,56.885 C47.0581,57.691 47.2131,58.497 47.5231,58.838 C47.6161,58.931 47.7091,58.993 47.8021,59.055 C47.2441,59.21 46.7481,59.396 46.2831,59.675 C45.7561,59.613 45.2601,59.613 44.7641,59.613 C44.9501,59.489 45.1051,59.334 45.2291,59.024 C45.5391,58.156 44.4541,57.412 43.8341,58.032 C44.3301,58.373 43.9581,59.489 42.9351,59.83 C42.6561,59.892 42.4081,59.954 42.1291,60.016 C41.1061,60.295 40.1141,60.76 39.1841,61.349 C39.1531,60.915 38.7191,60.543 38.0681,60.946 C38.7191,61.349 38.2851,61.938 37.8821,62.341 C37.7581,62.434 37.634100000000004,62.558 37.5101,62.682 C35.9291,62.279 34.3481,62.186 33.0151,62.713 C32.2711,62.992 31.6201,63.488 31.0931,64.139 C30.0081,63.271 28.7371,62.744 27.4041,62.93 C26.0711,63.085 25.2961,63.736 24.6451,64.263 C24.2111,64.604 23.8701,64.883 23.4671,64.976 C23.4981,64.542 23.2501,64.263 22.9711,64.046 C22.4441,63.612 22.5371,62.961 23.2811,62.527 C22.1651,62.062 21.2971,63.178 21.5451,64.046 C20.9871,63.55 20.6771,64.139 20.1191,64.263 C20.4291,64.759 20.2741,65.441 21.0181,65.441 C20.336100000000002,65.906 20.336100000000002,67.084 21.1421,67.549 C21.0491,66.867 21.4831,66.34 22.0721,66.309 C22.4751,66.278 22.8781,66.185 23.1571,65.844 C23.4671,66.123 23.6531,66.526 23.8701,66.991 C24.3351,67.952 24.8931,69.13 26.8461,69.781 C27.4661,69.967 28.0861,69.967 28.7061,69.781 C29.2331,69.688 29.7291,69.936 29.9461,70.432 C30.2561,69.936 30.0701,69.502 29.7601,69.347 C30.8141,68.789 31.8061,67.859 32.6121,66.898 C32.9221,67.425 33.1701,67.952 33.3871,68.51 C32.3641,68.293 31.6201,68.727 30.8141,69.409 C31.5581,70.091 32.2401,70.153 33.0461,69.688 C32.4571,71.734 35.1231,71.579 34.3481,69.719 C35.1851,70.277 36.0531,69.936 36.7971,69.13 C36.0841,68.262 35.0921,68.014 34.3481,68.324 C34.6581,67.673 34.9681,67.053 35.3401,66.464 C36.4561,67.487 37.9441,68.665 39.6181,69.44 C38.0061,69.409 37.4791,69.998 37.2311,70.99 C37.5411,71.3 38.1301,71.269 38.5641,70.68 C38.6571,70.99 39.0601,71.424 39.6801,71.114 C39.2151,70.866 39.3701,70.029 40.3001,69.967 C40.6411,69.967 41.0441,69.998 41.4781,70.122 C42.4391,70.339 43.4311,70.37 44.3921,70.122 C46.2831,69.626 47.5851,68.479 48.5461,66.96 C48.5151,67.487 48.6081,67.735 48.7631,67.859 C48.8561,67.952 49.0111,68.045 49.2591,68.014 C49.5691,68.479 49.9411,68.541 50.1271,68.51 C50.5301,68.479 50.9021,68.2 51.0881,67.766 C51.0881,67.766 51.0881,67.735 51.1191,67.735 C51.2741,67.27 51.0261,66.588 50.5921,66.247 C50.3751,66.805 49.8791,67.022 49.6311,66.929 C49.3831,66.836 49.0731,66.247 49.6001,64.883 C50.0031,63.891 50.3131,62.806 50.5921,61.69 C51.6771,62.186 52.7621,62.806 53.8471,63.581 C53.6611,64.294 52.6381,64.635 51.8321,64.015 C51.0571,65.069 51.4291,66.278 52.6381,65.813 C52.8861,66.464 53.8781,66.588 54.3121,65.813 C55.1181,66.34 56.4821,65.193 56.0791,64.232 C57.2571,64.604 58.4041,62.868 57.2261,62.217 C57.6291,61.256 56.5441,60.915 55.7381,61.132 C56.1101,62.31 55.2111,63.147 54.4361,63.116 C54.1261,62.062 53.9711,61.008 53.9711,59.923 C54.0331,59.923 54.1261,59.954 54.1881,59.954 C55.5831,60.171 56.8231,60.357 57.9391,60.419 C58.9621,60.636 59.5821,61.287 59.2101,61.783 C59.8301,61.876 60.6671,61.194 59.9231,60.419 L59.8921,60.388 C60.2951,60.326 60.6671,60.264 61.0081,60.14 C61.0391,60.14 61.0701,60.109 61.1011,60.109 C62.0931,59.737 62.9921,59.117 63.8601,58.032 C64.3871,57.381 64.7901,56.606 65.0691,55.8 C65.2551,55.273 65.3791,54.715 65.4411,54.157 V54.188 C65.6271,53.134 66.2161,52.266 67.3011,52.049 C66.5571,51.305 65.8751,51.46 65.4411,51.925 C65.3791,51.367 65.2861,50.84 65.1001,50.282 C64.7281,49.042 64.1701,47.926 63.4261,47.027 C64.2321,46.934 65.0381,46.996 65.8131,47.213 C66.3711,47.926 66.6811,49.073 66.2161,50.065 C67.1151,49.972 67.7351,49.352 67.7971,48.794 C68.4481,48.949 69.0061,48.577 69.2541,48.081 C69.3471,47.523 69.1301,46.903 68.5411,46.624 C68.8511,46.159 68.72710000000001,45.26 68.0761,44.64 C67.8281,45.725 66.8671,46.438 65.9991,46.655 C65.2551,46.345 64.6041,45.911 64.0151,45.353 C65.1621,45.074 66.2781,44.547 67.3321,43.803 C67.7971,43.462 68.2001,43.09 68.6031,42.718 C68.6651,43.369 69.0991,43.927 70.1531,43.772 C69.4401,42.935 69.5021,41.881 69.9981,40.951 C69.9981,40.951 69.9981,40.951 69.9671,40.951 C70.2461,40.455 70.4941,39.928 70.6801,39.401 C70.9591,38.595 71.1141,37.758 71.0831,36.921 C71.0831,35.557 70.7421,34.472 70.1841,33.604 C70.1531,33.573 70.1531,33.542 70.1221,33.511 C69.9051,33.201 69.6571,32.891 69.3781,32.612 C69.4091,32.612 69.4091,32.612 69.4401,32.612 C70.5251,32.457 70.2771,31.403 69.7191,31.093 C69.6881,31.713 68.7891,31.837 67.8591,31.372 C66.9601,30.752 65.8441,30.132 64.6041,29.45 C64.5421,29.419 64.4801,29.388 64.4181,29.326 C65.1001,28.21 65.8751,27.466 66.7741,26.815 C67.3631,27.28 67.5801,28.489 66.5571,29.171 C67.0531,29.822 68.1071,30.225 68.3861,29.233 C69.7501,29.419 69.9051,27.342 68.72710000000001,26.939 C69.6261,26.443 69.2851,24.707 68.3241,24.614 C68.4171,23.746 67.5801,23.219 66.9911,23.591 C66.3091,22.475 65.2861,23.188 65.2551,24.521 C66.2781,24.521 66.8671,25.42 66.5881,26.102 C65.2551,26.04 64.0151,25.854 62.8681,25.606 C63.3331,24.552 63.7361,23.498 64.0461,22.475 C64.4491,21.08 65.0691,20.801 65.3171,20.894 C65.5651,20.987 65.8131,21.452 65.6581,22.041 C66.2161,22.041 66.8361,21.638 66.9911,21.204 V21.173 C67.1151,20.739 67.0221,20.274 66.7121,19.995 C66.5571,19.871 66.2161,19.685 65.7201,19.84 C65.5341,19.685 65.3791,19.654 65.2241,19.654 C65.0381,19.685 64.7901,19.778 64.4801,20.243 C64.6351,18.445 64.3251,16.74 63.1161,15.19 C62.5271,14.415 61.7211,13.826 60.8221,13.423 C60.3881,13.237 60.0781,13.02 59.7991,12.803 C59.0861,12.183 59.4891,11.408 60.0161,11.501 C59.7371,10.881 59.1481,10.943 58.8691,11.129 C58.8691,10.416 58.4351,10.013 58.0011,10.075 C57.5671,11.005 57.6291,11.811 58.9311,12.772 C57.1641,12.369 55.2421,12.369 53.7541,12.493 C53.8471,11.811 53.9401,11.129 54.0951,10.447 C54.4981,11.129 55.4591,11.563 56.5441,11.315 C56.4201,10.199 55.9241,9.36202 54.9321,9.30002 C56.6991,8.30802 54.6841,6.54102 53.8781,8.52502 C53.5061,7.65702 52.9481,7.28502 51.9251,7.3470200000000006 C52.1731,8.37002 52.4521,9.17602 53.4131,9.641020000000001 C52.9171,9.95102 52.3591,10.23 51.8011,10.447 C51.7701,9.17602 51.5531,7.84302 51.0571,6.75803 C51.3981,6.85103 51.8321,6.60302 51.8631,6.04503 C51.4601,6.26203 50.9021,6.13803 50.5301,5.76603 z" fill="#736D5A" id="svg_4" class=""/><path d="M40.7963,41.943 C41.0753,41.602 41.3233,41.199 41.5093,40.796 C42.1603,39.463 42.3463,37.913 42.2533,36.208 C42.2223,34.193 41.7573,31.868 41.2613,29.326 C41.2303,29.14 41.1993,28.954 41.1373,28.768 C41.1063,28.551 41.0443,28.334 41.0133,28.117 C40.7963,27.001 40.6103,25.947 40.5173,25.141 C41.0753,25.761 41.6333,26.443 41.7883,26.35 C42.0053,26.04 41.5093,24.986 40.8583,23.622 C40.3313,22.506 39.7113,21.142 39.2153,20.088 C39.1533,19.933 39.1223,19.871 39.0603,20.026 L38.4403,22.816 C38.7193,23.064 38.7813,23.591 38.9053,24.397 C39.0603,25.451 39.2773,26.908 39.5253,28.427 C39.5873,28.83 39.6493,29.233 39.7423,29.636 C40.1763,32.457 40.6103,34.441 40.9203,36.084 C41.1683,37.386 41.2923,38.44 41.2613,39.184 C40.4243,40.517 38.1923,41.633 36.518299999999996,42.346000000000004 C35.2473,42.904 34.1313,43.338 33.0773,44.051 C31.9303,44.857 30.8763,45.849 29.8843,46.996 C28.4273,48.763 27.1873,49.941 26.0713,50.344 C23.9943,51.057 22.6923,49.507 23.2813,46.996 C25.0173,46.779 27.1873,45.663 29.5123,43.307 C30.4423,42.253 30.6283,41.199 30.5663,39.959 C30.473300000000002,35.929 27.4353,35.495 24.8623,34.317 C22.6923,33.356 20.8323,32.302 19.8403,31.248 C20.5533,31.341 21.4523,31.403 21.4523,31.31 C21.4523,30.566 19.4373,29.946 17.9183,29.016 C18.7863,27.497 22.1343,25.451 25.6373,23.343 C31.0003,20.336 37.7273,15.965 38.4093,17.763 C38.4403,17.98 38.2543,18.228 38.0683,18.507 C38.0373,18.538 38.0063,18.569 37.9753,18.6 C36.2083,20.739 34.9683,23.188 34.3483,25.606 C34.2243,26.164 34.4103,25.916 34.5343,25.606 C35.0613,24.366 36.1463,22.816 37.2933,21.111 C38.0063,19.995 38.5643,18.941 38.8743,17.949 C39.4013,16.43 39.4943,15.438 39.2463,14.88 C38.9673,14.198 37.7893,14.415 36.1773,15.097 H36.1463 C35.6503,15.314 35.1233,15.562 34.5343,15.841 C32.0233,17.081 28.6753,18.91 25.6373,20.801 C23.7153,22.01 22.0723,23.064 20.7083,24.056 C20.3673,24.304 20.0573,24.521 19.7783,24.769 C19.7473,24.769 19.7473,24.8 19.7163,24.8 C19.6853,24.831 19.6543,24.862000000000002 19.6233,24.893 C19.4373,25.017 19.2513,25.172 19.0963,25.296 C17.9493,26.319 17.8873,27.28 17.6703,28.489 C17.3293,24.521 16.7713,20.956 15.5933,18.166 C15.5003,17.98 15.4693,18.042 15.4073,18.166 L14.5703,20.801 C15.5003,23.591 16.0893,26.753 16.3993,30.132 C16.6163,33.108 16.8023,35.929 17.0503,38.378 C17.4843,42.439 18.2283,45.446 20.6463,46.562 C21.2663,46.903 22.0103,47.089 22.8473,47.027 C22.6613,47.678 22.5683,48.329 22.5683,48.918 C22.5683,50.84 23.5603,51.987 24.7693,52.545 C25.4823,52.886 26.2883,53.01 27.4973,52.142 C28.2723,51.584 29.0473,50.499 30.4423,48.949 C32.1163,46.934 33.9453,45.818 35.8673,45.043 C37.9133,44.175 39.6803,43.338 40.7963,41.943 zM21.0493,43.896 C18.848300000000002,42.873 18.4763,39.835 17.7633,31.899 H17.7943 C18.3213,32.333 19.0653,33.294 19.9643,34.038 C21.4833,35.402 23.6223,36.611 26.2263,37.696 C27.8073,38.316 29.3883,39.06 29.9463,40.331 C27.6213,42.904 23.2503,44.95 21.0493,43.896 z" fill="#006838" id="svg_5" class=""/><path d="M32.9811,32.8949 L31.4668,35.164 L33.968,36.8332 L35.4823,34.564 L32.9811,32.8949 z" fill="#006838" id="svg_6" class=""/><path d="M10.973700000000001,27.931 L13.7947,28.954 L14.7247,26.381 L11.9037,25.358 L10.973700000000001,27.931 L8.152660000000001,26.908 L7.22266,29.481 L10.0437,30.504 L10.973700000000001,27.931 z" fill="#006838" id="svg_7" class=""/><path d="M14.8485,30.535 C14.8175,30.597 14.8175,30.659 14.7865,30.721 C14.1665,32.271 13.1745,33.914 12.0585,35.557 C11.3765,35.061 10.6945,34.596000000000004 10.2295,34.193 C10.0745,34.069 10.0125,33.945 10.3225,33.945 C10.6945,33.945 10.9425,33.945 10.9425,33.883 C10.9425,33.511 9.1445,32.674 7.8425,31.837 C7.7495,31.775 7.7185,31.837 7.7185,31.93 C7.7185,31.93 7.6875,34.441 7.6875,34.472 C8.1525,34.689 8.586500000000001,35.154 9.0205,35.681 C9.0825,35.743 9.1135,35.805 9.1755,35.867 C9.2065,35.898 9.2375,35.929 9.2685,35.96 C9.5785,36.301 9.9195,36.642 10.2915,36.952 C10.4155,37.045 10.5395,37.169 10.6635,37.262 C9.9815,38.471 9.5475,39.866 9.3615,41.416 C9.1445,43.679 9.6715,44.671 10.8185,44.578 C10.8495,44.578 10.8805,44.578 10.9425,44.578 H10.9735 C12.3065,44.423 13.8565,43.338 14.4765,42.594 C14.5075,42.563 14.5075,42.563 14.538499999999999,42.532 L14.5695,42.501 C14.7245,42.284 14.8175,42.036 14.9105,41.757 C14.9725,41.54 15.0035,41.292 15.0345,41.044 C15.1275,40.424 15.1585,39.835 15.0965,39.215 C15.0965,39.122 15.0655,39.029 15.0655,38.936 V38.905 C14.8485,37.851 14.1975,36.859 13.0505,36.115 C14.0735,34.379 14.9415,32.767 15.2205,31.434 C15.2825,31 15.2515,30.132 15.1895,29.884 C15.0035,30.07 14.9415,30.287 14.8485,30.535 zM14.445500000000001,40.052 C12.5855,41.943 10.6325,42.129 10.2605,41.571 C9.9505,41.137 10.3225,40.083 11.6555,37.913 C11.8725,38.037 12.0895,38.192 12.3065,38.316 C13.2055,38.967 14.0735,39.556 14.445500000000001,40.052 z" fill="#006838" id="svg_8" class=""/><path d="M10.6954,23.994 C10.6954,23.994 10.6954,23.932 10.6644,23.932 C10.6334,23.932 10.6024,23.963 10.5714,23.994 C10.5094,24.087 10.4474,24.273 10.4164,24.304 C10.3544,24.335 10.3234,24.366 10.2924,24.366 C10.2304,24.366 10.1684,24.335 10.1374,24.304 C9.95137,24.18 9.88938,23.932 9.88938,23.653 C9.88938,23.653 9.92037,23.25 10.1684,22.475 C10.1994,22.413 10.1994,22.351 10.2304,22.289 L10.3854,21.762 C10.4474,21.607 10.4784,21.421 10.4474,21.39 C10.4164,21.39 10.3854,21.452 10.2924,21.638 C10.2614,21.7 10.2304,21.762 10.1994,21.855 C9.88937,22.537 9.67237,23.219 9.48637,23.901 C9.14537,25.823 10.6644,25.575 10.6954,23.994 z" fill="#006838" id="svg_9" class=""/><path d="M35.2466,49.414 C35.2156,49.414 35.1846,49.445 35.1536,49.476 C35.0916,49.569 35.0296,49.755 34.9986,49.786 C34.9676,49.817 34.9366,49.848 34.8746,49.848 C34.8126,49.848 34.7506,49.817 34.7196,49.786 C34.5336,49.662 34.4716,49.414 34.4716,49.135 C34.4716,49.135 34.5026,48.732 34.7506,47.957 C34.7816,47.895 34.7816,47.833 34.8126,47.771 L34.9676,47.244 C35.0296,47.089 35.0606,46.903 34.9986,46.872 C34.9676,46.872 34.9366,46.934 34.8436,47.12 C34.8126,47.182 34.7816,47.275 34.7506,47.368 C34.4406,48.05 34.2236,48.732 34.0376,49.414 C33.7276,51.336 35.2156,51.119 35.2466,49.507 C35.3086,49.476 35.2776,49.445 35.2466,49.414 z" fill="#006838" id="svg_10" class=""/><path d="M38.1612,36.332 L38.3162,35.805 C38.3782,35.65 38.4092,35.464 38.3472,35.433 C38.3162,35.433 38.2852,35.495 38.1922,35.681 C38.1612,35.743 38.1302,35.836 38.0992,35.929 C37.7892,36.611 37.5722,37.293 37.3862,37.975 C37.0762,39.897 38.5642,39.68 38.5952,38.068 C38.5952,38.068 38.5952,38.006 38.5642,38.006 C38.5332,38.006 38.5022,38.037 38.4712,38.068 C38.4092,38.161 38.3472,38.347 38.3162,38.378 C38.2852,38.409 38.2542,38.44 38.1922,38.44 C38.1302,38.44 38.0682,38.409 38.0372,38.378 C37.8512,38.254 37.7892,38.006 37.7892,37.727 C37.7892,37.727 37.8202,37.324 38.0682,36.549 C38.1302,36.456 38.1302,36.394 38.1612,36.332 z" fill="#006838" id="svg_11" class=""/><path d="M33.0151,41.85 C32.9841,41.912 32.9841,41.974 32.9531,42.036 L32.7361,42.563 C32.6741,42.718 32.6431,42.904 32.6741,42.935 C32.7051,42.935 32.7361,42.904 32.8291,42.718 C32.8601,42.656 32.8911,42.594 32.9531,42.501 C33.2941,41.819 33.5731,41.199 33.7901,40.517 C34.2241,38.626 32.7051,38.75 32.5811,40.331 C32.5811,40.331 32.5811,40.393 32.6121,40.393 C32.6431,40.393 32.6741,40.362 32.7051,40.331 C32.7671,40.238 32.8291,40.052 32.8911,40.021 C32.9221,39.99 32.9841,39.959 33.0151,39.959 C33.0771,39.99 33.1391,39.99 33.1701,40.021 C33.3561,40.176 33.3871,40.424 33.3871,40.703 C33.3871,40.672 33.3561,41.075 33.0151,41.85 z" fill="#006838" id="svg_12" class=""/><path d="M32.1164,22.506 C31.2174,22.909 29.0164,24.118 27.3114,25.203 C26.5984,25.668 25.6064,26.257 24.8004,26.815 C24.8004,26.815 24.8004,26.815 24.7694,26.815 C24.7694,26.846 24.7384,26.846 24.7074,26.877 C24.6144,26.939 24.4284,27.094 24.3044,27.218 C24.2424,27.311 24.1804,27.404 24.1494,27.435 C24.1494,27.466 24.1494,27.497 24.1184,27.528 C24.0874,27.869 24.0254,28.21 24.0254,28.21 C26.8154,26.226 29.3574,24.738 31.9614,23.405 C32.0544,23.095 32.1164,22.785 32.1164,22.506 z" fill="#006838" id="svg_13" class=""/><path d="M30.8451,15.841 C29.9461,16.213 27.7141,17.422 26.0091,18.445 C25.2651,18.879 24.2731,19.468 23.4671,19.995 C23.4671,19.995 23.4671,19.995 23.4361,19.995 C23.4051,19.995 23.4051,20.026 23.3741,20.026 C23.2501,20.15 23.0641,20.274 22.9401,20.398 C22.8781,20.491 22.8161,20.584 22.7851,20.615 C22.7851,20.646 22.7851,20.677 22.7541,20.708 C22.7231,21.049 22.6611,21.39 22.6611,21.39 C25.4821,19.468 28.0551,18.011 30.6901,16.74 C30.7521,16.399 30.8141,16.12 30.8451,15.841 z" fill="#006838" id="svg_14" class=""/><path d="M17.5461,19.747 C17.5771,19.747 17.5771,19.747 17.5461,19.747 C17.5771,19.747 17.5771,19.747 17.5461,19.747 C17.5771,19.747 17.5771,19.747 17.5461,19.747 C17.5771,19.747 17.7631,19.871 17.9801,19.995 C18.2281,20.15 18.4451,20.305 18.4451,20.305 L18.5381,20.212 C19.0341,20.863 19.2511,21.793 19.4681,22.723 C19.4991,22.847 19.5301,22.878 19.5921,22.878 L19.6231,22.847 C19.6231,22.847 19.6231,22.847 19.6231,22.816 C19.7781,22.537 19.8401,22.258 19.8711,22.01 C19.9331,21.669 20.0261,20.522 20.0571,20.46 C20.3051,17.825 21.2971,19.592 21.2971,19.592 C21.3281,19.654 21.3591,19.623 21.3591,19.53 L21.4521,18.817 C21.1731,18.383 20.9561,18.197 20.7391,18.135 H20.7081 H20.6771 C20.5531,18.135 20.4291,18.197 20.3671,18.259 C20.336100000000002,18.259 20.336100000000002,18.29 20.3051,18.321 C20.1191,18.476 19.8711,19.034 19.8091,20.77 C19.8091,20.801 19.8091,20.832 19.8091,20.863 C19.8091,20.863 19.7781,21.297 19.7471,21.669 C19.7471,21.669 19.7471,21.669 19.7471,21.7 C19.7471,21.731 19.7471,21.793 19.6851,21.762 C19.6541,21.731 19.6231,21.7 19.6231,21.669 L19.5611,21.421 C19.3751,20.77 19.2511,20.181 19.0341,19.778 C19.0341,19.778 18.5691,18.538 17.7631,18.507 C17.3911,18.569 17.4841,19.654 17.5461,19.747 z" fill="#006838" id="svg_15" class=""/><path d="M24.707,38.161 C24.676000000000002,38.161 24.676000000000002,38.161 24.645,38.161 H24.614 C24.49,38.161 24.366,38.223 24.304,38.285 C24.273,38.285 24.273,38.316 24.242,38.347 C24.056,38.533 23.808,39.122 23.746,40.827 C23.746,40.858 23.746,40.889 23.746,40.92 C23.746,40.92 23.715,41.354 23.684,41.726 C23.684,41.726 23.684,41.726 23.684,41.757 C23.684,41.788 23.684,41.85 23.622,41.819 C23.591,41.788 23.591,41.757 23.591,41.726 L23.529,41.478 C23.343,40.827 23.219,40.238 23.002,39.835 C23.002,39.835 22.537,38.595 21.731,38.564 C21.328,38.595 21.452,39.68 21.514,39.773 C21.514,39.773 21.731,39.866 21.948,40.021 C22.165,40.176 22.413,40.362 22.413,40.362 L22.506,40.269 C23.002,40.92 23.219,41.85 23.436,42.78 C23.467,42.904 23.498,42.935 23.56,42.904 L23.591,42.873 C23.591,42.873 23.591,42.873 23.591,42.842 C23.715,42.563 23.777,42.284 23.839,42.036 C23.901,41.695 23.994,40.548 24.025,40.486 C24.273,37.851 25.265,39.618 25.265,39.618 C25.296,39.68 25.327,39.649 25.327,39.556 L25.42,38.843 C25.141,38.409 24.893,38.192 24.707,38.161 z" fill="#006838" id="svg_16" class=""/><path d="M36.4252,31.465 C36.4872,31.124 36.5802,29.977 36.6112,29.915 C36.8592,27.28 37.8512,29.047 37.8512,29.047 C37.8822,29.109 37.9132,29.078 37.9132,28.985 L38.0062,28.272 C37.7272,27.838 37.5102,27.652 37.2932,27.59 H37.2622 H37.2312 C37.1072,27.59 36.9832,27.652 36.9212,27.714 C36.8902,27.714 36.8902,27.745 36.8592,27.776 C36.6732,27.962 36.4252,28.551 36.3632,30.256 C36.3632,30.287 36.3632,30.318 36.3632,30.349 C36.3632,30.349 36.3322,30.783 36.3012,31.155 C36.3012,31.155 36.3012,31.155 36.3012,31.186 C36.3012,31.217 36.3012,31.279 36.2392,31.248 C36.2082,31.217 36.2082,31.186 36.2082,31.155 L36.1462,30.907 C35.9602,30.256 35.8362,29.667 35.6192,29.264 C35.6192,29.264 35.1542,28.024 34.3482,27.993 C33.9142,28.024 34.0382,29.109 34.1002,29.202 C34.1002,29.202 34.3172,29.295 34.5342,29.45 C34.7512,29.605 34.9992,29.791 34.9992,29.791 L35.0922,29.698 C35.5882,30.349 35.8052,31.279 36.0222,32.209 C36.0532,32.333 36.0842,32.364 36.1462,32.333 L36.1772,32.302 C36.1772,32.302 36.1772,32.302 36.1772,32.271 C36.3012,31.992 36.3942,31.713 36.4252,31.465 z" fill="#006838" id="svg_17" class=""/><path d="M30.7514,31.372 C30.8444,31.248 30.9064,31.093 30.9374,30.938 V30.907 C30.9994,30.566 30.9994,30.132 30.8754,29.729 C30.8754,29.698 30.8754,29.667 30.8444,29.636 C30.8444,29.605 30.8134,29.605 30.8134,29.574 C30.7824,29.45 30.7204,29.326 30.6584,29.202 C30.5654,29.016 30.4414,28.83 30.3484,28.644 C30.3174,28.582 30.3174,28.551 30.2864,28.489 C30.2244,28.396 30.1624,28.272 30.1314,28.148 V28.117 C29.7594,28.83 30.0694,29.295 30.0694,29.326 C30.1314,29.45 30.2244,29.636 30.2864,29.791 C30.3174,29.884 30.3794,29.946 30.4414,30.039 C30.5964,30.225 30.6894,30.442 30.7514,30.597 C30.2864,31.093 29.4494,31.031 29.1394,29.574 C29.0774,29.419 29.0464,29.264 28.9844,29.14 C28.8604,28.83 28.6434,28.334 28.5504,28.272 L28.3024,29.109 C29.7284,31.403 27.0314,32.24 27.0934,30.256 C27.0934,30.163 27.0934,30.039 27.0934,29.915 C27.0934,29.853 27.0934,29.791 27.0934,29.729 C27.0934,29.481 27.0314,29.295 26.9074,28.954 L26.6904,29.698 C26.8144,30.008 26.7834,30.442 26.7834,30.659 C26.7834,30.752 26.7834,30.814 26.7834,30.876 C26.8454,32.705 28.9534,32.643 28.9224,30.442 C29.3564,32.054 30.3794,31.651 30.3794,31.651 C30.4104,31.651 30.4104,31.651 30.4414,31.651 C30.5654,31.589 30.6584,31.496 30.7514,31.372 C30.7514,31.403 30.7514,31.372 30.7514,31.372 z" fill="#006838" id="svg_18" class=""/><path d="M17.0808,47.957 C16.7708,48.608 16.4608,49.197 15.8408,49.104 C14.8798,48.763 14.8178,47.399 15.7478,44.795 C16.2438,43.4 16.8638,41.726 16.5848,41.416 C16.5228,41.385 16.4608,41.509 16.3988,41.664 L15.1898,44.764 C14.6628,46.283 14.3218,47.709 14.2288,48.608 C14.104800000000001,50.096 14.3838,50.84 14.8178,51.057 C15.5618,51.46 16.5228,50.778 17.0808,49.259 C17.0808,49.228 17.1118,49.197 17.1118,49.166 C17.1428,49.104 17.1428,49.042 17.1738,49.011 C17.4528,48.143 17.3598,47.43 17.0808,47.957 z" fill="#006838" id="svg_19" class=""/><path d="M45.0117,44.144 C45.0117,44.144 45.0117,44.113 45.0427,44.113 C45.7557,42.78 46.2827,41.261 46.4997,39.401 C46.6237,38.595 46.6547,37.696 46.6237,36.797 C46.6237,36.766 46.6237,36.735 46.6237,36.704 C46.5617,35.433 46.4067,34.069 46.1587,32.643 C46.0657,32.147 45.9727,31.62 45.8797,31.124 C45.6937,30.163 45.5077,29.14 45.3527,28.241 C45.2597,27.559 45.2287,27.404 45.7867,28.024 C46.0967,28.396 46.3757,28.644 46.4687,28.582 C46.6857,28.303 46.1897,27.218 45.5697,25.854 C45.0427,24.738 44.4537,23.343 43.9887,22.289 C43.9267,22.134 43.8957,22.072 43.8337,22.227 L43.1207,24.986 C43.4927,25.265 43.5237,26.102 43.6787,26.846 C43.9267,28.799 44.2677,30.938 44.6397,33.17 C44.856700000000004,34.534 45.1667,36.642 45.4457,38.936 C45.6007,40.269 45.6007,40.889 45.3527,41.478 C44.4847,43.462 41.3847,46.19 38.9977,47.957 C38.3467,48.422 37.7887,48.887 37.3857,49.29 V49.352 C38.9977,48.639 40.4857,47.988 41.7877,47.461 C43.1827,46.779 44.2677,45.694 45.0427,44.237 C44.9807,44.175 44.9807,44.175 45.0117,44.144 z" fill="#006838" id="svg_20" class=""/></g></svg>