<svg width="306" height="112" viewBox="0 0 306 112" fill="none" xmlns="http://www.w3.org/2000/svg">
<path d="M167.808 23.6462C167.808 23.6462 154.513 38.1001 138.069 39.8564C121.625 41.6126 103.185 47.6811 103.954 53.7497C104.724 59.8182 123.319 55.0277 123.319 55.0277C123.319 55.0277 103.665 58.9318 101.959 59.34C98.7096 60.1191 93.0443 66.6865 101.959 68.2819C110.258 69.8774 108.231 67.6718 119.939 66.8431C113.599 68.0387 105.823 68.5994 105.033 72.2727C104.113 77.0632 112.869 78.9802 120.248 78.3412C118.248 80.7364 114.868 82.6534 124.088 84.0881C133.308 85.5269 166.963 87.4646 189.092 77.2322C211.222 66.9998 221.977 58.5896 226.896 57.3652C231.816 56.1408 269.156 57.4188 297.51 66.9998C308.345 60.2923 304.235 28.0368 304.235 28.0368C304.235 28.0368 248.106 21.0118 236.731 14.3043C226.206 8.09562 199.625 -4.6763 167.217 3.83694C162.813 4.9954 158.663 7.03198 154.974 9.7859C142.544 19.0783 127.929 24.5614 127.929 24.5614C127.929 24.5614 136.073 34.4269 160.583 20.3728C162.262 21.7539 164.848 22.8217 167.808 23.6462C177.182 26.2599 190.318 26.4413 190.318 26.4413L167.808 23.6462Z" fill="#EFC5A7"/>
<path d="M167.808 23.6462C167.808 23.6462 154.513 38.1001 138.069 39.8564C121.625 41.6126 103.185 47.6811 103.954 53.7497C104.724 59.8182 123.319 55.0277 123.319 55.0277C123.319 55.0277 103.665 58.9318 101.959 59.34C98.7096 60.1191 93.0443 66.6865 101.959 68.2819C110.258 69.8774 108.231 67.6718 119.939 66.8431C113.599 68.0387 105.823 68.5994 105.033 72.2727C104.113 77.0632 112.869 78.9802 120.248 78.3412C118.248 80.7364 114.868 82.6534 124.088 84.0881C133.308 85.5269 166.963 87.4646 189.092 77.2322C211.222 66.9998 221.977 58.5896 226.896 57.3652C231.816 56.1408 269.156 57.4188 297.51 66.9998C308.345 60.2923 304.235 28.0368 304.235 28.0368C304.235 28.0368 248.106 21.0118 236.731 14.3043C226.206 8.09562 199.625 -4.6763 167.217 3.83694C162.813 4.9954 158.663 7.03198 154.974 9.7859C142.544 19.0783 127.929 24.5614 127.929 24.5614C127.929 24.5614 136.073 34.4269 160.583 20.3728C162.262 21.7539 164.848 22.8217 167.808 23.6462ZM167.808 23.6462C177.182 26.2599 190.318 26.4413 190.318 26.4413" stroke="#DCA886" stroke-miterlimit="10"/>
<path d="M123.316 55.0277C123.316 55.0277 144.676 52.3151 153.896 46.0858L123.316 55.0277Z" fill="#EFC5A7"/>
<path d="M123.316 55.0277C123.316 55.0277 144.676 52.3151 153.896 46.0858" stroke="#DCA886" stroke-miterlimit="10"/>
<path d="M119.941 66.8431C119.941 66.8431 139.766 67.5357 158.511 57.3693L119.941 66.8431Z" fill="#EFC5A7"/>
<path d="M119.941 66.8431C119.941 66.8431 139.766 67.5357 158.511 57.3693" stroke="#DCA886" stroke-miterlimit="10"/>
<path d="M120.246 78.3412C120.246 78.3412 150.366 76.1067 164.35 68.5994L120.246 78.3412Z" fill="#EFC5A7"/>
<path d="M120.246 78.3412C120.246 78.3412 150.366 76.1067 164.35 68.5994" stroke="#DCA886" stroke-miterlimit="10"/>
<path d="M48.3789 55.8976C50.1562 54.7844 51.8661 54.0135 53.3975 53.7497C59.2374 53.7497 56.6229 58.7009 55.8572 60.4572C55.643 60.9437 54.8734 61.5085 53.8736 62.065" fill="#FDE5D0"/>
<path d="M48.3789 55.8976C50.1562 54.7844 51.8661 54.0135 53.3975 53.7497C59.2374 53.7497 56.6229 58.7009 55.8572 60.4572C55.643 60.9437 54.8734 61.5085 53.8736 62.065" stroke="#E2BDA2" stroke-miterlimit="10"/>
<path d="M67.202 44.3666C66.5474 40.1945 64.6233 36.0883 61.2948 33.6601C57.9702 31.2319 53.1301 30.8526 49.8968 33.4169C47.0681 35.6637 45.9533 39.5843 45.7906 43.2782C45.4891 50.0805 47.929 56.9695 52.4001 61.9455C56.8712 66.9215 63.3181 69.9228 69.872 70.0712C69.872 70.0712 71.3399 70.1 72.5182 69.6218C78.6238 67.1482 83.8845 62.3495 86.606 56.1573C89.3276 49.9651 89.5378 42.6268 87.1773 36.2738C85.8919 32.8232 83.6425 29.4715 80.2742 28.2759C76.426 26.9113 71.9509 28.8613 69.5388 32.2625C67.1187 35.6678 66.5474 40.1986 67.202 44.3666Z" fill="#E23531"/>
<path d="M54.1021 61.694C51.4956 63.1411 47.0959 64.9262 47.0959 64.9262C47.0959 64.9262 62.001 56.6232 76.2951 58.6969C82.9046 61.0921 77.8304 64.6046 76.91 64.6046C75.9896 64.6046 62.7706 66.0434 62.3104 66.9999C61.8502 67.9563 78.2906 63.9656 82.2896 64.9221C86.2847 65.8785 85.2096 71.308 79.6792 72.1078C74.1488 72.9076 65.389 74.8205 65.389 74.8205C65.389 74.8205 75.9936 73.0643 80.1433 74.1815C84.2931 75.2987 86.5981 80.0892 80.2981 81.528C73.2284 82.0063 64.778 82.4845 64.778 82.4845C64.778 82.4845 78.1478 80.5675 80.2981 86.4752C79.3777 89.9877 73.3831 88.8704 70.1537 89.6702C66.9283 90.47 49.869 99.5728 38.6495 99.5728C28.3544 104.685 1 110.91 1 110.91V83.7625C1 83.7625 25.74 76.7375 31.2743 77.2157C31.4013 72.5283 40.5221 60.8242 48.3852 55.8894" fill="#FDE5D0"/>
<path d="M54.1021 61.694C51.4956 63.1411 47.0959 64.9262 47.0959 64.9262C47.0959 64.9262 62.001 56.6232 76.2951 58.6969C82.9046 61.0921 77.8304 64.6046 76.91 64.6046C75.9896 64.6046 62.7706 66.0434 62.3104 66.9999C61.8502 67.9563 78.2906 63.9656 82.2896 64.9221C86.2847 65.8785 85.2096 71.308 79.6792 72.1078C74.1488 72.9076 65.389 74.8205 65.389 74.8205C65.389 74.8205 75.9936 73.0643 80.1433 74.1815C84.2931 75.2987 86.5981 80.0892 80.2981 81.528C73.2284 82.0063 64.7781 82.4845 64.7781 82.4845C64.7781 82.4845 78.1478 80.5675 80.2981 86.4752C79.3777 89.9877 73.3831 88.8704 70.1537 89.6702C66.9283 90.47 49.869 99.5728 38.6495 99.5728C28.3544 104.685 1 110.91 1 110.91V83.7625C1 83.7625 25.74 76.7375 31.2743 77.2157C31.4013 72.5283 40.5221 60.8242 48.3852 55.8894" stroke="#E2BDA2" stroke-miterlimit="10"/>
</svg>
