<svg width="252" height="228" viewBox="0 0 252 228" fill="none" xmlns="http://www.w3.org/2000/svg">
<path d="M25.3832 217.723C25.3832 217.723 8.82406 210.325 13.1936 168.31C10.0493 157.887 5.44558 165.979 5.44558 165.979C5.44558 165.979 3.30136 224.032 29.2121 224.809C31.3653 217.494 25.3832 217.723 25.3832 217.723Z" fill="#D0CBB8"/>
<path d="M0 154.769C0.315326 163.748 7.90116 169.974 14.2888 167.871L17.0186 165.695L21.3881 143.513L24.1449 120.48L26.3342 104.213L27.5415 90.4614L29.6767 36.395C29.6767 36.4133 1.45951 70.8848 0 154.769Z" fill="#746D5A"/>
<path d="M27.543 90.5068C27.543 90.5068 18.6327 153.369 17.939 159.752C16.7138 165.274 14.2993 167.871 14.2993 167.871L14.2812 167.88C14.2903 167.88 14.2902 167.88 14.2993 167.871C17.2003 166.911 19.858 164.223 21.4617 159.285C23.2275 143.878 26.4438 118.194 26.4438 118.194L27.5339 90.4702L27.543 90.5068Z" fill="#595642"/>
<path d="M187.7 225.193C187.7 225.193 186.241 227.835 179.718 227.918C173.204 228 172.123 228 173.204 228C174.276 228 174.276 228 174.276 228L32.6049 227.552C32.6049 227.552 25.2443 226.674 25.1902 216.927C25.1362 207.18 25.3074 51.7563 25.3074 51.7563C25.3074 51.7563 24.3073 29.6379 40.8754 12.8319C49.7676 3.10304 60.2725 1 84.6607 1C109.049 1 140.554 1 140.554 1C140.554 1 176.898 9.55844 179.772 46.0964C179.889 81.2354 180.114 121.467 180.114 121.467C180.114 121.467 194.953 90.4156 205.07 90.7265C210.241 90.2236 220.71 89.4007 227.269 99.7879C233.828 110.175 241.296 121.147 242.044 121.851C242.792 122.556 250.846 131.772 249.927 142.745C249.008 153.717 240.378 163.757 240.378 163.757C240.378 163.757 233.224 172.279 219.953 174.144C205.872 174.958 191.133 175.662 191.133 175.662L187.7 225.193Z" fill="#A59F8F"/>
<path d="M119.019 28.6411C118.902 28.065 118.334 27.6993 117.775 27.8273L48.1786 43.1155C47.611 43.2435 47.2506 43.8104 47.3767 44.3864L58.4041 95.3348C66.5395 87.901 84.8825 85.9351 94.6576 102.897C96.2522 105.786 97.8018 108.474 99.3244 111.007L116.388 113.037C116.55 113.055 116.703 113.037 116.857 112.982L134.542 106.719C135.037 106.545 135.335 106.015 135.227 105.493L119.019 28.6411Z" fill="#007B42"/>
<path d="M193.144 108.74L206.334 90.6172L201.883 90.7269L189.234 108.31L193.144 108.74Z" fill="#908B7B"/>
<path d="M153.652 24.9746L155.03 28.5132L143.147 107.496L140.543 107.651L153.652 24.9746Z" fill="#99947B"/>
<path d="M142.616 50.1841L142.436 53.1375L132.048 67.8679L131.48 64.4024L142.616 50.1841Z" fill="#99947B"/>
<path d="M127.438 57.3065L140.24 111.355L153.655 24.9746L127.438 57.3065ZM135.411 90.7265L130.122 66.1393L142.618 50.1836L135.411 90.7265Z" fill="#FFC774"/>
<path d="M124.054 31.6225L141.379 113.065L136.361 113.376L119.09 28.98L124.054 31.6225L140.235 108.703L124.054 31.6225Z" fill="#F8F3E6"/>
<path d="M153.156 71.3508L155.183 70.7656L160.742 108.739H158.94L153.156 71.3508Z" fill="#098A4E"/>
<path d="M155.184 70.766L157.184 70.4551L162.968 108.74H160.742L155.184 70.766Z" fill="#016738"/>
<path d="M158.868 70.766L164.616 108.74H162.968L157.184 70.4551L158.868 70.766Z" fill="#064A28"/>
<path d="M152.664 67.091C152.664 67.091 154.079 64.8966 158.394 66.195C158.736 68.9564 159.088 71.1783 159.088 71.1783C159.088 71.1783 155.196 69.9347 153.169 72.1292C152.718 68.9746 152.664 67.091 152.664 67.091Z" fill="#FDD089"/>
<path d="M156.729 62.6644C155.882 62.1615 154.558 61.8414 153.278 63.3776C153.017 63.6885 152.882 64.0999 152.9 64.5022L152.999 66.715L153.648 66.6236C156.351 65.8006 156.729 62.6735 156.729 62.6644Z" fill="#ECE5DF"/>
<path d="M157.722 64.0549C157.677 63.5702 157.425 63.1314 157.037 62.857C156.947 62.793 156.848 62.729 156.749 62.665C156.749 62.6742 156.362 65.8013 153.668 66.6242L157.911 66.0573L157.722 64.0549Z" fill="#DAD2CF"/>
<path d="M169.671 109.17L167.599 72.8605C167.599 72.8605 167.193 71.3975 169.256 70.6294C171.32 69.8613 172.347 70.7666 172.347 70.7666C172.347 70.7666 174.617 70.4648 174.851 73.3268C175.085 76.1887 176.491 109.892 176.491 109.892L169.671 109.17Z" fill="#D73D28"/>
<path d="M170.576 70.3359L172.026 109.425L169.675 109.178L167.603 72.8687C167.603 72.8596 167.278 70.6102 170.576 70.3359Z" fill="#F44B2E"/>
<path d="M153.859 70.4554C153.859 70.4554 155.724 69.3308 158.319 70.0897" stroke="#E0B068" stroke-width="0.25" stroke-miterlimit="10" stroke-linecap="round"/>
<path d="M153.656 69.2943C153.656 69.2943 155.152 67.8313 158.143 68.5353" stroke="#E0B068" stroke-width="0.25" stroke-miterlimit="10" stroke-linecap="round"/>
<path d="M153.312 67.4917C153.312 67.4917 155.159 66.1476 157.907 66.9065" stroke="#E0B068" stroke-width="0.25" stroke-miterlimit="10" stroke-linecap="round"/>
<path d="M172.141 65.4532C170.907 63.2862 169.484 65.1606 169.024 65.9013C168.925 66.0658 168.871 66.2487 168.871 66.4499V69.6136C169.817 69.2935 170.204 64.6394 170.204 64.6394C170.204 64.6394 169.817 69.2935 168.871 69.6136V70.7657H169.988C172.313 70.0891 172.15 65.5812 172.141 65.4532Z" fill="#D0D0D0"/>
<path d="M172.257 65.6544C172.221 65.5813 172.185 65.5264 172.149 65.4624C172.158 65.5813 172.32 70.0891 169.996 70.7749H172.501V66.6328C172.492 66.2853 172.402 65.9562 172.257 65.6544Z" fill="#B0AFAC"/>
<path d="M194.519 174.381V215.473C194.519 215.473 194.69 222.806 188.447 225.275C181.257 225.33 66.974 224.772 66.974 224.772C66.974 224.772 58.8477 224.223 58.8477 214.577C58.8477 204.93 59.3071 133.994 59.3071 133.994C59.3071 133.994 58.4242 120.068 67.5506 110.412C76.6771 100.757 87.5603 113.915 89.9388 117.645C93.2362 121.696 111.327 150.955 134.183 163.793C156.653 175.369 178.122 174.528 178.122 174.528L194.519 174.381Z" fill="#D0CBB8"/>
<path d="M44.7035 131.041V48.0896C44.7035 48.0896 44.163 13.5358 83.2724 2.80114C95.9214 2.56341 140.545 2.02393 140.545 2.02393C140.545 2.02393 175.203 5.68138 180.104 48.5559C179.951 91.4396 181.023 116.027 181.023 116.027C181.023 116.027 196.15 89.236 208.394 90.1686C220.646 91.1013 223.457 92.4088 231.971 106.106C240.485 119.794 247.962 125.472 248.935 134.113C249.908 142.754 251.179 157.466 236.223 163.647C227.601 165.979 217.709 168.118 186.997 166.116C156.284 164.113 149.563 159.331 137.571 151.97C125.58 144.61 112.85 135.832 94.6421 102.887C84.1012 84.5819 63.551 88.3124 56.6499 97.1818C49.7577 106.06 45.4693 111.812 44.7035 131.041Z" stroke="#706A57" stroke-width="4" stroke-miterlimit="10"/>
<path d="M121.684 30.3511L139.36 113.375" stroke="#AAAAAA" stroke-width="0.25" stroke-miterlimit="10"/>
<path d="M215.989 107.148C215.989 107.148 247.963 132.833 241.062 159.212C234.621 166.92 209.088 165.512 209.088 165.512L174.934 163.994C168.609 163.18 153.888 162.714 124.212 141.345C113.166 131.425 97.3008 106.097 97.3008 106.097L215.989 107.148Z" fill="#D0CBB8"/>
<path d="M120.227 29.5742L138.02 113.266" stroke="#AAAAAA" stroke-width="0.25" stroke-miterlimit="10"/>
<path d="M124.211 31.2744L141.959 115.204" stroke="#007B42" stroke-miterlimit="10" stroke-linecap="round"/>
<path d="M146.523 33.7617L147.74 34.9961" stroke="#8D560C" stroke-width="0.25" stroke-miterlimit="10" stroke-linecap="round"/>
<path d="M144.168 36.6318L145.393 37.8662" stroke="#8D560C" stroke-width="0.25" stroke-miterlimit="10" stroke-linecap="round"/>
<path d="M141.84 39.5415L143.029 40.7485" stroke="#8D560C" stroke-width="0.25" stroke-miterlimit="10" stroke-linecap="round"/>
<path d="M139.5 42.4292L140.671 43.6179" stroke="#8D560C" stroke-width="0.25" stroke-miterlimit="10" stroke-linecap="round"/>
<path d="M137.164 45.3188L138.317 46.4892" stroke="#8D560C" stroke-width="0.25" stroke-miterlimit="10" stroke-linecap="round"/>
<path d="M134.805 48.1997L136.021 49.4341" stroke="#8D560C" stroke-width="0.25" stroke-miterlimit="10" stroke-linecap="round"/>
<path d="M132.449 51.1079L133.665 52.3423" stroke="#8D560C" stroke-width="0.25" stroke-miterlimit="10" stroke-linecap="round"/>
<path d="M130.109 53.9697L131.326 55.2133" stroke="#8D560C" stroke-width="0.25" stroke-miterlimit="10" stroke-linecap="round"/>
<path d="M142.621 50.1834V49.772L131.387 63.8989L131.486 64.4018L142.621 50.1834Z" fill="#BC9861"/>
<path d="M167.345 73.3355C167.345 73.3355 166.345 74.8168 167.769 75.3562C168.048 74.387 171.291 73.4909 173.39 74.8076C173.706 75.0088 173.904 75.3562 173.904 75.7311C173.958 79.2789 174.4 88.4682 174.4 88.4682C174.4 88.4682 175.201 89.9861 176.012 88.4682C175.976 86.0269 175.481 76.4809 175.382 74.5333C175.364 74.2681 175.255 74.0213 175.075 73.8292C174.354 73.0795 172.192 71.5708 167.345 73.3355Z" fill="#D0CECE"/>
<path d="M210.125 51.4634L167.34 110.065L173.899 110.211L214.909 54.9197L210.125 51.4634Z" fill="#5665F2"/>
<path d="M224.04 61.5029L214.905 54.9194L173.895 110.211L187.697 110.531L224.04 61.5029Z" fill="#3547E7"/>
<path d="M207.148 55.5513L210.635 58.0475" stroke="black" stroke-width="0.5" stroke-miterlimit="10"/>
<path d="M203.418 60.6533L206.896 63.1495" stroke="black" stroke-width="0.5" stroke-miterlimit="10"/>
<path d="M199.668 65.7734L203.146 68.2696" stroke="black" stroke-width="0.5" stroke-miterlimit="10"/>
<path d="M195.961 70.9126L199.439 73.3997" stroke="black" stroke-width="0.5" stroke-miterlimit="10"/>
<path d="M192.184 76.0234L195.661 78.5105" stroke="black" stroke-width="0.5" stroke-miterlimit="10"/>
<path d="M188.488 81.1807L191.966 83.6769" stroke="black" stroke-width="0.5" stroke-miterlimit="10"/>
<path d="M184.688 86.292L188.165 88.7882" stroke="black" stroke-width="0.5" stroke-miterlimit="10"/>
<path d="M181.012 91.394L184.489 93.8903" stroke="black" stroke-width="0.5" stroke-miterlimit="10"/>
<path d="M177.258 96.5332L180.735 99.0294" stroke="black" stroke-width="0.5" stroke-miterlimit="10"/>
<path d="M173.508 101.635L176.985 104.131" stroke="black" stroke-width="0.5" stroke-miterlimit="10"/>
<path d="M169.785 106.737L173.263 109.233" stroke="black" stroke-width="0.5" stroke-miterlimit="10"/>
<path d="M208.785 53.3022L209.893 54.116" stroke="black" stroke-width="0.5" stroke-miterlimit="10"/>
<path d="M205.145 58.3027L206.253 59.1165" stroke="black" stroke-width="0.5" stroke-miterlimit="10"/>
<path d="M201.477 63.2769L202.585 64.0906" stroke="black" stroke-width="0.5" stroke-miterlimit="10"/>
<path d="M197.867 68.3149L198.975 69.1287" stroke="black" stroke-width="0.5" stroke-miterlimit="10"/>
<path d="M194.172 73.2808L195.28 74.0945" stroke="black" stroke-width="0.5" stroke-miterlimit="10"/>
<path d="M190.332 78.6294L191.44 79.4432" stroke="black" stroke-width="0.5" stroke-miterlimit="10"/>
<path d="M186.664 83.5576L187.772 84.3714" stroke="black" stroke-width="0.5" stroke-miterlimit="10"/>
<path d="M182.891 88.7886L183.999 89.6024" stroke="black" stroke-width="0.5" stroke-miterlimit="10"/>
<path d="M221.633 64.7681L219.957 63.6343" stroke="black" stroke-width="0.5" stroke-miterlimit="10"/>
<path d="M179.195 93.8623L180.303 94.6761" stroke="black" stroke-width="0.5" stroke-miterlimit="10"/>
<path d="M175.453 99.0293L176.552 99.8431" stroke="black" stroke-width="0.5" stroke-miterlimit="10"/>
<path d="M171.656 104.131L172.764 104.945" stroke="black" stroke-width="0.5" stroke-miterlimit="10"/>
<path d="M215.989 107.148C215.989 107.148 247.963 132.833 241.062 159.212C234.621 166.92 209.088 165.512 209.088 165.512L174.934 163.994C168.609 163.18 153.888 162.714 124.212 141.345C113.166 131.425 97.3008 106.097 97.3008 106.097L215.989 107.148Z" fill="#D0CBB8"/>
<path d="M216.38 71.772L214.695 70.6382" stroke="black" stroke-width="0.5" stroke-miterlimit="10"/>
<path d="M211.113 78.9224L209.438 77.7886" stroke="black" stroke-width="0.5" stroke-miterlimit="10"/>
<path d="M205.961 85.9165L204.285 84.7827" stroke="black" stroke-width="0.5" stroke-miterlimit="10"/>
<path d="M200.805 92.8662L199.129 91.7324" stroke="black" stroke-width="0.5" stroke-miterlimit="10"/>
<path d="M195.556 99.9614L193.871 98.8276" stroke="black" stroke-width="0.5" stroke-miterlimit="10"/>
<path d="M190.414 106.856L188.738 105.713" stroke="black" stroke-width="0.5" stroke-miterlimit="10"/>
</svg>
