<svg width="264" height="233" viewBox="0 0 264 233" fill="none" xmlns="http://www.w3.org/2000/svg">
<path d="M132.013 143.009L132.532 53.0478C95.9589 44.3105 59.4453 53.0478 59.4453 53.0478V145.215C59.4453 145.215 103.062 135.998 132.013 143.009Z" fill="#4051F1"/>
<path d="M63.0416 57.0583H62.6933L61.918 141.661L81.4594 139.851C81.4594 139.851 100.613 134.56 132.034 139.851C132.008 139.382 132.034 137.724 132.034 137.724L63.0416 57.0583Z" fill="#2837C6"/>
<path d="M132.502 58.0398C132.502 58.0398 108.933 48.3437 65.3161 55.637C63.7523 56.5 63.082 56.9794 63.082 56.9794L63.3054 141.661C63.3054 141.661 103.571 131.531 132.042 138.971C132.035 131.677 132.502 58.0398 132.502 58.0398Z" fill="#F0E0D0"/>
<path d="M65.3203 55.6368V139.85C65.3203 139.85 101.709 128.558 132.04 138.976L132.506 58.0397C132.506 58.0397 109.357 47.8585 65.3203 55.6368Z" fill="#FFF7EF"/>
<path d="M63.7422 56.5508L64.0313 141.486" stroke="#E3D1BE" stroke-width="0.25" stroke-miterlimit="10" stroke-linecap="round"/>
<path d="M64.8125 55.9189V141.278" stroke="#E3D1BE" stroke-width="0.25" stroke-miterlimit="10" stroke-linecap="round"/>
<path d="M64.8125 140.556C64.8125 140.556 100.676 131.818 121.262 136.991" stroke="#E3D1BE" stroke-width="0.25" stroke-miterlimit="10" stroke-linecap="round"/>
<path d="M72.8203 60.5328C72.8203 60.5328 78.5237 58.694 95.0491 59.055" stroke="#EDDAC8" stroke-width="0.25" stroke-miterlimit="10" stroke-linecap="round"/>
<path d="M70.5195 67.3414C70.5195 67.3414 95.4621 62.9135 123.756 68.1705" stroke="#EDDAC8" stroke-width="0.25" stroke-miterlimit="10" stroke-linecap="round"/>
<path d="M71.0234 74.7922C71.0234 74.7922 105.08 70.8325 125.041 76.7382" stroke="#EDDAC8" stroke-width="0.25" stroke-miterlimit="10" stroke-linecap="round"/>
<path d="M71.6094 83.8623C71.6094 83.8623 89.3898 80.0436 125.043 84.652" stroke="#EDDAC8" stroke-width="0.25" stroke-miterlimit="10" stroke-linecap="round"/>
<path d="M73.2812 93.2257C73.2812 93.2257 105.662 89.8414 125.374 94.5964" stroke="#EDDAC8" stroke-width="0.25" stroke-miterlimit="10" stroke-linecap="round"/>
<path d="M74.3711 100.931C74.3711 100.931 104.235 96.3957 126.043 101.218" stroke="#EDDAC8" stroke-width="0.25" stroke-miterlimit="10" stroke-linecap="round"/>
<path d="M76.4688 109.645C76.4688 109.645 101.549 104.89 125.375 109.645" stroke="#EDDAC8" stroke-width="0.25" stroke-miterlimit="10" stroke-linecap="round"/>
<path d="M75.9688 117.204C75.9688 117.204 95.4313 113.532 122.358 116.702" stroke="#EDDAC8" stroke-width="0.25" stroke-miterlimit="10" stroke-linecap="round"/>
<path d="M81.7617 130.527C81.7617 130.527 99.1282 128.366 107.177 128.942" stroke="#EDDAC8" stroke-width="0.25" stroke-miterlimit="10" stroke-linecap="round"/>
<path d="M75.9688 125.557C75.9688 125.557 90.5624 119.725 123.364 124.548" stroke="#EDDAC8" stroke-width="0.25" stroke-miterlimit="10" stroke-linecap="round"/>
<path d="M131.996 143.02L131.477 53.0583C168.049 44.321 204.563 53.0583 204.563 53.0583V145.225C204.569 145.225 160.946 136.008 131.996 143.02Z" fill="#4051F1"/>
<path d="M200.962 57.0415H201.31L202.085 141.644L182.544 139.834C182.544 139.834 163.39 134.543 131.969 139.834C131.995 139.366 131.969 137.707 131.969 137.707L200.962 57.0415Z" fill="#2837C6"/>
<path d="M131.578 58.0398C131.578 58.0398 155.147 48.3437 198.764 55.637C200.328 56.5 200.998 56.9794 200.998 56.9794L200.775 141.661C200.775 141.661 160.411 131.531 131.94 138.971C131.946 131.677 131.578 58.0398 131.578 58.0398Z" fill="#F0E0D0"/>
<path d="M198.69 55.2422V139.456C198.69 139.456 162.367 128.558 132.036 138.971L131.504 57.6394C131.504 57.6451 154.653 47.4695 198.69 55.2422Z" fill="#FFF7EF"/>
<path d="M200.333 56.5508L200.051 141.486" stroke="#E3D1BE" stroke-width="0.25" stroke-miterlimit="10" stroke-linecap="round"/>
<path d="M199.273 55.9189V141.278" stroke="#E3D1BE" stroke-width="0.25" stroke-miterlimit="10" stroke-linecap="round"/>
<path d="M199.27 140.556C199.27 140.556 163.406 131.818 142.82 136.991" stroke="#E3D1BE" stroke-width="0.25" stroke-miterlimit="10" stroke-linecap="round"/>
<path d="M191.26 60.5328C191.26 60.5328 185.557 58.694 169.031 59.055" stroke="#EDDAC8" stroke-width="0.25" stroke-miterlimit="10" stroke-linecap="round"/>
<path d="M193.564 67.3414C193.564 67.3414 168.622 62.9135 140.328 68.1705" stroke="#EDDAC8" stroke-width="0.25" stroke-miterlimit="10" stroke-linecap="round"/>
<path d="M193.065 74.7922C193.065 74.7922 159.009 70.8325 139.047 76.7382" stroke="#EDDAC8" stroke-width="0.25" stroke-miterlimit="10" stroke-linecap="round"/>
<path d="M192.48 83.8623C192.48 83.8623 174.7 80.0436 139.047 84.652" stroke="#EDDAC8" stroke-width="0.25" stroke-miterlimit="10" stroke-linecap="round"/>
<path d="M190.796 93.2257C190.796 93.2257 158.415 89.8414 138.703 94.5964" stroke="#EDDAC8" stroke-width="0.25" stroke-miterlimit="10" stroke-linecap="round"/>
<path d="M189.704 100.931C189.704 100.931 159.84 96.3957 138.031 101.218" stroke="#EDDAC8" stroke-width="0.25" stroke-miterlimit="10" stroke-linecap="round"/>
<path d="M187.609 109.645C187.609 109.645 162.529 104.89 138.703 109.645" stroke="#EDDAC8" stroke-width="0.25" stroke-miterlimit="10" stroke-linecap="round"/>
<path d="M188.116 117.204C188.116 117.204 168.653 113.532 141.727 116.702" stroke="#EDDAC8" stroke-width="0.25" stroke-miterlimit="10" stroke-linecap="round"/>
<path d="M182.322 130.527C182.322 130.527 164.955 128.366 156.906 128.942" stroke="#EDDAC8" stroke-width="0.25" stroke-miterlimit="10" stroke-linecap="round"/>
<path d="M188.114 125.557C188.114 125.557 173.52 119.725 140.719 124.548" stroke="#EDDAC8" stroke-width="0.25" stroke-miterlimit="10" stroke-linecap="round"/>
<path d="M131.504 57.645L131.944 138.976" stroke="#E3D1BE" stroke-width="0.5" stroke-miterlimit="10" stroke-linecap="round"/>
<path d="M132.151 9.11362C130.6 4.77039 125.764 1.33529 120.619 0.263579C119.384 0.00411357 118.076 -0.11434 116.841 0.156407C115.001 0.568168 113.536 1.84858 112.767 3.34333C111.998 4.83808 111.867 6.51896 112.031 8.14345C112.373 11.5391 113.963 14.7711 116.079 17.6478C118.195 20.5301 120.829 23.0966 123.471 25.6405C125.068 27.1803 126.677 28.7202 128.281 30.2544C129.634 31.5518 130.659 32.6404 132.013 33.9377C133.366 32.6404 134.51 31.5518 135.857 30.2544C137.46 28.7202 139.07 27.1803 140.667 25.6405C143.308 23.0966 145.943 20.5301 148.059 17.6478C150.174 14.7655 151.764 11.5334 152.106 8.14345C152.27 6.51896 152.139 4.83808 151.37 3.34333C150.601 1.84858 149.136 0.568168 147.296 0.156407C146.068 -0.11998 144.754 0.00411357 143.518 0.263579C138.38 1.32965 133.702 4.76475 132.151 9.11362Z" fill="#F85531"/>
<path opacity="0.09" d="M76.5352 108.641C76.5352 108.641 81.5026 108.258 82.7642 115.325C83.7695 121.891 82.3437 123.544 82.094 125.416C81.8443 127.289 82.0086 134.492 84.0258 137.73C84.0258 139.388 81.115 138.525 81.115 138.525L79.4131 136.077L77.7376 129.308L76.5352 108.641Z" fill="black"/>
<path d="M0 232.892C0 232.892 15.7698 209.827 19.9093 200.994C24.0489 192.161 40.4298 187.119 40.9949 185.872C41.5534 184.625 50.667 165.713 50.667 165.713C50.667 165.713 51.3963 164.37 55.5885 165.713C59.7806 167.055 77.1208 171.742 77.1208 171.742C77.1208 171.742 80.8004 173.282 81.6349 174.202C82.4759 175.121 82.3905 175.426 82.2 176.272C82.0094 177.118 75.7212 190.977 75.1299 193.645C74.5451 196.307 73.4083 198.253 73.4083 198.253C73.4083 198.253 77.3902 211.802 77.5019 212.569C77.6136 213.336 78.7306 218.091 78.1721 220.827C77.6136 223.562 77.1668 232.249 77.3902 232.897C76.2206 232.892 0 232.892 0 232.892Z" fill="#006838"/>
<path d="M57.1754 167.106C57.1754 167.106 52.8519 165.284 51.5574 165.916C50.2564 166.548 56.3409 170.451 56.3409 170.451L57.1754 167.106Z" fill="#024023"/>
<path d="M83.684 144.448C81.8968 140.657 79.8007 138.373 79.5445 137.752C79.2948 137.126 76.2197 131.322 77.8098 127.024C79.3736 122.799 80.9243 115.568 80.9769 115.326C80.852 112.189 79.7416 109.877 77.501 108.929C73.4731 107.226 71.9093 112.601 71.0156 113.921C70.122 115.241 68.3873 119.251 67.8814 124.023C67.3754 128.801 63.9127 134.729 63.5775 134.752C63.2424 134.774 61.9283 134.994 60.7521 131.751C59.576 128.508 59.6877 91.5732 59.6877 91.5732L59.3788 91.3589C59.3788 91.3589 57.0331 88.956 54.7925 92.2219C52.5584 95.4878 46.625 127.554 46.625 127.554C46.625 127.554 45.1335 132.862 52.4533 140.618C52.8147 141.001 53.1366 141.408 53.3929 141.842C58.9123 151.346 59.8454 163.389 55.5218 169.921C56.2775 170.451 58.1173 171.731 60.8507 173.023C61.6917 173.226 66.0022 173.892 73.1906 168.589C81.2463 162.65 84.1768 152.818 84.2622 152.17C84.3542 151.515 85.169 148.289 83.684 144.448Z" fill="#FFEBDC"/>
<path d="M76.574 172.289C76.574 172.289 80.5821 174.055 81.3115 175.008C82.0474 175.961 79.2548 177.202 74.6619 176.757C70.0755 176.305 76.574 172.289 76.574 172.289Z" fill="#024023"/>
<path d="M78.1019 109.222C78.759 110.435 78.9824 111.839 78.667 113.233C78.621 113.407 78.5618 113.577 78.5027 113.752L78.2793 114.259L77.9967 114.75C77.8785 114.919 77.7405 115.083 77.5828 115.229C77.2674 115.523 76.8797 115.771 76.4395 115.934C75.9861 116.098 75.5064 116.143 75.0662 116.143C74.1529 116.143 73.325 115.855 72.6153 115.483C72.4313 115.387 72.2868 115.297 72.0896 115.162C71.8991 115.021 71.7348 114.857 71.61 114.677C71.3603 114.304 71.2749 113.904 71.38 113.447C71.6428 112.742 72.0108 112.2 72.359 111.602L73.4432 109.865C73.2527 110.503 73.003 111.129 72.7664 111.755C72.5299 112.364 72.2539 113.018 72.1225 113.582C72.1159 113.774 72.2408 114.056 72.4116 114.22C72.497 114.31 72.6022 114.383 72.7139 114.44C72.8321 114.496 73.0161 114.575 73.1607 114.637C73.7849 114.897 74.442 115.043 75.0662 115.038C75.3882 115.032 75.6838 114.987 75.9335 114.897C76.1964 114.806 76.4395 114.665 76.6497 114.479C76.7549 114.389 76.8469 114.287 76.9257 114.175L77.1951 113.802L77.4185 113.402L77.6025 112.984C78.0625 111.839 78.161 110.548 78.1019 109.222Z" fill="#F8E1D0"/>
<path d="M69.8963 117.802C69.8963 117.802 70.9279 117.813 72.1041 117.582C73.2803 117.35 74.4827 118.157 75.5209 118.247C76.1648 117.948 75.6917 117.17 73.3591 116.555C71.0331 115.94 70.0935 117.204 69.8898 117.401C69.6992 117.598 69.8109 117.807 69.8963 117.802Z" fill="#F8E1D0"/>
<path d="M75.5312 120.684C74.6048 120.481 72.3181 121.164 71.7399 120.278C71.1617 119.392 70.3535 118.862 70.0184 119.319C69.6833 119.776 70.1695 121.288 71.7399 121.745C73.3169 122.201 75.0384 121.479 75.5312 121.147C76.0241 120.803 75.7546 120.735 75.5312 120.684Z" fill="#F8E1D0"/>
<path d="M64.4558 133.516C64.4558 133.516 62.9642 136.884 62.4648 137.352C62.7408 136.308 63.5819 134.751 63.5819 134.751L64.4558 133.516Z" fill="#F8E1D0"/>
<path d="M73.7893 200.803L70.2871 201.203C70.2871 201.203 72.0809 206.539 71.7458 209.636C71.575 208.581 69.4263 202.314 68.7233 201.259C67.8559 201.451 64.1172 200.803 64.1172 200.803C64.1172 200.803 65.4248 206.973 62.9936 211.774C63.079 210.211 63.4141 203.707 62.1525 200.515C59.9185 200.442 54.1428 198.163 54.1428 198.163C54.1428 198.163 52.7892 207.475 45.6008 217.222C47.2501 213.381 52.1716 201.429 52.2307 197.542C50.6537 196.809 47.9466 194.953 47.9466 194.953C47.9466 194.953 45.4103 199.584 44.3918 200.255C45.0357 199.116 47.4801 195.168 47.4406 194.53C46.6719 194.135 44.3918 192.048 44.3918 192.048C44.3918 192.048 37.5582 194.903 34.4766 199.156C35.2322 197.198 38.0248 192.173 42.5323 189.961C41.6387 189.172 40.5414 186.273 40.5414 186.273L40.9487 185.99C40.9487 185.99 42.5126 188.726 43.6099 189.916C44.7138 191.106 51.4159 199.426 69.2029 198.682C72.3635 198.631 73.5396 198.298 73.5396 198.298L73.7893 200.803Z" fill="#015A31"/>
<path d="M70.1305 199.844C69.9202 199.387 69.7954 199.099 69.5128 198.659C70.7613 198.591 72.0623 198.479 73.4224 198.315L73.3961 198.174C59.7881 199.827 51.7258 196.386 47.3563 193.21C42.6188 189.77 41.0812 185.889 41.0681 185.849L40.9104 185.894C40.917 185.917 41.5543 187.508 43.2299 189.55C41.5675 189.961 40.4504 190.813 39.3203 191.772C38.1901 192.77 37.1979 193.87 36.37 195.049C35.9298 195.624 35.575 196.245 35.1676 196.837C34.8193 197.458 34.4514 198.067 34.1294 198.693C33.8206 199.325 33.492 199.951 33.2029 200.594L32.375 202.523L33.2752 200.616C33.5906 199.985 33.9388 199.37 34.2739 198.749C34.6222 198.135 35.0164 197.537 35.3844 196.933C35.8049 196.352 36.186 195.749 36.646 195.196C37.5133 194.056 38.5318 193.002 39.6685 192.065C40.2336 191.591 40.8578 191.185 41.5018 190.813C42.126 190.475 42.9407 190.102 43.6044 189.973C44.5243 191.033 45.7202 192.189 47.2512 193.306C47.6191 193.577 48.0199 193.842 48.447 194.113C47.744 195.292 47.0343 196.465 46.3115 197.633L45.2011 199.387C44.8068 199.962 44.4652 200.566 43.9658 201.073C44.5112 200.594 44.9054 200.007 45.3391 199.454L46.5941 197.768C47.4023 196.662 48.1908 195.551 48.9793 194.434C50.3985 195.286 52.1069 196.115 54.1307 196.809C54.2359 197.616 54.1373 198.676 53.9927 199.539C53.835 200.425 53.6051 201.305 53.3291 202.173C52.7772 203.91 52.0807 205.625 51.2856 207.3C50.8913 208.141 50.4577 208.964 50.0371 209.799C49.5838 210.617 49.1435 211.441 48.6704 212.253C48.1842 213.059 47.7177 213.872 47.2183 214.673L45.6939 217.059L47.2906 214.706C47.8162 213.917 48.3025 213.116 48.815 212.315C49.3144 211.514 49.7743 210.696 50.254 209.884C50.7008 209.06 51.1607 208.242 51.5813 207.408C52.4289 205.744 53.1845 204.035 53.7956 202.286C54.1044 201.412 54.3607 200.52 54.5513 199.618C54.7155 198.738 54.8864 197.982 54.8009 197.035C57.2978 197.83 60.2612 198.417 63.7306 198.631C64.0525 200.126 64.2759 201.688 64.4139 203.217C64.5453 204.751 64.5848 206.302 64.4205 207.842C64.6899 206.313 64.7687 204.757 64.7425 203.205C64.7096 201.671 64.6045 200.199 64.3876 198.67C65.1104 198.704 65.8463 198.727 66.6086 198.727C67.3248 198.727 68.0607 198.704 68.8163 198.676C69.112 199.06 69.434 199.579 69.6771 199.996C69.9334 200.43 70.1568 200.876 70.3539 201.338C70.7547 202.252 71.011 203.217 71.1358 204.192C71.1292 203.205 70.9715 202.213 70.6693 201.254C70.5247 200.791 70.3407 200.312 70.1305 199.844Z" fill="#024023"/>
<path d="M83.1893 142.62C79.8316 136.573 76.8682 131.508 79.3322 124.113C80.423 120.836 81.0866 117.819 80.9881 115.32C80.9355 115.568 79.2468 122.799 77.683 127.018C76.0863 131.316 79.168 137.121 79.4177 137.747C79.6674 138.373 81.7634 140.652 83.5572 144.442C85.0356 148.289 84.2274 151.51 84.142 152.158C84.0566 152.807 81.1195 162.633 73.0703 168.578C65.8819 173.88 61.5715 173.215 60.7305 173.011C64.4167 174.749 69.693 176.503 75.8629 176.836C75.968 175.775 76.6777 169.966 80.6201 162.588C84.9831 154.431 86.5469 148.672 83.1893 142.62Z" fill="#F8E1D0"/>
<path d="M59.4441 91.353C59.4112 91.353 59.385 91.353 59.385 91.353L56.1719 121.524C56.1719 121.524 57.1903 129.015 60.8568 133.02C60.8568 133.02 59.9763 130.042 59.9698 128.034C59.9698 127.402 59.8186 125.337 59.8186 125.337L59.5624 116.831L59.4441 91.353Z" fill="#F8E1D0"/>
<path opacity="0.09" d="M187.459 108.641C187.459 108.641 182.492 108.258 181.23 115.325C180.225 121.891 181.651 123.544 181.901 125.416C182.15 127.289 181.986 134.492 179.969 137.73C179.969 139.388 182.88 138.525 182.88 138.525L184.581 136.077L186.257 129.308L187.459 108.641Z" fill="black"/>
<path d="M263.999 232.892C263.999 232.892 248.229 209.827 244.089 200.994C239.95 192.161 223.569 187.119 223.004 185.872C222.445 184.625 213.332 165.713 213.332 165.713C213.332 165.713 212.602 164.37 208.41 165.713C204.218 167.055 186.878 171.742 186.878 171.742C186.878 171.742 183.198 173.282 182.364 174.202C181.523 175.121 181.608 175.426 181.799 176.272C181.989 177.118 188.277 190.977 188.869 193.645C189.454 196.307 190.59 198.253 190.59 198.253C190.59 198.253 186.608 211.802 186.497 212.569C186.385 213.336 185.268 218.091 185.826 220.827C186.385 223.562 186.832 232.249 186.608 232.897C187.778 232.892 263.999 232.892 263.999 232.892Z" fill="#006838"/>
<path d="M206.82 167.106C206.82 167.106 211.144 165.284 212.438 165.916C213.739 166.548 207.655 170.451 207.655 170.451L206.82 167.106Z" fill="#024023"/>
<path d="M180.315 144.448C182.102 140.657 184.198 138.373 184.454 137.752C184.704 137.126 187.779 131.322 186.189 127.024C184.625 122.799 183.074 115.568 183.022 115.326C183.147 112.189 184.257 109.877 186.498 108.929C190.526 107.226 192.089 112.601 192.983 113.921C193.877 115.241 195.611 119.251 196.117 124.023C196.623 128.801 200.086 134.729 200.421 134.752C200.756 134.774 202.07 134.994 203.247 131.751C204.423 128.508 204.311 91.5732 204.311 91.5732L204.62 91.3589C204.62 91.3589 206.966 88.956 209.206 92.2219C211.44 95.4878 217.374 127.554 217.374 127.554C217.374 127.554 218.865 132.862 211.545 140.618C211.184 141.001 210.862 141.408 210.606 141.842C205.086 151.346 204.153 163.389 208.477 169.921C207.721 170.451 205.881 171.731 203.148 173.023C202.307 173.226 197.997 173.892 190.808 168.589C182.752 162.65 179.822 152.818 179.736 152.17C179.644 151.515 178.836 148.289 180.315 144.448Z" fill="#FFEBDC"/>
<path d="M187.425 172.289C187.425 172.289 183.417 174.055 182.687 175.008C181.952 175.961 184.744 177.202 189.337 176.757C193.923 176.305 187.425 172.289 187.425 172.289Z" fill="#024023"/>
<path d="M185.9 109.222C185.841 110.548 185.939 111.839 186.393 112.99L186.577 113.407L186.8 113.808L187.07 114.18C187.148 114.287 187.247 114.389 187.346 114.485C187.549 114.671 187.799 114.812 188.062 114.902C188.311 114.992 188.607 115.038 188.929 115.043C189.553 115.049 190.21 114.902 190.835 114.643C190.979 114.581 191.163 114.502 191.281 114.445C191.393 114.389 191.498 114.316 191.584 114.225C191.755 114.056 191.879 113.78 191.873 113.588C191.741 113.03 191.465 112.37 191.229 111.76C190.992 111.14 190.743 110.514 190.552 109.871L191.636 111.608C191.984 112.206 192.352 112.748 192.615 113.453C192.72 113.904 192.635 114.304 192.385 114.682C192.26 114.863 192.096 115.032 191.906 115.167C191.709 115.303 191.571 115.393 191.38 115.489C190.67 115.855 189.842 116.149 188.929 116.149C188.489 116.149 188.009 116.109 187.556 115.94C187.116 115.777 186.728 115.528 186.412 115.235C186.255 115.088 186.117 114.925 185.999 114.756L185.716 114.265L185.493 113.757C185.44 113.582 185.374 113.413 185.328 113.238C185.019 111.839 185.243 110.435 185.9 109.222Z" fill="#F8E1D0"/>
<path d="M194.102 117.802C194.102 117.802 193.071 117.813 191.894 117.582C190.718 117.35 189.516 118.157 188.478 118.247C187.834 117.948 188.307 117.17 190.639 116.555C192.965 115.94 193.905 117.204 194.109 117.401C194.299 117.598 194.194 117.807 194.102 117.802Z" fill="#F8E1D0"/>
<path d="M188.471 120.684C189.397 120.481 191.684 121.164 192.262 120.278C192.84 119.392 193.649 118.862 193.984 119.319C194.319 119.776 193.833 121.288 192.262 121.745C190.692 122.201 188.964 121.479 188.471 121.147C187.978 120.803 188.254 120.735 188.471 120.684Z" fill="#F8E1D0"/>
<path d="M199.543 133.516C199.543 133.516 201.035 136.884 201.534 137.352C201.258 136.308 200.417 134.751 200.417 134.751L199.543 133.516Z" fill="#F8E1D0"/>
<path d="M190.211 200.803L193.713 201.203C193.713 201.203 191.919 206.539 192.254 209.636C192.425 208.581 194.574 202.314 195.277 201.259C196.144 201.451 199.883 200.803 199.883 200.803C199.883 200.803 198.575 206.973 201.007 211.774C200.921 210.211 200.586 203.707 201.848 200.515C204.082 200.442 209.857 198.163 209.857 198.163C209.857 198.163 211.211 207.475 218.399 217.222C216.75 213.381 211.829 201.429 211.77 197.542C213.347 196.809 216.054 194.953 216.054 194.953C216.054 194.953 218.59 199.584 219.608 200.255C218.964 199.116 216.52 195.168 216.56 194.53C217.328 194.135 219.608 192.048 219.608 192.048C219.608 192.048 226.442 194.903 229.524 199.156C228.768 197.198 225.975 192.173 221.468 189.961C222.362 189.172 223.459 186.273 223.459 186.273L223.051 185.99C223.051 185.99 221.488 188.726 220.39 189.916C219.293 191.106 212.584 199.426 194.797 198.682C191.637 198.631 190.461 198.298 190.461 198.298L190.211 200.803Z" fill="#015A31"/>
<path d="M193.87 199.844C194.08 199.387 194.205 199.099 194.488 198.659C193.239 198.591 191.938 198.479 190.578 198.315L190.604 198.174C204.212 199.827 212.275 196.386 216.644 193.21C221.382 189.77 222.919 185.889 222.932 185.849L223.09 185.894C223.084 185.917 222.446 187.508 220.771 189.55C222.433 189.961 223.55 190.813 224.68 191.772C225.81 192.77 226.803 193.87 227.631 195.049C228.071 195.624 228.426 196.245 228.833 196.837C229.181 197.458 229.549 198.067 229.871 198.693C230.18 199.325 230.509 199.951 230.798 200.594L231.626 202.523L230.725 200.616C230.41 199.985 230.062 199.37 229.727 198.749C229.378 198.135 228.984 197.537 228.616 196.933C228.196 196.352 227.815 195.749 227.355 195.196C226.487 194.056 225.469 193.002 224.332 192.065C223.767 191.591 223.143 191.185 222.499 190.813C221.875 190.475 221.06 190.102 220.396 189.973C219.476 191.033 218.28 192.189 216.749 193.306C216.381 193.577 215.981 193.842 215.553 194.113C216.257 195.292 216.966 196.465 217.689 197.633L218.799 199.387C219.194 199.962 219.535 200.566 220.035 201.073C219.489 200.594 219.095 200.007 218.661 199.454L217.406 197.768C216.598 196.662 215.81 195.551 215.021 194.434C213.602 195.286 211.894 196.115 209.87 196.809C209.765 197.616 209.863 198.676 210.008 199.539C210.166 200.425 210.395 201.305 210.671 202.173C211.223 203.91 211.92 205.625 212.715 207.3C213.109 208.141 213.543 208.964 213.963 209.799C214.417 210.617 214.857 211.441 215.33 212.253C215.816 213.059 216.283 213.872 216.782 214.673L218.307 217.059L216.71 214.706C216.184 213.917 215.698 213.116 215.186 212.315C214.686 211.514 214.226 210.696 213.747 209.884C213.3 209.06 212.84 208.242 212.419 207.408C211.572 205.744 210.816 204.035 210.205 202.286C209.896 201.412 209.64 200.52 209.449 199.618C209.285 198.738 209.114 197.982 209.2 197.035C206.703 197.83 203.739 198.417 200.27 198.631C199.948 200.126 199.725 201.688 199.587 203.217C199.455 204.751 199.416 206.302 199.58 207.842C199.311 206.313 199.232 204.757 199.258 203.205C199.291 201.671 199.396 200.199 199.613 198.67C198.89 198.704 198.154 198.727 197.392 198.727C196.676 198.727 195.94 198.704 195.184 198.676C194.889 199.06 194.567 199.579 194.323 199.996C194.067 200.43 193.844 200.876 193.647 201.338C193.246 202.252 192.99 203.217 192.865 204.192C192.871 203.205 193.029 202.213 193.331 201.254C193.482 200.791 193.66 200.312 193.87 199.844Z" fill="#024023"/>
<path d="M180.813 142.62C184.171 136.573 187.134 131.508 184.67 124.113C183.58 120.836 182.916 117.819 183.014 115.32C183.067 115.568 184.756 122.799 186.32 127.018C187.916 131.316 184.835 137.121 184.585 137.747C184.335 138.373 182.239 140.652 180.445 144.442C178.967 148.289 179.775 151.51 179.861 152.158C179.946 152.807 182.883 162.633 190.932 168.578C198.121 173.88 202.431 173.215 203.272 173.011C199.586 174.749 194.31 176.503 188.14 176.836C188.034 175.775 187.325 169.966 183.382 162.588C179.019 154.431 177.456 148.672 180.813 142.62Z" fill="#F8E1D0"/>
<path d="M204.557 91.353C204.59 91.353 204.616 91.353 204.616 91.353L207.829 121.524C207.829 121.524 206.811 129.015 203.145 133.02C203.145 133.02 204.025 130.042 204.032 128.034C204.032 127.402 204.183 125.337 204.183 125.337L204.439 116.831L204.557 91.353Z" fill="#F8E1D0"/>
</svg>
