<svg width="179" height="234" viewBox="0 0 179 234" fill="none" xmlns="http://www.w3.org/2000/svg">
<path d="M103.834 37.376C103.834 37.376 103.419 49.6675 102.303 52.1356C101.187 54.6038 102.008 65.5295 104.6 70.5152C107.192 75.5009 107.543 76.447 108.899 78.183C110.255 79.9189 112.727 80.6511 117.146 80.4372C121.565 80.2233 118.733 90.8858 119.093 93.4115C119.443 95.929 143.65 89.8409 143.65 89.8409L143.41 87.4797C143.41 87.4797 141.934 84.9046 146.501 74.925C151.067 64.9454 137.174 66.7307 137.174 66.7307L135.993 43.8426C135.993 43.8426 121.334 42.4686 120.975 42.0491C120.624 41.6295 110.615 35.2781 110.615 35.2781L103.834 37.376Z" fill="#FFDDC7"/>
<path d="M106.621 43.851C106.621 43.851 106.501 45.6446 107.682 45.6117C108.862 45.5788 110.117 42.148 110.117 42.148C110.117 42.148 113.143 51.0416 114.554 53.3535C116.75 52.2017 113.807 34.6201 113.807 34.6201L106.621 40.7494V43.851Z" fill="#F5CEB4"/>
<path d="M126.375 78.0267C126.375 78.0267 126.32 80.3139 127.584 80.5772C128.848 80.8404 132.003 78.6602 132.003 78.6602L133.654 79.6804C133.654 79.6804 132.981 81.9676 134.512 82.0169C136.043 82.0663 138.839 79.3678 138.839 79.3678L139.364 77.5331L140.305 81.2107C140.305 81.2107 141.689 82.0005 145.545 77.1711C149.402 72.3417 140.13 72.1854 140.13 72.1854L133.802 71.1323L126.375 78.0267Z" fill="#F5CEB4"/>
<path d="M106.591 17.5648C105.668 18.223 99.1921 23.2169 100.677 33.1965C100.705 33.3939 101 33.4515 101.12 33.287C101.738 32.4642 102.31 31.7732 102.698 31.3289C102.845 31.1643 103.141 31.2631 103.122 31.477C102.928 33.5173 102.753 39.515 106.434 44.55C106.535 44.6981 106.794 44.6734 106.858 44.5089C107.32 43.4394 108.666 40.4529 109.93 39.3257C110.069 39.2023 110.309 39.2764 110.327 39.4574C110.604 42.3204 113.86 50.6793 114.128 54.2663C114.174 54.8834 114.441 55.484 114.958 55.8953C115.493 56.3232 115.927 56.2738 116.13 56.2162C116.203 56.1915 116.259 56.1421 116.277 56.0681C116.499 55.303 118.141 50.2515 123.196 48.5484C128.676 46.7138 130.733 48.6554 131.499 50.8027C132.265 52.95 131.739 58.3306 124.377 63.415C124.331 63.4397 124.303 63.4808 124.285 63.5302C122.772 68.2197 124.912 76.8171 126.72 79.1783C126.988 79.5239 127.514 79.6391 127.929 79.4498C129.285 78.8328 129.598 77.7962 129.958 77.7962C130.373 77.7962 132.486 81.5807 133.842 81.5231C134.931 81.4819 136.766 79.7213 137.458 79.022C137.578 78.8986 137.791 78.9397 137.855 79.096C138.123 79.7954 138.814 81.3256 139.848 81.5313C141.204 81.7946 143.676 76.3317 144.442 76.2824C145.208 76.233 144.562 77.5987 145.798 77.8538C146.97 78.1006 148.031 75.4925 149.184 74.711C149.304 74.6287 149.488 74.678 149.534 74.8097C149.765 75.4103 149.331 76.6937 150.152 76.6937C151.093 76.6937 155.789 69.1164 164.341 62.9543C172.856 56.825 176.084 49.7003 176.269 43.9165C176.269 43.8589 176.26 43.8096 176.214 43.7684C173.418 41.1933 110.004 18.659 106.794 17.5236C106.738 17.5072 106.655 17.5237 106.591 17.5648Z" fill="#575343"/>
<path d="M167.91 44.1555C161.886 44.1555 151.489 43.0202 136.212 37.6313C107.771 27.6024 105.686 16.6766 105.612 16.2159L105.594 16.1008L105.668 16.002C112.992 6.17872 125.216 0.312744 138.343 0.312744C160.032 0.312744 177.671 16.1912 177.671 35.6979C177.671 38.1003 177.403 40.5026 176.868 42.8309L176.831 42.9873L176.665 43.0613C176.554 43.1024 173.851 44.1555 167.91 44.1555Z" fill="white"/>
<path d="M138.336 0.617041C159.868 0.617041 177.322 16.3228 177.322 35.6978C177.322 38.1166 177.045 40.4861 176.528 42.765V42.7732C176.528 42.7732 173.853 43.8428 167.912 43.8428C161.473 43.8428 151.196 42.584 136.334 37.3433C107.754 27.2567 105.946 16.1665 105.946 16.1665C112.948 6.79567 124.839 0.617041 138.336 0.617041ZM138.336 0C125.089 0 112.764 5.91537 105.374 15.8209L105.227 16.0184L105.263 16.2487C105.337 16.7177 107.459 27.8079 136.076 37.911C151.408 43.3245 161.851 44.4598 167.903 44.4598C173.927 44.4598 176.685 43.382 176.805 43.3327L177.128 43.2011L177.202 42.8966C177.737 40.5354 178.014 38.1166 178.014 35.6978C178.014 16.0184 160.209 0 138.336 0Z" fill="#D5D5D5"/>
<path d="M175.304 24.5831C175.11 24.0566 174.907 23.5382 174.686 23.0281C171.881 23.9414 168.348 24.5173 166.162 24.0154C163.975 23.5136 162.822 22.5345 161.605 21.4979C160.322 20.4119 159.003 19.2848 156.568 18.7665C153.662 18.1494 151.623 18.9392 149.824 19.6468C148.099 20.3214 146.614 20.8973 144.418 20.379C142.554 19.9429 141.752 19.0873 140.737 18.0178C139.621 16.8413 138.357 15.5003 135.543 14.5953C132.923 13.7479 130.995 13.9371 129.445 14.0934C127.96 14.2415 126.982 14.3402 125.829 13.5339C124.768 12.7935 124.427 11.8885 123.956 10.638C123.449 9.28049 122.822 7.60215 121.032 5.61117C120.746 5.2903 120.442 4.98588 120.137 4.6897C119.574 4.9612 119.021 5.24094 118.477 5.53712C118.873 5.89089 119.251 6.26111 119.602 6.63957C121.18 8.39196 121.733 9.8564 122.213 11.1563C122.72 12.5056 123.2 13.7808 124.694 14.8256C126.438 16.0432 127.997 15.8869 129.658 15.7224C131.087 15.5825 132.702 15.418 134.925 16.142C137.278 16.8989 138.274 17.9602 139.335 19.0791C140.414 20.2227 141.53 21.3992 143.957 21.9751C146.78 22.6415 148.8 21.8517 150.58 21.1523C152.259 20.4942 153.837 19.8689 156.152 20.3625C158.099 20.7739 159.141 21.6624 160.341 22.6908C161.614 23.7768 163.062 25.0027 165.71 25.6115C166.688 25.8336 167.693 25.9488 168.726 25.9488C170.396 25.9406 173.182 25.2824 175.304 24.5831Z" fill="#047541"/>
<path d="M136.873 7.4618C137.722 8.03771 138.607 7.9472 139.456 7.86493C140.314 7.78266 141.2 7.69214 142.297 8.18578C143.487 8.72055 144.235 9.43634 144.89 10.0616C145.692 10.8267 146.449 11.5507 147.722 11.5919C147.759 11.5919 147.796 11.5919 147.842 11.5919C148.829 11.5919 149.465 11.1558 150.093 10.7362C150.674 10.3413 151.274 9.93818 152.261 9.74073C153.34 9.52682 154.179 9.92174 154.982 10.3166C155.803 10.7116 156.643 11.1229 157.602 10.7115C158.285 10.4236 158.534 9.95463 158.774 9.50214C158.967 9.13191 159.17 8.75346 159.641 8.39969C160.176 7.98833 160.895 7.76619 161.753 7.67569C161.412 7.44533 161.062 7.22322 160.711 7.00108C160.065 7.16563 159.512 7.41242 159.041 7.77442C158.423 8.24337 158.156 8.74524 157.943 9.14837C157.731 9.54328 157.593 9.80655 157.205 9.97109C156.698 10.185 156.227 9.97933 155.425 9.59265C154.567 9.17306 153.488 8.65474 152.058 8.94269C150.877 9.18128 150.13 9.68315 149.53 10.0863C148.921 10.4976 148.451 10.7938 147.759 10.7691C146.855 10.7362 146.31 10.2179 145.563 9.50214C144.89 8.86041 144.05 8.05415 142.713 7.45357C141.366 6.85298 140.249 6.95994 139.345 7.05044C138.552 7.13272 137.98 7.18207 137.417 6.81185C136.91 6.46631 136.891 6.0138 136.891 5.23221C136.901 4.45063 136.91 3.47982 136.089 2.53369C135.406 1.74388 134.557 1.37366 133.875 1.06925C133.736 1.01166 133.616 0.954075 133.506 0.896484C133.091 0.945848 132.675 1.00345 132.27 1.06104C132.537 1.3819 132.989 1.58757 133.469 1.80148C134.096 2.08121 134.806 2.39383 135.36 3.02733C135.987 3.75132 135.978 4.49177 135.969 5.21577C135.978 6.02203 135.969 6.85299 136.873 7.4618Z" fill="#047541"/>
<path d="M143.674 5.3805C145.463 6.03045 145.251 7.41261 146.81 7.75815C148.48 8.1366 149.126 6.64749 151.165 6.84494C153.047 7.03417 153.369 8.37519 154.938 8.24355C156.174 8.1366 156.266 7.27275 157.918 6.70507C158.609 6.46648 159.227 6.40067 159.763 6.40067C153.609 2.74779 146.248 0.616943 138.323 0.616943C137.29 0.616943 136.275 0.666294 135.27 0.732111C135.463 0.814383 135.666 0.896661 135.888 0.995388C136.773 1.39852 137.225 1.59599 137.539 1.83458C138.997 2.94525 138.24 4.3521 139.347 5.12546C140.509 5.94818 141.727 4.68119 143.674 5.3805Z" fill="#047541"/>
<path d="M130.945 10.8285C131.215 10.4114 131.09 9.89648 130.667 9.67838C130.243 9.46028 129.681 9.62162 129.411 10.0387C129.141 10.4558 129.265 10.9707 129.689 11.1888C130.112 11.4069 130.675 11.2456 130.945 10.8285Z" fill="#047541"/>
<path d="M116.425 10.4731C116.695 10.056 116.571 9.54103 116.147 9.32293C115.724 9.10483 115.161 9.26615 114.891 9.68325C114.621 10.1004 114.746 10.6153 115.169 10.8334C115.593 11.0515 116.155 10.8902 116.425 10.4731Z" fill="#047541"/>
<path d="M135.863 21.4999C136.133 21.0828 136.008 20.5679 135.585 20.3498C135.161 20.1317 134.599 20.293 134.329 20.7101C134.059 21.1272 134.183 21.6421 134.607 21.8602C135.03 22.0783 135.593 21.917 135.863 21.4999Z" fill="#047541"/>
<path d="M148.562 17.1557C148.832 16.7386 148.707 16.2237 148.284 16.0056C147.86 15.7874 147.298 15.9488 147.028 16.3659C146.758 16.783 146.882 17.2979 147.306 17.516C147.73 17.7341 148.292 17.5728 148.562 17.1557Z" fill="#047541"/>
<path d="M156.579 26.1705C156.659 25.6941 156.331 25.2559 155.847 25.1919C155.363 25.1279 154.906 25.4622 154.827 25.9386C154.748 26.415 155.076 26.8532 155.56 26.9172C156.043 26.9812 156.5 26.6469 156.579 26.1705Z" fill="#047541"/>
<path d="M170.044 21.3674C170.529 21.3169 170.873 20.8881 170.81 20.4096C170.748 19.9312 170.303 19.5843 169.817 19.6349C169.331 19.6854 168.988 20.1141 169.051 20.5926C169.113 21.071 169.558 21.4179 170.044 21.3674Z" fill="#047541"/>
<path d="M173.954 29.9816C174.44 29.9311 174.783 29.5023 174.72 29.0239C174.658 28.5455 174.213 28.1986 173.727 28.2491C173.241 28.2996 172.898 28.7284 172.961 29.2068C173.023 29.6852 173.468 30.0321 173.954 29.9816Z" fill="#047541"/>
<path d="M28.2695 145.194L37.9929 158.111L38.5003 160.529L32.4024 157.847L28.2695 145.194Z" fill="#F5CEB4"/>
<path d="M168.605 37.6724C163.023 37.6724 154.785 36.9813 143.549 34.3651C139.951 33.5259 136.418 32.3412 133.05 30.8438C112.238 21.5635 108.594 13.5338 108.438 13.18L109.794 11.7979C109.831 11.8801 113.816 20.4282 133.871 29.3712C137.128 30.8191 140.532 31.9627 144.01 32.7772C166.889 38.1002 177.212 35.2947 177.313 35.2618V36.9155C177.092 36.9813 174.638 37.6724 168.605 37.6724Z" fill="#3647E8"/>
<path d="M121.78 54.5958C122.352 54.2503 122.98 53.9953 123.709 53.8307C124.078 53.7649 124.493 53.7155 124.991 53.8636C125.231 53.9541 125.489 54.094 125.664 54.3161C125.84 54.53 125.932 54.7686 125.978 54.9825C126.116 55.8546 125.803 56.4634 125.434 57.0146C125.046 57.5494 124.576 58.0184 123.976 58.3886C123.93 58.4133 123.865 58.4051 123.838 58.3639C123.819 58.3475 123.819 58.3228 123.819 58.3063C123.884 57.6564 124.059 57.0887 124.197 56.5375C124.317 56.0109 124.52 55.4679 124.511 55.1553C124.502 54.9908 124.52 54.9825 124.428 54.8756C124.317 54.7686 124.05 54.6863 123.764 54.6534C123.174 54.5794 122.5 54.6617 121.854 54.7522H121.845C121.79 54.7604 121.744 54.7275 121.734 54.6864C121.734 54.6452 121.744 54.6205 121.78 54.5958Z" fill="#F5CEB4"/>
<path d="M121.495 52.2097C122.288 51.28 123.34 50.5149 124.604 50.0542C125.24 49.8156 125.942 49.7169 126.652 49.7251C127.371 49.7169 128.063 49.9143 128.728 50.1364L128.783 50.1694C129.3 50.4326 129.77 50.8687 130.001 51.3952C130.241 51.9135 130.305 52.4565 130.277 52.9501C130.213 53.9456 129.945 54.8671 129.493 55.6816C129.041 56.4961 128.46 57.2283 127.814 57.8947C127.159 58.5529 126.449 59.1781 125.591 59.6635C125.545 59.6882 125.49 59.68 125.462 59.6389C125.443 59.6142 125.443 59.5813 125.453 59.5566C125.803 58.7174 126.218 57.9523 126.606 57.1872C127.002 56.4303 127.399 55.6816 127.759 54.9494C128.119 54.2254 128.525 53.5178 128.681 52.8103C128.829 52.0945 128.691 51.5022 128.1 51.1155L128.156 51.1484C127.648 50.9262 127.132 50.7041 126.56 50.6548C125.997 50.5889 125.406 50.5972 124.825 50.7288C123.663 50.9756 122.547 51.568 121.615 52.3249L121.606 52.3331C121.569 52.366 121.513 52.3578 121.477 52.3249C121.477 52.2837 121.477 52.2344 121.495 52.2097Z" fill="#F5CEB4"/>
<path d="M176.878 131.66C176.878 131.66 179.202 144.05 174.959 170.237C171.186 194.606 170.171 206.338 170.484 210.254C170.789 214.171 164.285 208.469 164.285 208.469L176.878 131.66Z" fill="#045A33"/>
<path d="M119.449 89.0926C119.449 89.0926 135.344 82.6836 143.158 84.2961C142.881 85.3821 143.158 86.5668 143.158 86.5668L119.449 90.4254V89.0926Z" fill="#F5CEB4"/>
<path d="M121.059 89.4874C121.059 89.4874 140.856 84.0492 147.95 86.9699C154.122 91.6758 123.144 93.2555 123.144 93.2555L121.059 89.4874Z" fill="#045A33"/>
<path d="M18.5681 125.498L17.2305 130.047L42.6645 165.054L49.1406 162.915C49.1406 162.915 56.9913 158.226 73.5967 161.722C76.5026 159.098 77.093 158.357 77.093 158.357L18.5681 125.498Z" fill="#C7C5C5"/>
<path d="M44.7829 161.393C41.3142 157.345 19.8194 127.086 18.7031 125.506C19.3673 124.774 26.7568 117.024 43.5282 117.024C48.1501 117.024 53.1317 117.608 58.3347 118.776L58.4085 118.793L58.4547 118.743C61.8496 114.959 74.2852 110.385 84.6267 110.385C87.7725 110.385 90.5308 110.804 92.8279 111.627C97.6435 121.384 75.4752 156.737 74.3221 158.571C73.6578 158.399 69.3958 157.37 63.5655 157.37C56.7296 157.37 50.401 158.719 44.7829 161.393Z" fill="#FFF9F2"/>
<path d="M84.6376 110.483C87.728 110.483 90.4403 110.886 92.7097 111.692C97.3684 121.458 75.8552 155.947 74.2869 158.448C73.392 158.225 69.213 157.271 63.5856 157.271C56.7589 157.271 50.4488 158.612 44.8307 161.261C41.2236 157.008 20.4022 127.678 18.8616 125.514C19.7841 124.519 27.1828 117.131 43.5484 117.131C48.161 117.131 53.1334 117.715 58.3272 118.875L58.4748 118.908L58.5671 118.801C61.9343 115.033 74.3238 110.483 84.6376 110.483ZM84.6376 110.277C74.0839 110.277 61.676 114.983 58.3733 118.669C52.7736 117.419 47.8473 116.917 43.5391 116.917C25.7529 116.917 18.5664 125.498 18.5664 125.498C18.5664 125.498 41.362 157.633 44.7569 161.525C51.4267 158.341 58.198 157.477 63.5764 157.477C69.9602 157.477 74.3883 158.694 74.3883 158.694C74.3883 158.694 97.9404 121.721 92.8757 111.536C90.4403 110.648 87.6173 110.277 84.6376 110.277Z" fill="#D9D9D9"/>
<path d="M58.3711 118.669L75.4839 159.04" stroke="#D9D9D9" stroke-width="0.5" stroke-miterlimit="10" stroke-linecap="round"/>
<path d="M34.1875 121.927C34.1875 121.927 38.2743 119.829 44.7873 120.668" stroke="#D9D9D9" stroke-width="0.5" stroke-miterlimit="10" stroke-linecap="round"/>
<path d="M57.1941 124.025C57.1941 124.025 37.6458 120.808 24.2969 129.208" stroke="#D9D9D9" stroke-width="0.5" stroke-miterlimit="10" stroke-linecap="round"/>
<path d="M27.9062 132.853C27.9062 132.853 40.7755 125.991 58.9123 128.443" stroke="#D9D9D9" stroke-width="0.5" stroke-miterlimit="10" stroke-linecap="round"/>
<path d="M31.2812 137.888C31.2812 137.888 46.5121 131.446 61.5124 134.177" stroke="#D9D9D9" stroke-width="0.5" stroke-miterlimit="10" stroke-linecap="round"/>
<path d="M35.7578 142.372C35.7578 142.372 47.5661 137.477 62.4557 139.295" stroke="#D9D9D9" stroke-width="0.5" stroke-miterlimit="10" stroke-linecap="round"/>
<path d="M38.4961 146.922C38.4961 146.922 47.8874 142.405 65.2032 144.544" stroke="#D9D9D9" stroke-width="0.5" stroke-miterlimit="10" stroke-linecap="round"/>
<path d="M41.9609 151.784C41.9609 151.784 48.9444 146.436 66.1403 148.468" stroke="#D9D9D9" stroke-width="0.5" stroke-miterlimit="10" stroke-linecap="round"/>
<path d="M43.418 156.374C43.418 156.374 53.741 151.364 68.0309 152.853" stroke="#D9D9D9" stroke-width="0.5" stroke-miterlimit="10" stroke-linecap="round"/>
<path d="M65.5117 119.985C65.5117 119.985 74.8569 114.012 89.6911 115.139" stroke="#D9D9D9" stroke-width="0.5" stroke-miterlimit="10" stroke-linecap="round"/>
<path d="M68.0312 124.099C68.0312 124.099 78.631 118.431 89.7013 119.475" stroke="#D9D9D9" stroke-width="0.5" stroke-miterlimit="10" stroke-linecap="round"/>
<path d="M69.2031 128.723C69.2031 128.723 79.0188 124.099 87.6536 125.506" stroke="#D9D9D9" stroke-width="0.5" stroke-miterlimit="10" stroke-linecap="round"/>
<path d="M71.1641 133.503C71.1641 133.503 77.2896 130.845 84.8266 130.376" stroke="#D9D9D9" stroke-width="0.5" stroke-miterlimit="10" stroke-linecap="round"/>
<path d="M72.9766 137.888C72.9766 137.888 81.2239 135.37 84.831 135.091" stroke="#D9D9D9" stroke-width="0.5" stroke-miterlimit="10" stroke-linecap="round"/>
<path d="M74.543 143.351C74.543 143.351 79.4877 141.532 80.5855 141.598" stroke="#D9D9D9" stroke-width="0.5" stroke-miterlimit="10" stroke-linecap="round"/>
<path d="M76.2656 148.007C76.2656 148.007 78.3598 146.814 79.9557 146.65" stroke="#D9D9D9" stroke-width="0.5" stroke-miterlimit="10" stroke-linecap="round"/>
<path d="M75.4805 152.104C75.4805 152.104 77.9713 150.87 79.0414 150.928" stroke="#D9D9D9" stroke-width="0.5" stroke-miterlimit="10" stroke-linecap="round"/>
<path opacity="0.1" d="M43.0015 147.736C43.0015 147.736 46.71 147.037 46.71 151.784C46.71 156.539 46.7285 159.303 50.7138 162.051C48.9518 163.104 48.7396 163.549 48.7396 163.549L42.6602 158.53L43.0015 147.736Z" fill="black"/>
<path opacity="0.1" d="M78.9061 136.876C78.9061 136.876 74.9762 141.771 76.2769 143.614C76.9873 144.766 77.0979 145.185 77.0979 145.185L69.8008 160.941C69.8008 160.941 72.4484 161.154 72.9835 161.623C73.5093 162.092 80.6035 144.61 80.6035 144.61L78.9061 136.876Z" fill="black"/>
<path d="M0.665837 200.439C0.665837 200.439 -5.19219 210.526 17.8432 222.233C40.8786 233.94 52.4287 232.632 52.4287 232.632L57.1427 231.793C57.1427 231.793 63.5727 228.058 62.8532 225.911C62.1336 223.763 62.9085 218.391 62.9085 218.391L55.3715 212.566L28.2216 200.439L15.5646 194.088L8.37815 194.59L3.78397 196.614C3.78397 196.605 1.36696 198.629 0.665837 200.439Z" fill="#C7C5C5"/>
<path d="M45.1758 232.065C45.1758 232.065 55.2128 235.281 61.3845 230.172C67.5654 225.063 62.9897 217.988 62.9897 217.988L59.2996 216.737C59.2996 216.737 61.3292 217.634 62.0118 220.703C62.6853 223.772 61.5783 227.721 58.4786 229.827C55.3881 231.925 52.2054 233.258 45.1758 232.065Z" fill="#575343"/>
<path d="M31.6602 205.112C31.6602 205.112 37.6566 211.842 47.3984 212.328C46.7065 210.18 31.6602 205.112 31.6602 205.112Z" fill="#575343"/>
<path d="M1.28516 199.436C1.28516 199.436 3.23167 195.001 11.765 195.026C11.765 195.026 17.2448 195.207 21.7744 198.095C20.8888 194.442 18.6286 194.154 18.6286 194.154C18.6286 194.154 6.13763 190.699 1.28516 199.436Z" fill="#575343"/>
<path d="M89.2812 187.63L111.662 179.427L107.003 186.733L89.2812 187.63Z" fill="#2A39CC"/>
<path d="M106.338 186.659L91.7065 186.741L89.3633 187.597L103.764 189.95L106.338 186.659Z" fill="#212FB7"/>
<path d="M66.1102 218.712L63.3795 218.186C63.3795 218.186 67.0881 225.22 62.0234 229.531C67.7339 228.165 68.8501 227.696 68.8501 227.696C68.8501 227.696 67.78 219.708 66.1102 218.712Z" fill="#16207A"/>
<path d="M85.6921 224.998L66.7711 230.609C66.7711 230.609 65.7563 230.683 66.2268 230C66.6973 229.317 69.308 224.537 66.0977 219.313C70.7287 218.712 85.6921 224.998 85.6921 224.998Z" fill="#3647E8"/>
<path d="M17.9525 191.126C17.9525 191.126 14.8528 198.235 41.1724 209.679C67.492 221.123 91.9297 228.527 109.245 231.053C126.561 233.57 138.37 235.775 155.768 231.892C161.617 230.666 165.492 227.721 166.147 227.128C166.802 226.536 162.955 216.137 162.955 216.137L111.921 199.51L17.9525 191.126Z" fill="#202DB4"/>
<path d="M103.437 189.423C103.437 189.423 85.6137 185.153 43.4544 182.949C31.0464 182.002 23.4356 184.808 20.133 188.304C17.2639 191.061 17.7252 191.686 18.5647 192.229C19.0075 192.541 67.7905 223.706 152.349 230.584C161.768 230.954 168.899 228.067 170.246 219.395C167.783 212.46 103.437 189.423 103.437 189.423Z" fill="#3647E8"/>
<path d="M169.701 219.535C169.701 219.535 169.941 221.394 169.462 222.02C168.401 222.406 155.642 226.117 140.808 224.085C126.749 222.159 115.439 216.532 107.616 206.116C106.711 204.907 105.983 203.599 105.494 202.208C104.304 198.86 103.953 196.054 103.953 196.054L169.701 219.535Z" fill="#2837CB"/>
<path d="M62.0436 167.037C62.0436 167.037 50.3091 164.067 46.8312 160.891C43.6854 157.345 45.1799 151.783 45.1799 151.783L41.1484 155.222L43.0304 165.12L61.4901 168.287L62.0436 167.037Z" fill="#F5CEB4"/>
<path d="M80.2687 143.351L69.4383 167.3C69.4383 167.3 56.2185 167.942 47.925 163.096C47.1962 162.668 46.5689 162.1 46.1261 161.426C42.888 156.473 44.9268 152.104 45.1759 151.783C45.3512 151.282 45.1759 148.501 44.1703 147.974C43.1648 147.448 41.9655 147.604 40.8124 149.628C39.6684 151.652 37.2514 156.72 37.2514 158.135C36.4304 158.842 31.4672 153.684 31.0797 152.631C30.683 151.578 28.2568 145.193 28.2568 145.193H27.9062C27.9062 145.193 28.7181 149.817 28.5705 151.282C28.4229 152.746 28.921 159.32 30.2218 160.998C31.5133 162.676 34.4654 165.441 37.9987 166.913C41.5319 168.386 48.7553 174.055 49.3826 174.581C50.0099 175.108 56.7259 179.484 56.7259 179.484L62.6116 182.561L79.3001 182.948L92.9995 155.14L94.0604 145.671L80.2687 143.351Z" fill="#FFDDC7"/>
<path d="M89.3906 150.755C89.3906 150.755 81.2171 174.162 75.7188 178.646C70.2206 183.129 60.0175 181.303 56.7148 179.485C62.0563 182.422 70.2944 188.025 77.0934 187.605C83.8832 187.186 87.2043 177.379 89.3906 173.323C91.577 169.258 100.175 151.619 100.175 151.619L90.6914 148.962L89.3906 150.755Z" fill="#F5CEB4"/>
<path d="M41.6877 151.01C41.9183 151.142 42.1766 151.191 42.4072 151.191C42.5825 151.191 42.7394 151.167 42.8593 151.126C43.4313 150.945 44.2431 150.262 44.28 149.439C44.2984 148.912 44.2892 148.328 44.28 148.049C44.2431 148.024 44.2154 147.999 44.1785 147.975C44.0678 147.917 43.9571 147.876 43.8464 147.835C43.8371 147.859 43.8187 147.876 43.8187 147.901C43.8187 147.909 43.8464 148.723 43.8187 149.423C43.791 150.031 43.1545 150.599 42.7117 150.739C42.5087 150.805 42.1858 150.805 41.946 150.665C41.7061 150.525 41.5585 150.27 41.5216 149.9C41.4201 148.937 42.7393 147.892 42.7578 147.876C42.7947 147.851 42.7947 147.81 42.8131 147.777C42.3242 147.901 41.8168 148.238 41.3187 148.896C41.1434 149.217 41.0327 149.571 41.0696 149.933C41.1157 150.566 41.4294 150.871 41.6877 151.01Z" fill="#F5CEB4"/>
<path d="M104.065 196.392C104.065 196.392 102.413 191.669 103.041 188.938C105.864 188.165 114.268 173.816 113.64 166.955C113.013 160.093 114 158.53 108.29 142.504C113.677 127.67 117.644 122.98 117.644 122.98L131.537 144.964C131.537 144.964 121.879 195.1 121.879 194.886C121.879 194.672 104.065 196.392 104.065 196.392Z" fill="#045A33"/>
<path d="M81.2174 145.663L77.0938 141.779C77.0938 141.779 81.0883 130.566 83.1824 126.691C85.1658 123.013 93.6992 103.654 96.9188 99.6642C100.138 95.674 104.299 94.3083 104.299 94.3083V122.248L81.2174 145.663Z" fill="#0C9757"/>
<path d="M81.2188 145.663L98.4146 104.601C98.4146 104.601 102.769 95.5671 104.3 94.3083C105.832 93.0496 115.131 89.7916 123.498 89.2651C132.216 89.6846 139.513 89.265 141.164 88.5328C142.816 87.8006 147.521 86.8545 147.521 86.8545C147.521 86.8545 162.945 90.9516 171.783 104.395C175.648 110.277 177.53 121.039 177.512 131.668C177.493 145.333 174.753 159.024 173.425 164.577C171.073 174.45 168.36 206.486 170.482 210.263C170.722 216.038 171.774 219.403 171.774 219.403C171.774 219.403 163.056 224.339 144.919 223.286C126.782 222.233 107.704 211.628 104.051 196.4C110.177 192.516 121.598 178.333 121.598 163.943C121.598 149.554 123.36 144.198 116.182 128.023C113.83 132.121 102.169 153.857 102.169 153.857C102.169 153.857 91.4588 154.063 81.2188 145.663Z" fill="#047541"/>
<path d="M155.879 98.9651C158.96 101.984 161.082 105.678 162.844 109.43C164.578 113.215 165.713 117.188 166.589 121.187L167.143 124.206L167.512 127.25L167.696 128.772C167.743 129.282 167.761 129.792 167.798 130.294C167.863 131.314 167.909 132.326 167.955 133.347C168.001 135.379 167.918 137.419 167.899 139.451C167.724 141.483 167.558 143.507 167.346 145.531C167.346 143.499 167.42 141.475 167.447 139.443C167.374 137.419 167.383 135.395 167.244 133.371C167.023 131.356 167.023 129.332 166.682 127.332L166.276 124.321L165.685 121.343C164.892 117.369 163.757 113.453 162.189 109.66C161.386 107.776 160.519 105.901 159.468 104.115C158.453 102.305 157.29 100.561 155.879 98.9651Z" fill="#056339"/>
<path d="M166.871 152.697C167.203 153.067 167.185 153.437 167.222 153.816C167.24 154.186 167.212 154.565 167.212 154.935C167.203 155.683 167.176 156.432 167.129 157.181C167.083 157.93 167.028 158.678 166.945 159.419C166.843 160.159 166.751 160.916 166.511 161.64C166.502 161.656 166.484 161.665 166.465 161.665C166.447 161.656 166.438 161.64 166.438 161.624C166.585 160.891 166.585 160.151 166.594 159.402C166.604 158.662 166.594 157.913 166.576 157.173L166.521 154.943C166.511 154.573 166.484 154.203 166.493 153.824C166.521 153.454 166.484 153.084 166.797 152.705C166.816 152.681 166.843 152.681 166.871 152.697Z" fill="#045A33"/>
</svg>
