<svg width="246" height="149" viewBox="0 0 246 149" fill="none" xmlns="http://www.w3.org/2000/svg">
<path d="M92.754 6.05719C92.754 6.05719 94.1664 11.1195 92.754 13.6994C91.3415 16.2793 88.6882 21.5926 88.6882 23.9262C88.3653 26.3806 88.4965 29.1651 88.6882 31.0292C88.8799 32.8932 95.6142 34.6783 95.6142 34.6783L118.032 27.659L117.946 25.1952C117.946 25.1952 116.387 18.0365 108.503 12.2491C105.249 10.0549 103.04 6.84744 102.232 3.55627C99.6245 4.00253 94.4187 5.02056 94.4187 5.02056L92.7893 5.60628L92.754 6.05719Z" fill="#EE982A"/>
<path d="M102.231 13.3695C102.403 13.3695 102.543 13.2404 102.543 13.0812C102.543 12.9221 102.403 12.793 102.231 12.793C102.058 12.793 101.918 12.9221 101.918 13.0812C101.918 13.2404 102.058 13.3695 102.231 13.3695Z" fill="#C97D1B"/>
<path d="M104.349 14.7872C104.572 14.7872 104.752 14.6207 104.752 14.4153C104.752 14.2099 104.572 14.0434 104.349 14.0434C104.126 14.0434 103.945 14.2099 103.945 14.4153C103.945 14.6207 104.126 14.7872 104.349 14.7872Z" fill="#C97D1B"/>
<path d="M94.0746 18.4781C94.3337 18.4781 94.5437 18.2845 94.5437 18.0458C94.5437 17.807 94.3337 17.6135 94.0746 17.6135C93.8155 17.6135 93.6055 17.807 93.6055 18.0458C93.6055 18.2845 93.8155 18.4781 94.0746 18.4781Z" fill="#C97D1B"/>
<path d="M96.2009 20.0168C96.4154 20.0168 96.5893 19.8566 96.5893 19.6589C96.5893 19.4612 96.4154 19.301 96.2009 19.301C95.9864 19.301 95.8125 19.4612 95.8125 19.6589C95.8125 19.8566 95.9864 20.0168 96.2009 20.0168Z" fill="#C97D1B"/>
<path d="M100.003 22.3318C100.413 22.3318 100.745 22.0259 100.745 21.6485C100.745 21.2711 100.413 20.9651 100.003 20.9651C99.5937 20.9651 99.2617 21.2711 99.2617 21.6485C99.2617 22.0259 99.5937 22.3318 100.003 22.3318Z" fill="#C97D1B"/>
<path d="M93.9691 26.3063C94.2951 26.3063 94.5593 26.0628 94.5593 25.7624C94.5593 25.462 94.2951 25.2185 93.9691 25.2185C93.6431 25.2185 93.3789 25.462 93.3789 25.7624C93.3789 26.0628 93.6431 26.3063 93.9691 26.3063Z" fill="#C97D1B"/>
<path d="M97.8902 25.7624C98.1187 25.7624 98.3039 25.5918 98.3039 25.3812C98.3039 25.1707 98.1187 25.0001 97.8902 25.0001C97.6618 25.0001 97.4766 25.1707 97.4766 25.3812C97.4766 25.5918 97.6618 25.7624 97.8902 25.7624Z" fill="#C97D1B"/>
<path d="M100.369 27.5336C100.729 27.5336 101.02 27.2651 101.02 26.9339C101.02 26.6027 100.729 26.3342 100.369 26.3342C100.01 26.3342 99.7188 26.6027 99.7188 26.9339C99.7188 27.2651 100.01 27.5336 100.369 27.5336Z" fill="#C97D1B"/>
<path d="M98.8146 9.46823C101.037 9.01371 102.689 8.02964 102.507 7.27025C102.324 6.51087 100.374 6.26373 98.1521 6.71826C95.9302 7.17279 94.2772 8.15686 94.4601 8.91625C94.6431 9.67563 96.5926 9.92276 98.8146 9.46823Z" fill="#BA7215"/>
<g opacity="0.25">
<path opacity="0.25" d="M106.309 40.0055C106.309 40.0055 103.928 37.9695 102.425 31.1454C100.922 24.3213 99.7113 18.2689 103.121 16.6373C106.531 15.0057 110.108 19.0406 113.069 22.9268C116.03 26.813 118.769 35.8033 118.769 35.8033L106.758 40.3774L106.309 40.0055Z" fill="white"/>
</g>
<path opacity="0.11" d="M88.694 30.8666L90.5806 31.1037C90.5806 31.1037 93.9503 41.4792 105.285 44.5705C103.999 48.6101 99.5345 49.1633 99.5345 49.1633L90.4343 43.1108L88.694 33.5767L88.8655 33.2187C88.8655 33.2234 88.1643 30.8759 88.694 30.8666Z" fill="black"/>
<path opacity="0.11" d="M100.689 5.29028C100.689 5.29028 96.5478 7.7633 97.4255 10.1341C98.3032 12.5095 98.0258 19.0081 96.8857 22.2714C95.7507 25.5347 95.2968 29.7509 96.2955 31.4848C97.2943 33.2187 101.158 39.8661 105.507 40.9632C109.855 42.0603 103.862 48.7356 103.862 48.7356L95.3321 44.7611L89.7327 34.2879L88.9609 25.3859L90.7013 18.5898L92.8603 14.2573L93.8893 11.1707L93.6977 8.46988L93.1175 5.47157L100.936 4.34198L100.689 5.29028Z" fill="black"/>
<path opacity="0.18" d="M104.853 9.5437C104.853 9.5437 103.435 10.3758 104.853 12.2306C106.27 14.0853 108.924 16.3399 109.085 16.4886C109.246 16.6374 113.559 20.3748 115.491 27.1524C116.879 27.078 117.65 25.981 117.65 25.981C117.65 25.981 115.3 18.7385 111.92 16.2609C108.732 12.8349 104.853 9.5437 104.853 9.5437Z" fill="black"/>
<path d="M101.495 4.62552C102.529 7.89809 104.824 10.9057 107.891 12.9836C114.963 18.1807 116.759 24.591 116.946 25.3069L117.455 26.8409L95.5979 33.6975C92.6469 32.8794 89.822 31.5638 89.6959 30.9363C89.5749 29.7741 89.3327 26.7758 89.6909 24.0332L89.6959 23.9774V23.9216C89.6959 22.1366 91.6834 17.7112 93.6508 14.1132C94.9976 11.6495 94.1653 7.56804 93.8324 6.21996L94.7101 5.90851C95.2952 5.7923 98.9928 5.07178 101.495 4.62552ZM102.236 3.5517C99.6284 3.99796 94.4226 5.01599 94.4226 5.01599L92.7932 5.60171L92.7579 6.06191C92.7579 6.06191 94.1703 11.1242 92.7579 13.7041C91.3455 16.2841 88.6921 21.5974 88.6921 23.9309C88.3692 26.3854 88.5004 29.1698 88.6921 31.0339C88.8838 32.898 95.6181 34.683 95.6181 34.683L118.036 27.6637L117.95 25.2C117.95 25.2 116.391 18.0412 108.507 12.2538C105.253 10.0457 103.038 6.84287 102.236 3.5517Z" fill="#D4D4D4"/>
<path d="M90.5694 3.50981C90.5694 3.50981 90.4534 4.77422 90.8721 5.24837C91.2908 5.72252 95.1851 7.46572 100.684 5.2902C106.177 3.11469 103.266 1.19019 103.266 1.19019L90.5694 3.50981Z" fill="#034B2A"/>
<path d="M94.5491 0.660304C94.5491 0.660304 88.1528 2.79864 91.5881 4.73708C95.0233 6.67552 105.667 3.07755 103.094 1.01824C100.522 -1.04106 94.5491 0.660304 94.5491 0.660304Z" fill="#006838"/>
<path d="M96.3217 0.273964C96.3217 0.273964 93.6481 2.40299 98.7178 2.95617C101.765 3.19324 103.318 1.48723 102.587 0.678385C101.855 -0.130461 98.0923 -0.111865 96.3217 0.273964Z" fill="#0F844E"/>
<path d="M88.6908 30.8479C88.6908 30.8479 88.2318 30.8386 88.8522 33.0746C89.4727 35.3105 93.4023 42.2415 93.4023 42.2415C93.4023 42.2415 99.844 48.9168 99.9399 48.9493C100.036 48.9819 103.869 48.2985 103.869 48.2985L115.416 42.632L118.937 38.002L120.148 31.1872L118.302 25.3533C118.302 25.3533 118.246 25.0884 117.949 25.1953C117.757 25.4928 113.398 28.7747 103.804 30.4388C94.2044 32.0937 88.6908 30.8479 88.6908 30.8479Z" fill="#EFDDBF"/>
<g opacity="0.25">
<path opacity="0.25" d="M115.344 26.8409C113.084 27.9938 109.306 29.4767 103.802 30.4296C103.298 30.5179 102.808 30.597 102.324 30.6667C102.36 30.8247 102.395 30.9828 102.43 31.1408C103.933 37.9649 106.314 40.001 106.314 40.001L106.763 40.3682L118.774 35.794C118.774 35.7987 117.301 30.9549 115.344 26.8409Z" fill="white"/>
</g>
<path opacity="0.11" d="M105.512 40.9632C101.163 39.8662 97.2993 33.2187 96.3005 31.4848C96.2601 31.4151 96.2248 31.3361 96.1895 31.2571C92.8501 31.3872 89.9546 31.1222 88.6884 30.8666C88.184 31.3826 88.8902 33.2513 89.1828 33.9904C90.2119 36.5889 94.7064 43.5897 94.7064 43.5897C95.1655 44.0638 95.7002 44.617 96.2551 45.1887L103.171 48.4102C103.58 48.3405 103.862 48.2893 103.862 48.2893L104.488 47.9825C105.905 46.2114 108.957 41.8371 105.512 40.9632Z" fill="black"/>
<path opacity="0.11" d="M90.5777 31.1223C89.811 31.0432 89.2763 30.9596 88.9736 30.9038L88.6861 30.8666C88.6608 30.8666 88.6356 30.8759 88.6154 30.8898C88.5145 31.006 88.3884 31.4384 88.8475 33.07C89.4679 35.3059 93.3976 42.2369 93.3976 42.2369C93.3976 42.2369 99.8393 48.9122 99.9351 48.9448C99.9654 48.9541 100.384 48.889 100.934 48.8007C102.356 48.2986 104.46 47.1411 105.282 44.5705C94.129 41.5303 90.6887 31.4477 90.5777 31.1223Z" fill="black"/>
<path d="M64.5924 18.8779C64.5924 18.8779 61.1975 18.3665 58.6753 19.1754C58.065 20.714 57.3789 26.4132 57.3789 26.4132L62.8723 32.3494L67.4224 35.7986L70.5146 43.3989L77.94 48.9493L85.8396 56.4288L98.5919 58.0698L100.973 53.0075L91.5751 41.9718L64.5924 18.8779Z" fill="#F6C376"/>
<path d="M58.2756 19.3335C58.2756 19.3335 58.5833 19.1848 58.6691 19.1755C58.5984 19.2963 57.7611 28.8258 67.1286 32.0287C68.8033 32.0891 68.1929 32.7725 68.1929 32.7725C68.1929 32.7725 68.8487 40.5123 76.7988 42.3578C77.8732 42.9295 78.3424 42.9109 78.3424 42.9109C78.3424 42.9109 80.9806 51.1807 88.1084 52.3661C89.1374 52.724 90.7718 52.3661 90.7718 52.3661C90.7718 52.3661 91.4226 54.7787 92.4214 55.5689C93.4202 56.3592 85.1271 55.8246 85.1271 55.8246L74.7255 56.4196L70.5084 52.6217L58.2706 38.6157L54.8555 25.6184L56.4646 20.6909L58.2756 19.3335Z" fill="#ECB666"/>
<path d="M64.585 18.8779C64.585 18.8779 64.0503 24.8327 70.5072 28.77C74.5629 25.7438 79.2441 24.9908 79.2441 24.9908C79.2441 24.9908 71.9045 19.631 64.585 18.8779Z" fill="#FFD494"/>
<path d="M80.7326 38.1647C80.7326 38.1647 74.7348 36.5703 72.2227 30.6062C75.8597 27.8171 80.0768 26.8362 80.5611 26.8083C80.884 27.4313 82.7504 29.1837 85.4239 30.6666C88.0975 32.1495 90.8972 34.2879 91.1897 34.9386C89.8328 34.762 85.6358 35.3989 80.7326 38.1647Z" fill="#FFD494"/>
<path d="M82.6133 40.1822C82.6133 40.1822 86.8304 37.7882 93.0452 37.8487C94.0742 39.2432 97.7768 40.1915 99.9359 44.4077C100.612 45.8023 100.516 45.5373 100.516 45.5373C100.516 45.5373 94.9772 45.9836 91.1787 48.9494C88.0562 48.029 83.3901 43.822 82.6133 40.1822Z" fill="#FFD494"/>
<path d="M93.3125 50.8273C93.3125 50.8273 97.1765 47.8987 100.824 47.6616C102.367 49.1631 103.87 55.5735 103.87 55.5735H98.589C98.589 55.5735 94.9822 53.3003 93.3125 50.8273Z" fill="#FFD494"/>
<path d="M54.782 22.104C54.782 22.104 54.3078 23.9449 53.536 25.8043C52.7642 27.6637 55.3167 35.6545 55.3167 35.6545L56.7998 38.6203L63.4988 47.6617L67.4889 52.0313L71.5446 55.5735L72.9621 55.8896C72.9621 55.8896 72.9621 55.8896 75.9232 55.5735C48.5773 34.0508 57.6775 19.8495 58.2778 19.3335C58.2778 19.3335 56.4618 20.1423 56.1188 20.4631C55.7808 20.7792 54.782 22.104 54.782 22.104Z" fill="#DAA75B"/>
<path d="M56.1203 20.4631C56.1203 20.4631 49.9056 23.6101 55.2527 36.7237C58.9856 45.7976 69.8715 55.4155 70.835 55.8896C71.7984 56.3638 72.9587 55.8896 72.9587 55.8896C72.9587 55.8896 46.4098 34.8038 56.1203 20.4631Z" fill="#CD9644"/>
<path d="M79.2483 24.9908C79.2483 24.9908 80.3177 25.7113 80.5598 26.8084C79.334 26.8967 74.2291 28.5097 68.9475 32.9584C67.5956 34.1066 66.2437 35.3106 65.7695 34.4227C66.158 33.5906 68.4532 30.3877 69.9766 29.5975C71.5 28.8072 74.6124 26.6317 75.7273 26.3946C76.8421 26.1576 79.2483 24.9908 79.2483 24.9908Z" fill="#BD8F49"/>
<path d="M65.9935 34.6736C65.9935 34.6736 67.184 30.7084 75.921 26.692C79.0132 25.2277 79.8102 25.4881 79.8102 25.4881L79.2503 24.9907C79.2503 24.9907 75.3459 24.6141 68.5157 30.2342C65.3377 32.8839 65.4891 34.1669 65.9935 34.6736Z" fill="#AF8341"/>
<path d="M93.055 37.8486C93.055 37.8486 91.8948 36.561 91.8292 35.9288C90.4975 35.6313 87.8138 35.9288 87.8138 35.9288L84.5702 36.6819L78.5371 40.145L74.9303 43.7058L73.3867 46.4949L73.6844 46.9877C73.6844 46.9877 74.2897 47.5595 76.8422 44.6727C79.3946 41.786 84.8578 38.1276 93.055 37.8486Z" fill="#BD8F49"/>
<path d="M91.1879 34.9434C91.1879 34.9434 91.8941 35.4965 91.8336 35.9335C91.3393 35.7569 83.3993 36.1334 77.6638 41.6094C73.9511 44.9703 73.6888 46.9877 73.6888 46.9877C73.6888 46.9877 72.6648 46.8669 73.4567 45.4258C74.2487 43.9801 74.2487 43.9801 74.2487 43.9801C74.2487 43.9801 76.8869 40.7354 78.4356 39.6895C79.9842 38.6389 85.0085 34.9805 91.1879 34.9434Z" fill="#AF8341"/>
<path d="M85.3281 55.5735C85.3281 55.5735 85.8073 52.1894 91.5782 48.4706C97.349 44.7517 100.335 45.5048 100.527 45.5327C100.719 45.5606 100.976 46.0673 100.976 46.0673L100.532 46.8296L91.9817 50.6693L87.0684 54.6671L86.0041 55.7734L85.3281 55.5735Z" fill="#AF8341"/>
<path d="M86.0078 55.5736C86.0078 55.5736 89.4229 48.4148 100.98 46.0673C101.368 46.9552 101.59 47.4015 101.59 47.4015L100.828 47.6571C100.828 47.6571 97.0249 47.936 92.5151 51.4968C88.1315 55.0576 87.9398 56.4243 87.9398 56.4243L86.0078 55.5736Z" fill="#BD8F49"/>
<path d="M100.668 47.9592C100.668 47.9592 99.4269 52.1522 102.196 55.2946C103.064 55.4712 103.437 55.2946 103.437 55.2946L102.035 51.3619L100.668 47.9592Z" fill="#E0AE65"/>
<path d="M127.547 26.9897C127.547 26.9897 128.097 24.9211 129.499 24.0797C130.069 23.8705 130.906 24.9815 130.906 25.1582C130.906 25.3348 131.022 25.7718 129.983 26.3761C128.944 26.9804 128.889 27.6498 128.889 27.6498L127.547 26.9897Z" fill="#9E7639"/>
<path d="M124.09 27.3244C124.09 27.3244 126.657 25.7439 129.215 27.673C131.772 29.6021 130.325 36.1752 130.325 36.1752L129.245 57.4748L119.156 56.3685L125.164 33.9346L124.09 27.3244Z" fill="#DEA327"/>
<path d="M103.17 55.2947C103.17 55.2947 99.3064 52.4451 100.916 46.9552C102.525 41.4652 107.196 39.0015 110.061 37.937C112.926 36.8678 115.565 35.9474 120.942 29.5696C125.129 25.1767 129.795 26.483 127.606 32.7725C125.971 36.7516 125.326 38.4855 125.093 39.1642C125.008 39.4106 124.887 39.6477 124.745 39.8708C124.019 41.0329 121.835 45.1608 123.742 50.4509C124.226 51.8826 121.33 55.2947 121.33 55.2947H103.17Z" fill="#F4BF1A"/>
<path d="M106.831 42.0138C107.446 41.5257 108.133 41.1213 108.859 40.7912C111.053 39.7918 117.283 36.8214 121.077 33.758C123.266 32.2147 125.712 35.9846 121.077 42.0045C116.441 48.1778 117.117 52.0314 109.454 53.5468C105.429 54.3185 101.146 50.2185 103.724 45.7977C104.823 43.8267 105.958 42.7018 106.831 42.0138Z" fill="#F7D239"/>
<path d="M124.973 29.1559C125.118 29.1559 125.236 29.0477 125.236 28.9142C125.236 28.7807 125.118 28.6724 124.973 28.6724C124.828 28.6724 124.711 28.7807 124.711 28.9142C124.711 29.0477 124.828 29.1559 124.973 29.1559Z" fill="#DEA327"/>
<path d="M125.546 30.9269C125.743 30.9269 125.904 30.7792 125.904 30.5969C125.904 30.4146 125.743 30.2668 125.546 30.2668C125.348 30.2668 125.188 30.4146 125.188 30.5969C125.188 30.7792 125.348 30.9269 125.546 30.9269Z" fill="#DEA327"/>
<path d="M123.244 31.4849C123.498 31.4849 123.703 31.2955 123.703 31.0619C123.703 30.8282 123.498 30.6389 123.244 30.6389C122.991 30.6389 122.785 30.8282 122.785 31.0619C122.785 31.2955 122.991 31.4849 123.244 31.4849Z" fill="#DEA327"/>
<path d="M124.16 54.0257C124.447 54.0257 124.68 53.8113 124.68 53.5469C124.68 53.2825 124.447 53.0681 124.16 53.0681C123.873 53.0681 123.641 53.2825 123.641 53.5469C123.641 53.8113 123.873 54.0257 124.16 54.0257Z" fill="#CB9420"/>
<path d="M106.711 44.6541C106.711 44.6541 103.407 47.2759 106.111 49.1679C108.814 51.0599 113.021 46.1975 115.211 42.9528C117.4 39.7081 115.71 39.4059 114.792 39.5872C113.874 39.7639 111.009 42.1532 109.944 42.6134C108.885 43.0737 106.711 44.6541 106.711 44.6541Z" fill="#FAEE8A"/>
<path d="M172.046 55.0576L178.785 37.4118C178.785 37.4118 179.173 36.0265 178.916 34.9016C178.659 33.7766 177.766 26.9293 178.735 24.7026C179.698 22.476 174.225 22.0623 174.225 22.0623L167.208 19.8961C167.208 19.8961 165.115 24.1681 163.021 25.5347C161.089 26.9293 159.157 28.3239 158.093 30.5784C157.028 32.833 152.196 43.427 152.196 43.427L148.206 52.7752L147.883 56.4847L172.046 55.0576Z" fill="#D4D4D4"/>
<path opacity="0.11" d="M178.408 26.06C178.408 26.06 170.685 26.1205 166.367 21.444C166.897 20.7095 167.21 19.9007 167.21 19.9007L178.746 24.4423C178.746 24.4377 178.328 25.7393 178.408 26.06Z" fill="black"/>
<path d="M177.619 36.375L169.972 57.075L164.276 51.9756L159.398 30.9967L159.444 30.5411L159.792 29.7695L177.619 36.375Z" fill="#C7C5C5"/>
<path d="M159.443 30.5412C159.443 30.5412 159.443 34.0834 170.132 38.4158C175.671 41.0562 169.713 54.4998 169.068 55.4481C168.422 56.3964 152.648 56.7822 152.648 56.7822L146.625 55.5968L153.193 44.0266L159.443 30.5412Z" fill="#EDEDED"/>
<path d="M177.614 36.3796C178.255 34.91 174.783 32.2397 169.859 30.4155C164.935 28.5912 160.423 28.3038 159.782 29.7734C159.141 31.2431 162.613 33.9134 167.537 35.7376C172.461 37.5618 176.973 37.8493 177.614 36.3796Z" fill="#FAFAFA"/>
<path opacity="0.42" d="M168.521 25.9206C168.521 25.9206 166.266 25.0002 163.789 27.9985C161.313 30.9968 157.317 38.0579 155.416 42.33C153.514 46.602 153.645 51.5852 157.282 51.9153C159.148 52.064 161.691 45.1284 161.908 44.6961C162.125 44.2591 165.686 35.1991 169.464 28.6725C170.453 26.6551 168.521 25.9206 168.521 25.9206Z" fill="white"/>
<path d="M167.84 17.4555L168.042 19.05L178.1 24.856C178.1 24.856 179.215 24.6793 179.719 24.3028C180.138 23.6288 181.258 21.007 181.258 21.007L168.385 16.3073L167.84 17.4555Z" fill="#6F9DBA"/>
<path d="M181.378 20.7956C181.847 19.6469 179.318 17.7075 175.73 16.4636C172.142 15.2198 168.853 15.1426 168.384 16.2912C167.915 17.4399 170.444 19.3794 174.032 20.6232C177.62 21.867 180.909 21.9442 181.378 20.7956Z" fill="#BADEF5"/>
<path d="M167.834 17.4556C167.834 17.4556 170.735 20.4818 174.876 21.3139C179.018 22.1459 178.286 24.5167 178.095 24.856C177.666 25.135 170.624 25.9252 166.977 19.9007C166.977 19.6218 167.244 18.9385 167.315 18.72C167.385 18.5015 167.834 17.4556 167.834 17.4556Z" fill="#89B5D0"/>
<path d="M174.385 18.054C174.625 17.3968 173.785 16.544 172.509 16.1492C171.233 15.7544 170.005 15.967 169.766 16.6242C169.526 17.2813 170.366 18.1341 171.642 18.5289C172.917 18.9237 174.146 18.7111 174.385 18.054Z" fill="#D2EDFF"/>
<path d="M127.593 37.0398C127.593 37.0398 121.999 41.5024 124.289 49.6327C126.413 56.3685 131.407 56.6334 131.407 56.6334H148.699L148.215 56.1407C148.215 56.1407 150.47 54.6764 151.564 52.4358C151.66 49.7489 148.149 48.9494 148.149 48.9494L127.593 37.0398Z" fill="#C0321D"/>
<path d="M130.145 35.4547C130.145 35.4547 128.526 36.0961 127.593 37.0352C127.098 37.9463 124.955 44.7285 131.82 52.0313C135.901 56.1267 143.231 58.5626 151.559 52.4311C152.437 51.2643 154.616 43.7988 152.139 41.177C149.662 38.5599 141.097 42.6227 141.097 42.6227L133.787 44.9051L130.145 35.4547Z" fill="#D53D26"/>
<path d="M130.148 35.4547C130.148 35.4547 127.444 43.3991 134.335 46.7786C136.332 47.8756 139.369 47.7966 140.237 47.6479C141.104 47.4991 144.292 47.4852 145.044 47.5688C146.123 47.6851 148.212 46.839 149.821 45.5886C148.999 43.8686 142.189 36.3008 142.189 36.3008C142.189 36.3008 140.514 37.9975 139.228 37.3235C137.941 36.6494 136.539 35.4222 134.688 35.0317C132.836 34.6459 130.748 35.0364 130.148 35.4547Z" fill="#EC5038"/>
<path d="M137.447 44.3758C139.033 43.6356 139.412 41.3868 138.294 39.3531C137.176 37.3193 134.984 36.2706 133.398 37.0108C131.813 37.751 131.434 39.9997 132.552 42.0335C133.67 44.0673 135.861 45.116 137.447 44.3758Z" fill="#FE816E"/>
<path d="M139.39 37.3745C139.39 37.3745 139.198 33.0142 141.741 31.4104C142.548 31.0246 143.592 32.805 143.31 33.5162C143.027 34.2274 141.771 34.6737 140.712 37.3745C139.905 37.9091 139.39 37.3745 139.39 37.3745Z" fill="#82602D"/>
<path opacity="0.11" d="M150.884 37.528C148.524 34.381 146.062 34.4925 144.685 34.4972C144.498 34.4832 144.316 34.4832 144.135 34.4879C143.777 35.0132 143.388 35.5199 143.136 35.6965C142.662 36.0359 141.789 36.6541 141.441 36.9005C141.118 38.2625 141.053 40.0569 142.228 41.5676C143.999 43.8501 146.93 44.5613 148.74 46.7136C148.902 46.9041 149.094 47.1691 149.23 47.3783C149.381 47.6061 149.896 48.2569 149.896 48.2569C149.997 48.387 150.203 48.387 150.309 48.2569C151.121 47.2295 151.495 45.5468 151.702 44.7984C151.702 44.7984 153.245 40.6705 150.884 37.528Z" fill="black"/>
<path d="M152.264 44.1892C152.264 44.1892 153.803 40.0659 151.442 36.9188C149.081 33.7718 146.62 33.8833 145.242 33.888C143.865 33.8926 152.264 44.1892 152.264 44.1892Z" fill="#0DC80D"/>
<path d="M142.832 34.1485C142.832 34.1485 144.855 33.5395 146.54 34.1485C148.225 34.7574 153.002 36.4448 152.346 43.8825C152.346 43.8825 151.604 46.9692 150.409 48.1778C150.353 46.9738 142.832 34.1485 142.832 34.1485Z" fill="#00AC00"/>
<path d="M142.79 34.1904C142.79 34.1904 140.555 38.0858 142.79 40.9679C145.025 43.8454 148.995 44.3009 150.407 48.1825C150.609 48.2615 150.796 34.1904 142.79 34.1904Z" fill="#048E04"/>
<path d="M150.408 48.1825C150.333 47.462 150.292 46.7415 150.237 46.0256C150.227 45.6677 150.176 45.3097 150.126 44.9518L149.985 43.8826L149.914 43.348L149.803 42.8227L149.586 41.7722C149.531 41.4189 149.41 41.0795 149.309 40.7356C149.203 40.3962 149.117 40.0476 148.991 39.7129C148.497 38.3741 147.806 37.0865 146.792 36.0359C146.297 35.5013 145.677 35.0736 145.001 34.7436C144.33 34.4042 143.563 34.2136 142.781 34.195C144.365 34.0323 145.959 34.7436 147.069 35.7895C148.209 36.8401 148.946 38.1881 149.465 39.5688C149.591 39.9174 149.672 40.2754 149.783 40.624C149.879 40.9773 150.005 41.3259 150.05 41.6885L150.232 42.767L150.323 43.3062L150.358 43.8501L150.429 44.9378C150.454 45.3004 150.484 45.6584 150.469 46.0209C150.454 46.7368 150.449 47.462 150.408 48.1825Z" fill="#0E700E"/>
<path d="M143.605 45.9047C144.128 45.9047 144.553 45.5134 144.553 45.0307C144.553 44.5481 144.128 44.1568 143.605 44.1568C143.081 44.1568 142.656 44.5481 142.656 45.0307C142.656 45.5134 143.081 45.9047 143.605 45.9047Z" fill="#C0321D"/>
<path d="M141.598 44.4217C141.798 44.4217 141.961 44.2719 141.961 44.087C141.961 43.9022 141.798 43.7523 141.598 43.7523C141.397 43.7523 141.234 43.9022 141.234 44.087C141.234 44.2719 141.397 44.4217 141.598 44.4217Z" fill="#C0321D"/>
<path d="M141.18 46.7413C141.439 46.7413 141.649 46.5477 141.649 46.309C141.649 46.0702 141.439 45.8766 141.18 45.8766C140.921 45.8766 140.711 46.0702 140.711 46.309C140.711 46.5477 140.921 46.7413 141.18 46.7413Z" fill="#C0321D"/>
<path d="M133.295 49.8605C133.501 49.8605 133.668 49.7065 133.668 49.5165C133.668 49.3265 133.501 49.1725 133.295 49.1725C133.089 49.1725 132.922 49.3265 132.922 49.5165C132.922 49.7065 133.089 49.8605 133.295 49.8605Z" fill="#C0321D"/>
<path d="M135.274 52.143C135.533 52.143 135.743 51.9495 135.743 51.7107C135.743 51.4719 135.533 51.2784 135.274 51.2784C135.015 51.2784 134.805 51.4719 134.805 51.7107C134.805 51.9495 135.015 52.143 135.274 52.143Z" fill="#C0321D"/>
<path d="M144.668 53.7281C144.896 53.7281 145.081 53.5574 145.081 53.3469C145.081 53.1364 144.896 52.9657 144.668 52.9657C144.439 52.9657 144.254 53.1364 144.254 53.3469C144.254 53.5574 144.439 53.7281 144.668 53.7281Z" fill="#C0321D"/>
<path d="M147.763 54.179C148.013 54.179 148.217 53.9917 148.217 53.7607C148.217 53.5296 148.013 53.3423 147.763 53.3423C147.512 53.3423 147.309 53.5296 147.309 53.7607C147.309 53.9917 147.512 54.179 147.763 54.179Z" fill="#C0321D"/>
<path d="M127.819 51.72C128.198 51.72 128.505 51.4369 128.505 51.0878C128.505 50.7386 128.198 50.4556 127.819 50.4556C127.44 50.4556 127.133 50.7386 127.133 51.0878C127.133 51.4369 127.44 51.72 127.819 51.72Z" fill="#C0321D"/>
<path d="M131.205 53.2958C131.525 53.2958 131.785 53.0565 131.785 52.7613C131.785 52.466 131.525 52.2267 131.205 52.2267C130.885 52.2267 130.625 52.466 130.625 52.7613C130.625 53.0565 130.885 53.2958 131.205 53.2958Z" fill="#C0321D"/>
<path d="M110.054 55.0576L110.654 116.655H70.7277L69.4414 62.7695L110.054 55.0576Z" fill="#948F80"/>
<path d="M69.7578 76.2225C69.7578 76.2225 83.6905 68.3897 98.5414 77.4916C113.397 86.5888 109.447 108.902 106.955 116.66C100.857 116.66 70.7213 116.66 70.7213 116.66L69.7578 76.2225Z" fill="#A49F8F"/>
<path d="M69.8052 55.0576L58.6016 71.2578H99.1689L110.055 55.0576H69.8052Z" fill="#575343"/>
<path d="M61.1602 67.5575C61.1602 67.5575 63.1729 71.8527 83.7138 70.3141C104.255 68.7708 108.633 56.4289 107.993 55.0622C105.672 55.0622 69.8063 55.0622 69.8063 55.0622L61.1602 67.5575Z" fill="#736D5A"/>
<path d="M110.055 55.0576L110.655 116.655L172.903 116.363V64.4337L110.055 55.0576Z" fill="#575343"/>
<path d="M117.123 116.628C117.123 116.628 104.729 101.492 118.379 82.5677C132.029 63.6435 168.092 76.2271 172.905 75.6739C172.905 80.183 172.905 116.363 172.905 116.363L117.123 116.628Z" fill="#736D5A"/>
<path d="M110.055 55.0575L121.617 70.8765H184.021L172.818 54.6624L110.055 55.0575Z" fill="#948F80"/>
<path d="M112.093 57.8467C112.093 57.8467 120.012 68.5104 141.138 69.9329C162.26 71.3553 177.574 65.0659 179.083 63.7224C177.751 61.7979 172.823 54.6624 172.823 54.6624L110.055 55.0575L112.093 57.8467Z" fill="#A49F8F"/>
<path d="M194.222 64.1688C194.222 64.1688 185.268 66.8092 177.863 65.6842C170.458 64.5593 153.327 71.0254 152.106 72.1503C151.087 73.0893 149.801 74.893 152.903 76.0551C154.452 76.6362 156.177 76.6734 157.786 76.2503C160.51 75.5345 164.399 74.1771 167.305 74.5257C171.295 74.9999 172.006 75.3857 170.912 76.678C169.817 77.9703 164.409 80.5224 159.708 80.6386C155.007 80.7594 155.91 81.1732 144.706 80.1644C139.747 80.104 139.102 82.1819 140.004 82.8931C140.907 83.6043 151.788 86.7514 162.286 85.0314C159.839 86.5143 148.953 86.691 147.41 86.161C145.866 85.6265 141.356 85.9844 140.711 88.0623C140.065 90.1402 150.305 92.0972 163.123 90.4377C160.611 91.7439 147.733 92.1577 145.927 92.1577C144.126 92.1577 139.102 94.4726 144.186 95.9555C149.276 97.4384 161.363 96.4297 166.942 94.7097C164.536 96.7876 152.817 98.1496 150.497 98.7446C148.176 99.3397 145.215 101.831 150.108 102.185C155.002 102.543 168.657 101.473 178.958 97.4942C189.263 93.5197 195.831 86.5143 202.979 84.1994L198.02 62.8951L194.222 64.1688Z" fill="#FFDDC0"/>
<path d="M244.996 61.8631V73.2753L202.976 85.4405C202.976 85.4405 200.741 82.577 198.617 77.0917C201.432 74.8186 244.996 61.8631 244.996 61.8631Z" fill="#024F2B"/>
<path d="M193.77 62.4163C193.77 62.4163 221.332 52.8635 245.001 29.4209C245.001 51.613 245.001 61.8631 245.001 61.8631C245.001 61.8631 222.467 78.477 198.622 77.0964C195.702 70.4303 193.77 62.4163 193.77 62.4163Z" fill="#006838"/>
<path d="M37.6201 109.195C37.6201 109.195 45.8526 105.978 50.7458 100.516C54.2869 97.4291 69.8692 92.4459 70.9033 92.2088C71.9324 91.9717 75.2819 92.2692 73.3499 95.2954C71.4179 98.3216 63.0441 101.287 62.1462 102.654C60.7943 103.723 58.7967 105.741 63.3064 105.383C67.8161 105.025 72.9665 102.533 78.3085 96.6017C83.0755 92.4459 85.8449 92.9804 85.8449 94.5842C85.8449 96.1879 82.4954 100.995 76.1848 105.383C79.0803 104.495 84.039 99.6279 85.0731 98.7353C86.1022 97.8475 89.9007 96.597 89.5173 98.912C89.1289 101.227 83.2067 106.805 77.0878 110.482C79.3427 109.831 87.2624 102.826 90.3547 102.766C93.4469 102.705 93.7697 103.714 90.8036 106.503C87.8375 109.292 79.4688 115.047 77.7335 115.642C78.8281 115.819 87.8425 111.133 88.6143 110.478C89.3861 109.827 96.8569 107.926 92.0899 112.853C86.9396 117.422 70.4846 126.966 56.7335 126.622C49.1971 126.631 42.826 129.114 42.826 129.114L35.5469 109.59L37.6201 109.195Z" fill="#FFE5CF"/>
<path d="M39.078 108.562C39.078 108.562 40.672 122.424 47.4467 127.761C43.845 128.765 45.3381 127.993 42.826 129.123C41.575 125.767 35.5469 109.185 35.5469 109.185C35.5469 109.185 37.8421 109.548 39.078 108.562Z" fill="#F2D4BB"/>
<path d="M42.0504 123.6L44.1741 129.713C44.1741 129.713 3.22844 146.569 0 149C0 136.714 0 134.58 0 134.58C0 134.58 37.9947 127.812 42.0504 123.6Z" fill="#2736C6"/>
<path d="M0.00390625 113.69L37.0301 107.279L42.0543 123.6C42.0543 123.6 31.5468 137.625 0.00895561 134.58C0.00391118 124.651 0.00390625 113.69 0.00390625 113.69Z" fill="#3647E8"/>
</svg>
