<svg width="45" height="30" viewBox="0 0 45 30" fill="none" xmlns="http://www.w3.org/2000/svg">
<path d="M12.8609 15.2687C17.0772 15.2687 20.4953 11.8507 20.4953 7.63433C20.4953 3.418 17.0772 0 12.8609 0C8.64458 0 5.22656 3.418 5.22656 7.63433C5.22656 11.8507 8.64458 15.2687 12.8609 15.2687Z" fill="#C3705A"/>
<path d="M19.7066 22.3273C19.7066 22.3273 12.7146 24.1184 12.5415 24.2877C12.3683 24.4569 6.65577 24.7568 8.31882 21.2595C8.9298 19.9755 9.184 18.2314 9.26111 16.5383C9.26437 16.4664 9.26764 16.3952 9.27026 16.324C9.37546 13.486 9.00168 10.8526 9.00168 10.8526C9.00168 10.8526 17.1046 7.65068 16.508 12.5163C16.359 13.7265 16.4825 14.9426 16.753 16.0861C16.8432 16.4678 16.949 16.8409 17.0667 17.2029C18.0129 20.1199 19.7066 22.3273 19.7066 22.3273Z" fill="#ECB4B6"/>
<path opacity="0.1" d="M16.7513 16.0874C15.6766 16.8842 14.3843 17.334 13.0471 17.3765C11.71 17.419 10.3917 17.0522 9.26857 16.3253C9.37378 13.4873 9 10.8539 9 10.8539C9 10.8539 17.1028 7.65199 16.5062 12.5176C16.3579 13.7285 16.4814 14.9446 16.7513 16.0874Z" fill="black"/>
<path d="M12.8374 17.2513C16.4648 17.2513 19.4053 14.3107 19.4053 10.6834C19.4053 7.05602 16.4648 4.11547 12.8374 4.11547C9.21008 4.11547 6.26953 7.05602 6.26953 10.6834C6.26953 14.3107 9.21008 17.2513 12.8374 17.2513Z" fill="#ECB4B6"/>
<path opacity="0.1" d="M19.7066 22.3273C19.7066 22.3273 12.7146 24.1184 12.5415 24.2877C12.3683 24.4569 6.65577 24.7568 8.31882 21.2595C8.9298 19.9755 9.184 18.2314 9.26111 16.5383C9.32645 17.4231 9.83223 19.5658 9.89692 20.2787C9.90104 20.3204 9.90936 20.3616 9.92175 20.4016C10.0165 20.7185 10.3543 21.0838 10.7614 21.4301L10.7856 21.4504C11.292 21.8751 11.9204 22.1278 12.5799 22.1718C13.2394 22.2159 13.8958 22.049 14.4541 21.6954C15.0353 21.3292 15.5932 20.9272 16.1244 20.4917C16.885 19.8638 17.1222 19.0175 17.1516 18.27C17.1638 17.9111 17.1353 17.5521 17.0667 17.1996C18.0129 20.1199 19.7066 22.3273 19.7066 22.3273Z" fill="black"/>
<path d="M28.5351 27.2753H0C0 27.2753 0.59726 24.3753 0.682209 23.778C0.728604 23.4513 1.27032 22.2751 2.14791 21.2537C2.87848 20.4042 3.84233 19.656 4.94732 19.5978C7.01551 19.4894 9.25491 16.5697 9.25491 16.5697C9.30457 17.4192 9.82864 19.6377 9.89464 20.3657C9.89876 20.4073 9.90708 20.4485 9.91947 20.4885C10.0142 20.8054 10.3521 21.1707 10.7592 21.5171L10.7833 21.5373C11.2896 21.9623 11.918 22.2151 12.5775 22.2593C13.237 22.3035 13.8934 22.1367 14.4518 21.783C15.0329 21.4167 15.5908 21.0147 16.1221 20.5793C16.8827 19.9514 17.1199 19.1051 17.1493 18.3576C17.1643 17.8615 17.1042 17.366 16.9709 16.8879C16.9337 16.752 16.9056 16.6723 16.9017 16.6651L16.9925 16.7037C16.9925 16.7037 20.8564 19.5135 24.3962 20.6623C24.811 20.7974 25.2025 20.9958 25.5567 21.2504C25.8436 21.4579 26.1078 21.6951 26.3448 21.9581C26.8239 22.5 27.2203 23.1097 27.521 23.7676C28.3417 25.5071 28.5351 27.2753 28.5351 27.2753Z" fill="#3840F1"/>
<path opacity="0.05" d="M28.5351 27.2753H0C0 27.2753 0.59726 24.3753 0.682209 23.778C0.728604 23.4513 1.27032 22.2751 2.14791 21.2537C2.87848 20.4042 3.84233 19.656 4.94732 19.5978C7.01551 19.4894 9.25491 16.5697 9.25491 16.5697C9.30457 17.4192 9.82864 19.6377 9.89464 20.3657C9.89876 20.4073 9.90708 20.4485 9.91947 20.4885C10.0142 20.8054 10.3521 21.1707 10.7592 21.5171L10.7833 21.5373C11.2896 21.9623 11.918 22.2151 12.5775 22.2593C13.237 22.3035 13.8934 22.1367 14.4518 21.783C15.0329 21.4167 15.5908 21.0147 16.1221 20.5793C16.8827 19.9514 17.1199 19.1051 17.1493 18.3576C17.1643 17.8615 17.1042 17.366 16.9709 16.8879C16.9337 16.752 16.9056 16.6723 16.9017 16.6651L16.9925 16.7037C16.9925 16.7037 20.8564 19.5135 24.3962 20.6623C24.811 20.7974 25.2025 20.9958 25.5567 21.2504C25.8436 21.4579 26.1078 21.6951 26.3448 21.9581C26.8239 22.5 27.2203 23.1097 27.521 23.7676C28.3417 25.5071 28.5351 27.2753 28.5351 27.2753Z" fill="black"/>
<path opacity="0.1" d="M15.9974 8.47793C16.1673 9.13138 16.3895 9.85737 16.973 10.1978C17.0512 10.2353 17.1233 10.2844 17.1867 10.3435C17.3305 10.4997 17.2867 10.7435 17.2651 10.9552C17.1906 11.6818 17.503 12.4183 18.0153 12.9391C18.5276 13.4599 19.2209 13.7781 19.9365 13.9245C20.1116 13.9604 20.3083 13.9833 20.4592 13.8846C20.5612 13.8071 20.6362 13.6994 20.6736 13.5768C20.8729 13.0469 20.7886 12.4516 20.622 11.9105C20.4553 11.3695 20.2096 10.8532 20.0835 10.3011C19.7836 8.99089 20.1809 7.63693 20.3599 6.30454C20.4194 5.8615 20.454 5.40473 20.3397 4.9728C20.1743 4.34679 19.7182 3.84493 19.2778 3.36987C19.0406 3.11437 18.7982 2.8543 18.4936 2.68701C17.5958 2.19627 16.4398 2.63212 15.4812 2.27468C15.0976 2.13158 14.7716 1.8702 14.4063 1.68657C13.6306 1.2945 12.7112 1.27294 11.8611 1.45133C11.0109 1.62972 10.2143 1.99631 9.42562 2.35963L8.82248 2.63278C7.97299 3.02485 7.06272 3.46789 6.6053 4.28798C6.11848 5.16099 6.25374 6.2784 5.76692 7.15142C5.61923 7.4128 5.4134 7.66372 5.37484 7.96431C5.3487 8.18126 5.41536 8.39821 5.47743 8.60797C5.62904 9.11831 5.76103 9.64304 5.74927 10.1763C5.73751 10.7095 5.56761 11.2558 5.18991 11.6308C5.03047 11.789 4.81744 11.9916 4.91546 12.1935C4.94762 12.2499 4.99234 12.2982 5.04615 12.3346C5.35635 12.5702 5.72099 12.7236 6.10629 12.7808C6.49159 12.8379 6.88507 12.7968 7.25026 12.6613C7.53648 12.5522 7.80701 12.3771 7.96907 12.119C8.0768 11.9299 8.15482 11.7254 8.20039 11.5126C8.40688 10.7435 8.61468 9.96127 8.59835 9.16471C8.5892 8.70729 8.50555 8.24595 8.57221 7.79245C8.63886 7.33896 8.90351 6.87174 9.34459 6.74693C9.67132 6.65348 10.0209 6.76653 10.362 6.76326C10.8534 6.75934 11.4559 6.21436 11.9114 6.37446C12.3034 6.51299 12.6138 7.26316 12.938 7.55068C13.76 8.28451 14.9075 8.66808 15.9974 8.47793Z" fill="black"/>
<path d="M15.9961 8.39234C16.166 9.0458 16.3882 9.77178 16.9717 10.1122C17.0488 10.1489 17.1199 10.197 17.1828 10.2547C17.3265 10.4109 17.2827 10.6546 17.2612 10.8663C17.1867 11.593 17.499 12.3294 18.0114 12.8502C18.5237 13.371 19.217 13.6893 19.9325 13.8356C20.1076 13.8716 20.3043 13.8944 20.4553 13.7958C20.5573 13.7182 20.6323 13.6106 20.6696 13.488C20.8689 12.958 20.7846 12.3627 20.618 11.8217C20.4514 11.2806 20.2057 10.7644 20.0795 10.2122C19.7796 8.90203 20.1769 7.54807 20.356 6.21568C20.4154 5.77263 20.45 5.31587 20.3357 4.88394C20.1704 4.25792 19.7143 3.75607 19.2738 3.28101C19.0366 3.02551 18.7942 2.76543 18.4897 2.59815C17.5918 2.1074 16.4359 2.54326 15.4773 2.18581C15.0937 2.04271 14.7676 1.78133 14.4023 1.5977C13.6267 1.20563 12.7073 1.18407 11.8571 1.36246C11.007 1.54085 10.2104 1.90744 9.42168 2.27076L8.82638 2.54522C7.97689 2.93729 7.06662 3.38033 6.6092 4.20042C6.12238 5.07344 6.25765 6.19085 5.77082 7.06386C5.62314 7.32525 5.4173 7.57617 5.37875 7.87676C5.35261 8.09371 5.41926 8.31066 5.48134 8.52042C5.63294 9.03077 5.76494 9.55549 5.75318 10.0887C5.74142 10.6219 5.57152 11.1682 5.19382 11.5433C5.03438 11.7014 4.82135 11.904 4.91937 12.1059C4.95153 12.1624 4.99624 12.2107 5.05006 12.2471C5.36025 12.4826 5.7249 12.6361 6.11019 12.6932C6.49549 12.7503 6.88897 12.7093 7.25417 12.5738C7.54038 12.4647 7.81091 12.2896 7.97297 12.0314C8.0807 11.8424 8.15872 11.6378 8.20429 11.425C8.41078 10.6559 8.61858 9.87372 8.60224 9.07716C8.5931 8.61974 8.50945 8.1584 8.57611 7.7049C8.64276 7.25141 8.90741 6.78418 9.34849 6.65937C9.67522 6.56593 10.0248 6.67898 10.3659 6.67571C10.8573 6.67179 11.4598 6.12681 11.9153 6.28691C12.3073 6.42544 12.6177 7.17561 12.9418 7.46313C13.7587 8.19957 14.9061 8.58315 15.9961 8.39234Z" fill="#C3705A"/>
<path d="M37.8769 11.182H22.9062V24.0198H37.8769V11.182Z" fill="#463A3E"/>
<path opacity="0.05" d="M37.8769 11.182H22.9062V24.0198H37.8769V11.182Z" fill="black"/>
<path d="M35.7271 30H23.207C23.3686 29.0271 23.8413 27.9607 24.7625 26.8112C25.4898 25.9076 26.0846 24.8916 26.5268 23.7977C26.6456 23.5054 26.752 23.2125 26.8462 22.9189C27.1228 22.047 27.3111 21.146 27.4076 20.2312C27.4076 20.2053 27.4134 20.1794 27.4159 20.1535C27.4805 19.5215 27.5065 18.8856 27.4939 18.2499C27.4939 18.2043 27.4939 18.1599 27.4939 18.1136C27.4491 16.5538 27.2074 15.0077 26.7752 13.5169L26.7593 13.4637C26.6232 13.0063 26.5236 12.7492 26.5236 12.7492C26.5236 12.7492 26.7721 12.6054 27.1821 12.3933L27.2166 12.3756C28.7248 11.6024 32.2949 9.98932 33.8689 11.1388L33.8944 11.1572C34.4451 11.5759 34.7414 12.3442 34.6022 13.624C34.6022 13.6287 34.6022 13.6342 34.6022 13.639C34.6022 13.6628 34.5971 13.686 34.5952 13.7071C34.5109 14.5892 34.471 15.4754 34.4757 16.3621C34.4757 16.4064 34.4757 16.4507 34.4757 16.4984C34.4757 16.7061 34.4778 16.9166 34.4821 17.1298C34.4821 17.1584 34.4821 17.187 34.4821 17.2157C34.4949 17.9043 34.5236 18.6154 34.5639 19.3367C34.6194 20.3369 34.6987 21.3555 34.79 22.355C34.829 22.7825 34.8711 23.2073 34.9178 23.6252C34.9229 23.6743 34.928 23.7248 34.9331 23.7732C34.9867 24.2825 35.0423 24.7815 35.0992 25.2656L35.103 25.297C35.3202 27.2196 35.5604 28.8982 35.7271 30Z" fill="#ECB4B6"/>
<path opacity="0.1" d="M34.5709 13.9572C34.5709 13.9618 34.5709 13.967 34.5709 13.9716C34.4788 14.8397 34.4352 15.7124 34.4402 16.5854C34.4402 16.6279 34.4402 16.6703 34.4402 16.7161C33.5802 17.7142 32.4261 18.4143 31.1435 18.7158C29.8609 19.0173 28.5158 18.9047 27.3012 18.3942C27.3012 18.3504 27.3012 18.3079 27.3012 18.2635C27.2551 16.7506 27.0023 15.2512 26.5497 13.8069C26.4105 13.3684 26.3086 13.1221 26.3086 13.1221C26.3086 13.1221 26.5628 12.9842 26.9823 12.781C28.5101 12.0426 32.2381 10.4481 33.8469 11.593C34.4095 11.9942 34.7127 12.7306 34.5709 13.9572Z" fill="black"/>
<path d="M29.4358 17.4174C32.8758 17.4174 35.6645 14.6287 35.6645 11.1886C35.6645 7.7486 32.8758 4.95989 29.4358 4.95989C25.9957 4.95989 23.207 7.7486 23.207 11.1886C23.207 14.6287 25.9957 17.4174 29.4358 17.4174Z" fill="#ECB4B6"/>
<path opacity="0.1" d="M29.948 30H16.4648C16.4648 30 17.0709 26.9926 17.1571 26.3733C17.2041 26.0345 17.7538 24.8147 18.6443 23.7555C19.788 22.8231 21.2046 22.3094 22.6677 22.2966C25.2463 22.2573 25.9969 23.1646 26.2004 23.8355C26.2715 24.0604 26.2897 24.2993 26.2535 24.5328L26.7415 25.2552L29.948 30Z" fill="black"/>
<path d="M29.948 30H16.4648C16.4648 30 17.0709 26.9926 17.1571 26.3733C17.2041 26.0344 17.7538 24.8147 18.6443 23.7555C19.788 22.8231 21.2046 22.3094 22.6677 22.2966C25.2463 22.2573 25.9969 23.1646 26.2004 23.8355C26.2715 24.0604 26.2897 24.2993 26.2535 24.5328L26.7415 25.2552L29.948 30Z" fill="#3840F1"/>
<path opacity="0.1" d="M44.3972 30H30.9141C31.557 28.577 33.2423 24.7831 33.3359 23.9057C33.372 23.5661 33.72 23.2475 34.1807 22.977C34.3262 22.8904 34.476 22.8117 34.6294 22.7414L34.6573 22.7282C34.7416 22.6896 34.8271 22.6538 34.9136 22.6209C36.0798 22.1769 37.3613 22.1874 38.5207 22.6505C39.6275 23.0882 41.052 23.678 42.1608 24.2302L42.1696 24.2348C42.4544 24.377 42.7196 24.5159 42.9531 24.6495C43.4201 24.9161 43.7612 25.1596 43.8922 25.3544C43.9523 25.4439 44.0188 25.8474 44.0915 26.4734C44.1884 27.3198 44.294 28.5757 44.3972 30Z" fill="black"/>
<path d="M44.5554 30H30.6328C31.2967 28.577 33.0369 24.7831 33.1336 23.9057C33.1708 23.5661 33.5302 23.2475 34.006 22.977C34.1562 22.8904 34.3108 22.8117 34.4693 22.7414L34.498 22.7282C34.5851 22.6896 34.6734 22.6538 34.7627 22.6209C35.9669 22.1769 37.2902 22.1874 38.4874 22.6505C39.6303 23.0882 41.1012 23.678 42.246 24.2302L42.2552 24.2348C42.5493 24.377 42.823 24.5159 43.0642 24.6495C43.5464 24.9161 43.8986 25.1596 44.0339 25.3544C44.096 25.4439 44.1646 25.8474 44.2397 26.4734C44.3404 27.3198 44.4488 28.5763 44.5554 30Z" fill="#3840F1"/>
<path opacity="0.1" d="M42.3177 22.818C42.3177 23.0189 42.3123 23.2199 42.3014 23.4212C42.2953 23.5192 42.2879 23.6172 42.2792 23.7152C42.2733 23.7858 42.2661 23.8557 42.2589 23.9256L42.2498 24.0067C42.1432 24.9568 41.9466 25.9017 41.923 26.8564C41.923 26.9015 41.923 26.9466 41.923 26.9917C41.9185 27.8882 42.0635 28.771 42.2602 29.6499H34.2423C34.2293 29.4872 34.2227 29.3232 34.2247 29.1618C34.2247 29.0161 34.2338 28.8703 34.2489 28.724C34.3724 27.521 34.9873 26.395 35.0801 25.1999L35.084 25.145C35.0899 25.0555 35.0931 24.9653 35.0918 24.8751C35.0918 24.8673 35.0918 24.8594 35.0918 24.8509C35.0817 24.4558 35.0208 24.0635 34.9108 23.6839C34.9056 23.6649 34.9004 23.646 34.8951 23.627C34.7831 23.2504 34.6522 22.8796 34.5031 22.5161L34.4743 22.4436C34.2567 21.8999 34.028 21.3608 33.8731 20.8204C33.75 20.418 33.6864 19.9997 33.6843 19.5788C33.6843 19.5037 33.6889 19.4286 33.6947 19.3534C33.7 19.292 33.7072 19.2306 33.7163 19.1685C33.7306 19.0715 33.7498 18.9753 33.7738 18.8803C33.9045 18.3654 34.1835 17.8825 34.4508 17.4041C34.7481 16.8716 35.0317 16.3449 35.0827 15.7849C35.0891 15.7141 35.0915 15.6429 35.0899 15.5719C35.0878 15.4803 35.0791 15.389 35.0637 15.2987C34.9951 14.9014 34.7906 14.544 34.6226 14.1774C34.6057 14.1401 34.5887 14.1029 34.5723 14.065C34.5723 14.0591 34.5671 14.0532 34.5651 14.0473C34.2384 13.2926 34.0489 12.4875 33.8496 11.6864C33.8411 11.6518 33.8326 11.6171 33.8235 11.5832C33.7745 11.3871 33.7241 11.1911 33.6706 10.9951C33.3778 9.926 32.9609 8.84584 32.1676 8.07411C31.3743 7.30237 30.1092 6.91161 29.116 7.40301C28.2567 7.83102 27.7914 8.78899 27.5817 9.72474C27.3719 10.6605 27.3549 11.6374 27.0824 12.5575C27.0628 12.6246 27.0411 12.6914 27.0171 12.7581C27.0053 12.7921 26.9936 12.8234 26.9818 12.8607C26.8648 13.1939 26.7204 13.5239 26.5649 13.852L26.5486 13.8866C26.0519 14.9432 25.4749 15.9816 25.4566 17.0434V17.0572C25.4566 17.0859 25.4566 17.114 25.4566 17.1428C25.46 17.3951 25.4983 17.6458 25.5704 17.8877C25.701 18.3229 25.9376 18.7026 26.2133 19.0639C26.2678 19.1349 26.3236 19.2053 26.3806 19.275C26.6551 19.6122 26.9531 19.9389 27.2138 20.2865L27.2223 20.2977C27.4205 20.5544 27.5879 20.8336 27.7209 21.1295C27.8785 21.5001 27.9608 21.8984 27.9631 22.3011C27.9653 22.7039 27.8874 23.1031 27.7339 23.4754C27.6599 23.6475 27.575 23.8147 27.4797 23.976C27.3118 24.2661 27.1269 24.5484 26.9812 24.8503C26.9321 24.9516 26.8884 25.0548 26.8505 25.1594C26.5237 26.001 26.4532 26.9322 26.1866 27.8006C25.9801 28.4674 25.6588 29.093 25.2371 29.6493H16.7422C16.8409 29.1664 17.3303 26.774 17.4074 26.2369C17.4538 25.9102 17.9955 24.734 18.8731 23.7126C18.7993 23.7708 18.728 23.8296 18.6594 23.8884C18.106 24.36 17.6265 24.912 17.2369 25.526C17.2558 25.4671 17.2754 25.4077 17.295 25.3489C17.4146 24.9921 17.544 24.6386 17.6753 24.2896C18.0556 23.2846 18.4791 22.2593 19.2371 21.4974C19.6651 21.0674 20.1859 20.7361 20.5936 20.2872C21.3124 19.4972 21.6098 18.4026 21.6013 17.3297C21.6013 17.2186 21.5967 17.1081 21.5895 16.9977C21.5117 15.8215 21.1099 14.6956 20.6747 13.5997C20.4407 13.0116 20.1924 12.3934 20.2035 11.7701C20.2042 11.6826 20.2106 11.5953 20.2225 11.5087C20.4022 10.2168 21.7091 9.4431 22.4939 8.40083C23.661 6.85018 23.7459 4.54544 25.2769 3.35485C26.4532 2.44001 28.0868 2.49621 29.5721 2.59553C30.9535 2.68832 32.2003 2.86802 33.5712 3.06014C34.9422 3.25226 36.3334 3.61296 37.4332 4.45788C38.1435 5.00286 38.6976 5.72493 39.1896 6.47314C39.8483 7.47554 40.424 8.58249 40.5031 9.77897C40.509 9.86457 40.5122 9.94952 40.5122 10.0338C40.5259 11.4322 39.9189 12.7875 39.8385 14.1918C39.8352 14.2571 39.8326 14.3225 39.832 14.3878C39.8316 14.3913 39.8316 14.3948 39.832 14.3983C39.8176 15.6156 40.2848 16.8938 40.9206 17.9269C41.824 19.3992 42.3071 21.0907 42.3177 22.818Z" fill="black"/>
<path d="M42.314 22.818C42.314 22.9905 42.3075 23.1637 42.2977 23.3356C42.2916 23.4336 42.2842 23.5316 42.2754 23.6296C42.2667 23.7276 42.2569 23.8248 42.246 23.9211C42.1395 24.8712 41.9428 25.8161 41.9193 26.7708C41.9193 26.844 41.9193 26.9178 41.9193 26.991C41.9239 27.8869 42.0755 28.7704 42.2754 29.6492H34.2458C34.2307 29.4865 34.2216 29.3225 34.2203 29.1611C34.2186 28.9865 34.2266 28.812 34.2445 28.6384C34.368 27.4353 34.9829 26.3094 35.0757 25.1143C35.0822 25.0267 35.0868 24.9391 35.0874 24.8529C35.0874 24.8326 35.0874 24.8117 35.0874 24.7915C35.0791 24.3685 35.0133 23.9486 34.892 23.5434C34.78 23.1667 34.6491 22.796 34.5 22.4325C34.2739 21.8646 34.0314 21.3007 33.8694 20.7335C33.7552 20.3574 33.6917 19.9678 33.6805 19.5749C33.6787 19.4711 33.6822 19.3673 33.691 19.2639C33.6962 19.2025 33.7034 19.141 33.7125 19.079C33.7268 18.982 33.746 18.8858 33.7701 18.7908C33.9007 18.2759 34.1798 17.793 34.447 17.3146C34.745 16.7814 35.0299 16.2534 35.0802 15.6927C35.0842 15.6503 35.0861 15.6071 35.0874 15.5621C35.0905 15.4419 35.0818 15.3217 35.0613 15.2033C34.9927 14.806 34.7881 14.4486 34.6202 14.082C34.6032 14.0447 34.5862 14.0075 34.5699 13.9696C34.2386 13.2103 34.0471 12.4013 33.8472 11.591C33.7897 11.3597 33.7308 11.1284 33.6688 10.899C33.376 9.82995 32.9591 8.74979 32.1658 7.97806C31.3725 7.20632 30.1094 6.8234 29.1168 7.31741C28.2575 7.74543 27.7922 8.70339 27.5825 9.63914C27.3727 10.5749 27.3557 11.5518 27.0832 12.4719C27.0532 12.5732 27.0179 12.6744 26.9846 12.7751C26.863 13.1194 26.7114 13.4612 26.552 13.801C26.0416 14.8851 25.4476 15.9515 25.46 17.0434V17.0572C25.4634 17.3095 25.5017 17.5602 25.5737 17.8021C25.7044 18.2373 25.941 18.617 26.2167 18.9783C26.2712 19.0493 26.327 19.1197 26.384 19.1894C26.6617 19.5305 26.963 19.8605 27.2257 20.212C27.4239 20.4688 27.5913 20.748 27.7243 21.0439C27.8819 21.4145 27.9642 21.8128 27.9665 22.2155C27.9687 22.6183 27.8908 23.0174 27.7373 23.3898C27.6633 23.5619 27.5784 23.7291 27.4831 23.8903C27.3152 24.1805 27.1303 24.4628 26.9846 24.7647C26.9355 24.866 26.8918 24.9692 26.8539 25.0738C26.5271 25.9154 26.4566 26.8466 26.19 27.715C25.9726 28.4161 25.6286 29.0714 25.1751 29.6486H16.7188C16.7188 29.6486 17.316 26.7486 17.401 26.1513C17.4434 25.8527 17.9015 24.8444 18.653 23.8884C18.7183 23.8008 18.7928 23.7133 18.8667 23.627C18.2522 24.1127 17.7196 24.6938 17.2892 25.3482L17.2311 25.4397C17.367 25.0221 17.5166 24.6098 17.6702 24.2034C18.0505 23.1983 18.4739 22.1731 19.2319 21.4111C19.66 20.9812 20.1808 20.6499 20.5885 20.2009C21.2864 19.4318 21.5883 18.3713 21.5962 17.3257C21.5962 17.1859 21.5962 17.0467 21.5844 16.9082C21.5066 15.732 21.1048 14.6061 20.6695 13.5102C20.4467 12.9469 20.2121 12.3601 20.1984 11.7629C20.1954 11.6478 20.2017 11.5326 20.2174 11.4185C20.3977 10.1338 21.7046 9.36338 22.4894 8.31785C23.6565 6.7672 23.7414 4.46247 25.2725 3.27187C26.4487 2.35703 28.0824 2.41323 29.5677 2.51256C30.9491 2.60535 32.1959 2.78505 33.5668 2.97716C34.9378 3.16928 36.3309 3.52933 37.4294 4.37164C38.1397 4.91988 38.6938 5.63869 39.1859 6.38755C39.8446 7.38995 40.4203 8.4969 40.4993 9.69338C40.5072 9.80708 40.5102 9.92056 40.5085 10.0338C40.4974 11.4015 39.9132 12.7306 39.8348 14.1068C39.8296 14.1996 39.8269 14.2917 39.8282 14.3852C39.8278 14.3887 39.8278 14.3922 39.8282 14.3956C39.8361 15.5875 40.2961 16.8304 40.9169 17.8374C41.8361 19.3357 42.3198 21.0603 42.314 22.818Z" fill="#463A3E"/>
</svg>
