<svg width="342" height="276" viewBox="0 0 342 276" fill="none" xmlns="http://www.w3.org/2000/svg">
<path d="M30.2182 210.779C29.6901 207.501 29.5805 202.656 30.4376 195.497C23.7876 191.811 23.7105 185.491 30.9535 183.118C28.9467 177.503 24.7585 159.536 44.4931 164.405C45.7606 164.715 47.0605 164.688 48.2873 164.233C57.6103 160.779 82.0409 154.552 112.333 152.967C178.671 149.489 272.497 153.11 293.333 151.52C293.333 151.52 303.423 152.837 303.943 174.433C304.459 195.942 305.231 204.39 303.96 207.056" fill="#F5D539"/>
<path d="M300.271 140.791C300.909 137.049 301.153 131.875 301.035 124.392C300.454 93.3183 293.077 96.4757 293.077 96.4757L31.7339 108.062C21.1232 113.329 28.6303 125.968 26.8186 129.13C25.3683 131.657 22.2647 129.803 20.4164 134.49C19.1611 137.675 19.543 141.315 21.1273 144.343C25.153 152.044 31.7339 149.934 31.7339 149.934C31.7339 149.934 31.3886 152.007 31.9858 154.617L300.271 140.791Z" fill="#026838"/>
<path d="M296.183 84.3607C300.818 79.1725 302.13 69.3431 300.127 57.5155C299.717 55.0906 297.629 53.5884 295.224 53.3705C263.579 50.5237 56.719 60.5617 53.5058 60.659C53.4611 60.659 53.4733 60.659 53.4326 60.659C52.543 60.5848 35.8998 59.3052 27.0887 69.4915C24.9398 71.9767 23.8714 75.2315 23.8145 78.5419C23.7211 83.8924 23.9323 93.2859 26.1097 100.143L296.183 84.3607Z" fill="#385CA7"/>
<path d="M296.182 84.3606L26.1094 100.143C27.3037 103.903 29.0708 106.922 31.7356 108.062C45.1899 108.062 294.172 96.4479 294.172 96.4479C294.172 96.4479 291.007 90.1562 296.182 84.3606Z" fill="#344797"/>
<path d="M303.936 207.023L30.2233 210.783L30.207 210.746C31.2754 217.353 34.05 217.585 34.05 217.585C34.05 217.585 287.634 218.638 293.326 217.585C299.017 216.533 302.64 209.685 303.936 207.051C303.94 207.042 303.948 207.028 303.952 207.019H303.936V207.023Z" fill="#EF9729"/>
<path d="M31.9883 154.622C32.8576 158.428 35.7459 163.38 44.7561 164.743C45.8894 164.915 47.0391 164.766 48.1399 164.446C68.8129 158.516 120.489 156.523 120.489 156.523C120.489 156.523 286.093 153.101 293.34 151.52C296.931 149.359 299.181 147.189 300.274 140.796L31.9883 154.622Z" fill="#104928"/>
<path d="M160.773 184.657C160.773 184.657 161.423 224.475 203.399 198.807L210.634 196.48L214.294 193.485L211.426 184.657L201.4 161.317L202.692 152.674C203.017 150.5 202.046 148.339 200.214 147.176C194.291 143.406 180.321 137.281 165.587 150.616C164.6 151.511 164.076 152.841 164.186 154.181C164.763 161.224 165.949 165.601 165.949 165.601L160.773 184.657Z" fill="#344797"/>
<path d="M165.086 192.724C165.18 192.622 165.285 192.53 165.399 192.451L171.046 188.542C171.046 188.542 175.019 186.688 173.479 182.501C173.438 182.394 173.41 182.288 173.394 182.176C172.561 176.585 170.725 167.474 170.396 165.851C170.359 165.68 170.306 165.531 170.225 165.374C169.847 164.655 168.661 162.365 168.019 160.784C167.666 159.912 166.732 159.425 165.85 159.713C164.42 160.181 162.43 161.6 160.269 164.433C160.195 164.525 160.126 164.637 160.074 164.743C156.816 170.984 158.225 173.418 159.05 174.211C159.346 174.494 159.541 174.865 159.598 175.273L161.995 191.755C162.214 193.276 164.067 193.856 165.086 192.724Z" fill="#B03023"/>
<path d="M160.157 164.581C160.157 164.581 155.75 169.338 157.086 178.857C152.142 184.703 145.33 203.736 144.262 207.951C141.857 211.757 139.054 218.791 138.562 221.818C137.347 224.503 137.25 228.003 137.25 228.003L158.065 243.387C158.065 243.387 193.062 232.964 193.598 233.145C194.134 233.326 207.58 225.648 207.58 225.648L214.003 213.116L208.917 200.245L201.17 190.819C201.17 190.819 191.108 188.644 170.626 193.086C166.62 194.718 164.305 192.182 164.215 190.819C164.126 189.46 163.594 173.872 162.79 170.608C161.985 167.344 160.157 164.581 160.157 164.581Z" fill="#D43C27"/>
<path d="M173.013 199.109C173.475 199.109 173.849 198.729 173.849 198.26C173.849 197.792 173.475 197.412 173.013 197.412C172.55 197.412 172.176 197.792 172.176 198.26C172.176 198.729 172.55 199.109 173.013 199.109Z" fill="#010202"/>
<path d="M180.227 196.795C180.69 196.795 181.064 196.415 181.064 195.947C181.064 195.478 180.69 195.098 180.227 195.098C179.765 195.098 179.391 195.478 179.391 195.947C179.391 196.415 179.765 196.795 180.227 196.795Z" fill="#010202"/>
<path d="M180.513 200.588C180.975 200.588 181.349 200.208 181.349 199.739C181.349 199.271 180.975 198.891 180.513 198.891C180.05 198.891 179.676 199.271 179.676 199.739C179.676 200.208 180.05 200.588 180.513 200.588Z" fill="#010202"/>
<path d="M187.626 195.386C188.088 195.386 188.463 195.006 188.463 194.537C188.463 194.069 188.088 193.689 187.626 193.689C187.164 193.689 186.789 194.069 186.789 194.537C186.789 195.006 187.164 195.386 187.626 195.386Z" fill="#010202"/>
<path d="M188.056 199.16C188.518 199.16 188.892 198.78 188.892 198.311C188.892 197.843 188.518 197.463 188.056 197.463C187.593 197.463 187.219 197.843 187.219 198.311C187.219 198.78 187.593 199.16 188.056 199.16Z" fill="#010202"/>
<path d="M188.591 202.424C189.053 202.424 189.428 202.044 189.428 201.575C189.428 201.107 189.053 200.727 188.591 200.727C188.129 200.727 187.754 201.107 187.754 201.575C187.754 202.044 188.129 202.424 188.591 202.424Z" fill="#010202"/>
<path d="M195.001 194.774C195.463 194.774 195.838 194.394 195.838 193.925C195.838 193.457 195.463 193.077 195.001 193.077C194.539 193.077 194.164 193.457 194.164 193.925C194.164 194.394 194.539 194.774 195.001 194.774Z" fill="#010202"/>
<path d="M195.47 198.682C195.932 198.682 196.306 198.302 196.306 197.834C196.306 197.365 195.932 196.985 195.47 196.985C195.007 196.985 194.633 197.365 194.633 197.834C194.633 198.302 195.007 198.682 195.47 198.682Z" fill="#010202"/>
<path d="M196.306 201.946C196.768 201.946 197.142 201.566 197.142 201.098C197.142 200.629 196.768 200.249 196.306 200.249C195.843 200.249 195.469 200.629 195.469 201.098C195.469 201.566 195.843 201.946 196.306 201.946Z" fill="#010202"/>
<path d="M197.138 204.969C197.6 204.969 197.974 204.589 197.974 204.121C197.974 203.652 197.6 203.272 197.138 203.272C196.675 203.272 196.301 203.652 196.301 204.121C196.301 204.589 196.675 204.969 197.138 204.969Z" fill="#010202"/>
<path d="M173.441 186.127C173.441 186.127 190.962 171.545 207.053 187.23C199.728 178.37 192.863 169.38 173.705 183.261C173.315 185.107 173.441 186.127 173.441 186.127Z" fill="#282828"/>
<path d="M167.3 186.637C167.3 186.637 182.659 171.41 199.489 175.3C200.155 171.985 197.454 170.219 197.454 170.219C197.454 170.219 180.624 165.425 166.95 182.983C166.365 185.38 167.3 186.637 167.3 186.637Z" fill="#282828"/>
<path d="M166.5 176.473C166.5 176.473 181.827 157.849 195.468 164.581C197.223 161.521 187.437 147.927 165.947 171.243C165.565 176.473 166.5 176.473 166.5 176.473Z" fill="#282828"/>
<path d="M209.412 189.576L203.404 183.614C203.404 183.614 199.808 180.401 198.797 175.532C198.639 174.776 198.33 174.053 197.932 173.395C196.161 170.455 195.559 168.406 195.076 163.185C195.076 163.185 193.683 155.47 196.624 154.654C198.366 154.172 200.844 157.204 202.234 160.023C203.188 161.961 203.404 163.964 203.404 163.964L208.693 178.699L212.523 189.576H209.412Z" fill="#B03023"/>
<path d="M202.662 173.075C202.662 173.075 191.982 160.102 172.195 175.152C170.911 173.891 171.711 172.556 171.711 172.556C171.711 172.556 184.942 156.129 201.403 169.667C203.499 172.602 202.662 173.075 202.662 173.075Z" fill="#282828"/>
<path d="M169.943 167.094C169.943 167.094 180.44 144.255 200.687 164.034C201.365 160.635 199.196 157.575 199.196 157.575C199.196 157.575 180.132 142.307 168.875 162.689C169.042 166.032 169.943 167.094 169.943 167.094Z" fill="#282828"/>
<path d="M221.331 201.946C221.331 201.946 216.973 189.891 212.337 182.816C212.147 182.524 211.996 182.227 211.874 181.898C208.669 173.061 202.23 160.023 202.23 160.023L203.701 169.44C203.961 171.104 204.42 172.727 205.078 174.276C206.467 177.563 208.872 183.372 209.112 184.768C209.445 186.739 209.457 192.882 209.457 192.882L211.781 199.739L221.331 201.946Z" fill="#385CA7"/>
<path d="M201.164 190.902C201.164 190.902 202.058 202.479 207.225 210.876C207.452 211.247 207.643 211.646 207.761 212.068C209.983 220.028 207.574 225.731 207.574 225.731C207.574 225.731 224.27 231.958 225.075 231.958C225.879 231.958 226.521 228.402 226.521 228.402C226.521 228.402 228.146 221.081 223.941 209.527C220.667 197.63 217.929 194.37 201.164 190.902Z" fill="#385CA7"/>
<path d="M306.81 183.799C306.81 183.799 306.16 223.617 264.184 197.95L256.949 195.622L253.289 192.627L256.157 183.799L266.183 160.459L264.891 151.817C264.566 149.642 265.537 147.482 267.369 146.318C273.292 142.548 287.262 136.424 301.996 149.758C302.983 150.653 303.507 151.984 303.397 153.324C302.821 160.366 301.634 164.743 301.634 164.743L306.81 183.799Z" fill="#344797"/>
<path d="M302.497 191.867C302.404 191.765 302.298 191.672 302.184 191.593L296.538 187.684C296.538 187.684 292.565 185.83 294.105 181.643C294.145 181.536 294.174 181.43 294.19 181.319C295.023 175.727 296.859 166.616 297.188 164.994C297.224 164.822 297.277 164.669 297.358 164.516C297.736 163.797 298.922 161.507 299.564 159.926C299.918 159.054 300.852 158.567 301.734 158.855C303.163 159.323 305.154 160.742 307.315 163.575C307.388 163.667 307.457 163.779 307.51 163.885C310.768 170.126 309.358 172.56 308.534 173.353C308.237 173.636 308.042 174.007 307.985 174.415L305.589 190.898C305.369 192.418 303.517 192.998 302.497 191.867Z" fill="#B03023"/>
<path d="M307.428 163.723C307.428 163.723 311.835 168.48 310.499 177.999C315.443 183.845 322.255 202.878 323.323 207.093C325.728 210.899 328.531 217.933 329.023 220.96C330.237 223.645 330.335 227.145 330.335 227.145L309.52 242.529C309.52 242.529 274.523 232.106 273.987 232.287C273.451 232.468 260.005 224.79 260.005 224.79L253.582 212.258L258.668 199.387L266.415 189.961C266.415 189.961 276.477 187.786 296.959 192.228C300.965 193.86 303.28 191.324 303.369 189.961C303.459 188.598 303.991 173.015 304.795 169.751C305.6 166.486 307.428 163.723 307.428 163.723Z" fill="#D43C27"/>
<path d="M294.571 198.251C295.033 198.251 295.408 197.871 295.408 197.402C295.408 196.934 295.033 196.554 294.571 196.554C294.109 196.554 293.734 196.934 293.734 197.402C293.734 197.871 294.109 198.251 294.571 198.251Z" fill="#010202"/>
<path d="M287.356 195.942C287.818 195.942 288.193 195.562 288.193 195.093C288.193 194.625 287.818 194.245 287.356 194.245C286.894 194.245 286.52 194.625 286.52 195.093C286.52 195.562 286.894 195.942 287.356 195.942Z" fill="#010202"/>
<path d="M287.071 199.73C287.533 199.73 287.908 199.35 287.908 198.882C287.908 198.413 287.533 198.033 287.071 198.033C286.609 198.033 286.234 198.413 286.234 198.882C286.234 199.35 286.609 199.73 287.071 199.73Z" fill="#010202"/>
<path d="M279.958 194.533C280.42 194.533 280.795 194.153 280.795 193.684C280.795 193.215 280.42 192.836 279.958 192.836C279.496 192.836 279.121 193.215 279.121 193.684C279.121 194.153 279.496 194.533 279.958 194.533Z" fill="#010202"/>
<path d="M279.524 198.302C279.987 198.302 280.361 197.922 280.361 197.453C280.361 196.985 279.987 196.605 279.524 196.605C279.062 196.605 278.688 196.985 278.688 197.453C278.688 197.922 279.062 198.302 279.524 198.302Z" fill="#010202"/>
<path d="M278.993 201.566C279.455 201.566 279.83 201.186 279.83 200.718C279.83 200.249 279.455 199.869 278.993 199.869C278.531 199.869 278.156 200.249 278.156 200.718C278.156 201.186 278.531 201.566 278.993 201.566Z" fill="#010202"/>
<path d="M272.583 193.92C273.045 193.92 273.42 193.541 273.42 193.072C273.42 192.603 273.045 192.224 272.583 192.224C272.121 192.224 271.746 192.603 271.746 193.072C271.746 193.541 272.121 193.92 272.583 193.92Z" fill="#010202"/>
<path d="M272.11 197.829C272.572 197.829 272.947 197.449 272.947 196.981C272.947 196.512 272.572 196.132 272.11 196.132C271.648 196.132 271.273 196.512 271.273 196.981C271.273 197.449 271.648 197.829 272.11 197.829Z" fill="#010202"/>
<path d="M271.278 201.089C271.74 201.089 272.115 200.709 272.115 200.24C272.115 199.771 271.74 199.392 271.278 199.392C270.816 199.392 270.441 199.771 270.441 200.24C270.441 200.709 270.816 201.089 271.278 201.089Z" fill="#010202"/>
<path d="M270.442 204.116C270.904 204.116 271.279 203.736 271.279 203.268C271.279 202.799 270.904 202.419 270.442 202.419C269.98 202.419 269.605 202.799 269.605 203.268C269.605 203.736 269.98 204.116 270.442 204.116Z" fill="#010202"/>
<path d="M294.147 185.269C294.147 185.269 276.626 170.687 260.535 186.372C267.859 177.512 274.725 168.522 293.882 182.403C294.272 184.249 294.147 185.269 294.147 185.269Z" fill="#282828"/>
<path d="M300.28 185.779C300.28 185.779 284.92 170.553 268.09 174.443C267.424 171.128 270.125 169.361 270.125 169.361C270.125 169.361 286.955 164.567 300.629 182.125C301.218 184.522 300.28 185.779 300.28 185.779Z" fill="#282828"/>
<path d="M301.082 175.616C301.082 175.616 285.755 156.991 272.114 163.723C270.359 160.663 280.145 147.069 301.635 170.386C302.017 175.616 301.082 175.616 301.082 175.616Z" fill="#282828"/>
<path d="M258.174 188.718L264.182 182.756C264.182 182.756 267.777 179.543 268.789 174.674C268.947 173.919 269.256 173.195 269.654 172.537C271.425 169.598 272.027 167.548 272.51 162.328C272.51 162.328 273.903 154.612 270.962 153.796C269.22 153.314 266.742 156.346 265.352 159.165C264.398 161.103 264.182 163.106 264.182 163.106L258.893 177.841L255.062 188.718H258.174Z" fill="#B03023"/>
<path d="M264.92 172.217C264.92 172.217 275.6 159.244 295.387 174.294C296.671 173.033 295.871 171.698 295.871 171.698C295.871 171.698 282.64 155.271 266.179 168.809C264.079 171.744 264.92 172.217 264.92 172.217Z" fill="#282828"/>
<path d="M297.644 166.236C297.644 166.236 287.147 143.397 266.901 163.176C266.223 159.777 268.392 156.717 268.392 156.717C268.392 156.717 287.456 141.45 298.713 161.831C298.546 165.174 297.644 166.236 297.644 166.236Z" fill="#282828"/>
<path d="M246.25 201.093C246.25 201.093 250.609 189.038 255.244 181.963C255.435 181.671 255.585 181.374 255.707 181.045C258.912 172.208 265.351 159.17 265.351 159.17L263.88 168.587C263.62 170.251 263.161 171.874 262.503 173.423C261.114 176.71 258.709 182.519 258.469 183.915C258.136 185.886 258.124 192.029 258.124 192.029L255.8 198.886L246.25 201.093Z" fill="#385CA7"/>
<path d="M266.42 190.044C266.42 190.044 265.526 201.622 260.359 210.018C260.131 210.389 259.94 210.788 259.822 211.21C257.6 219.171 260.009 224.874 260.009 224.874C260.009 224.874 243.313 231.1 242.509 231.1C241.705 231.1 241.063 227.544 241.063 227.544C241.063 227.544 239.438 220.223 243.642 208.669C246.917 196.777 249.655 193.513 266.42 190.044Z" fill="#385CA7"/>
<path d="M262.274 228.063C262.067 227.674 261.856 227.284 261.648 226.895" stroke="black" stroke-width="0.5" stroke-miterlimit="10" stroke-linecap="round"/>
<path d="M246.562 201.362C246.517 201.362 246.473 201.343 246.436 201.311C246.347 201.232 246.335 201.084 246.404 200.986L247.159 199.897C247.228 199.795 247.358 199.781 247.444 199.86C247.533 199.939 247.545 200.087 247.476 200.184L246.721 201.274C246.68 201.334 246.619 201.362 246.562 201.362Z" fill="black"/>
<path d="M248.273 198.826C248.216 198.826 248.159 198.798 248.118 198.742C248.045 198.645 248.057 198.497 248.143 198.418L249.231 197.375C249.317 197.291 249.447 197.305 249.52 197.402C249.593 197.5 249.581 197.648 249.495 197.732L248.403 198.775C248.366 198.807 248.321 198.826 248.273 198.826Z" fill="black"/>
<path d="M250.566 196.628C250.497 196.628 250.428 196.587 250.391 196.517C250.335 196.406 250.367 196.267 250.46 196.197L251.594 195.427C251.691 195.362 251.813 195.4 251.874 195.506C251.931 195.617 251.899 195.757 251.805 195.826L250.672 196.596C250.639 196.614 250.603 196.628 250.566 196.628Z" fill="black"/>
<path d="M253.286 194.852C253.209 194.852 253.136 194.801 253.099 194.718C253.055 194.602 253.099 194.463 253.201 194.412L254.42 193.781C254.521 193.73 254.643 193.781 254.688 193.897C254.732 194.013 254.688 194.152 254.586 194.203L253.367 194.834C253.343 194.843 253.315 194.852 253.286 194.852Z" fill="black"/>
<path d="M268.391 190.429C268.286 190.429 268.196 190.336 268.188 190.211C268.18 190.081 268.265 189.975 268.375 189.966L270.11 189.831C270.219 189.817 270.317 189.919 270.325 190.044C270.333 190.174 270.248 190.281 270.138 190.29L268.403 190.425C268.399 190.429 268.395 190.429 268.391 190.429Z" fill="#010202"/>
<path d="M271.645 190.193C271.535 190.193 271.441 190.091 271.441 189.961C271.441 189.831 271.531 189.729 271.645 189.729L273.196 189.711C273.306 189.711 273.399 189.813 273.399 189.942C273.399 190.072 273.31 190.174 273.196 190.174L271.645 190.193C271.649 190.193 271.649 190.193 271.645 190.193Z" fill="#010202"/>
<path d="M275.736 190.142L274.383 190.123C274.269 190.123 274.18 190.017 274.184 189.887C274.184 189.762 274.277 189.66 274.387 189.66C274.387 189.66 274.387 189.66 274.391 189.66L275.744 189.678C275.857 189.678 275.947 189.785 275.943 189.915C275.939 190.04 275.849 190.142 275.736 190.142Z" fill="#010202"/>
<path d="M278.509 190.364C278.505 190.364 278.501 190.364 278.497 190.364L276.945 190.244C276.831 190.234 276.75 190.123 276.754 189.998C276.762 189.868 276.868 189.775 276.969 189.78L278.521 189.901C278.635 189.91 278.716 190.021 278.712 190.146C278.704 190.267 278.615 190.364 278.509 190.364Z" fill="#010202"/>
<path d="M281.061 190.619C281.053 190.619 281.045 190.619 281.037 190.619L279.684 190.448C279.574 190.434 279.493 190.318 279.505 190.193C279.517 190.068 279.619 189.975 279.729 189.989L281.081 190.16C281.191 190.174 281.272 190.29 281.26 190.415C281.248 190.531 281.162 190.619 281.061 190.619Z" fill="#010202"/>
<path d="M283.733 190.837C283.725 190.837 283.717 190.837 283.709 190.837L282.239 190.633C282.129 190.619 282.048 190.503 282.06 190.374C282.072 190.248 282.178 190.156 282.287 190.17L283.758 190.374C283.868 190.388 283.949 190.503 283.937 190.633C283.924 190.754 283.835 190.837 283.733 190.837Z" fill="#010202"/>
<path d="M286.184 191.162C286.176 191.162 286.168 191.162 286.16 191.162L284.974 190.99C284.864 190.976 284.783 190.86 284.799 190.731C284.811 190.601 284.917 190.513 285.026 190.531L286.213 190.703C286.322 190.717 286.403 190.833 286.387 190.962C286.375 191.074 286.286 191.162 286.184 191.162Z" fill="#010202"/>
<path d="M288.792 191.57C288.78 191.57 288.772 191.57 288.76 191.565L287.306 191.31C287.196 191.292 287.119 191.171 287.135 191.046C287.151 190.921 287.261 190.833 287.367 190.851L288.821 191.106C288.931 191.125 289.008 191.245 288.991 191.37C288.975 191.486 288.89 191.57 288.792 191.57Z" fill="#010202"/>
<path d="M291.099 191.941C291.086 191.941 291.074 191.941 291.062 191.936L289.876 191.7C289.766 191.676 289.693 191.556 289.709 191.431C289.73 191.306 289.835 191.217 289.945 191.241L291.131 191.477C291.241 191.5 291.314 191.621 291.298 191.746C291.281 191.862 291.196 191.941 291.099 191.941Z" fill="#010202"/>
<path d="M293.734 192.418C293.721 192.418 293.709 192.418 293.697 192.414L292.377 192.14C292.267 192.117 292.194 191.996 292.214 191.871C292.235 191.746 292.34 191.663 292.45 191.686L293.77 191.959C293.88 191.982 293.953 192.103 293.933 192.228C293.916 192.339 293.831 192.418 293.734 192.418Z" fill="#010202"/>
<path d="M295.971 192.859C295.959 192.859 295.943 192.859 295.931 192.854L294.761 192.58C294.651 192.553 294.578 192.432 294.602 192.307C294.627 192.182 294.732 192.103 294.842 192.126L296.012 192.4C296.122 192.427 296.195 192.548 296.17 192.673C296.15 192.785 296.065 192.859 295.971 192.859Z" fill="#010202"/>
<path d="M298.258 193.489C298.242 193.489 298.225 193.489 298.205 193.48L297.051 193.142C296.942 193.109 296.877 192.984 296.905 192.859C296.934 192.734 297.043 192.659 297.153 192.692L298.307 193.03C298.416 193.063 298.481 193.188 298.453 193.313C298.433 193.42 298.347 193.489 298.258 193.489Z" fill="#010202"/>
<path d="M299.294 193.61C299.188 193.61 299.099 193.517 299.09 193.397C299.082 193.267 299.164 193.156 299.277 193.146L300.614 193.026C300.723 193.007 300.825 193.109 300.833 193.239C300.841 193.369 300.76 193.48 300.646 193.489L299.31 193.61C299.302 193.61 299.298 193.61 299.294 193.61Z" fill="#010202"/>
<path d="M301.629 193.132C301.564 193.132 301.503 193.1 301.463 193.035C301.398 192.928 301.422 192.785 301.511 192.71L302.446 191.964C302.539 191.89 302.665 191.918 302.73 192.02C302.795 192.126 302.771 192.27 302.681 192.344L301.747 193.091C301.71 193.118 301.67 193.132 301.629 193.132Z" fill="#010202"/>
<path d="M303.285 191.737C303.257 191.737 303.224 191.728 303.196 191.714C303.094 191.658 303.054 191.519 303.103 191.403L303.619 190.179C303.667 190.063 303.789 190.017 303.891 190.072C303.992 190.128 304.033 190.267 303.984 190.383L303.468 191.607C303.436 191.69 303.363 191.737 303.285 191.737Z" fill="#010202"/>
<path d="M303.918 189.548C303.804 189.548 303.715 189.446 303.715 189.316V188.125C303.715 187.995 303.804 187.893 303.918 187.893C304.032 187.893 304.121 187.995 304.121 188.125V189.316C304.121 189.442 304.032 189.548 303.918 189.548Z" fill="#010202"/>
<path d="M303.969 187.202C303.965 187.202 303.961 187.202 303.957 187.202C303.843 187.193 303.762 187.086 303.766 186.957L303.831 185.765C303.839 185.635 303.932 185.538 304.046 185.547C304.16 185.556 304.241 185.668 304.237 185.793L304.172 186.984C304.164 187.105 304.074 187.202 303.969 187.202Z" fill="#010202"/>
<path d="M304.051 184.703C304.047 184.703 304.043 184.703 304.039 184.703C303.925 184.694 303.84 184.587 303.848 184.457L303.913 183.113C303.917 182.988 304.003 182.886 304.128 182.895C304.242 182.904 304.328 183.011 304.319 183.141L304.254 184.485C304.25 184.606 304.161 184.703 304.051 184.703Z" fill="#010202"/>
<path d="M304.168 182.357C304.164 182.357 304.16 182.357 304.156 182.357C304.043 182.348 303.957 182.241 303.965 182.111L304.03 180.818C304.038 180.688 304.128 180.586 304.246 180.6C304.359 180.609 304.445 180.716 304.437 180.846L304.372 182.139C304.363 182.264 304.274 182.357 304.168 182.357Z" fill="#010202"/>
<path d="M304.372 180.266C304.364 180.266 304.36 180.266 304.352 180.266C304.238 180.252 304.157 180.141 304.169 180.016L304.271 178.759C304.283 178.629 304.388 178.546 304.49 178.551C304.604 178.565 304.685 178.676 304.673 178.801L304.571 180.057C304.563 180.178 304.474 180.266 304.372 180.266Z" fill="#010202"/>
<path d="M304.555 178.078C304.551 178.078 304.543 178.078 304.539 178.078C304.425 178.068 304.344 177.957 304.352 177.827L304.437 176.534C304.446 176.404 304.547 176.307 304.657 176.32C304.77 176.33 304.852 176.441 304.844 176.571L304.758 177.864C304.75 177.985 304.661 178.078 304.555 178.078Z" fill="#010202"/>
<path d="M304.755 175.797C304.747 175.797 304.739 175.797 304.731 175.797C304.621 175.783 304.54 175.667 304.552 175.542L304.67 174.42C304.682 174.29 304.792 174.202 304.893 174.216C305.003 174.229 305.084 174.345 305.072 174.471L304.954 175.593C304.946 175.713 304.857 175.797 304.755 175.797Z" fill="#010202"/>
<path d="M304.904 173.539C304.895 173.539 304.883 173.539 304.875 173.539C304.765 173.52 304.688 173.404 304.7 173.279L304.835 172.189C304.851 172.064 304.956 171.976 305.062 171.99C305.172 172.009 305.249 172.124 305.237 172.25L305.103 173.339C305.09 173.455 305.005 173.539 304.904 173.539Z" fill="#010202"/>
<path d="M305.141 171.549C305.129 171.549 305.113 171.549 305.101 171.545C304.991 171.517 304.918 171.396 304.942 171.271L305.109 170.335C305.133 170.21 305.239 170.131 305.348 170.154C305.458 170.182 305.527 170.302 305.507 170.427L305.34 171.359C305.32 171.475 305.235 171.549 305.141 171.549Z" fill="#010202"/>
<path d="M305.572 169.598C305.548 169.598 305.523 169.593 305.499 169.579C305.393 169.533 305.345 169.398 305.385 169.278L305.771 168.174C305.812 168.054 305.93 167.998 306.035 168.044C306.141 168.091 306.19 168.225 306.149 168.346L305.763 169.449C305.731 169.542 305.653 169.598 305.572 169.598Z" fill="#010202"/>
<path d="M306.273 167.571C306.241 167.571 306.204 167.562 306.176 167.544C306.078 167.483 306.042 167.34 306.095 167.228L306.631 166.125C306.684 166.014 306.809 165.972 306.907 166.032C307.004 166.092 307.041 166.236 306.988 166.347L306.452 167.451C306.415 167.53 306.346 167.571 306.273 167.571Z" fill="#010202"/>
<path d="M307.175 165.842C307.139 165.842 307.098 165.828 307.066 165.805C306.972 165.735 306.944 165.592 307.005 165.485L307.488 164.618C307.549 164.511 307.675 164.479 307.769 164.548C307.862 164.618 307.89 164.762 307.829 164.868L307.346 165.735C307.31 165.8 307.24 165.842 307.175 165.842Z" fill="#010202"/>
<path d="M256.159 193.615C256.074 193.615 255.997 193.554 255.968 193.457C255.932 193.336 255.988 193.202 256.094 193.165L257.674 192.553C257.78 192.516 257.898 192.576 257.93 192.696C257.967 192.817 257.91 192.947 257.804 192.989L256.224 193.601C256.2 193.61 256.179 193.615 256.159 193.615Z" fill="#010202"/>
<path d="M258.895 192.664C258.81 192.664 258.729 192.599 258.701 192.502C258.668 192.381 258.725 192.251 258.835 192.21L260.394 191.644C260.5 191.607 260.614 191.672 260.65 191.797C260.683 191.917 260.626 192.047 260.516 192.089L258.956 192.655C258.936 192.659 258.916 192.664 258.895 192.664Z" fill="#010202"/>
<path d="M261.897 191.778C261.808 191.778 261.722 191.709 261.702 191.602C261.674 191.477 261.739 191.352 261.848 191.319L263.229 190.911C263.339 190.879 263.449 190.953 263.477 191.078C263.506 191.204 263.441 191.329 263.331 191.361L261.95 191.769C261.934 191.774 261.913 191.778 261.897 191.778Z" fill="#010202"/>
<path d="M264.616 191.12C264.522 191.12 264.441 191.05 264.417 190.944C264.388 190.819 264.457 190.693 264.567 190.666C264.847 190.587 265.16 190.531 265.465 190.48C265.761 190.429 266.062 190.378 266.326 190.304C266.435 190.276 266.545 190.35 266.57 190.476C266.598 190.601 266.529 190.726 266.419 190.754C266.139 190.833 265.826 190.888 265.521 190.939C265.229 190.99 264.924 191.041 264.66 191.115C264.648 191.12 264.632 191.12 264.616 191.12Z" fill="#010202"/>
<path d="M266.693 192.659C266.685 192.659 266.677 192.659 266.665 192.659C266.555 192.641 266.474 192.525 266.49 192.4L266.693 190.638C266.71 190.513 266.811 190.42 266.921 190.439C267.031 190.457 267.112 190.573 267.096 190.698L266.893 192.46C266.88 192.571 266.795 192.659 266.693 192.659Z" fill="#010202"/>
<path d="M266.184 195.719C266.172 195.719 266.156 195.719 266.144 195.715C266.034 195.687 265.961 195.566 265.985 195.441L266.265 193.888C266.29 193.763 266.4 193.679 266.505 193.707C266.615 193.735 266.688 193.856 266.664 193.981L266.383 195.534C266.363 195.645 266.278 195.719 266.184 195.719Z" fill="#010202"/>
<path d="M265.596 198.186C265.58 198.186 265.563 198.186 265.551 198.181C265.442 198.154 265.373 198.028 265.401 197.903L265.677 196.554C265.702 196.429 265.811 196.35 265.921 196.382C266.031 196.41 266.1 196.535 266.071 196.661L265.795 198.01C265.775 198.112 265.689 198.186 265.596 198.186Z" fill="#010202"/>
<path d="M264.919 201.038C264.898 201.038 264.878 201.033 264.858 201.028C264.752 200.991 264.691 200.861 264.724 200.736L265.134 199.206C265.166 199.086 265.28 199.011 265.39 199.053C265.495 199.09 265.556 199.22 265.524 199.345L265.114 200.875C265.089 200.977 265.008 201.038 264.919 201.038Z" fill="#010202"/>
<path d="M264.179 203.356C264.155 203.356 264.13 203.351 264.11 203.342C264.004 203.3 263.952 203.166 263.988 203.045L264.411 201.728C264.447 201.608 264.565 201.548 264.671 201.589C264.776 201.631 264.829 201.765 264.792 201.886L264.37 203.203C264.342 203.3 264.264 203.356 264.179 203.356Z" fill="#010202"/>
<path d="M263.172 205.929C263.148 205.929 263.119 205.924 263.095 205.91C262.989 205.864 262.941 205.725 262.985 205.609L263.497 204.19C263.542 204.07 263.66 204.014 263.761 204.065C263.867 204.112 263.916 204.251 263.871 204.367L263.359 205.785C263.327 205.873 263.253 205.929 263.172 205.929Z" fill="#010202"/>
<path d="M262.151 208.066C262.119 208.066 262.09 208.057 262.062 208.043C261.96 207.988 261.92 207.848 261.972 207.733L262.46 206.62C262.509 206.504 262.635 206.458 262.732 206.518C262.834 206.573 262.874 206.713 262.821 206.828L262.334 207.941C262.297 208.02 262.224 208.066 262.151 208.066Z" fill="#010202"/>
<path d="M260.855 210.454C260.818 210.454 260.782 210.445 260.749 210.417C260.652 210.348 260.623 210.208 260.684 210.097L261.395 208.785C261.452 208.674 261.578 208.641 261.676 208.711C261.773 208.776 261.801 208.919 261.741 209.031L261.03 210.343C260.989 210.417 260.924 210.454 260.855 210.454Z" fill="#010202"/>
<path d="M260.789 225.611C260.704 225.611 260.627 225.551 260.598 225.453L260.16 223.997C260.123 223.877 260.18 223.742 260.285 223.701C260.391 223.659 260.509 223.724 260.545 223.844L260.984 225.3C261.021 225.421 260.964 225.551 260.858 225.592C260.834 225.606 260.814 225.611 260.789 225.611Z" fill="black"/>
<path d="M259.86 222.546C259.763 222.546 259.674 222.463 259.661 222.347L259.483 220.97C259.466 220.844 259.544 220.724 259.653 220.705C259.763 220.687 259.869 220.775 259.885 220.9L260.064 222.277C260.08 222.402 260.003 222.523 259.893 222.541C259.881 222.546 259.869 222.546 259.86 222.546Z" fill="black"/>
<path d="M259.493 219.277C259.383 219.277 259.29 219.175 259.29 219.05L259.273 217.659C259.273 217.529 259.363 217.427 259.472 217.423H259.477C259.586 217.423 259.68 217.525 259.68 217.65L259.696 219.041C259.696 219.171 259.607 219.277 259.493 219.277Z" fill="black"/>
<path d="M259.665 216.115C259.657 216.115 259.648 216.115 259.644 216.115C259.531 216.101 259.453 215.99 259.462 215.86L259.62 214.145C259.632 214.015 259.734 213.922 259.843 213.936C259.957 213.95 260.034 214.061 260.026 214.191L259.868 215.907C259.856 216.027 259.77 216.115 259.665 216.115Z" fill="#010202"/>
<path d="M259.915 213.171C259.894 213.171 259.878 213.167 259.858 213.162C259.748 213.125 259.687 212.995 259.72 212.874L260.138 211.242C260.171 211.122 260.28 211.048 260.39 211.085C260.5 211.122 260.561 211.252 260.528 211.372L260.11 213.004C260.085 213.106 260.004 213.171 259.915 213.171Z" fill="#010202"/>
<path d="M220.779 202.289C220.823 202.289 220.868 202.271 220.905 202.238C220.994 202.159 221.006 202.011 220.937 201.914L220.182 200.824C220.112 200.722 219.982 200.708 219.897 200.787C219.808 200.866 219.796 201.014 219.865 201.112L220.62 202.201C220.661 202.261 220.722 202.289 220.779 202.289Z" fill="black"/>
<path d="M219.069 199.753C219.125 199.753 219.182 199.725 219.223 199.67C219.296 199.572 219.284 199.424 219.199 199.345L218.11 198.302C218.025 198.219 217.895 198.232 217.821 198.33C217.748 198.427 217.761 198.576 217.846 198.659L218.939 199.702C218.975 199.735 219.02 199.753 219.069 199.753Z" fill="black"/>
<path d="M216.774 197.555C216.843 197.555 216.912 197.514 216.948 197.444C217.005 197.333 216.973 197.194 216.879 197.124L215.746 196.355C215.648 196.29 215.527 196.327 215.466 196.433C215.409 196.545 215.441 196.684 215.535 196.753L216.668 197.523C216.701 197.542 216.737 197.555 216.774 197.555Z" fill="black"/>
<path d="M214.055 195.78C214.133 195.78 214.206 195.729 214.242 195.645C214.287 195.529 214.242 195.39 214.141 195.339L212.922 194.709C212.821 194.658 212.699 194.709 212.654 194.825C212.609 194.941 212.654 195.08 212.756 195.131L213.974 195.761C213.999 195.77 214.027 195.78 214.055 195.78Z" fill="black"/>
<path d="M198.954 191.357C199.059 191.357 199.149 191.264 199.157 191.139C199.165 191.009 199.08 190.902 198.97 190.893L197.235 190.758C197.126 190.745 197.028 190.847 197.02 190.972C197.012 191.102 197.097 191.208 197.207 191.217L198.942 191.352C198.946 191.357 198.95 191.357 198.954 191.357Z" fill="#010202"/>
<path d="M195.7 191.12C195.81 191.12 195.903 191.018 195.903 190.888C195.903 190.758 195.814 190.656 195.7 190.656L194.148 190.638C194.039 190.638 193.945 190.74 193.945 190.87C193.945 190.999 194.035 191.101 194.148 191.101L195.7 191.12C195.696 191.12 195.696 191.12 195.7 191.12Z" fill="#010202"/>
<path d="M191.61 191.069L192.962 191.051C193.076 191.051 193.166 190.944 193.161 190.814C193.161 190.689 193.068 190.587 192.958 190.587C192.958 190.587 192.958 190.587 192.954 190.587L191.602 190.605C191.488 190.605 191.398 190.712 191.402 190.842C191.407 190.967 191.496 191.069 191.61 191.069Z" fill="#010202"/>
<path d="M188.836 191.292C188.84 191.292 188.844 191.292 188.848 191.292L190.4 191.171C190.514 191.162 190.595 191.051 190.591 190.925C190.583 190.796 190.477 190.703 190.376 190.707L188.824 190.828C188.71 190.837 188.629 190.949 188.633 191.074C188.641 191.194 188.73 191.292 188.836 191.292Z" fill="#010202"/>
<path d="M186.278 191.547C186.287 191.547 186.295 191.547 186.303 191.547L187.656 191.375C187.765 191.361 187.846 191.245 187.834 191.12C187.822 190.995 187.721 190.902 187.611 190.916L186.258 191.088C186.148 191.102 186.067 191.217 186.079 191.343C186.092 191.459 186.177 191.547 186.278 191.547Z" fill="#010202"/>
<path d="M183.611 191.764C183.619 191.764 183.627 191.764 183.635 191.764L185.106 191.56C185.215 191.547 185.296 191.431 185.284 191.301C185.272 191.176 185.166 191.083 185.057 191.097L183.586 191.301C183.477 191.315 183.395 191.431 183.407 191.56C183.42 191.681 183.509 191.764 183.611 191.764Z" fill="#010202"/>
<path d="M181.154 192.089C181.163 192.089 181.171 192.089 181.179 192.089L182.365 191.918C182.475 191.904 182.556 191.788 182.54 191.658C182.527 191.528 182.422 191.44 182.312 191.459L181.126 191.63C181.016 191.644 180.935 191.76 180.951 191.89C180.963 192.001 181.053 192.089 181.154 192.089Z" fill="#010202"/>
<path d="M178.549 192.497C178.561 192.497 178.569 192.497 178.581 192.492L180.036 192.237C180.145 192.219 180.223 192.098 180.206 191.973C180.19 191.848 180.08 191.76 179.975 191.778L178.52 192.033C178.411 192.052 178.334 192.173 178.35 192.298C178.366 192.414 178.451 192.497 178.549 192.497Z" fill="#010202"/>
<path d="M176.244 192.868C176.256 192.868 176.269 192.868 176.281 192.863L177.467 192.627C177.577 192.604 177.65 192.483 177.634 192.358C177.613 192.233 177.508 192.145 177.398 192.168L176.212 192.404C176.102 192.428 176.029 192.548 176.045 192.673C176.061 192.789 176.147 192.868 176.244 192.868Z" fill="#010202"/>
<path d="M173.609 193.346C173.621 193.346 173.633 193.346 173.645 193.341L174.965 193.067C175.075 193.044 175.148 192.924 175.128 192.798C175.108 192.673 175.002 192.59 174.892 192.613L173.572 192.887C173.462 192.91 173.389 193.03 173.41 193.155C173.426 193.267 173.511 193.346 173.609 193.346Z" fill="#010202"/>
<path d="M171.372 193.786C171.384 193.786 171.4 193.786 171.412 193.781L172.582 193.508C172.692 193.48 172.765 193.359 172.741 193.234C172.716 193.109 172.611 193.03 172.501 193.053L171.331 193.327C171.221 193.355 171.148 193.475 171.173 193.601C171.193 193.712 171.278 193.786 171.372 193.786Z" fill="#010202"/>
<path d="M169.084 194.417C169.101 194.417 169.117 194.417 169.137 194.407L170.291 194.069C170.401 194.036 170.466 193.911 170.437 193.786C170.409 193.661 170.299 193.587 170.189 193.619L169.036 193.958C168.926 193.99 168.861 194.115 168.889 194.24C168.91 194.347 168.995 194.417 169.084 194.417Z" fill="#010202"/>
<path d="M168.048 194.537C168.154 194.537 168.243 194.444 168.251 194.324C168.259 194.194 168.178 194.083 168.064 194.074L166.728 193.953C166.618 193.934 166.516 194.036 166.508 194.166C166.5 194.296 166.581 194.407 166.695 194.417L168.032 194.537C168.036 194.537 168.044 194.537 168.048 194.537Z" fill="#010202"/>
<path d="M165.712 194.06C165.777 194.06 165.838 194.027 165.878 193.962C165.943 193.856 165.919 193.712 165.83 193.638L164.895 192.891C164.802 192.817 164.676 192.845 164.611 192.947C164.546 193.053 164.57 193.197 164.66 193.271L165.594 194.018C165.631 194.046 165.671 194.06 165.712 194.06Z" fill="#010202"/>
<path d="M164.059 192.664C164.088 192.664 164.12 192.655 164.148 192.641C164.25 192.585 164.291 192.446 164.242 192.33L163.726 191.106C163.677 190.99 163.555 190.944 163.454 191C163.352 191.055 163.312 191.194 163.36 191.31L163.876 192.534C163.909 192.618 163.982 192.664 164.059 192.664Z" fill="#010202"/>
<path d="M163.426 190.476C163.54 190.476 163.629 190.374 163.629 190.244V189.052C163.629 188.922 163.54 188.82 163.426 188.82C163.312 188.82 163.223 188.922 163.223 189.052V190.244C163.223 190.369 163.312 190.476 163.426 190.476Z" fill="#010202"/>
<path d="M163.374 188.13C163.378 188.13 163.382 188.13 163.386 188.13C163.5 188.12 163.581 188.014 163.577 187.884L163.512 186.692C163.504 186.562 163.41 186.465 163.297 186.474C163.183 186.484 163.102 186.595 163.106 186.72L163.171 187.912C163.179 188.032 163.268 188.13 163.374 188.13Z" fill="#010202"/>
<path d="M163.292 185.63C163.296 185.63 163.3 185.63 163.304 185.63C163.418 185.621 163.503 185.515 163.495 185.385L163.43 184.04C163.426 183.915 163.341 183.813 163.215 183.822C163.101 183.832 163.016 183.938 163.024 184.068L163.089 185.413C163.093 185.533 163.182 185.63 163.292 185.63Z" fill="#010202"/>
<path d="M163.171 183.284C163.175 183.284 163.179 183.284 163.183 183.284C163.297 183.275 163.382 183.168 163.374 183.039L163.309 181.745C163.301 181.615 163.212 181.513 163.094 181.527C162.98 181.536 162.895 181.643 162.903 181.773L162.968 183.066C162.976 183.192 163.065 183.284 163.171 183.284Z" fill="#010202"/>
<path d="M162.97 181.193C162.978 181.193 162.982 181.193 162.99 181.193C163.104 181.179 163.185 181.068 163.173 180.943L163.071 179.686C163.059 179.557 162.954 179.473 162.852 179.478C162.738 179.492 162.657 179.603 162.669 179.728L162.771 180.985C162.779 181.105 162.868 181.193 162.97 181.193Z" fill="#010202"/>
<path d="M162.785 179.005C162.789 179.005 162.797 179.005 162.801 179.005C162.915 178.996 162.996 178.884 162.988 178.754L162.903 177.461C162.895 177.331 162.793 177.234 162.684 177.248C162.57 177.257 162.489 177.368 162.497 177.498L162.582 178.792C162.59 178.912 162.679 179.005 162.785 179.005Z" fill="#010202"/>
<path d="M162.588 176.724C162.596 176.724 162.604 176.724 162.612 176.724C162.722 176.71 162.803 176.594 162.791 176.469L162.673 175.347C162.661 175.217 162.551 175.129 162.449 175.143C162.34 175.157 162.259 175.273 162.271 175.398L162.389 176.52C162.397 176.64 162.486 176.724 162.588 176.724Z" fill="#010202"/>
<path d="M162.436 174.466C162.444 174.466 162.456 174.466 162.464 174.466C162.574 174.447 162.651 174.331 162.639 174.206L162.505 173.117C162.489 172.991 162.383 172.903 162.278 172.917C162.168 172.936 162.091 173.052 162.103 173.177L162.237 174.266C162.249 174.382 162.334 174.466 162.436 174.466Z" fill="#010202"/>
<path d="M162.201 172.477C162.213 172.477 162.23 172.477 162.242 172.472C162.351 172.444 162.425 172.324 162.4 172.199L162.234 171.262C162.209 171.137 162.104 171.058 161.994 171.081C161.884 171.109 161.815 171.23 161.836 171.355L162.002 172.287C162.022 172.403 162.108 172.477 162.201 172.477Z" fill="#010202"/>
<path d="M161.771 170.525C161.795 170.525 161.82 170.52 161.844 170.506C161.95 170.46 161.998 170.325 161.958 170.205L161.572 169.101C161.531 168.981 161.413 168.925 161.308 168.972C161.202 169.018 161.153 169.152 161.194 169.273L161.58 170.376C161.612 170.469 161.69 170.525 161.771 170.525Z" fill="#010202"/>
<path d="M161.067 168.499C161.1 168.499 161.136 168.489 161.165 168.471C161.262 168.411 161.299 168.267 161.246 168.156L160.71 167.052C160.657 166.941 160.531 166.899 160.434 166.959C160.336 167.02 160.3 167.163 160.352 167.275L160.889 168.378C160.925 168.457 160.994 168.499 161.067 168.499Z" fill="#010202"/>
<path d="M160.167 166.769C160.203 166.769 160.244 166.755 160.276 166.732C160.37 166.663 160.398 166.519 160.337 166.412L159.854 165.545C159.793 165.439 159.667 165.406 159.574 165.476C159.48 165.545 159.452 165.689 159.513 165.796L159.996 166.663C160.033 166.728 160.098 166.769 160.167 166.769Z" fill="#010202"/>
<path d="M211.185 194.542C211.27 194.542 211.347 194.481 211.376 194.384C211.412 194.264 211.355 194.129 211.25 194.092L209.669 193.48C209.564 193.443 209.446 193.503 209.413 193.624C209.377 193.744 209.434 193.874 209.539 193.916L211.12 194.528C211.144 194.537 211.164 194.542 211.185 194.542Z" fill="#010202"/>
<path d="M208.448 193.591C208.533 193.591 208.614 193.526 208.643 193.429C208.675 193.308 208.618 193.179 208.509 193.137L206.949 192.571C206.843 192.534 206.729 192.599 206.693 192.724C206.66 192.845 206.717 192.975 206.827 193.016L208.387 193.582C208.407 193.587 208.427 193.591 208.448 193.591Z" fill="#010202"/>
<path d="M205.446 192.706C205.536 192.706 205.621 192.636 205.641 192.53C205.67 192.404 205.605 192.279 205.495 192.247L204.114 191.839C204.004 191.806 203.894 191.88 203.866 192.006C203.838 192.131 203.903 192.256 204.012 192.288L205.393 192.696C205.41 192.701 205.43 192.706 205.446 192.706Z" fill="#010202"/>
<path d="M202.726 192.047C202.819 192.047 202.901 191.978 202.925 191.871C202.953 191.746 202.884 191.621 202.775 191.593C202.494 191.514 202.182 191.458 201.877 191.407C201.58 191.356 201.28 191.305 201.016 191.231C200.906 191.203 200.796 191.278 200.772 191.403C200.744 191.528 200.813 191.653 200.922 191.681C201.203 191.76 201.515 191.815 201.82 191.866C202.113 191.917 202.417 191.968 202.681 192.043C202.693 192.047 202.71 192.047 202.726 192.047Z" fill="#010202"/>
<path d="M200.646 193.587C200.655 193.587 200.663 193.587 200.675 193.587C200.785 193.568 200.866 193.452 200.85 193.327L200.646 191.565C200.63 191.44 200.529 191.347 200.419 191.366C200.309 191.384 200.228 191.5 200.244 191.625L200.447 193.387C200.46 193.499 200.545 193.587 200.646 193.587Z" fill="#010202"/>
<path d="M201.16 196.647C201.172 196.647 201.188 196.647 201.2 196.642C201.31 196.614 201.383 196.494 201.359 196.369L201.079 194.815C201.054 194.69 200.945 194.607 200.839 194.635C200.729 194.662 200.656 194.783 200.68 194.908L200.961 196.461C200.981 196.573 201.066 196.647 201.16 196.647Z" fill="#010202"/>
<path d="M201.747 199.113C201.764 199.113 201.78 199.113 201.792 199.109C201.902 199.081 201.971 198.956 201.942 198.831L201.666 197.481C201.642 197.356 201.532 197.277 201.422 197.31C201.313 197.338 201.244 197.463 201.272 197.588L201.548 198.937C201.569 199.039 201.654 199.113 201.747 199.113Z" fill="#010202"/>
<path d="M202.423 201.965C202.443 201.965 202.463 201.96 202.484 201.956C202.589 201.918 202.65 201.789 202.618 201.663L202.207 200.133C202.175 200.013 202.061 199.939 201.951 199.98C201.846 200.017 201.785 200.147 201.817 200.272L202.228 201.803C202.252 201.905 202.333 201.965 202.423 201.965Z" fill="#010202"/>
<path d="M203.16 204.283C203.185 204.283 203.209 204.278 203.229 204.269C203.335 204.227 203.388 204.093 203.351 203.972L202.929 202.656C202.892 202.535 202.774 202.475 202.669 202.516C202.563 202.558 202.51 202.693 202.547 202.813L202.969 204.13C202.998 204.227 203.075 204.283 203.16 204.283Z" fill="#010202"/>
<path d="M204.168 206.856C204.193 206.856 204.221 206.852 204.246 206.838C204.351 206.791 204.4 206.652 204.355 206.536L203.843 205.118C203.799 204.997 203.681 204.941 203.579 204.992C203.474 205.039 203.425 205.178 203.47 205.294L203.982 206.713C204.014 206.801 204.087 206.856 204.168 206.856Z" fill="#010202"/>
<path d="M205.193 208.994C205.226 208.994 205.254 208.984 205.283 208.97C205.384 208.915 205.425 208.776 205.372 208.66L204.885 207.547C204.836 207.431 204.71 207.385 204.613 207.445C204.511 207.501 204.47 207.64 204.523 207.756L205.011 208.868C205.047 208.947 205.12 208.994 205.193 208.994Z" fill="#010202"/>
<path d="M206.488 211.381C206.524 211.381 206.561 211.372 206.594 211.344C206.691 211.275 206.719 211.136 206.659 211.024L205.948 209.712C205.891 209.601 205.765 209.569 205.667 209.638C205.57 209.703 205.541 209.847 205.602 209.958L206.313 211.27C206.354 211.344 206.419 211.381 206.488 211.381Z" fill="#010202"/>
<path d="M206.554 226.538C206.639 226.538 206.716 226.478 206.745 226.38L207.183 224.925C207.22 224.804 207.163 224.67 207.057 224.628C206.952 224.586 206.834 224.651 206.797 224.772L206.359 226.227C206.322 226.348 206.379 226.478 206.485 226.52C206.509 226.533 206.529 226.538 206.554 226.538Z" fill="black"/>
<path d="M207.483 223.473C207.58 223.473 207.669 223.39 207.682 223.274L207.86 221.897C207.877 221.772 207.799 221.651 207.69 221.633C207.58 221.614 207.474 221.702 207.458 221.827L207.28 223.204C207.263 223.33 207.34 223.45 207.45 223.469C207.462 223.473 207.474 223.473 207.483 223.473Z" fill="black"/>
<path d="M207.852 220.205C207.961 220.205 208.055 220.103 208.055 219.978L208.071 218.587C208.071 218.457 207.982 218.355 207.872 218.35H207.868C207.758 218.35 207.665 218.452 207.665 218.577L207.648 219.968C207.648 220.098 207.738 220.205 207.852 220.205C207.847 220.205 207.852 220.205 207.852 220.205Z" fill="black"/>
<path d="M207.679 217.043C207.687 217.043 207.695 217.043 207.699 217.043C207.813 217.029 207.89 216.917 207.882 216.788L207.723 215.072C207.711 214.942 207.609 214.85 207.5 214.863C207.386 214.877 207.309 214.989 207.317 215.118L207.475 216.834C207.488 216.954 207.573 217.043 207.679 217.043Z" fill="#010202"/>
<path d="M207.427 214.098C207.447 214.098 207.463 214.094 207.484 214.089C207.593 214.052 207.654 213.922 207.622 213.802L207.203 212.17C207.171 212.049 207.061 211.975 206.952 212.012C206.842 212.049 206.781 212.179 206.813 212.3L207.232 213.932C207.256 214.034 207.337 214.098 207.427 214.098Z" fill="#010202"/>
<path d="M329.019 220.956C329.019 220.956 336.677 235.639 294.112 227.118C266.505 221.137 252.08 226.394 252.08 226.394C252.08 226.394 243.175 228.026 241.217 227.484C239.259 226.941 234.583 236.321 233.958 239.766C233.336 243.211 234.36 245.339 238.231 246.744C242.103 248.149 259.538 250.323 270.758 248.149C277.034 249.442 298.008 252.637 302.615 247.467C306.888 248.283 314.168 248.01 314.168 248.01C314.168 248.01 330.998 251 332.334 240.531C334.609 228.907 329.019 220.956 329.019 220.956Z" fill="#CFCBC9"/>
<path d="M138.561 221.813C138.561 221.813 130.904 236.497 173.468 227.975C201.076 221.994 215.501 227.252 215.501 227.252C215.501 227.252 224.405 228.884 226.363 228.342C228.321 227.799 232.997 237.179 233.623 240.624C234.244 244.069 233.22 246.197 229.349 247.602C225.474 249.006 208.042 251.181 196.822 249.006C190.546 250.3 169.572 253.495 164.966 248.325C160.692 249.141 153.413 248.867 153.413 248.867C153.413 248.867 136.583 251.858 135.246 241.389C132.975 229.765 138.561 221.813 138.561 221.813Z" fill="#CFCBC9"/>
</svg>
