<svg width="12" height="20" viewBox="0 0 12 20" fill="none" xmlns="http://www.w3.org/2000/svg">
<path d="M11.0836 5.08475C11.0836 2.28102 8.80254 0 5.99881 0C3.19508 0 0.914062 2.28102 0.914062 5.08475C0.914062 7.77424 3.01406 9.97661 5.65983 10.1522V19.661C5.65983 19.8485 5.81169 20 5.99881 20C6.18593 20 6.33779 19.8485 6.33779 19.661V10.1522C8.98355 9.97661 11.0836 7.77424 11.0836 5.08475ZM4.30389 5.08475C3.5561 5.08475 2.94796 4.47661 2.94796 3.72881C2.94796 2.98102 3.5561 2.37288 4.30389 2.37288C5.05169 2.37288 5.65983 2.98102 5.65983 3.72881C5.65983 4.47661 5.05169 5.08475 4.30389 5.08475Z" fill="#EB3050"/>
</svg>
